<svg xmlns="http://www.w3.org/2000/svg" viewBox="0 0 855.95 752.18"><defs><style>.\39 3bf93c7-9b09-4179-8ae0-0cb1f951736c{fill:#fff;}</style></defs><title>Asset 7</title><g id="5debb13f-e985-4ecf-be1d-62a1bbce2d77" data-name="Layer 2"><g id="60db9ec4-afcb-4c15-b964-7f40bbeef689" data-name="Layer 1"><path class="93bf93c7-9b09-4179-8ae0-0cb1f951736c" d="M219.36,0c4.5,1.82,9.14,3.52,13.64,5.54,109.35,48.91,205.1,116.46,283,208C570,276.87,609.3,348.24,632.12,428.47c1.29,4.54.62,7.36-2.72,10.84-39.18,40.79-81.58,77.63-130.58,106.31C467.46,564,434.45,578.18,398.33,584.3c-58.19,9.86-108.61-6-153.25-44.14-33.69-28.8-52-65.91-63-107.63-7.6-28.89-11.56-58.35-13.29-88.16-2.27-39.2-.81-78.28,3.27-117.26,8-76.63,24.87-151.51,46.13-225.45C218.3,1.22,218.73.86,219.36,0ZM323.85,350.47c0-6.33,0-11.65,0-17-.06-10.61,1-9.16-9.81-9.51-4.15-.13-5.15,1.61-5.09,5.28.13,8.15,0,16.31,0,24.46,0,15.81-.05,31.63.1,47.44,0,1.72,1.16,4.9,1.87,4.92,4.34.16,9.21,2.29,12.67-2.19,14.4,5.77,26.64,3.76,34.79-5.64,8.62-9.95,10.27-27,3.11-38.87C352.45,344.41,339.13,344.19,323.85,350.47ZM209.51,404c14.57,5.53,26.23,3.78,34.38-5.16,8.64-9.49,10.8-25.72,4.34-37.89-8.71-16.39-22.55-16.9-38.42-10.53,0-5.91.05-11.05,0-16.19-.11-11.32,1.59-9.95-10.64-10.13-3-.05-4.33,1.12-4.26,4.05,0,.66,0,1.33,0,2,0,23.46,0,46.93.07,70.4,0,1.94.55,4.57,1.86,5.66C199,408,207.42,406.1,209.51,404Zm379,2.45c.34-.58.69-1.16,1-1.73l-23.37-31.59L588.28,349c-7.67-3.35-14.22-2.17-18.56,2.7s-8.82,10-13.29,14.94c-1.11,1.22-2.48,2.21-4.66,4.13,0-13.21,0-25,0-36.8,0-11.27,1.08-9.73-10.38-9.95-3.14-.06-4.61,1-4.6,4.24q.08,37,0,74c0,2.78.92,4.16,4.05,4.32,10.94.54,10.93.65,10.93-10.45,0-4.34,0-8.67,0-13a48.32,48.32,0,0,1,.69-4.85c1.78,2.24,2.84,3.44,3.75,4.74,4.55,6.58,9,13.21,13.62,19.73,1,1.42,2.5,3.36,3.9,3.48C578.64,406.66,583.59,406.4,588.51,406.4ZM421.44,376.7c0,1.49-.06,3,0,4.49.71,15.79,10.37,26,25.68,27.12,17.08,1.28,28.67-7.05,31.39-23a50,50,0,0,0,.27-13.44c-1.16-10.92-5.5-20.18-16.81-23.69-12-3.73-23.81-3.44-33.32,6.39C422.75,360.65,421.22,368.47,421.44,376.7ZM259.23,362.18a31.48,31.48,0,0,1,5-1.71c6.44-1.15,12.9-2.56,19.4-2.88,1.88-.09,5,2.79,5.65,4.9,1.11,3.54-2.66,3.8-5.06,4.7-7.14,2.7-14.51,4.93-21.35,8.25-7.17,3.48-9.24,10.24-8.21,17.78,1,7.14,5.25,11.68,12.26,13.51A26.63,26.63,0,0,0,285.37,405c1.44-.67,4.3-1.46,4.53-1.06,2.4,4.18,6.27,2.08,9.48,2.56,3.85.58,4.79-1.36,4.75-4.92-.16-12.83,0-25.67-.1-38.5-.06-8.35-3.55-12.93-11.68-15.19-9.43-2.61-18.81-1.57-28.05,1.13C257.36,351,255.93,354.68,259.23,362.18Zm271.84-1.77c2.19-9.29,1.23-11-7.11-12.88-2.1-.48-4.24-.81-6.38-1.1-17.09-2.32-31.38,8.18-33.92,24.9-2.92,19.18,6.15,33.37,23.67,35.64,5.92.76,12.24-.39,18.21-1.53,6.45-1.23,7.17-3,6.42-9.5-.32-2.81-1.44-3.26-4-2.35a61.69,61.69,0,0,1-11,3.16c-8.44,1.34-15.73-2.71-17.61-10.33a40.62,40.62,0,0,1-1-14.76c1.59-11.81,9.77-17.1,21.51-14.55C523.56,357.91,527.12,359.23,531.07,360.41Zm-112.86,0c2.31-9.43,1.32-11.13-7.31-13-1.95-.43-3.93-.71-5.91-1-17.72-2.47-31.45,8.11-34.19,26.32-2.69,17.83,6.75,31.89,23.79,34.21,5.61.76,11.62-.15,17.26-1.27,7.88-1.55,9.16-4.69,6-12.85-9.94,3.43-20.86,8.77-28.94-2.23-5.89-8-5.75-18.31-.6-26.54C396.1,351.69,407.69,357,418.21,360.45Z"/><path class="93bf93c7-9b09-4179-8ae0-0cb1f951736c" d="M534.34,675.08c5.44-1.77,7.06-.32,7,4.33-.16,22.29-.06,44.58-.09,66.87,0,5.28-1.27,5.89-6.32,3.67-1.15-.5-2.75-.23-4.1,0-3.75.62-7.46,1.92-11.21,2-13.17.33-22-6.62-24.2-19.58a45,45,0,0,1,.15-15.82c3-15.76,16.15-23.5,31.77-19.37,2,.54,4.06,1.17,7,2Zm.29,49.09c0-4.5.54-9.09-.2-13.45-.47-2.73-2.27-6.21-4.52-7.47-10.95-6.12-25,.4-27.2,12.65a47.49,47.49,0,0,0-.14,15.78c2,12.54,15.18,19,26.79,13.71,3.35-1.53,5.26-4,5.26-7.73Q534.62,730.91,534.63,724.17Z"/><path class="93bf93c7-9b09-4179-8ae0-0cb1f951736c" d="M322.2,750.73c-1.34.13-2.63.69-3.23.26-4.37-3.1-8.46-.36-12.59.45-16.47,3.24-28.88-5.85-30.31-22.51a41.44,41.44,0,0,1,.32-10.44c3.07-17.78,17-26.17,34.23-20.84l5,1.55V674.66h6.6Zm-6.36-26.47c0-4.67.39-9.38-.16-14a10.2,10.2,0,0,0-3.54-6.56c-8.79-6.08-23.63-1.33-27.15,8.75a37.26,37.26,0,0,0-2,13.2c.52,15.62,9.1,22.93,23.73,20.83,6.32-.91,9.09-4,9.13-10.26C315.87,732.25,315.85,728.25,315.84,724.26Z"/><path class="93bf93c7-9b09-4179-8ae0-0cb1f951736c" d="M758.94,742.73c1.66,4.49.16,6.76-3.75,7.34-5.23.77-10.53,2-15.75,1.8-15.4-.7-23.35-10.49-23.12-27.75a48,48,0,0,1,.94-9.43c2.87-13.28,12.92-19.92,27.16-18.16,10.62,1.31,18,11.13,17.91,23.55,0,2.94-.93,4.13-4,4.08-9.81-.15-19.64.15-29.46-.13-4.79-.14-5.69,1.89-5,6,2.35,14.09,14.12,20.12,29.34,14.9C755,744.34,756.83,743.55,758.94,742.73Zm-4.42-24.11c.79-10.11-4.7-16.37-14-16.93-8.53-.52-16.22,5.75-16.51,13.74,0,1,1.61,3,2.51,3.06C735.73,718.71,745,718.62,754.52,718.62Z"/><path class="93bf93c7-9b09-4179-8ae0-0cb1f951736c" d="M599,742.72c1.49,4.3.32,7-3.7,7.29-7.36.58-14.87,1.58-22.13.74-7.9-.91-12.86-6.69-15.06-14.27a43.34,43.34,0,0,1,0-24.62c3.45-11.73,15.09-17.89,27.79-15.12,10.31,2.25,17.51,13,16.53,24.26-.29,3.27-2.23,3.12-4.47,3.12-9.65,0-19.31.16-29-.08-4.56-.12-5.89,1.47-5.13,5.9,2.47,14.36,14.31,20.39,29.67,14.92C595.29,744.25,597,743.54,599,742.72Zm-4.44-24.1c.73-10.09-4.49-16.19-13.67-16.9-8.65-.68-16.25,5.32-16.76,13.51-.06,1.08,1.45,3.22,2.27,3.24C575.72,718.7,585,718.62,594.59,718.62Z"/><path class="93bf93c7-9b09-4179-8ae0-0cb1f951736c" d="M261,742.7c1.49,4.25.4,7-3.64,7.3-7.36.59-14.87,1.58-22.13.76-7.91-.88-12.88-6.65-15.1-14.23a43.13,43.13,0,0,1,0-24.61c3.46-11.77,15-17.92,27.75-15.19,10.31,2.21,17.51,12.9,16.58,24.22-.27,3.23-2.14,3.18-4.42,3.17q-14.49,0-29,0c-5.31,0-6,.92-5,6.28,2.51,14,14.37,19.85,29.53,14.46C257.22,744.25,258.88,743.54,261,742.7Zm-4.5-24.08c1-9.79-4.27-16-13.36-16.86-8.81-.8-16.63,5.28-17.08,13.57,0,1,1.52,3.12,2.38,3.15C237.67,718.71,246.92,718.62,256.48,718.62Z"/><path class="93bf93c7-9b09-4179-8ae0-0cb1f951736c" d="M404.45,723.87c.19-2.4.19-5.09.62-7.71,2.18-13.1,10.93-19.93,25.14-19.77,13.33.15,21.67,7.29,23.34,20.45a51.34,51.34,0,0,1,.14,12.87c-2,15-11,22.76-25.5,22.33-14.05-.42-22.42-8.94-23.48-23.92C404.61,726.79,404.55,725.46,404.45,723.87Zm42.77,1.93c-.16-3.49-.12-5.67-.38-7.81-1.22-9.92-7.53-16.12-16.83-16.64s-15.86,4.57-17.56,14.76a52.51,52.51,0,0,0,.19,17.24c1.4,8.15,7.83,12.91,15.89,13.15,8.59.26,14.84-4,17.23-12.19A62,62,0,0,0,447.22,725.8Z"/><path class="93bf93c7-9b09-4179-8ae0-0cb1f951736c" d="M123.47,750.91c-1.32.07-2.52.49-2.91.1-4.37-4.3-8.51-.16-12.75.13s-8.64.61-12.81,0c-7.54-1.19-11.83-6.05-12.06-13.67-.37-12.16-.37-24.33-.22-36.49,0-1.29,2-2.55,3.11-3.83,1.12,1.26,3.19,2.49,3.23,3.78.27,10.49.14,21,.17,31.49,0,5.29.24,10.63,6.08,13.1a20,20,0,0,0,19.53-1.66c1.48-1,2.22-4,2.26-6.1.21-11.83.09-23.66.12-35.49,0-2.45-.49-5.25,3.52-5.14,3.74.09,3.1,2.78,3.11,5q.06,22.24,0,44.5C123.85,747.88,123.63,749.19,123.47,750.91Z"/><path class="93bf93c7-9b09-4179-8ae0-0cb1f951736c" d="M660.78,697.88c5.41-1.92,7.81-.35,9.34,4.56,3.86,12.35,8.27,24.53,12.47,36.76.58,1.69,1.29,3.34,2.47,6.37,1.26-2.85,2.12-4.47,2.72-6.18,4.37-12.54,8.85-25,12.91-37.67,1.39-4.32,3.45-5.66,8-3.85-.34,1.28-.58,2.54-1,3.73-5.6,15.27-11.27,30.51-16.81,45.8-1.06,2.92-2.24,4.78-5.89,4.78s-5-1.45-6.08-4.49C672.94,731.15,666.89,714.66,660.78,697.88Z"/><path class="93bf93c7-9b09-4179-8ae0-0cb1f951736c" d="M395.7,745.91c-1.12,1.59-2.11,4.43-3.38,4.57-5,.52-10.25,1-15.06-.05s-6.48-5.83-6.52-10.66c-.09-10.48-.2-21,0-31.44.07-4.26-.84-6.68-5.78-6.23-1.23.11-2.62-1.51-3.93-2.34,1.27-.9,2.61-2.65,3.8-2.56,5.17.41,6.37-2.13,5.88-6.59a14,14,0,0,1,.13-5.45c.36-1.17,2.08-2.89,2.89-2.75,1.32.24,2.49,1.74,3.52,2.88.34.37.07,1.28.08,2,.16,9.78.16,9.63,10.3,9.91,2.53.07,7.15-2.07,7.22,2.49.08,4.85-4.63,2.41-7.06,2.48-10.46.31-10.46.13-10.46,10.77,0,7.66,0,15.31,0,23,.07,10,4.49,13.08,14.07,9.91.93-.3,1.85-.64,2.78-1Z"/><path class="93bf93c7-9b09-4179-8ae0-0cb1f951736c" d="M208.25,744.87c1.38,3,.65,5.52-2.4,5.85-4.68.5-9.62.9-14.15-.06-4.93-1-6.87-5.5-6.94-10.38-.15-10.65-.28-21.3-.14-31.95.06-4.22-.77-6.71-5.75-6.23-1.2.12-2.58-1.53-3.87-2.37,1.27-.89,2.6-2.62,3.8-2.53,4.76.34,6.27-1.75,5.79-6.16a13.42,13.42,0,0,1,.13-5.44c.43-1.32,2-2.28,3.05-3.39,1.17,1.19,3.16,2.27,3.35,3.6.49,3.4.17,6.9.17,11.24,4.82,0,9.11-.24,13.35.13,1.46.13,2.78,1.79,4.17,2.76-1.38.76-2.72,1.58-4.13,2.27-.41.2-1,0-1.49,0-11.89.07-11.89.07-11.89,12.2,0,7.33,0,14.65,0,22,.07,9.12,4.3,12.21,13.19,9.69C205.75,745.75,207,745.29,208.25,744.87Z"/><path class="93bf93c7-9b09-4179-8ae0-0cb1f951736c" d="M33.36,744.89c1.28,3.49.07,5.65-2.88,6a47.64,47.64,0,0,1-12.73.14c-5.16-.86-7.8-4.58-8-10.6Q9.36,724.19,9.63,708c.07-4.24-1.14-6.16-5.65-5.84-1.27.09-2.65-1.47-4-2.27,1.39-.93,2.84-2.72,4.17-2.64,4.71.29,5.78-2,5.42-6a17.43,17.43,0,0,1,.14-5.95c.32-1.18,2.06-2.93,2.88-2.79,1.31.23,2.48,1.73,3.52,2.87.34.37.08,1.29.09,2,.22,9.79.22,9.79,9.85,9.8,1.17,0,2.47-.33,3.47.09a27,27,0,0,1,4.27,2.73c-1.35.8-2.64,2.11-4.06,2.27a61.2,61.2,0,0,1-9.48.1c-3-.13-4.11,1.17-4.08,4.14.11,10.32-.05,20.64.09,31,.12,7.79,3.37,10.39,11.16,9.17A57.4,57.4,0,0,0,33.36,744.89Z"/><path class="93bf93c7-9b09-4179-8ae0-0cb1f951736c" d="M138.47,743.24c4.57,1.09,9.09,2.6,13.73,3.12,3.93.45,7.88-.86,9.31-5.15,1.48-4.46.56-8.6-3.53-11.51s-8.23-5.66-12.26-8.6c-6.11-4.46-8-9.65-5.88-16,1.82-5.54,6.4-8.59,13.7-8.63a59.1,59.1,0,0,1,10.35,1c4.28.75,5.14,3.57,3.74,7.89-1.32-.49-2.47-1-3.64-1.36a38.28,38.28,0,0,0-6.1-2c-6.09-1-10.64.79-11.93,4.74-1.71,5.28,2,8,5.56,10.52s7.51,4.94,11.16,7.55c5.59,4,7.62,9.35,6,16.15-1.51,6.38-5.78,9.71-11.89,10.37A52.51,52.51,0,0,1,143.5,751C137.83,750.12,137.34,748.87,138.47,743.24Z"/><path class="93bf93c7-9b09-4179-8ae0-0cb1f951736c" d="M618.16,674.87c4.22-1.37,6.3-.67,6.27,4.29q-.24,33.44,0,66.88c0,4.75-1.76,5.93-6.28,4.51Z"/><path class="93bf93c7-9b09-4179-8ae0-0cb1f951736c" d="M47.21,696.48l8.6,3.37c2.52-.83,6.48-2.65,10.65-3.42,5.69-1,6.51.18,5.32,6.35-3.23-.23-6.49-.71-9.74-.65-5.73.09-8.5,2.93-8.54,8.71-.09,11.65,0,23.29,0,34.93,0,5.73-.13,5.81-6.25,4.66Z"/><path class="93bf93c7-9b09-4179-8ae0-0cb1f951736c" d="M802.68,697.11c-.1,2.19-.18,3.81-.27,5.77-3-.29-5.74-.75-8.47-.79-7.14-.09-10,2.69-10.12,9.87-.11,11.14,0,22.29,0,33.44,0,1.64-.14,3.28-.23,5.32l-5.44.43a40.35,40.35,0,0,1-.52-4.51c0-15-.07-29.94,0-44.92,0-1.46.93-2.91,1.43-4.37a24.38,24.38,0,0,0,4.73,2,8.85,8.85,0,0,0,4.85-.22C793.08,697.27,797.35,695,802.68,697.11Z"/><path class="93bf93c7-9b09-4179-8ae0-0cb1f951736c" d="M649.69,750.82h-6.13v-7.56q0-20.71,0-41.43c0-2.35-.25-5.09,3.37-4.59,1,.13,2.62,1.38,2.63,2.13C649.72,716.45,649.69,733.54,649.69,750.82Z"/><path class="93bf93c7-9b09-4179-8ae0-0cb1f951736c" d="M843.14,694.53c4.84-8.78,6-18.6,11.27-26.41l1.54.66v28.1l-1.6.1V675.12l-1.63-.16c-2.05,5.52-4,11.07-6.21,16.52a38.49,38.49,0,0,1-3.42,5.58c-1.3-1.9-3-3.65-3.83-5.74-2.23-5.41-4.09-11-6.1-16.46l-1.5.3v21.36h-1.22V668.88l1-.82c1,1.27,2.38,2.38,3,3.82,2.4,6,4.56,12.12,6.84,18.18C841.71,691.39,842.34,692.68,843.14,694.53Z"/><path class="93bf93c7-9b09-4179-8ae0-0cb1f951736c" d="M814.16,696.84V670.48l-8.64-.68,0-.79h18.37l.08.74-8,.65v26.5Z"/><path class="93bf93c7-9b09-4179-8ae0-0cb1f951736c" d="M651.49,678.62c-.09,3.53-1.43,6-4.69,5.3a7.41,7.41,0,0,1-4.65-4.37c-.82-2.84.78-5.09,4.25-5.23S651.19,676,651.49,678.62Z"/><path class="93bf93c7-9b09-4179-8ae0-0cb1f951736c" d="M323.87,376.82c0-4.16-.35-8.35.15-12.44a8.54,8.54,0,0,1,3.32-5.52c7.4-4.75,18.6-1.23,21.83,6.86a30.33,30.33,0,0,1,.38,21.91c-2.94,8.19-14,12.36-21.55,7.87-2-1.2-3.54-4.3-4-6.76C323.39,384.87,323.87,380.8,323.87,376.82Z"/><path class="93bf93c7-9b09-4179-8ae0-0cb1f951736c" d="M237.21,375.88c.13,12.3-3.66,18.83-12.15,20.6a18.17,18.17,0,0,1-10.14-.69c-2.2-.91-4.67-4.14-4.84-6.49a186.1,186.1,0,0,1,0-24.88c.14-2.18,2.46-5.14,4.54-6.13,9.3-4.43,19.27.65,21.66,10.66A61.19,61.19,0,0,1,237.21,375.88Z"/><path class="93bf93c7-9b09-4179-8ae0-0cb1f951736c" d="M435.05,377.09c1.26-4.59,2.06-9.19,3.79-13.41,2-4.92,6.37-7.14,11.62-7.08a11.7,11.7,0,0,1,11.09,7.18,31.52,31.52,0,0,1,.31,26.57c-2.11,4.94-6.21,7.42-11.44,7.46s-9.59-2.18-11.56-7.18C437.17,386.38,436.34,381.8,435.05,377.09Z"/><path class="93bf93c7-9b09-4179-8ae0-0cb1f951736c" d="M289.5,376c0,4.94.05,8.9,0,12.86-.08,4.94-2.38,7.4-7.47,8.16-6.05.9-11.1-1.33-12.54-5.54-1.38-4,.5-7.81,5.69-10.15C279.48,379.34,284.06,378,289.5,376Z"/></g></g></svg>