<svg xmlns="http://www.w3.org/2000/svg" viewBox="0 0 812.26 127.96"><defs><style>.\39 c75ae91-a33e-411e-8dfb-d2b2a75c0450{fill:#fff;}</style></defs><title>Asset 2</title><g id="6957ca27-693c-4ff6-a005-7de3299291bd" data-name="Layer 2"><g id="57118e23-4443-41c0-af9c-b8853bc08599" data-name="Layer 1"><path class="9c75ae91-a33e-411e-8dfb-d2b2a75c0450" d="M544.32,0c0,.52.12,1,.12,1.55V127.86c-.53,0-1,.07-1.37.07-8.12,0-16.24,0-24.36,0a2,2,0,0,1-2-1.15Q492.83,88,468.88,49.15a2.82,2.82,0,0,0-.92-1v79.67H442.41v-1.29q0-62.62,0-125.25a11.47,11.47,0,0,1,.14-1.3h26.16a9.06,9.06,0,0,0,.41,1l49,79.86c.17.28.39.53.76,1V1.07c0-.36,0-.71,0-1.07Z"/><path class="9c75ae91-a33e-411e-8dfb-d2b2a75c0450" d="M671.52,0c0,.4,0,.8,0,1.2V127.87c-.51,0-.94.06-1.36.06-8.16,0-16.32,0-24.47,0a1.83,1.83,0,0,1-1.8-1Q619.94,88.09,596,49.27a3.36,3.36,0,0,0-1-1.14v79.72H569.56c0-.43-.06-.85-.06-1.27q0-62.68,0-125.38c0-.4,0-.8,0-1.2h26.16c.12.25.22.51.36.74q24.57,40,49.16,80.07c.17.27.38.53.57.79l.23-.08V1.91c0-.63,0-1.27.08-1.91Z"/><path class="9c75ae91-a33e-411e-8dfb-d2b2a75c0450" d="M379.92,0q5.29,13.17,10.58,26.34l40.13,100.17c.16.4.31.8.52,1.35-.49,0-.87.07-1.24.07-9,0-18,0-27,0a1.53,1.53,0,0,1-1.7-1.19c-3.28-8.75-6.63-17.47-9.91-26.21a1.6,1.6,0,0,0-1.77-1.28q-23.32.06-46.67,0a1.5,1.5,0,0,0-1.7,1.19c-3.14,8.75-6.36,17.47-9.52,26.22a1.58,1.58,0,0,1-1.77,1.27c-8.8,0-17.6,0-26.4,0h-1.32l1.49-3.91L351.34,1.21c.16-.4.33-.81.5-1.21ZM365.7,33.18c-5.28,14.5-10.44,28.63-15.63,42.86H381.8Z"/><path class="9c75ae91-a33e-411e-8dfb-d2b2a75c0450" d="M168,0c1.39,3.56,2.76,7.14,4.19,10.69q23.2,58,46.45,116c.14.36.27.73.45,1.21-.48,0-.86.06-1.24.06-9,0-18,0-27,0a1.54,1.54,0,0,1-1.71-1.2c-3.27-8.75-6.61-17.48-9.89-26.22a1.61,1.61,0,0,0-1.79-1.26q-23.33.06-46.67,0a1.52,1.52,0,0,0-1.7,1.21c-3.17,8.78-6.39,17.55-9.58,26.33-.25.69-.46,1.14-1.37,1.14-9.08,0-18.16,0-27.24,0-.19,0-.39,0-.76,0,.18-.52.32-1,.48-1.38Q115,63.66,139.44.79c.1-.26.16-.53.24-.79ZM153.79,33.57h-.28Q145.77,54.76,138,76h31.71C164.39,61.78,159.09,47.68,153.79,33.57Z"/><path class="9c75ae91-a33e-411e-8dfb-d2b2a75c0450" d="M761,0q7.88,19.62,15.75,39.24,17.49,43.65,35,87.3c.16.39.29.8.51,1.39h-1.44c-8.92,0-17.84,0-26.76,0a1.6,1.6,0,0,1-1.77-1.26c-3.28-8.75-6.63-17.47-9.9-26.22a1.54,1.54,0,0,0-1.71-1.2q-23.4.06-46.8,0a1.44,1.44,0,0,0-1.6,1.16c-3.15,8.75-6.37,17.47-9.52,26.23a1.65,1.65,0,0,1-1.88,1.29c-8.72,0-17.44,0-26.15,0h-1.47c.38-1,.71-1.9,1-2.78l48.18-124c.14-.37.31-.73.47-1.1ZM746.81,33.18C741.53,47.67,736.37,61.81,731.18,76H762.9C757.54,61.76,752.24,47.63,746.81,33.18Z"/><path class="9c75ae91-a33e-411e-8dfb-d2b2a75c0450" d="M321.6,0c-.23.42-.43.86-.68,1.26q-22.69,35.92-45.39,71.85a4.85,4.85,0,0,0-.82,2.79q0,25.14,0,50.27v1.65H247.27v-1.56q0-25.37,0-50.74a4.57,4.57,0,0,0-.67-2.33q-22.73-36-45.49-71.93c-.26-.4-.46-.84-.68-1.26h31.92c.3.47.61.94.89,1.42Q247,24.58,260.88,47.73c.23.39.48.76.81,1.28L290.16,0Z"/><path class="9c75ae91-a33e-411e-8dfb-d2b2a75c0450" d="M101.76,0V23.27h-1.52c-11.36,0-22.72,0-34.08,0-1.26,0-1.5.38-1.5,1.55q0,50.7,0,101.39v1.7H37.27V23.32H0V0Z"/></g></g></svg>