<svg xmlns="http://www.w3.org/2000/svg" viewBox="0 0 1157.07 720.52"><defs><style>.\33 ba3a17b-d17b-4273-bc74-ac53272e4793{fill:#fff;}</style></defs><title>Asset 8</title><g id="eb723e69-c588-4ed2-900f-8dd2c482551b" data-name="Layer 2"><g id="e6d51196-8b7b-4776-9e53-55dfb52f6556" data-name="Layer 1"><path class="3ba3a17b-d17b-4273-bc74-ac53272e4793" d="M671.06,16.52C641.33,5,609.93,0,578.54,0,510.79,0,451.32,23.13,401.75,71c-49.56,46.27-74.35,104.1-74.35,170.19q0,101.6,74.35,173.48c49.57,46.26,109,71,176.79,71,71.05,0,128.88-24.78,178.44-71,47.91-47.92,72.69-105.75,72.69-173.48,0-49.57-13.22-94.18-42.95-135.49C758.63,66.09,722.29,36.34,676,18.18Q641.33,25.6,621.5,52.87C606.63,71,598.37,90.87,598.37,114v3.31q52,12.39,79.3,44.6c16.52,21.49,26.44,47.92,26.44,79.32,0,36.34-13.22,66.09-38,90.87s-54.53,36.34-89.23,36.34q-54.51,0-94.17-39.65c-28.09-28.09-41.3-62.78-41.3-105.74,0-54.53,19.82-100.79,61.12-142.09,43-41.31,95.84-64.44,158.62-64.44Z"/><path class="3ba3a17b-d17b-4273-bc74-ac53272e4793" d="M1157.07,717.61h-39.83V708.9c0-24.19,0-48.39,0-72.58-.06-25.85-23-40.35-46.57-29.23-1.86.87-3.47,4.41-3.49,6.71-.22,34.17-.15,68.33-.15,103h-36.23c-.16-2.64-.47-5.35-.47-8.06,0-22.4.06-44.79-.08-67.18a87.47,87.47,0,0,0-1.33-15.34c-3.27-17.45-28.51-29.14-43.65-20-1.88,1.13-2.9,5.08-2.91,7.73-.2,31.4-.13,62.8-.13,94.2v8.75h-39c-.16-2-.47-4.23-.47-6.43,0-39.64.06-79.27-.14-118.91,0-4.78,1.42-7.38,5.68-9.51,29.85-14.9,60.32-14.94,91.18-3.91,5.43,1.94,9.77,1.71,15.29-.32,24.51-9,49.08-8,72.66,3.22,15,7.11,24.18,19.58,27.87,35.91a41.35,41.35,0,0,0,1.8,5Z"/><path class="3ba3a17b-d17b-4273-bc74-ac53272e4793" d="M425.15,576.17V518.9h37.68V714.43c-7.3,1.22-15,2.88-22.74,3.73-21,2.3-41.94,4.15-62.89-.64-29.8-6.8-47.89-24.94-52.71-55.15-4.78-30,1.06-57.15,26.63-76.63,19.68-15,42.21-15.88,65.47-10.79,2,.44,4,1,6,1.42A12.71,12.71,0,0,0,425.15,576.17Zm0,72.2c0-10.54.13-21.07-.1-31.6,0-2.33-.59-5.49-2.14-6.83-10.15-8.74-36.89-7.22-47,2.33-11.62,11-15.71,34.6-9,52,5.92,15.33,19.95,24.22,38.45,24.12,4.61,0,9.21-.83,13.81-1s6.16-2.1,6.05-6.68C425,670,425.13,659.15,425.13,648.37Z"/><path class="3ba3a17b-d17b-4273-bc74-ac53272e4793" d="M621.7,716.88c-10.09,0-20.07.17-30-.19-1.51-.06-3.28-2.43-4.28-4.12-1.1-1.87-1.44-4.18-2.16-6.42-29.37,19.7-58.76,18.78-82.68-2.82-17.18-15.52-22.11-36.05-21-58.11,2.53-48.84,41.14-73.9,81.12-73,18.64.42,36.84,3.07,54.39,9.29,2.3.81,5.14,4.39,5.15,6.71.28,41.9.17,83.81.12,125.71A21.13,21.13,0,0,1,621.7,716.88Zm-37.78-75.15c0-9.25.28-18.52-.2-27.75-.12-2.36-2.55-6.52-4.09-6.6-10.09-.54-20.82-2.33-30.23.29-24.94,7-35.42,40.31-21.52,64.62,10.06,17.59,33.25,21.61,49.21,8.61,4.64-3.78,7.34-8.1,6.95-14.51C583.55,658.2,583.92,650,583.92,641.73Z"/><path class="3ba3a17b-d17b-4273-bc74-ac53272e4793" d="M848.8,572.31c44,.13,73.65,29.85,73.62,73.7,0,45.15-29.72,74.48-75.28,74.37-42.64-.11-72.87-30.9-72.78-74.13C774.45,602.22,804.69,572.18,848.8,572.31Zm34.13,74.57c-2.59-8.81-3.95-18.75-8.31-27.12-11-21-40.81-21.29-52.39-.6-9.51,17-9.66,35-1.19,52.58,5.37,11.11,15,16.77,27.4,16.77s22-5.86,27.25-16.94C879.1,664.3,880.35,656,882.93,646.88Z"/><path class="3ba3a17b-d17b-4273-bc74-ac53272e4793" d="M306.14,646.31c-.07,44.73-29.78,74.14-74.83,74.07-42.86-.07-73.1-30.48-73.22-73.66-.13-44.11,30.07-74.5,73.95-74.41C276.51,572.39,306.2,602,306.14,646.31Zm-39.33,1c-2.82-9.66-4.42-18.87-8.18-27.08-4.87-10.63-14.22-15.88-26.12-16-12.2-.13-21.62,5.08-27.1,15.83-8.7,17.07-9.21,34.79-.52,51.93,10.86,21.46,40.84,22.75,53,2C262.46,666.06,263.89,656.31,266.81,647.28Z"/><path class="3ba3a17b-d17b-4273-bc74-ac53272e4793" d="M0,576H44.5l34.82,91.46c1.55-3.41,2.54-5.26,3.26-7.21C92.27,634,102,607.74,111.49,581.43c1.53-4.24,3.51-6,8.19-5.86,12,.34,24.13.11,37.18.11-1.22,3.34-2.07,5.94-3.1,8.48-16.92,41.88-33.95,83.73-50.7,125.68-2.12,5.29-4.74,7.57-10.67,7.23-9.48-.55-19,.14-28.53-.35-2.44-.12-6.06-2.09-7-4.16C37.92,668.19,19.24,623.7.53,579.21A15.5,15.5,0,0,1,0,576Z"/><path class="3ba3a17b-d17b-4273-bc74-ac53272e4793" d="M764.83,708.89c-42.32,24-105.6,10.1-119.22-41.7-13.35-50.78,21.7-96.13,74.25-94.56C732,573,744,576.71,756,579.09c4.42.87,6.4,3.19,4.71,8.28-2.8,8.45-4.87,17.13-7.24,25.69-22.28-8.18-44.26-16-63,5.25-11.11,12.6-11.72,38.8-1.19,53,17.86,24,41.11,17.63,65.09,9.25C757.88,690,761.28,699.22,764.83,708.89Z"/></g></g></svg>