<svg xmlns="http://www.w3.org/2000/svg" viewBox="0 0 135.5 55.76"><defs><style>.\39 7d071f7-a604-48d3-b80a-20a79ce52ab3{fill:#fff;}</style></defs><title>Asset 12</title><g id="af9a2ba5-bf20-4baa-92ee-a5a56d394d7a" data-name="Layer 2"><g id="5c5cb583-ee22-48b5-a52e-65f02c445530" data-name="Layer 1"><path class="97d071f7-a604-48d3-b80a-20a79ce52ab3" d="M112,42.33c-.38-.42-.88-.22-1.31-.22-7.7,0-15.39-.07-23.09,0a4.3,4.3,0,0,1-4-1.89,41.91,41.91,0,0,0-7.8-7.83,56.27,56.27,0,0,0-10.54-6.8,57.94,57.94,0,0,0-13.35-4.78,59.84,59.84,0,0,0-15-1.55A60.3,60.3,0,0,0,20.09,22c-.15.05-.32.06-.57.11.14-.77.82-.85,1.22-1.2a11.56,11.56,0,0,1,1.45-1,71.17,71.17,0,0,1,15.88-7.55A77.54,77.54,0,0,1,52.86,9,72.92,72.92,0,0,1,66,8.66a72,72,0,0,1,23.48,5.51A72.82,72.82,0,0,1,106.1,24a65.6,65.6,0,0,1,9,8.64A73.17,73.17,0,0,1,121.36,41c.2.31.56.63.35,1s-.63.14-.95.14c-1.69,0-3.38,0-5.07,0-.41,0-.86-.15-1.21.21A2.13,2.13,0,0,1,112,42.33Z"/><path class="97d071f7-a604-48d3-b80a-20a79ce52ab3" d="M.31,41.82c8.34-11.33,19.62-17.4,33.55-18.69q3.78.16,7.57,0a46.89,46.89,0,0,1,20.73,6.7,35.16,35.16,0,0,0-7.45.78,35.67,35.67,0,0,0-17.37,9.07c-.85.8-1.67,1.64-2.5,2.46l-.21-.09a4.52,4.52,0,0,0-1.51-.11H12.48c-1.64,0-3.28.11-4.92,0a1.55,1.55,0,0,0-.8.26c-1.82,0-3.63,0-5.44,0C1,42.19.44,42.48.31,41.82Z"/><path class="97d071f7-a604-48d3-b80a-20a79ce52ab3" d="M111.42,21.3a20.3,20.3,0,0,1-2.52-2c-.23-.3-.46-.6-.18-1a.63.63,0,0,1,.3-.21.71.71,0,0,1,.51.1c.68.15,1.18-.13,1.13-.63-.38-.11-.84-.13-.85-.69.08-.38.49-.46.68-.74s.27-.37.42-.54a1.58,1.58,0,0,1,.85-.58,3.24,3.24,0,0,1,1.71,1.12c.3.38.69.39,1,.57h0a2.1,2.1,0,0,0,1.8,1.51h0a3,3,0,0,0,1,1l.23.22c.51.48.53.85-.23,1h-.08c-.12,0-.13,0,0,0a2.25,2.25,0,0,1,.52.07,1.17,1.17,0,0,0,.93.1,9.93,9.93,0,0,0,1.18.58c1,1,2.18,1.7,2.79,3,.17.17.18.5.5.52a4.92,4.92,0,0,1,1.78,2,.84.84,0,0,1-.17.94.15.15,0,0,1-.14.1c.12,0,.13-.12.23-.14.75-.3,1.21.08,1.57.66l.29.45c0,1,.68,1.35,1.49,1.58.34.74,1.25,1.1,1.32,2a.9.9,0,0,1-.57.33c-.35.09-.37.3-.19.58a.71.71,0,0,1,.1.31,1.12,1.12,0,0,1-.72.9c-.31,0-.64-.51-.75-.27-.5,1.1-1.54.5-2.27.84a.69.69,0,0,1-.5-.12,2.93,2.93,0,0,1-1-1.48,11.92,11.92,0,0,0-1.49-2.05,2.17,2.17,0,0,1-.87-1.58,1.91,1.91,0,0,0-1-1.48c-.71-.39-.88-1-1.22-1.62-.29-.12-.51.1-.77.16s-.46-.32-.65-.52A10.34,10.34,0,0,0,114.42,23a3,3,0,0,0-1.69-.66.75.75,0,0,1-.54-.39C112.08,21.53,111.69,21.48,111.42,21.3Z"/><path class="97d071f7-a604-48d3-b80a-20a79ce52ab3" d="M80.54,1.49l.48.05c1.16.52,2.5.45,3.64,1,0,.88-.65.63-1.14.7a2.24,2.24,0,0,1-1.43-.35c-.63-.06-1.28-.29-1.85.2l-.44.52c-.16.22-.27.57.13.43a3,3,0,0,1,2,.07c.77.27,1-.77,1.71-.76.33,0,.73.64,1-.11.08-.57.7-.24.93-.55a7.82,7.82,0,0,1,3.56.82c.54.48,1.78.11,1.67,1.38a1.31,1.31,0,0,1-.63.66.59.59,0,0,1-.35,0,1.83,1.83,0,0,0-2.58,0,.68.68,0,0,0-.51.81.54.54,0,0,1-.2.27,1,1,0,0,1-.85,0,.56.56,0,0,1-.25-.23,7.94,7.94,0,0,1-.22-.8c-1.11-.34-1.6.68-2.37,1.08a4.27,4.27,0,0,1-1.33-.18h0c-.14-.27-.43-.26-.67-.35a1.61,1.61,0,0,1-.28-.17c-.34-.27-.76-.16-1.14-.23a5.6,5.6,0,0,1-1.77-.24C76,5.33,74.45,5,72.82,4.8S69.69,4.3,68.13,4a12.56,12.56,0,0,0-5.52.13c-2.27.27-4.55,0-6.82.21A1.35,1.35,0,0,1,54.61,4c-.36-.25.52-.82-.25-1a3.34,3.34,0,0,0-2.35,0,1.71,1.71,0,0,1-1.35.07C50.31,3,50,2.73,50,2.31s.46-.47.83-.56c.72-.18,1.54.14,2.19-.41C54.18.78,55.5,1.05,56.7.65a5.65,5.65,0,0,1,1.3,0c1.78-.52,3.63-.25,5.44-.4,1.12-.1,2.26,0,3.38,0,1.31-.07,2.6.09,3.9.13a8.72,8.72,0,0,0,3.21.34,11.17,11.17,0,0,1,3.21.45A8.71,8.71,0,0,0,80.54,1.49Z"/><path class="97d071f7-a604-48d3-b80a-20a79ce52ab3" d="M99.19,13.2a4.88,4.88,0,0,1-2.21-1c-.21-.2-.28-.5-.56-.65C95,10.77,95,10.77,95.31,9.24a6.88,6.88,0,0,0,.38-.77A1.11,1.11,0,0,1,95.94,8a1.29,1.29,0,0,1,1-.15,1.15,1.15,0,0,1,.32.14,2.94,2.94,0,0,1,.37.55c.44.46.38,0,.43-.25.36-.72.79-1.18,1.58-.48.26.23.64.06.92.25a1.89,1.89,0,0,0,1.22.55,9.53,9.53,0,0,0,2.11,1.45,1.15,1.15,0,0,1,.2.5,2.26,2.26,0,0,1,0,.52c-.18,1,.5,0,.64.29a1.25,1.25,0,0,1,.51.1.56.56,0,0,1,.22.26c.05.43-.27.83-.16,1.27s.39.42.62.58.58.52.59,1c0,.2-.11.39-.14.6s.23.3.41.39a1.09,1.09,0,0,1,.26.22,2.88,2.88,0,0,0,.94.93c.25.38.39.75-.06,1.1-.44,0-.88,0-1.32,0h0a3.06,3.06,0,0,0-1.53-1c-.48.06-.66-.39-1-.59a.84.84,0,0,1,0-1.14c-.4.56-.9.43-1.4.23h-.09l-.06-.06c.12-.79-.6-.18-.78-.47h0a1.39,1.39,0,0,0-.79-.48h0a.56.56,0,0,1-.08-.38c0-.18-.08,0-.08,0-.17,0,.06,0-.11,0C100.09,13.93,99.74,13.33,99.19,13.2Z"/><path class="97d071f7-a604-48d3-b80a-20a79ce52ab3" d="M111.73,52.67a2.83,2.83,0,0,1-1.35-.4c-.12-.47-.95-.72-.41-1.39a2.85,2.85,0,0,0,2.5,1.19A1.57,1.57,0,0,0,114.14,51a1.54,1.54,0,0,0-.89-1.87c-.85-.51-1.71-1-2.55-1.55-1.36-.87-1.82-1.77-1.51-3s1.11-1.72,2.77-1.81c.82-.64,1.71.07,2.56-.13l.42,0a6.78,6.78,0,0,1,0,3.52c-.72-.11-.51-.82-.63-1.19-.37-1.23-1.36-1.38-2.32-1.55a1.33,1.33,0,0,0-1.51.91,1.26,1.26,0,0,0,.63,1.62c1,.67,2.1,1.36,3.2,2a2.39,2.39,0,0,1,1.33,2.47c-.12,1.31-1,2-2.43,2.33A3.88,3.88,0,0,0,111.73,52.67Z"/><path class="97d071f7-a604-48d3-b80a-20a79ce52ab3" d="M9.49,50.68c-1.16-2.68-2.31-5.37-3.44-8a.56.56,0,0,0-.54.43C4.44,45.54,3.4,48,2.32,50.45c-.36.8-.66,1.67-1.6,2H3.54c-.38-.31-1.12-.39-.85-1,.36-.84.35-2.08,1.74-2.09a7.64,7.64,0,0,1,2.24,0,1.89,1.89,0,0,1,1,2.83c.87.15,1.76.45,2.57-.21A14.1,14.1,0,0,1,9.49,50.68ZM6,48.74c-.55-.34-1.43.4-1.78-.55.41-.9.82-1.8,1.34-2.91.42,1,.72,1.76,1.11,2.51S6.74,48.82,6,48.74Z"/><path class="97d071f7-a604-48d3-b80a-20a79ce52ab3" d="M124.92,49.38a2.27,2.27,0,0,0-2,2.19c.09.59.73.46,1.22.88h-2.84c2-3.09,2.93-6.65,4.77-10.05,1.17,2.84,2.45,5.36,3.32,8.07-.25.54-1,0-1.22.53l-.74-1.55A6.68,6.68,0,0,0,124.92,49.38Z"/><path class="97d071f7-a604-48d3-b80a-20a79ce52ab3" d="M51.85,50.2a2.65,2.65,0,0,0,2.68,1.87c.83,0,1.53-.22,1.77-1.09a1.59,1.59,0,0,0-.91-1.86,15.75,15.75,0,0,1-3.45-2.25A2.38,2.38,0,0,1,52,43.4a1.63,1.63,0,0,1,.56-.21,1.31,1.31,0,0,1,.2.66,1.56,1.56,0,0,0,.78,2.3c1,.57,2,1.09,2.93,1.72,1.91,1.28,1.72,3.52-.36,4.56-.76,0-1.49.25-2.25.25s-1.55-.93-2.3,0C51.51,51.86,51.23,51,51.85,50.2Z"/><path class="97d071f7-a604-48d3-b80a-20a79ce52ab3" d="M91,45.93a3.22,3.22,0,0,0-4,2.34,3.42,3.42,0,0,0,2.41,4.41,1.42,1.42,0,0,1,1.24,0,3.56,3.56,0,0,0,2.66-3.53A3.25,3.25,0,0,0,91,45.93ZM90.61,52c-.94.25-1.46-.36-1.82-1.15-.13-.29-.26-.59-.4-.89,0-.67,0-1.34,0-2,.32-.79.63-1.68,1.71-1.48a2.06,2.06,0,0,1,1.57,1.91,11.66,11.66,0,0,1,.09,1.87A1.54,1.54,0,0,1,90.61,52Z"/><path class="97d071f7-a604-48d3-b80a-20a79ce52ab3" d="M35.61,6.08c0-.06.08-.08.14,0,.59-.38,1.37,0,1.92-.5.2-.22.55-.23.72-.51h0A5.49,5.49,0,0,1,40,4.77c.51,0,1-.08,1.53-.09.43.15.66.41.5.89-.47.46-1.11.1-1.61.32l.11,0a2.65,2.65,0,0,1,1.4.12c.46.85-.45.76-.74,1.09a15.82,15.82,0,0,1-3.3,1c-.43.23-.93.07-1.37.24a25.36,25.36,0,0,0-4,1.5c-.9-.24-1.21-1-1.46-1.75h0c.31-.14.7-.32,1-.21,1,.39,1.33-.31,1.78-.87A11.19,11.19,0,0,0,35.61,6.08Z"/><path class="97d071f7-a604-48d3-b80a-20a79ce52ab3" d="M61.2,46.12a2.9,2.9,0,0,0,.64.24l.12.06"/><path class="97d071f7-a604-48d3-b80a-20a79ce52ab3" d="M61.78,46.41h0c-.16-.16-.43-.09-.57-.28Z"/><path class="97d071f7-a604-48d3-b80a-20a79ce52ab3" d="M61.55,48.58c.84.09,1.69-.07,2.52,0,1.13.11,1.08-.48.8-1.21-.55-1.44-1.9-1.89-3.67-1.26s-1.91,2.22-1.76,3.8a2.79,2.79,0,0,0,2.31,2.76,1.24,1.24,0,0,1,1,0A1.71,1.71,0,0,0,64,52.07c.24-.25.7-.55.39-.91s-.63.06-.91.27c-.67.26-1,.27-1.21,0a3,3,0,0,1-1.58-1.68C60.46,49.06,60.46,48.47,61.55,48.58Zm-.74-1.39a2.45,2.45,0,0,1,.94-.78h.74c.43.38,1,.69.72,1.41a5.11,5.11,0,0,1-2.43,0A.59.59,0,0,1,60.81,47.19Z"/><path class="97d071f7-a604-48d3-b80a-20a79ce52ab3" d="M96,8.1v.51c-.15.19-.44.24-.51.51s.24.65.13.82c-.64,1-.09,1.17.71,1.2s.68.54.67,1L90.67,9.56c-.1-.2,0-.38.06-.58,0-.35-.46-.74.07-1.06.72-.33,1.57.06,2.27-.41a3.69,3.69,0,0,1,1.47-.24c.3,0,.72.1.76-.42,0-.1-.07-.2-.1-.31s-.15-.45.13-.6a1.25,1.25,0,0,1,.69.11.3.3,0,0,1,.21,0c.28.32.71.3,1,.46a.34.34,0,0,1,.22.05c.1.47,1.11.18.84,1-.52-.18-.47.87-1.09.51h0A.88.88,0,0,0,96,8.1Z"/><path class="97d071f7-a604-48d3-b80a-20a79ce52ab3" d="M40.48,51.44l0,0a2.31,2.31,0,0,0,0-.37,12.4,12.4,0,0,1,0-3.94A1.24,1.24,0,0,0,39.15,46c-.19.14-.68,0-.51.48.78,1.41.74,1.52-.69,2.16-.42.19-.82.41-1.22.64a1.9,1.9,0,0,0-1,2.58c.51,1,1.45,1.13,2.71.48.27-.15.49-.51.84-.08.76.93,1.38.33,2-.21C41.33,51.35,40.58,51.81,40.48,51.44Zm-3.32,0c-.58-.64-.34-1.25.25-1.72A2.63,2.63,0,0,1,39.1,49c0,.67,0,1.33,0,2C38.51,51.24,38.05,52.38,37.16,51.39Z"/><path class="97d071f7-a604-48d3-b80a-20a79ce52ab3" d="M33.57,52.48H30c1.69-1.48.56-3.41.79-5.12.09-.67-.65-.27-.93-.51,1.18-1.17,2.17-1.28,2.57-.27.47-.25.76-.82,1.39-.78a.91.91,0,0,1,.91.55.71.71,0,0,1-.16.81.68.68,0,0,1-.91,0c-1.06-.63-1.31.25-1.39.91a27.73,27.73,0,0,0,0,3.16C32.27,51.91,32.86,52.07,33.57,52.48Z"/><path class="97d071f7-a604-48d3-b80a-20a79ce52ab3" d="M53.11,1.5c-.08.63-.57.5-1,.51-.62,0-1.24,0-2,0,.39,1,.85,1.13,1.69.8s1.94-.76,2.81.22a14,14,0,0,1-3.49.77c-.84.14-.27.54-.35.81-.06.5-.4.6-.82.57a1.56,1.56,0,0,0-1.18.34,23.24,23.24,0,0,1-3.52.56.25.25,0,0,1-.33,0,.5.5,0,0,1,.39-.75,8.5,8.5,0,0,1,1.87-.55c-.38-.15-.79-.31-.37-.85.3-.26.76-.11,1-.42-.1-.35-.54-.23-.68-.51-.24-.59.43-.62.59-1l3.59-.72c.39,0,.8.21,1.15-.14.15-.23.36-.2.58-.16A.29.29,0,0,1,53.11,1.5Z"/><path class="97d071f7-a604-48d3-b80a-20a79ce52ab3" d="M72.59,53.77a.64.64,0,0,1-.08.14c-.17.24-.37.15-.57-.08h0l-.07-.11h0a2,2,0,0,0-1.08-.77,1.88,1.88,0,0,0-1.32.05,9.05,9.05,0,0,1-1.8.15h-.12c-.19-.08-.33-.19-.24-.44-.48-.7-.74-1.39,0-2.08.5-.44,0-.71-.2-1a2.17,2.17,0,0,1,1-3.41.55.55,0,0,1,.14-.09c.2-.08.35,0,.47.23a.41.41,0,0,1,0,.11.28.28,0,0,1,0,.09l-.13-.07-.54,1.25c0,.33,0,.67,0,1a3.8,3.8,0,0,0,.81,1.24h0a1.46,1.46,0,0,1-.1.46c-.39,0-.72.09-.86.54s.25.36.36.55a6.48,6.48,0,0,0,2.52.07C72.48,51.72,73,52.42,72.59,53.77Z"/><path class="97d071f7-a604-48d3-b80a-20a79ce52ab3" d="M31,8.09l1.28,1.53c.16.1.29.22.24.43a2.5,2.5,0,0,0-1.5.58c-.34.09-.76-.1-1,.3-.07.22-.25.24-.44.24-.71.15-1.46.2-1.85.95-.48.05-.73.64-1.27.53a1,1,0,0,1-.55-.79.77.77,0,0,0-.33-.5.7.7,0,0,1-.17-.25A27,27,0,0,1,31,8.09Z"/><path class="97d071f7-a604-48d3-b80a-20a79ce52ab3" d="M42.91,52.21c.56-.42.48-1,.48-1.62,0-1.86,0-3.71,0-5.56,0-.83,0-1.62-1.18-1.74.89-.18,1.51-1.06,2.47-.68a89.29,89.29,0,0,0,0,9.11c.06.3.62.33.42.71,0,.1-.43,0-.65,0C44,52.16,43.39,52.58,42.91,52.21Z"/><path class="97d071f7-a604-48d3-b80a-20a79ce52ab3" d="M82.29,47.16a1.92,1.92,0,0,0-1.08-.39A4.45,4.45,0,0,1,83,45.91c.25-.08.54-.18.59.19.11.73.33.45.66.13a1.22,1.22,0,0,1,1.38-.33.74.74,0,0,1,.47,1,.57.57,0,0,1-.91.34c-1-.75-1.19.16-1.59.68-.15.5-.4,1,0,1.5v.27a2.18,2.18,0,0,0,0,1.51c.24.43.13,1.15.93,1.22H81.39a3.26,3.26,0,0,0,.85-.72A14,14,0,0,0,82.29,47.16Z"/><path class="97d071f7-a604-48d3-b80a-20a79ce52ab3" d="M26.48,46.66l-1.18-.18a9.87,9.87,0,0,0,2.42-2.55,9.39,9.39,0,0,1,0,1.06c0,.64.06,1.08.87,1,.26,0,.66-.1.61.38s-.38.27-.61.3-.59,0-.88,0a14.53,14.53,0,0,0,0,4.56c.28.78.93.37,1.61.25-.47.85-1,1.26-1.68,1.2a1.15,1.15,0,0,1-1.14-1.22A21.31,21.31,0,0,0,26.48,46.66Z"/><path class="97d071f7-a604-48d3-b80a-20a79ce52ab3" d="M125.15,35c0-.21.14-.53.32-.45,1,.43,1.25-.1,1.81-.78s.46.63.92.72c.59.87,1.88,1.14,2,2.39-.19.67.4.94.69,1.37-.16,1.19-.38,1.28-1.48.62-.6-.8-1.17-1.61-1.72-2.44a.62.62,0,0,0-.56,0c-.33.22-.39.91-1,.59h0a.7.7,0,0,0-.44-.58c-.2-.08-.24-.26-.28-.44A1.8,1.8,0,0,1,125.15,35Z"/><path class="97d071f7-a604-48d3-b80a-20a79ce52ab3" d="M95.77,46.75a1.25,1.25,0,0,0,.85,1.47c.56.27,1.12.55,1.65.87,1.31.8,1.4,2,.25,3.15-.51.2-.71.08-.5-.47.27-1.07-.45-1.48-1.22-1.88s-1.66-.66-2-1.59A1.2,1.2,0,0,1,95,46.91c.14-.24.26-.53.61-.51S95.85,46.57,95.77,46.75Z"/><path class="97d071f7-a604-48d3-b80a-20a79ce52ab3" d="M48.8,5.52c.08-.52.48-.45.84-.47s.87.11.94-.5a4.82,4.82,0,0,1,4.05-1c.12.7.68.5,1.1.5,2.34,0,4.68,0,7,0a9.12,9.12,0,0,1,3.89-.14.52.52,0,0,1,.23.33c-.37.43-.92,0-1.32.29l-9.15,0c-1,.33-2-.1-3,.25a1,1,0,0,1-.8.21c-.41-.08-.82-.23-1.2.09Z"/><path class="97d071f7-a604-48d3-b80a-20a79ce52ab3" d="M78,51.76a1.94,1.94,0,0,1-2.4.88c-.89-.29-1.08-1.17-1.14-2a30.28,30.28,0,0,1,0-3.16c0-.49,0-.94-.54-1.15.44-.68,1.11-.35,1.64-.25s.22.64.24,1a33.14,33.14,0,0,0,.11,4.11l.29.46c.52.42,1,.18,1.54,0A.28.28,0,0,1,78,51.76Z"/><path class="97d071f7-a604-48d3-b80a-20a79ce52ab3" d="M15.93,51.52c1.1-1.24.83-4.65-.58-5.52.92,0,1.7-.25,2.45.17a26.81,26.81,0,0,0,.06,5.3c.29.27.65.2,1.29,0A3.4,3.4,0,0,1,17,52.68c-.84.27-.13-1.1-.93-.94A.27.27,0,0,1,15.93,51.52Z"/><path class="97d071f7-a604-48d3-b80a-20a79ce52ab3" d="M.31,41.82c.62.53,1.35.23,2,.24,1.54,0,3.07,0,4.61,0a14.24,14.24,0,0,1,4.12-.17c7.61-.07,15.21,0,22.82,0a1.89,1.89,0,0,1,1,.14.16.16,0,0,1,0,.16c-.31.33-.72.18-1.08.18H1a1.87,1.87,0,0,1-.75,0C-.24,42.09.16,42,.31,41.82Z"/><path class="97d071f7-a604-48d3-b80a-20a79ce52ab3" d="M66.81,4.29c-1.32-.54-2.71-.11-4.06-.25.13-.71.69-.49,1.11-.5a22.3,22.3,0,0,1,6.57.51,41.2,41.2,0,0,0,6.8,1,.5.5,0,0,1,.49.48,1.47,1.47,0,0,1-1.28,0,10.18,10.18,0,0,1-3.28-.52A1.67,1.67,0,0,0,71.9,5c-1.18-.29-2.43,0-3.58-.49C67.85,4.26,67.28,4.59,66.81,4.29Z"/><path class="97d071f7-a604-48d3-b80a-20a79ce52ab3" d="M21.4,46.4c-.81.79-.51,1.36.36,1.81.48.25,1,.47,1.44.71A10.16,10.16,0,0,1,24.38,50a.33.33,0,0,1,0,.22,1.84,1.84,0,0,1-1,1.52l-.18,0c.19-.85-.26-1.32-1-1.68-.48-.24-.94-.54-1.41-.81-.24-.27-.51-.51-.74-.78A1.72,1.72,0,0,1,21.17,46C21.35,46.05,21.57,46.12,21.4,46.4Z"/><path class="97d071f7-a604-48d3-b80a-20a79ce52ab3" d="M72.84,46.5c0,.24-.09.46-.33.46-.78,0-.64.46-.59,1,.12,1.4-.53,2.11-2.07,2.42a.57.57,0,0,1-.17-.46v0a.19.19,0,0,1,0-.07l.15.11a2.33,2.33,0,0,0,.42-2.85c-.28-.76-.9-.78-1.56-.67a.28.28,0,0,1,0,.09l-.13-.07a.49.49,0,0,0-.5-.27.55.55,0,0,1,.14-.09,1.8,1.8,0,0,1,1.62-.22,7.32,7.32,0,0,0,2.45.36C72.52,46.19,72.84,46.09,72.84,46.5Z"/><path class="97d071f7-a604-48d3-b80a-20a79ce52ab3" d="M72.59,53.77a.64.64,0,0,1-.08.14c-1.06,1.91-4.43,2.5-6,1a.8.8,0,0,1-.14-1.2c.29-.36.61-.69.92-1l.29.31a.91.91,0,0,0,.07.14h-.12c-.21.54-.21,1,.51,1.27a4,4,0,0,0,3.9-.57h0l-.07-.11.24,0C72.22,54,72.41,53.84,72.59,53.77Z"/><path class="97d071f7-a604-48d3-b80a-20a79ce52ab3" d="M14,51.23l.53.5c-.35.36-.92.15-1.27.5-.77-.59-.62-1.46-.71-2.27-.13-1.19.32-2.42-.3-3.56.3-.76.93-.36,1.37-.3s.25.55.27.87A33.67,33.67,0,0,0,14,51.23Z"/><path class="97d071f7-a604-48d3-b80a-20a79ce52ab3" d="M96,6.05l-.8,0c0,.15-.43,0-.16.29.1.1.29.11.41.22h0a1.3,1.3,0,0,1-2,.58A14.13,14.13,0,0,1,91.6,5.85c-.21-.39-.67-.48-.94-.8-.08-.62-.33-1.06-1.07-1-.3,0-.42-.2-.46-.47A35,35,0,0,1,96,6.05Z"/><path class="97d071f7-a604-48d3-b80a-20a79ce52ab3" d="M78,51.76l-.33,0q-.1-.07-.06-.15s0-.08.07-.08l.73-.53a10.21,10.21,0,0,0,0-4c-.19-.25-.34-.54-.71-.58.48-.73,1.16-.22,1.75-.27a22,22,0,0,1,.1,3.89,3,3,0,0,0,.16,1.48c.26.38.69,0,1,.18C79.58,52.82,78.88,52.84,78,51.76Z"/><path class="97d071f7-a604-48d3-b80a-20a79ce52ab3" d="M119.07,26.36c.08,0,.21,0,.23.07a6.25,6.25,0,0,0,2.56,3c.12.09.17.22.07.3-1,.91.19,1.18.52,1.61.5.66,1.22,1.18,1.15,2.14a22.45,22.45,0,0,1-3-3.56,2.2,2.2,0,0,0-1.52-1.56l-1.79-1.77a.54.54,0,0,1,.54-.27l.5.51A1.5,1.5,0,0,0,119.07,26.36Z"/><path class="97d071f7-a604-48d3-b80a-20a79ce52ab3" d="M85.57,2.74c-.14.37-.8.24-.75.79a.7.7,0,0,1-1,0c-.73.05-.69,1.3-1.68,1-.76-.21-1.53-.6-2.35,0a.51.51,0,0,1-.76-.4c-.07-.56.33-.58.73-.59.48-.47,1.15-.21,1.69-.44A4.53,4.53,0,0,0,82,2.52c.84.36,1.69,1.09,2.54,0a.28.28,0,0,1,.47,0A.47.47,0,0,0,85.57,2.74Z"/><path class="97d071f7-a604-48d3-b80a-20a79ce52ab3" d="M88.33,8.62a2.07,2.07,0,0,1-1.49-.49c-.33-.41-.83-.33-1.26-.48-.16-.25,0-.43.13-.61s.67-.16.89-.46h0c.92-1,1.05-1,2,.06.36.4,1,.52,1.19,1.09a.89.89,0,0,1-.19,1A2.11,2.11,0,0,1,88.33,8.62Z"/><path class="97d071f7-a604-48d3-b80a-20a79ce52ab3" d="M130,32.91a26.5,26.5,0,0,1,3.53,5.63,2.73,2.73,0,0,1-.25.23c-.36.13-.66.48-1.1.27a1.33,1.33,0,0,1-.25-.45,2.63,2.63,0,0,1-.37-1.52,1.34,1.34,0,0,0-1.13-1.63,6.74,6.74,0,0,1-.89-.2.61.61,0,0,1-.45-.73C129.45,34,129.41,33.28,130,32.91Z"/><path class="97d071f7-a604-48d3-b80a-20a79ce52ab3" d="M22.93,12.69c.29-.12.26-.68.74-.55l.15.06a2.2,2.2,0,0,0,.7.31.9.9,0,0,1,.28.13l.61.43.08.13a1.43,1.43,0,0,1-1,.5,7.86,7.86,0,0,0-1.81,1c-.89.22-1.45,1-2.28,1.33a.61.61,0,0,1-.21-.24,2.67,2.67,0,0,1-.21-.62c-.06-.38.2-.61.41-.86a.32.32,0,0,1,.23-.09,3.54,3.54,0,0,1,.95-.37c.23,0,.5.08.62-.24a1.56,1.56,0,0,1,.15-.41C22.52,13,22.75,12.87,22.93,12.69Z"/><path class="97d071f7-a604-48d3-b80a-20a79ce52ab3" d="M80.54,1.49c-1.51.87-2.84.2-4.29-.33C75,.68,73.49,1.08,72.11,1,71.66,1,71,1.26,70.86.5c.47-.31,1,0,1.5-.19.37,0,.74-.14,1,.18a2.24,2.24,0,0,0,1.51,0A34.57,34.57,0,0,1,80.54,1.49Z"/><path class="97d071f7-a604-48d3-b80a-20a79ce52ab3" d="M106.39,11.37a5,5,0,0,1,2.81,1.79c-.62.19-1.16.44-1,1.27,0,.6.09,1.3-.76,1.5a.85.85,0,0,1-.59-.22h0a.82.82,0,0,1-.24-.46,1.67,1.67,0,0,1,0-.5c.12-.4-.33-.68-.23-1.07C106.66,12.9,105.83,12.16,106.39,11.37Z"/><path class="97d071f7-a604-48d3-b80a-20a79ce52ab3" d="M39.92,5.06c-.51.26-1-.11-1.53,0a14.76,14.76,0,0,1,5.4-1.78A3,3,0,0,0,44.45,3,2.36,2.36,0,0,1,46,3c.2,1.2-.75,1.25-1.48,1.39a21.27,21.27,0,0,1-2.65.09A12.61,12.61,0,0,0,39.92,5.06Z"/><path class="97d071f7-a604-48d3-b80a-20a79ce52ab3" d="M52.79,43.85c-.3-.15-.43-.35-.2-.66.21-.16.36-.42.68-.37a3.42,3.42,0,0,1,1.71,0c.67.2,1.37.71,2-.42a12,12,0,0,1,.09,3.82c-.52-.38-.31-.76-.44-1s-.17-.82-.58-1l-1.19-.71a1.14,1.14,0,0,0-1.26-.08C53.34,43.52,53,43.52,52.79,43.85Z"/><path class="97d071f7-a604-48d3-b80a-20a79ce52ab3" d="M23.63,52.22c-.56.69-1.32.56-2.07.51-.52,0-1-.3-1.59,0V50.05c.93,1.16,1.39,3,3.25,1.68h.06A1.52,1.52,0,0,1,23.63,52.22Z"/><path class="97d071f7-a604-48d3-b80a-20a79ce52ab3" d="M135.06,41.05c.68,1.14.63,1.29-.58,1.25a25,25,0,0,1-5.11-.17c.26-.38.68-.34,1.07-.39a1.64,1.64,0,0,0,.85-.32,2.28,2.28,0,0,1,.93-.16h1.48A7,7,0,0,0,135.06,41.05Z"/><path class="97d071f7-a604-48d3-b80a-20a79ce52ab3" d="M16.34,18.79c-.6.59-1.49.8-2,1.5-.46.15-.94.34-.78-.49l2.26-2.07c.25-.18.61-.23.75-.56l.26-.25C17.87,17.85,16.74,18.23,16.34,18.79Z"/><path class="97d071f7-a604-48d3-b80a-20a79ce52ab3" d="M128.94,41.61a13.94,13.94,0,0,1-1.79-3,.66.66,0,0,1,.23-.91c.61-.07,1.2-.13,1.46.62a1.38,1.38,0,0,0,.48,1.66,1.64,1.64,0,0,1,.3.64A1,1,0,0,1,128.94,41.61Z"/><path class="97d071f7-a604-48d3-b80a-20a79ce52ab3" d="M117.8,26.36a.61.61,0,0,1-.54.27l-.49-.48A2.65,2.65,0,0,0,115,24.34a3.17,3.17,0,0,1-1-1,.9.9,0,0,1,.55-.53A6.85,6.85,0,0,1,117.8,26.36Z"/><path class="97d071f7-a604-48d3-b80a-20a79ce52ab3" d="M128.18,51c0-1.17.73-.55,1.22-.53l.35.68c.37.13-.36,1,.48.8l.94.29v.18h-3.79c.2-.4.58-.31.87-.42s.23-.51,0-.78A.24.24,0,0,1,128.18,51Z"/><path class="97d071f7-a604-48d3-b80a-20a79ce52ab3" d="M66.81.49c-2.28,0-4.56.11-6.82,0-.77,0-1.31.81-2.06.3,0-.14.17-.17.25-.26A35.69,35.69,0,0,1,64.29,0a9.67,9.67,0,0,0,1.94.1C66.47.14,66.85,0,66.81.49Z"/><path class="97d071f7-a604-48d3-b80a-20a79ce52ab3" d="M135.06,41.05c-.25.61-.78.53-1.28.53a1.23,1.23,0,0,1-.3-.45c-.26-.85-.68-1.68-.21-2.59h.26A8.06,8.06,0,0,1,135.06,41.05Z"/><path class="97d071f7-a604-48d3-b80a-20a79ce52ab3" d="M98,51.77c0,.32.19.46.5.47a1.85,1.85,0,0,1-1.6.52c-.72-.07-1.44-.19-2.16-.29.37-.44-.39-1.25.5-1.52C96.39,52.35,96.8,52.47,98,51.77Z"/><path class="97d071f7-a604-48d3-b80a-20a79ce52ab3" d="M101.06,51.48a1.06,1.06,0,0,1,1.61.18c.64.71.38,1.42-.11,2.09-.22,0-.35,0-.25-.27.17-.66-.25-.77-.75-.81C101.15,52.38,100.83,52,101.06,51.48Z"/><path class="97d071f7-a604-48d3-b80a-20a79ce52ab3" d="M39.15,46l-.51.48c-1-.23-1.46.1-1.76,1.08s-.44.84-1.05.21c-.11-.42.33-.69.28-1.09C36.93,45.56,38,45.72,39.15,46Z"/><path class="97d071f7-a604-48d3-b80a-20a79ce52ab3" d="M81.51,6.6l1.54,0c.77-.52,1.47-1.22,2.53-1v1c-.48.17-.69.63-1,1C83.59,7.12,82.45,7.16,81.51,6.6Z"/><path class="97d071f7-a604-48d3-b80a-20a79ce52ab3" d="M16.34,18.79c0-.66,1.13-1,.48-1.87l.79-.62c.57.27,1.3-.13,1.8.43A19.37,19.37,0,0,1,16.34,18.79Z"/><path class="97d071f7-a604-48d3-b80a-20a79ce52ab3" d="M119.51,52c-.2.39-.39.81-1,.77a.75.75,0,0,1-.77-.92.8.8,0,0,1,.84-.76C119.16,51,119.42,51.42,119.51,52Z"/><path class="97d071f7-a604-48d3-b80a-20a79ce52ab3" d="M26.23,11.65a1.6,1.6,0,0,0,.25,1c-.43,0-.51.63-1,.55l-.06-.06c-.21-.22-.53-.24-.73-.48h0c-.25-.3-.71-.19-1-.47l-.06,0a4.67,4.67,0,0,1,1.76-1l.07.06C25.7,11.39,26,11.42,26.23,11.65Z"/><path class="97d071f7-a604-48d3-b80a-20a79ce52ab3" d="M133.5,51c.58.12,1,.4.93.93a.8.8,0,0,1-.93.79.74.74,0,0,1-.77-.8A1,1,0,0,1,133.5,51Z"/><path class="97d071f7-a604-48d3-b80a-20a79ce52ab3" d="M9,24l2.29-2.28a.92.92,0,0,1,.55.56,14.65,14.65,0,0,1-2.28,2C9.19,24.5,8.94,24.52,9,24Z"/><path class="97d071f7-a604-48d3-b80a-20a79ce52ab3" d="M33.84,7.09c-.48,1-.63,1.11-1.81,1-.33,0-.66,0-1,0a5.11,5.11,0,0,1,2.23-1A.47.47,0,0,1,33.84,7.09Z"/><path class="97d071f7-a604-48d3-b80a-20a79ce52ab3" d="M106.63,17.76c.41-.59.84-.63,1.27,0,.59-.33.92-.14,1,.51-.26.34,0,.7,0,1.05A8,8,0,0,1,106.63,17.76Z"/><path class="97d071f7-a604-48d3-b80a-20a79ce52ab3" d="M66.81.49C66.06-.15,65.05.6,64.29,0h3.55c.57.23,1.2-.08,1.77.2l2.75.08c-.46.35-1,.1-1.5.19Z"/><path class="97d071f7-a604-48d3-b80a-20a79ce52ab3" d="M44.72,51.72c-.36-.34-.22-.79-.23-1.2q0-3.35,0-6.7c0-.4-.13-.85.2-1.21Z"/><path class="97d071f7-a604-48d3-b80a-20a79ce52ab3" d="M32.55,10.05l-.24-.43c1.39-.41,2.61-1.28,4.06-1.52.13.13.38.2.25.47Z"/><path class="97d071f7-a604-48d3-b80a-20a79ce52ab3" d="M107.9,14.19c-.18-1.13.45-1.22,1.3-1a2.28,2.28,0,0,1,1.77,1,1.06,1.06,0,0,1-.56.6,1.74,1.74,0,0,1-1.06-.46.82.82,0,0,0-1.15,0A.31.31,0,0,1,107.9,14.19Z"/><path class="97d071f7-a604-48d3-b80a-20a79ce52ab3" d="M110,50.88c-.31.6.81.77.41,1.39-.4,0-.82-.09-1.13.47V49.46c.47.15.36.5.45.74a.56.56,0,0,0,.18.53A.13.13,0,0,1,110,50.88Z"/><path class="97d071f7-a604-48d3-b80a-20a79ce52ab3" d="M14,51.23c-.53-1.29-.14-2.63-.22-3.94s-.21-1.35-1.53-.89c-.23,0-.6.09-.66-.2s.31-.26.51-.28c.38,0,.76,0,1.13,0,.62-.07.8.18.79.78C14,48.2,14,49.71,14,51.23Z"/><path class="97d071f7-a604-48d3-b80a-20a79ce52ab3" d="M106.39,11.37c-.16.79.8,1.47.25,2.31a1.49,1.49,0,0,1-1.15-1.34c0-.23.1-.49-.12-.69h0c-.11-1,.46-.67.95-.5A.34.34,0,0,1,106.39,11.37Z"/><path class="97d071f7-a604-48d3-b80a-20a79ce52ab3" d="M75.92,51.22c-.5-1.19-.17-2.44-.22-3.66-.07-1.57-.17-1.67-1.77-1.19-.15,0-.35.08-.43-.13s.06-.27.24-.32c1.54-.44,2.19,0,2.19,1.64C75.93,48.78,75.92,50,75.92,51.22Z"/><path class="97d071f7-a604-48d3-b80a-20a79ce52ab3" d="M117.8,20.78H117a.36.36,0,0,1,0-.51c.69.07.8-.24.52-.8,1.12.16,1.53,1.21,2.3,1.81a1.23,1.23,0,0,1-1.29-.5A.56.56,0,0,1,117.8,20.78Z"/><path class="97d071f7-a604-48d3-b80a-20a79ce52ab3" d="M19.41,16.73c-.59-.2-1.37.41-1.8-.43a.23.23,0,0,1,.2-.1c.72-.15,1.14-.76,1.75-1.08a3.69,3.69,0,0,1,.83.59V16Z"/><path class="97d071f7-a604-48d3-b80a-20a79ce52ab3" d="M22.66,46c1.57-.07,1.57-.06,1.19,2.22a7.24,7.24,0,0,0-1.18-1.75A.32.32,0,0,1,22.66,46Z"/><path class="97d071f7-a604-48d3-b80a-20a79ce52ab3" d="M41.43,23.13a30.44,30.44,0,0,1-7.57,0A51.7,51.7,0,0,1,41.43,23.13Z"/><path class="97d071f7-a604-48d3-b80a-20a79ce52ab3" d="M13.55,19.8c0,.52.43.47.78.49-.54.66-1.5.8-2,1.54-.5-.11-.5-.11-.34-.81C12.66,20.79,12.75,19.85,13.55,19.8Z"/><path class="97d071f7-a604-48d3-b80a-20a79ce52ab3" d="M97.49,46c1.53-.08,1.53-.08,1.18,2.27a6.34,6.34,0,0,0-1.18-1.78A.34.34,0,0,1,97.49,46Z"/><path class="97d071f7-a604-48d3-b80a-20a79ce52ab3" d="M130,32.91c-.3.5,0,1.32-.79,1.57-.38-.23-.15-.77-.51-1h0a.74.74,0,0,1,0-1l.81,0C129.84,32.42,130,32.59,130,32.91Z"/><path class="97d071f7-a604-48d3-b80a-20a79ce52ab3" d="M128.19,30.42h-.25c-1.66,0-1.66,0-1.24-1.58C127.54,29,127.75,29.84,128.19,30.42Z"/><path class="97d071f7-a604-48d3-b80a-20a79ce52ab3" d="M97.25,8.1c.44,0,.48-.73,1-.51.15-.18.25-.4.5-.46l1.83,1c-.3,0-.66.07-.87-.07-.84-.58-1.19-.14-1.46.6a.54.54,0,0,1-.76,0A.52.52,0,0,1,97.25,8.1Z"/><path class="97d071f7-a604-48d3-b80a-20a79ce52ab3" d="M13.29,52.23c0-1.2.91-.17,1.27-.5l1.37-.21.15.22c-.21.6-.71.72-1.26.78-.48-.24-1.07.09-1.53-.29Z"/><path class="97d071f7-a604-48d3-b80a-20a79ce52ab3" d="M114.51,16.71c-.43.09-.94.84-1.15-.33-.13-.72-1.08-.8-1.65-1.18a.31.31,0,0,1,0-.48A9.53,9.53,0,0,1,114.51,16.71Z"/><path class="97d071f7-a604-48d3-b80a-20a79ce52ab3" d="M114.5,22.81a.51.51,0,0,1-.55.53c-.61-.11-.9-.59-1.22-1C113.57,21.58,114,22.26,114.5,22.81Z"/><path class="97d071f7-a604-48d3-b80a-20a79ce52ab3" d="M26.48,46.66c.25-.15.73-.12.61.08-.73,1.16-.23,2.36-.24,3.53a2,2,0,0,1-.3,1.18Z"/><path class="97d071f7-a604-48d3-b80a-20a79ce52ab3" d="M106.32,11.15c-.39,0-.89-.15-.95.5h-.51c-.25-.35-.77-.16-1-.51v-.5c.24-.35.7-.22,1-.42A4.13,4.13,0,0,1,106.32,11.15Z"/><path class="97d071f7-a604-48d3-b80a-20a79ce52ab3" d="M127.43,37.78l-.28.84a3.71,3.71,0,0,1-1-1.56c.32-.05.55-.2.55-.57s.26-.32.51-.23a.86.86,0,0,1,.29.64A2.61,2.61,0,0,1,127.43,37.78Z"/><path class="97d071f7-a604-48d3-b80a-20a79ce52ab3" d="M40.43,51.48c0-1.44-1.08-2.86-.06-4.31Z"/><path class="97d071f7-a604-48d3-b80a-20a79ce52ab3" d="M46,3,44.45,3l3.34-.95-.51,1a.82.82,0,0,1-.73.27A1.09,1.09,0,0,1,46,3Z"/><path class="97d071f7-a604-48d3-b80a-20a79ce52ab3" d="M103.84,10.13c-1.09.07-1.49-.81-2-1.5a14,14,0,0,1,2.81,1.49A.54.54,0,0,1,103.84,10.13Z"/><path class="97d071f7-a604-48d3-b80a-20a79ce52ab3" d="M128.94,41.61l.53-1a.29.29,0,0,1,.31,0,1.44,1.44,0,0,1,.27.42c.13.43,1,.36.7,1.08l-1.38.07C129.05,42.11,129,41.88,128.94,41.61Z"/><path class="97d071f7-a604-48d3-b80a-20a79ce52ab3" d="M6.88,26.34a5.48,5.48,0,0,1,1.58-1.77.59.59,0,0,1,.55.28A7.49,7.49,0,0,1,7.33,26.4.35.35,0,0,1,6.88,26.34Z"/><path class="97d071f7-a604-48d3-b80a-20a79ce52ab3" d="M79.75,51.47c-.67-1.18-.11-2.45-.25-3.67a15,15,0,0,1,0-1.64c.07-.1.15-.1.22,0Z"/><path class="97d071f7-a604-48d3-b80a-20a79ce52ab3" d="M102.73,15.24c.84.12,1.33-.48,1.94-1.11.24.93-.91,1.26-.57,2A3.74,3.74,0,0,1,102.73,15.24Z"/><path class="97d071f7-a604-48d3-b80a-20a79ce52ab3" d="M115,24.34c1.41-.2,1.72.69,1.79,1.81Z"/><path class="97d071f7-a604-48d3-b80a-20a79ce52ab3" d="M27.76,51.22c-.64-.39-.22-1-.27-1.48-.07-.74.2-1.52-.17-2.22-.28-.53.29-.58.43-.86Z"/><path class="97d071f7-a604-48d3-b80a-20a79ce52ab3" d="M85,2.53h-.47c-1.2-.29-2.48-.26-3.55-1A13.62,13.62,0,0,1,85,2.53Z"/><path class="97d071f7-a604-48d3-b80a-20a79ce52ab3" d="M19.63,15.21c-.54.46-.91,1.21-1.82,1a14.71,14.71,0,0,1,2.58-1.93l-.25.93A.36.36,0,0,1,19.63,15.21Z"/><path class="97d071f7-a604-48d3-b80a-20a79ce52ab3" d="M17.86,51.47a12.63,12.63,0,0,1-.06-5.3Z"/><path class="97d071f7-a604-48d3-b80a-20a79ce52ab3" d="M53.11,1.5V1L56.67.53c.08,0,.11.1.08.14s-.06.07-.09.07C55.53,1.24,54.23.94,53.11,1.5Z"/><path class="97d071f7-a604-48d3-b80a-20a79ce52ab3" d="M84.57,7.55c.35-.5-.36-.43-.4-.75.41-.42.94-.14,1.41-.22h0a.6.6,0,0,1,.26.5l-.26.5a.19.19,0,0,1-.3,0Z"/><path class="97d071f7-a604-48d3-b80a-20a79ce52ab3" d="M27.75,12.12c.15-.46.76-1-.48-1.32,1.08-.21,1.61.58,2.33.37A5.7,5.7,0,0,1,27.75,12.12Z"/><path class="97d071f7-a604-48d3-b80a-20a79ce52ab3" d="M82.29,47.16l.29-.12c-.14,1.51.11,3-.16,4.52,0,.06-.12.11-.18.16C82.25,50.2,82.27,48.68,82.29,47.16Z"/><path class="97d071f7-a604-48d3-b80a-20a79ce52ab3" d="M124.64,27.89a1.88,1.88,0,0,1,.28-1.06,2,2,0,0,1,1.49,1.56A2.08,2.08,0,0,0,124.64,27.89Z"/><path class="97d071f7-a604-48d3-b80a-20a79ce52ab3" d="M116.31,18.22c-1.15.14-1.93-.14-1.8-1.51C115.28,17,115.61,17.83,116.31,18.22Z"/><path class="97d071f7-a604-48d3-b80a-20a79ce52ab3" d="M7.64,52.2a5.47,5.47,0,0,0,2.57-.2c.3.1.66,0,1,.53H7.48c-.16,0-.23-.14-.17-.22S7.52,52.24,7.64,52.2Z"/><path class="97d071f7-a604-48d3-b80a-20a79ce52ab3" d="M51.85,50.2l-.26,2.52c-.61-1-.07-2.13-.29-3.2C52,49.48,51.73,50,51.85,50.2Z"/><path class="97d071f7-a604-48d3-b80a-20a79ce52ab3" d="M78.45,47c.12-.19.39-.18.36,0-.23,1.34.24,2.74-.36,4Z"/><path class="97d071f7-a604-48d3-b80a-20a79ce52ab3" d="M119.05,28.4c1.23-.19,1.64.42,1.52,1.56A7.25,7.25,0,0,1,119.05,28.4Z"/><path class="97d071f7-a604-48d3-b80a-20a79ce52ab3" d="M33.84,7.09l-.57,0a5.12,5.12,0,0,1,2.34-1A1.8,1.8,0,0,1,33.84,7.09Z"/><path class="97d071f7-a604-48d3-b80a-20a79ce52ab3" d="M111.71,14.72v.48c-.26.16-.37.55-.76.51l-.13-.11a4.86,4.86,0,0,1-.38-.91.5.5,0,0,1,.53-.52C111.46,14,111.4,14.62,111.71,14.72Z"/><path class="97d071f7-a604-48d3-b80a-20a79ce52ab3" d="M23.63,52.22c-.3,0-.44-.18-.35-.49l1.12-1.5C24.68,51.1,24.12,51.65,23.63,52.22Z"/><path class="97d071f7-a604-48d3-b80a-20a79ce52ab3" d="M37.9,5.56c-.53,1-1.44.29-2.15.48.35-.71,1.22-.23,1.67-.73C37.7,5.15,37.93,5.11,37.9,5.56Z"/><path class="97d071f7-a604-48d3-b80a-20a79ce52ab3" d="M41.19,7.06c0-.57.84-.41.76-1a.51.51,0,0,1,.45-.14,2.28,2.28,0,0,1,.7.43.48.48,0,0,1,.17.27A6.43,6.43,0,0,1,41.19,7.06Z"/><path class="97d071f7-a604-48d3-b80a-20a79ce52ab3" d="M88.33,8.62h1.31a1.6,1.6,0,0,1,1.27.51l-.24.44A9.48,9.48,0,0,1,88.33,8.62Z"/><path class="97d071f7-a604-48d3-b80a-20a79ce52ab3" d="M12,21c.32.18-.15.7.34.81a.82.82,0,0,1-.54.49.52.52,0,0,1-.55-.56Z"/><path class="97d071f7-a604-48d3-b80a-20a79ce52ab3" d="M114.94,46.13a17.25,17.25,0,0,0,0-3.52A4.17,4.17,0,0,1,114.94,46.13Z"/><path class="97d071f7-a604-48d3-b80a-20a79ce52ab3" d="M76.44,5.57l1.28,0,2,0c.08.23-.06.32-.24.39a4.36,4.36,0,0,0-1.25,0C77.68,5.7,77,6,76.44,5.57Z"/><path class="97d071f7-a604-48d3-b80a-20a79ce52ab3" d="M105.09,16.74a1.12,1.12,0,0,1,1.53,1A4,4,0,0,1,105.09,16.74Z"/><path class="97d071f7-a604-48d3-b80a-20a79ce52ab3" d="M13.29,52.23c.5.15,1.17-.61,1.53.29A1,1,0,0,1,13.29,52.23Z"/><path class="97d071f7-a604-48d3-b80a-20a79ce52ab3" d="M21.66,13.93a1.66,1.66,0,0,1-1,.25,3.36,3.36,0,0,1,1.52-1c.1-.1.19-.09.28,0v.5C22.23,14,21.93,13.92,21.66,13.93Z"/><path class="97d071f7-a604-48d3-b80a-20a79ce52ab3" d="M101.8,14.71c.49,0,.75-.85,1.4-.35,0,.44-.55.45-.62.82A1,1,0,0,1,101.8,14.71Z"/><path class="97d071f7-a604-48d3-b80a-20a79ce52ab3" d="M22.68,14.66c.45-.61.94-1.14,1.81-1A3.18,3.18,0,0,1,22.68,14.66Z"/><path class="97d071f7-a604-48d3-b80a-20a79ce52ab3" d="M45,6l.29,0a5.68,5.68,0,0,1-2,.55l-.08-.08C43.48,5.63,43.78,5.54,45,6Z"/><path class="97d071f7-a604-48d3-b80a-20a79ce52ab3" d="M117.32,19.25c-.76.06-1.12-.26-1-1A1.16,1.16,0,0,1,117.32,19.25Z"/><path class="97d071f7-a604-48d3-b80a-20a79ce52ab3" d="M101.05,13.68c0,.19,0,.37,0,.56a3,3,0,0,1-1.81-1c.71-.2,1.14.73,1.86.48Z"/><path class="97d071f7-a604-48d3-b80a-20a79ce52ab3" d="M53.39,4.8c1-.52,2-.14,3-.25A8.72,8.72,0,0,1,53.39,4.8Z"/><path class="97d071f7-a604-48d3-b80a-20a79ce52ab3" d="M79.72,46.16H79.5c-.59.09-1.22-.22-1.76.21-.15,0-.34.07-.43-.12s0-.33.21-.31C78.26,46,79,45.65,79.72,46.16Z"/><path class="97d071f7-a604-48d3-b80a-20a79ce52ab3" d="M22.66,46v.47l-1.27,0L21.17,46A2,2,0,0,1,22.66,46Z"/><path class="97d071f7-a604-48d3-b80a-20a79ce52ab3" d="M63.5,51.43c-.56.57-1.17.53-2.06.13l.85-.11Z"/><path class="97d071f7-a604-48d3-b80a-20a79ce52ab3" d="M102.31,53.48l.25.27c0,.65-.37.75-.92.68C101.61,53.92,102.05,53.76,102.31,53.48Z"/><path class="97d071f7-a604-48d3-b80a-20a79ce52ab3" d="M53.89,52.68c.75-.12,1.45-.65,2.25-.25A3.3,3.3,0,0,1,53.89,52.68Z"/><path class="97d071f7-a604-48d3-b80a-20a79ce52ab3" d="M97.49,46v.49l-1.26-.06A.38.38,0,0,1,96,46,2.07,2.07,0,0,1,97.49,46Z"/><path class="97d071f7-a604-48d3-b80a-20a79ce52ab3" d="M96,46l.23.45-.46.35c-.37-.48-.51.16-.77.16C95.05,46.3,95.52,46.12,96,46Z"/><path class="97d071f7-a604-48d3-b80a-20a79ce52ab3" d="M124.92,49.38a3.08,3.08,0,0,1,2.52.07Z"/><path class="97d071f7-a604-48d3-b80a-20a79ce52ab3" d="M70.85,51.53a3,3,0,0,1-2.52-.06Z"/><path class="97d071f7-a604-48d3-b80a-20a79ce52ab3" d="M128.28,51.22c.4.07.73.27.62.7s-.42.14-.66.08Z"/><path class="97d071f7-a604-48d3-b80a-20a79ce52ab3" d="M69.85,49.93v.46a1.49,1.49,0,0,1-1,0c-.07-.17-.23-.36.08-.46h0a.67.67,0,0,1,.77-.09Z"/><path class="97d071f7-a604-48d3-b80a-20a79ce52ab3" d="M130.23,52c-.18.3-.56.42-.73.2s.34-.61.25-1Z"/><path class="97d071f7-a604-48d3-b80a-20a79ce52ab3" d="M95.26,51c-.58.37,0,1.12-.5,1.52a6,6,0,0,1,0-1.58C94.92,50.15,95.09,50.87,95.26,51Z"/><path class="97d071f7-a604-48d3-b80a-20a79ce52ab3" d="M77.72,51.49c0,.08,0,.16,0,.23-.51.11-1,1-1.5,0A2.32,2.32,0,0,0,77.72,51.49Z"/><path class="97d071f7-a604-48d3-b80a-20a79ce52ab3" d="M41.22,52c-.09-.4-.7-.11-.75-.57.46.2.72-.27,1.11-.34A.65.65,0,0,1,41.22,52Z"/><path class="97d071f7-a604-48d3-b80a-20a79ce52ab3" d="M5.9,27.77a1,1,0,0,1-.92.85,1.44,1.44,0,0,1,.71-1C5.81,27.6,5.89,27.65,5.9,27.77Z"/><path class="97d071f7-a604-48d3-b80a-20a79ce52ab3" d="M83.53,49.44c-.83-.41-.11-1-.18-1.53,0,0,.07,0,.1,0a.34.34,0,0,1,.11.07Z"/><path class="97d071f7-a604-48d3-b80a-20a79ce52ab3" d="M4.43,49.38a2.9,2.9,0,0,1,2.24,0A8,8,0,0,1,4.43,49.38Z"/><path class="97d071f7-a604-48d3-b80a-20a79ce52ab3" d="M85.28,7.61l.3,0c.44.13,1.13-.31,1.26.55A2.66,2.66,0,0,1,85.28,7.61Z"/><path class="97d071f7-a604-48d3-b80a-20a79ce52ab3" d="M103.84,10.13h.78l.23.1c-.14.6-.63.36-1,.42Z"/><path class="97d071f7-a604-48d3-b80a-20a79ce52ab3" d="M9,24.85a.57.57,0,0,1-.55-.28L9,24a.58.58,0,0,0,.56.31Z"/><path class="97d071f7-a604-48d3-b80a-20a79ce52ab3" d="M98.76,7.13l-.5.46c.08-.58-.81-.42-.76-1Z"/><path class="97d071f7-a604-48d3-b80a-20a79ce52ab3" d="M30,10.93c.19-.58.44-1,1-.3C30.79,11,30.4,10.9,30,10.93Z"/><path class="97d071f7-a604-48d3-b80a-20a79ce52ab3" d="M24.38,50a2.25,2.25,0,0,1-1.18-1.09A1.41,1.41,0,0,1,24.38,50Z"/><path class="97d071f7-a604-48d3-b80a-20a79ce52ab3" d="M80.77,6.54A4.49,4.49,0,0,1,79.2,6.1a.49.49,0,0,1,.37-.16,1.18,1.18,0,0,1,1.19.13h0A.31.31,0,0,1,80.77,6.54Z"/><path class="97d071f7-a604-48d3-b80a-20a79ce52ab3" d="M123.14,24.8c-.06.18,0,.51-.33.38s-.14-.59-.17-.9C123,24.29,123.2,24.41,123.14,24.8Z"/><path class="97d071f7-a604-48d3-b80a-20a79ce52ab3" d="M17.85,22.86c.38-.57.59-.91,1.27-.49Z"/><path class="97d071f7-a604-48d3-b80a-20a79ce52ab3" d="M5.9,27.77l-.21-.14a1.56,1.56,0,0,1,.72-.8c.17,0,.19.17.25.28C6.46,27.4,6.3,27.72,5.9,27.77Z"/><path class="97d071f7-a604-48d3-b80a-20a79ce52ab3" d="M42.91,52.21c.52.13,1.11-.19,1.58.27a4.79,4.79,0,0,1-1.73,0C42.22,52.29,42.75,52.26,42.91,52.21Z"/><path class="97d071f7-a604-48d3-b80a-20a79ce52ab3" d="M125.15,35c.38.28.22.68.24,1a2.34,2.34,0,0,1-.78-1Z"/><path class="97d071f7-a604-48d3-b80a-20a79ce52ab3" d="M36.62,8.57l-.25-.47h1.52C37.54,8.44,37,8.37,36.62,8.57Z"/><path class="97d071f7-a604-48d3-b80a-20a79ce52ab3" d="M69.61.23C69,.17,68.39.42,67.84,0A3.16,3.16,0,0,1,69.61.23Z"/><path class="97d071f7-a604-48d3-b80a-20a79ce52ab3" d="M101.06,51.48l.5,1.19C100.85,52.5,100.69,52.1,101.06,51.48Z"/><path class="97d071f7-a604-48d3-b80a-20a79ce52ab3" d="M89.4,52.68c.42-.31.83-.67,1.24,0Z"/><path class="97d071f7-a604-48d3-b80a-20a79ce52ab3" d="M55,42.82H53.27A2.12,2.12,0,0,1,55,42.82Z"/><path class="97d071f7-a604-48d3-b80a-20a79ce52ab3" d="M97.28,6.56c-.4,0-.92.21-1-.46A1.52,1.52,0,0,1,97.28,6.56Z"/><path class="97d071f7-a604-48d3-b80a-20a79ce52ab3" d="M83.54,51.22a1.19,1.19,0,0,1,0-1.51Z"/><path class="97d071f7-a604-48d3-b80a-20a79ce52ab3" d="M64.68,50.79a2,2,0,0,1-.07-.57c0-.08.16-.14.25-.2a1.34,1.34,0,0,1,.1.44C65,50.54,64.83,50.62,64.68,50.79Z"/><path class="97d071f7-a604-48d3-b80a-20a79ce52ab3" d="M6.66,27.11l-.25-.28a.65.65,0,0,1,.47-.49l.45.06Z"/><path class="97d071f7-a604-48d3-b80a-20a79ce52ab3" d="M37.9,5.56a.51.51,0,0,0-.48-.25c.21-.49.65-.15,1-.28A.45.45,0,0,1,37.9,5.56Z"/><path class="97d071f7-a604-48d3-b80a-20a79ce52ab3" d="M71.9,5c.43-.24.86-.4,1.26,0Z"/><path class="97d071f7-a604-48d3-b80a-20a79ce52ab3" d="M36.11,46.64c.34.47-.14.74-.28,1.09C35.54,47.26,35.8,46.94,36.11,46.64Z"/><path class="97d071f7-a604-48d3-b80a-20a79ce52ab3" d="M51.39,5.1c.36-.62.79-.28,1.2-.09Z"/><path class="97d071f7-a604-48d3-b80a-20a79ce52ab3" d="M66.81,4.29c.5.08,1.06-.18,1.51.22H66.81c-.08,0-.11-.1-.08-.14s0-.08.08-.08Z"/><path class="97d071f7-a604-48d3-b80a-20a79ce52ab3" d="M80.77,6.54V6.07c.38,0,.76,0,.74.53Z"/><path class="97d071f7-a604-48d3-b80a-20a79ce52ab3" d="M52.53,1.2c-.33.52-.74.31-1.15.14Z"/><path class="97d071f7-a604-48d3-b80a-20a79ce52ab3" d="M74.92.53a1.2,1.2,0,0,1-1.51,0Z"/><path class="97d071f7-a604-48d3-b80a-20a79ce52ab3" d="M111.73,52.67a1.39,1.39,0,0,1,1.48,0A2.86,2.86,0,0,1,111.73,52.67Z"/><path class="97d071f7-a604-48d3-b80a-20a79ce52ab3" d="M56.66.74V.53L58.18.48l-.25.26Z"/><path class="97d071f7-a604-48d3-b80a-20a79ce52ab3" d="M111.42,21.3c.45,0,.81,0,.77.61A1.21,1.21,0,0,1,111.42,21.3Z"/><path class="97d071f7-a604-48d3-b80a-20a79ce52ab3" d="M79.51,6.05l-.31,0-1-.09c.37-.32.82-.13,1.24-.18q.14.06.09.15S79.53,6.05,79.51,6.05Z"/><path class="97d071f7-a604-48d3-b80a-20a79ce52ab3" d="M66.81,4.29v.22H65.55C65.92,4.14,66.39,4.35,66.81,4.29Z"/><path class="97d071f7-a604-48d3-b80a-20a79ce52ab3" d="M22.42,13.18l-.28,0c.17-.3.37-.58.79-.47A.47.47,0,0,1,22.42,13.18Z"/><path class="97d071f7-a604-48d3-b80a-20a79ce52ab3" d="M53.62,43.35c.44-.34.87-.42,1.26.08Z"/><path class="97d071f7-a604-48d3-b80a-20a79ce52ab3" d="M101,14.24c.4-.07.77-.09.79.48A.85.85,0,0,1,101,14.24Z"/><path class="97d071f7-a604-48d3-b80a-20a79ce52ab3" d="M125.67,36.47c.51-.08.77,0,.44.58A1,1,0,0,1,125.67,36.47Z"/><path class="97d071f7-a604-48d3-b80a-20a79ce52ab3" d="M61.75,52.68c.33-.56.66-.27,1,0Z"/><path class="97d071f7-a604-48d3-b80a-20a79ce52ab3" d="M16.56,17.17c0,.56-.35.58-.75.56A1.1,1.1,0,0,1,16.56,17.17Z"/><path class="97d071f7-a604-48d3-b80a-20a79ce52ab3" d="M20.11,48.46a1.06,1.06,0,0,1,.74.78A.73.73,0,0,1,20.11,48.46Z"/><path class="97d071f7-a604-48d3-b80a-20a79ce52ab3" d="M56.07,44.14c.58.13.61.56.58,1Z"/><path class="97d071f7-a604-48d3-b80a-20a79ce52ab3" d="M109.88,50.73c-.14,0-.32.19-.41,0a.38.38,0,0,1,.23-.5Z"/><path class="97d071f7-a604-48d3-b80a-20a79ce52ab3" d="M34.87,42a2.92,2.92,0,0,1-.5.09L6.94,42c-.22-.48.09-.45.42-.45q13.4,0,26.79-.08C34.59,41.51,34.77,41.6,34.87,42Z"/><path class="97d071f7-a604-48d3-b80a-20a79ce52ab3" d="M128.7,33.46c.68.09.46.62.51,1a.47.47,0,0,0,.51.51c.27.27.51.57.79.85a1.54,1.54,0,0,1,.21.29c.14.34.32.68-.05,1A.61.61,0,0,1,130,37a1.66,1.66,0,0,0-1.19-1.48c-.65-.19-.57-.61-.58-1.06Z"/><path class="97d071f7-a604-48d3-b80a-20a79ce52ab3" d="M108.92,18.25c-.29-.28-.54-.62-1-.51.25-.34,0-.68,0-1,.21-.62.9-.68,1.28-1.1a.78.78,0,0,1,.43-.25.87.87,0,0,1,.42.23c.19.23.49.36.66.62,0,.51-.39.51-.76.5-.67.29-.24,1.31-1,1.53Z"/><path class="97d071f7-a604-48d3-b80a-20a79ce52ab3" d="M108.92,18.25c-.17-.36.84-.59,0-1.19-.31-.23.65-.18,1-.34.09.68.62.46,1,.51-.12.71-.44.93-1.52,1Z"/><path class="97d071f7-a604-48d3-b80a-20a79ce52ab3" d="M120.48,23.94c.76-.07,1.35-.39,1.53.26.07.24.39.88,0,.94C121.37,25.27,121.13,24.52,120.48,23.94Z"/><path class="97d071f7-a604-48d3-b80a-20a79ce52ab3" d="M109.43,18.25c.48-.38,1.25-.33,1.52-1,.21,0,.41.09.47.35.21,1.05-1.57.32-1.3,1.43C109.76,18.87,109.46,18.68,109.43,18.25Z"/><path class="97d071f7-a604-48d3-b80a-20a79ce52ab3" d="M126.55,33.24c-.76.16-1,1-1.83.56C125.1,33.12,125.52,32.74,126.55,33.24Z"/><path class="97d071f7-a604-48d3-b80a-20a79ce52ab3" d="M119.07,26.36c-.06.3.15.69-.21.87s-.34-.28-.56-.36C118.33,26.35,118.7,26.36,119.07,26.36Z"/><path class="97d071f7-a604-48d3-b80a-20a79ce52ab3" d="M124,27.54c-.4-.58-.44-.87-.11-1.1.08-.05.3,0,.33,0C124.43,26.9,123.86,27,124,27.54Z"/><path class="97d071f7-a604-48d3-b80a-20a79ce52ab3" d="M110.69,16.22c-.37,0-.73,0-.76-.51a.72.72,0,0,1,1,0h0A.53.53,0,0,1,110.69,16.22Z"/><path class="97d071f7-a604-48d3-b80a-20a79ce52ab3" d="M128.7,32.45v1c-.27,0-.47-.14-.49-.45A.48.48,0,0,1,128.7,32.45Z"/><path class="97d071f7-a604-48d3-b80a-20a79ce52ab3" d="M124.64,27.89c-.06.28.16.65-.22.84,0,0-.21-.1-.23-.18C124.09,28.17,124.23,27.93,124.64,27.89Z"/><path class="97d071f7-a604-48d3-b80a-20a79ce52ab3" d="M117,20.27v.51c-.29-.06-.66.15-.88-.25C116.37,20.13,116.74,20.34,117,20.27Z"/><path class="97d071f7-a604-48d3-b80a-20a79ce52ab3" d="M117.8,20.78h.76C118.3,21.58,118.05,21.18,117.8,20.78Z"/><path class="97d071f7-a604-48d3-b80a-20a79ce52ab3" d="M62.75,2c1.68,0,3.37,0,5,0,.77,0,1.59.25,2.29-.39a.43.43,0,0,1,.71.23c.12.4-.07.65-.5.67H58.69c-.22-.43,0-.7.39-.7C60.31,1.81,61.55,1.51,62.75,2Z"/><path class="97d071f7-a604-48d3-b80a-20a79ce52ab3" d="M54.63,3.53a11,11,0,0,0-3,.79,6,6,0,0,1-1,.23c0-.62-.68-.38-1-1,1.81.19,3.33-.84,5.06-.55.29.06.67-.15.88.25C55.3,3.68,54.93,3.47,54.63,3.53Z"/><path class="97d071f7-a604-48d3-b80a-20a79ce52ab3" d="M89.64,7.59c-.5,0-.78-.68-1.36-.53a.27.27,0,0,1-.22-.1c-.65-.82-.65-.82-1.46-.38-.35-.6-.63-1.16.5-1a2.91,2.91,0,0,1,2.79,0h.26a.71.71,0,0,0,.1.14c-.07.62-.55,1.11-.5,1.76Z"/><path class="97d071f7-a604-48d3-b80a-20a79ce52ab3" d="M62.75,2h-3.1c-.4,0-.87-.1-1,.51-.5-.15-1.4.37-1.43-.48s.88-.48,1.38-.52c1-.06,2.09,0,3.14,0C62.18,1.51,62.66,1.39,62.75,2Z"/><path class="97d071f7-a604-48d3-b80a-20a79ce52ab3" d="M89.89,5.56H87.1C88.21,4.31,88.91,4.31,89.89,5.56Z"/><path class="97d071f7-a604-48d3-b80a-20a79ce52ab3" d="M85.58,5.56c-1,0-1.53,1.09-2.53,1C83.62,5.35,84.89,4.84,85.58,5.56Z"/><path class="97d071f7-a604-48d3-b80a-20a79ce52ab3" d="M82,2.52c0,.28,0,.58-.25.76-.59-.08-1.24.2-1.78-.25C80.47,2,81.36,2.73,82,2.52Z"/><path class="97d071f7-a604-48d3-b80a-20a79ce52ab3" d="M90.66,5.05c.39,0,.93-.17,1,.51a.45.45,0,0,1,0,.55c-.67.23-1.09-.23-1.56-.55h0A.47.47,0,0,1,90.66,5.05Z"/><path class="97d071f7-a604-48d3-b80a-20a79ce52ab3" d="M80,3c.59.09,1.24-.24,1.78.25-.63.51-1.36.14-2,.25A.51.51,0,0,1,80,3Z"/><path class="97d071f7-a604-48d3-b80a-20a79ce52ab3" d="M83.81,3.53h1c.24.24.21.43-.12.48S83.87,4.13,83.81,3.53Z"/><path class="97d071f7-a604-48d3-b80a-20a79ce52ab3" d="M79.51,6.05a1.79,1.79,0,0,1,0-.23l.25-.25c.4,0,.93-.18,1,.5Z"/><path class="97d071f7-a604-48d3-b80a-20a79ce52ab3" d="M85.84,7.08a.51.51,0,0,1-.26-.5h1C86.57,7.09,86.2,7.09,85.84,7.08Z"/><path class="97d071f7-a604-48d3-b80a-20a79ce52ab3" d="M105.37,11.65c.69.51.48,1.58,1.27,2,0,.28.18.4.42.54.47.3.16.41-.17.48a.35.35,0,0,1-.51,0l-.51-1c-.18-.28-.59-.21-.76-.51C104.79,12.6,105.12,12.13,105.37,11.65Z"/><path class="97d071f7-a604-48d3-b80a-20a79ce52ab3" d="M109.43,15.71c-.28.69-1.05.64-1.53,1-.74.07-.92-.42-1-1h.51a.43.43,0,0,0,.65,0A1,1,0,0,1,109.43,15.71Z"/><path class="97d071f7-a604-48d3-b80a-20a79ce52ab3" d="M103.84,11.14c.4,0,.94-.17,1,.51-.53-.17-.8.5-1.28.49C103.28,11.65,104,11.52,103.84,11.14Z"/><path class="97d071f7-a604-48d3-b80a-20a79ce52ab3" d="M96.9,10.46c.58-.39.9-.42,1.29-.09C97.84,10.78,97.49,10.61,96.9,10.46Z"/><path class="97d071f7-a604-48d3-b80a-20a79ce52ab3" d="M96,8.1c.42-.81.85-.81,1.27,0Z"/><path class="97d071f7-a604-48d3-b80a-20a79ce52ab3" d="M106.89,15.2v.51c-.26-.16-1,.39-.76-.51A.55.55,0,0,1,106.89,15.2Z"/><path class="97d071f7-a604-48d3-b80a-20a79ce52ab3" d="M105.11,13.17c.37,0,.74,0,.76.51C105.6,13.54,104.91,14,105.11,13.17Z"/><path class="97d071f7-a604-48d3-b80a-20a79ce52ab3" d="M97.5,8.61h.76c.15.32.12.52-.32.51S97.27,9.11,97.5,8.61Z"/><path class="97d071f7-a604-48d3-b80a-20a79ce52ab3" d="M96.55,9.11c-.07-.1-.19-.2-.18-.27a.3.3,0,0,1,.24-.18c.17,0,.32.09.26.28S96.68,9,96.55,9.11Z"/><path class="97d071f7-a604-48d3-b80a-20a79ce52ab3" d="M106.89,15.2h-.76a.52.52,0,0,1,.25-.51h.51Z"/><path class="97d071f7-a604-48d3-b80a-20a79ce52ab3" d="M95.47,9.12c-.34-.69.25-.43.51-.51A.47.47,0,0,1,95.47,9.12Z"/><path class="97d071f7-a604-48d3-b80a-20a79ce52ab3" d="M101.05,13.68c0-.26.1-.5.44-.45.08,0,.21.18.19.23-.12.3-.4.19-.63.22Z"/><path class="97d071f7-a604-48d3-b80a-20a79ce52ab3" d="M6,48.74a4.66,4.66,0,0,1-1.49,0c-.38,0-.51-.25-.29-.6C4.52,49.14,5.4,48.4,6,48.74Z"/><path class="97d071f7-a604-48d3-b80a-20a79ce52ab3" d="M6,48.74c-.49.33-1,.16-1.55.15s-.56-.34-.23-.7C4.52,49.14,5.4,48.4,6,48.74Z"/><path class="97d071f7-a604-48d3-b80a-20a79ce52ab3" d="M124.4,48.71c-.05-1.18.76-2,1.19-3.39a11.58,11.58,0,0,1,1.34,3.37A6.16,6.16,0,0,1,124.4,48.71Z"/><path class="97d071f7-a604-48d3-b80a-20a79ce52ab3" d="M124.4,48.71l2.53,0A3,3,0,0,1,124.4,48.71Z"/><path class="97d071f7-a604-48d3-b80a-20a79ce52ab3" d="M88.39,50a3.53,3.53,0,0,1,0-2C88.36,48.61,88.38,49.28,88.39,50Z"/><path class="97d071f7-a604-48d3-b80a-20a79ce52ab3" d="M88.39,50a1.87,1.87,0,0,1,0-2C88.36,48.61,88.38,49.28,88.39,50Z"/><path class="97d071f7-a604-48d3-b80a-20a79ce52ab3" d="M45,6c-.59.21-1.4-.38-1.8.51a.69.69,0,0,1-.73-.48c-.17-.17-.46-.21-.51-.51a.77.77,0,0,0-.5-.76.55.55,0,0,1,0-.74l2.76,0A1.77,1.77,0,0,0,46,3h.51c.17.22.5.27.62.55A.42.42,0,0,1,47,4c-.27.27-.17.44.16.49a4.11,4.11,0,0,1,1.24.26c-.94.17-1.81.51-2.71.76C45.4,5.64,45.05,5.6,45,6Z"/><path class="97d071f7-a604-48d3-b80a-20a79ce52ab3" d="M42,5.56a.91.91,0,0,1,.51.51H40.18C40.55,5.12,41.36,5.75,42,5.56Z"/><path class="97d071f7-a604-48d3-b80a-20a79ce52ab3" d="M41.45,4.06V4.8c-.45.46-1,.17-1.53.26C40.09,4.2,41.18,4.75,41.45,4.06Z"/><path class="97d071f7-a604-48d3-b80a-20a79ce52ab3" d="M40.18,6.07c0,.26-.1.5-.44.45-.07,0-.21-.18-.19-.23.12-.3.4-.19.63-.22Z"/><path class="97d071f7-a604-48d3-b80a-20a79ce52ab3" d="M62,46.42h-.18"/><path class="97d071f7-a604-48d3-b80a-20a79ce52ab3" d="M62,46.42h-.18m.06,0-.07,0h.72A.52.52,0,0,0,61.84,46.36Z"/><path class="97d071f7-a604-48d3-b80a-20a79ce52ab3" d="M62.49,46.43h-.74a.64.64,0,0,1-.55-.29.92.92,0,0,0,.29,0C61.84,46.16,62.22,46.05,62.49,46.43Z"/><path class="97d071f7-a604-48d3-b80a-20a79ce52ab3" d="M91.67,6.07V5.56c.56.64,1.52.62,2.08,1.4a1.17,1.17,0,0,0,1.72-.38c.49.67.28,1-.51,1H93.19l-.17,0C92.4,7.21,91.45,7.18,91.67,6.07Z"/><path class="97d071f7-a604-48d3-b80a-20a79ce52ab3" d="M93.19,7.59c-.66,1.08-1.71.24-2.53.51A.85.85,0,0,1,90,7.36c.21-.66.76-.66,1.21-.45.64.29,1.35.34,2,.68Z"/><path class="97d071f7-a604-48d3-b80a-20a79ce52ab3" d="M90.15,7.59a.47.47,0,0,1,.51.51c0,.28.18.4.42.54.48.3.15.41-.17.48a1.31,1.31,0,0,1-1.27-.51v-1h0A.35.35,0,0,1,90.15,7.59Z"/><path class="97d071f7-a604-48d3-b80a-20a79ce52ab3" d="M95.47,6.58c-.35,0-.75.11-1.11-.33.24-.27.58-.15.86-.18Z"/><path class="97d071f7-a604-48d3-b80a-20a79ce52ab3" d="M39.15,51c0-.67,0-1.33,0-2A2.53,2.53,0,0,1,39.15,51Z"/><path class="97d071f7-a604-48d3-b80a-20a79ce52ab3" d="M39.44,51.13a.17.17,0,0,1-.12,0c-.06-.05-.11-.12-.17-.18,0-.67,0-1.33,0-2A2.16,2.16,0,0,1,39.44,51.13Z"/><path class="97d071f7-a604-48d3-b80a-20a79ce52ab3" d="M47,3.53a.46.46,0,0,1-.51-.5h.76c.32.21,1.06-.42,1,.51A1,1,0,0,1,47,3.53Z"/><path class="97d071f7-a604-48d3-b80a-20a79ce52ab3" d="M47,3.53h1.26c-.16.82-.82.4-1.26.51Z"/><path class="97d071f7-a604-48d3-b80a-20a79ce52ab3" d="M70.86,52.72a2.1,2.1,0,0,0-1.24,0l-2,.31a.69.69,0,0,0,0,.13h.12a9.05,9.05,0,0,0,1.8-.15,1.88,1.88,0,0,1,1.32-.05,2,2,0,0,1,1.08.77h0l.07.11h0l.16-.14Z"/><path class="97d071f7-a604-48d3-b80a-20a79ce52ab3" d="M69.7,49.82a.67.67,0,0,0-.77.09h.92Zm-1-3.41-.12,0,.13.07A.28.28,0,0,0,68.71,46.41Zm-.66,1.27a1,1,0,0,0,0,.92l0,.08C68.08,48.35,68.06,48,68.05,47.68Z"/><path class="97d071f7-a604-48d3-b80a-20a79ce52ab3" d="M68.1,48.68l0-.08c-.23-.29-.64-.58,0-.92C68.06,48,68.08,48.35,68.1,48.68Z"/><path class="97d071f7-a604-48d3-b80a-20a79ce52ab3" d="M70.86,52.72l-1.24,0A.91.91,0,0,1,70.86,52.72Z"/><path class="97d071f7-a604-48d3-b80a-20a79ce52ab3" d="M26.23,11.65c-.34,0-.74.06-.73-.48C25.88,11.13,26.2,11.16,26.23,11.65Z"/><path class="97d071f7-a604-48d3-b80a-20a79ce52ab3" d="M29.61,10.33c-.08.07-.15.19-.26.22a.3.3,0,0,1-.39-.2c-.05-.17.1-.2.22-.21S29.51,10.11,29.61,10.33Z"/><path class="97d071f7-a604-48d3-b80a-20a79ce52ab3" d="M129.72,40.57h-.25a.53.53,0,0,1-.26-.51,1.28,1.28,0,0,1-.28-1c.08-.28.14-.58.53-.53.29.21.48.63.94.46s.28-.63.33-1a1,1,0,0,0,0-.17c.21-.67.46-1.34-.29-1.86h0a.54.54,0,0,1,0-.76c.58-.06,1.87,1.22,1.56,1.62-.58.75.08,1.14.21,1.68-.89.83-.4,2.12-1,3,0,.32-.16.5-.49.48,0-.69-1.08-.25-1-1C129.87,40.91,130,40.74,129.72,40.57Z"/><path class="97d071f7-a604-48d3-b80a-20a79ce52ab3" d="M129.46,38.54a.54.54,0,0,0-.25.51c-.53.19-.71,0-.51-.51-.1-.78-.92-.38-1.27-.76-.29-.18-.24-.48-.25-.77.35-.24.17-.76.51-1A13.92,13.92,0,0,1,129.46,38.54Z"/><path class="97d071f7-a604-48d3-b80a-20a79ce52ab3" d="M130,37h.76a.71.71,0,0,1,0,1h0C129.87,38.15,129.65,37.78,130,37Z"/><path class="97d071f7-a604-48d3-b80a-20a79ce52ab3" d="M127.69,36c0,.4.17.93-.51,1v-.75A.53.53,0,0,1,127.69,36Z"/><path class="97d071f7-a604-48d3-b80a-20a79ce52ab3" d="M133.27,38.54a9.1,9.1,0,0,0,.51,2.53c-.2.26-.57.25-.76.51h-.77c-1-.86-1-1.11,0-2.53C132.61,38.9,132.83,38.5,133.27,38.54Z"/><path class="97d071f7-a604-48d3-b80a-20a79ce52ab3" d="M132.26,39.05c0,.84-.9,1.69,0,2.53h-1c.19-1.06-.59-2.45,1-3Z"/><path class="97d071f7-a604-48d3-b80a-20a79ce52ab3" d="M130.48,35.24V36c-.6-.08-.67-.55-.76-1Z"/><path class="97d071f7-a604-48d3-b80a-20a79ce52ab3" d="M23.73,12.19c.31.18,1.05-.51,1,.47C24.2,12.87,23.82,12.84,23.73,12.19Z"/><path class="97d071f7-a604-48d3-b80a-20a79ce52ab3" d="M21.66,13.93c.18-.29.48-.24.76-.25s.24.28.09.39A.58.58,0,0,1,21.66,13.93Z"/><path class="97d071f7-a604-48d3-b80a-20a79ce52ab3" d="M19.63,15.21h.51a.52.52,0,0,1,.25.51C20,15.71,19.66,15.72,19.63,15.21Z"/><path class="97d071f7-a604-48d3-b80a-20a79ce52ab3" d="M24.7,12.66c.33,0,.73-.06.73.48C25.05,13.19,24.73,13.15,24.7,12.66Z"/><path class="97d071f7-a604-48d3-b80a-20a79ce52ab3" d="M109.43,15.71c-.48,0-1-.08-1.39.34s-.58.08-.64-.34c.92-.26.33-1,.5-1.52h.26c.57-.5,1-.06,1.41.25.59.28.7.61.11,1Z"/><path class="97d071f7-a604-48d3-b80a-20a79ce52ab3" d="M133,41.58c0-.51.39-.51.76-.51v.51Z"/><path class="97d071f7-a604-48d3-b80a-20a79ce52ab3" d="M128.7,38.54a.47.47,0,0,0,.51.51v1C128.61,39.7,127.94,39.36,128.7,38.54Z"/><path class="97d071f7-a604-48d3-b80a-20a79ce52ab3" d="M109.68,15.46c.14-.33.41-.7-.25-.77a.33.33,0,0,1,0-.5c.44,0,.66.36,1,.5.68.09.46.62.51,1h-1Z"/><path class="97d071f7-a604-48d3-b80a-20a79ce52ab3" d="M109.43,14.19v.5a1.26,1.26,0,0,0-1.27-.5C108.58,13.38,109,13.38,109.43,14.19Z"/><path class="97d071f7-a604-48d3-b80a-20a79ce52ab3" d="M129.72,40.57c.07-.13.13-.35.23-.37s.24.16.26.32a.46.46,0,0,1-.49.55Z"/><path class="97d071f7-a604-48d3-b80a-20a79ce52ab3" d="M130.73,38V37l-.25-1C131.46,36.34,131.58,37.25,130.73,38Z"/><path class="97d071f7-a604-48d3-b80a-20a79ce52ab3" d="M90.15,7.59h-.51c-.49-.84.23-1.38.51-2,.63-.19,1,.38,1.52.51.08.94,1.27.76,1.52,1.52-.68-.06-1.37.16-2-.39A.61.61,0,0,0,90.15,7.59Z"/></g></g></svg>