<svg xmlns="http://www.w3.org/2000/svg" viewBox="0 0 926 506.93"><defs><style>.d5bfdd1b-51a7-4ad3-acb2-1add0a996a5e{fill:#fff;}</style></defs><title>Asset 2</title><g id="8374299c-ad01-4b12-99dc-d735dbdb170f" data-name="Layer 2"><g id="8a308f96-5f8f-418f-8b77-8b12a2c4f0f2" data-name="Layer 1"><path class="d5bfdd1b-51a7-4ad3-acb2-1add0a996a5e" d="M873.82,223c2.33.61,4.74,1.17,7.1,1.88a70.19,70.19,0,0,1,16.43,7.65,52.45,52.45,0,0,1,16.74,16.2,116.82,116.82,0,0,1,7.33,14.2A34.8,34.8,0,0,1,924.93,275c.27,3.57,1.1,7.13,1.07,10.69-.06,7.41-.4,14.83-.84,22.23-.4,6.71-2.53,13.12-4.94,19.27a74.06,74.06,0,0,1-8.41,15.27c-4.48,6.41-9.74,12.27-16.4,16.64-4.27,2.8-8.47,5.72-12.86,8.31a50.56,50.56,0,0,1-8.19,3.67,150.56,150.56,0,0,1-15.7,5.37c-8.45,2.1-17,4.1-25.78,4.23-6.18.09-12.36.77-18.54.78q-60.11.12-120.2,0c-2.87,0-2.87,0-2.87-2.84V76.22c0-2.86,0-2.86,2.86-2.86,35.79,0,71.59-.1,107.39.08,7.59,0,15.18,1,22.77,1.65,3.28.28,6.55.71,9.79,1.3a104,104,0,0,1,12.55,2.67c6.31,2,12.51,4.28,18.69,6.63a57.51,57.51,0,0,1,9.14,4.24,141.56,141.56,0,0,1,13.55,9,62.91,62.91,0,0,1,14.47,15.53c1.55,2.37,2.68,5,4.11,7.48,2.83,4.87,4.16,10.29,5.72,15.61a36.62,36.62,0,0,1,1.11,6.78c.39,4,.74,8.1.91,12.17a75.41,75.41,0,0,1-4.66,29.24,70.11,70.11,0,0,1-7.83,15.08,53.5,53.5,0,0,1-13.1,13.4C884.18,217.57,879,220,873.82,223ZM763.45,326.36h2.7c12.44,0,24.87,0,37.31,0,8.08,0,16.14.3,24.11-2,4.29-1.24,8.6-2.33,12.36-4.69a33.17,33.17,0,0,0,7.35-6.09c6-6.88,6.31-15.7,7.53-24.14.16-1.09-.66-2.28-.78-3.45-.57-5.46-.93-10.89-3.23-16.08A29.06,29.06,0,0,0,836.91,255a50.69,50.69,0,0,0-22-4.91c-16.19-.17-32.39-.05-48.58-.05h-2.86Zm0-125h32A78.45,78.45,0,0,0,815,199a48,48,0,0,0,15-6.53,25,25,0,0,0,10.43-14.07c2.39-8,2-16.36.26-24.54a28,28,0,0,0-5.8-11.47,27.14,27.14,0,0,0-9.11-7.24,38.89,38.89,0,0,0-13.4-4.28c-3.94-.48-7.84-1.72-11.77-1.8-11.56-.25-23.13-.09-34.7-.08-.77,0-1.54.07-2.4.11Z"/><path class="d5bfdd1b-51a7-4ad3-acb2-1add0a996a5e" d="M511.27,223c3.62.94,7.23,1.44,10.47,2.81,5.91,2.51,11.75,5.22,17,9.1a54.91,54.91,0,0,1,12,12.13,81.64,81.64,0,0,1,7.95,14.47,62,62,0,0,1,4.22,13.6,82.62,82.62,0,0,1,.87,24.07c-.4,3.5-.35,7.06-1,10.5a78,78,0,0,1-3.34,13.22,98.44,98.44,0,0,1-7.16,15.28,69.23,69.23,0,0,1-9,11.86,151.58,151.58,0,0,1-11.83,10.81,24,24,0,0,1-4.83,3.2c-5.17,2.62-10.32,5.31-15.64,7.56-6.58,2.79-13.5,4.5-20.47,6.21-6.54,1.61-13.1,2.1-19.69,2.89-11.81,1.42-23.65.62-35.48.79-8.82.13-17.64,0-26.46.06-1.67,0-2.29-.44-2.28-2.2q.07-25.38,0-50.77c0-2,.81-2.23,2.47-2.23,12.73.05,25.46.11,38.18,0,4.74,0,9.58,0,14.18-1,7-1.43,14.12-3.19,19.8-8a26.33,26.33,0,0,0,9.08-14.05c.93-3.93,1.6-7.94,2.17-11.94a15.92,15.92,0,0,0-.34-4.49c-.7-4.58-1.09-9.25-2.31-13.69a28.7,28.7,0,0,0-8.33-13.53c-5.39-5-11.91-7.48-19.07-8.37a126.53,126.53,0,0,0-14.12-1.24c-13-.17-26-.11-39.05,0-2.13,0-2.68-.64-2.66-2.7q.12-21.6,0-43.18c0-2.14.49-2.88,2.76-2.85,7.88.14,15.77.28,23.64,0a109.79,109.79,0,0,0,17.95-1.84,51.07,51.07,0,0,0,14-5.09,28.11,28.11,0,0,0,13.34-16.48c2.47-7.51,2.15-15.09.64-22.54a28.14,28.14,0,0,0-6.49-13.29,29.8,29.8,0,0,0-13.17-8.73c-4-1.32-8.16-2-12.18-3.12-4.85-1.42-9.78-1.28-14.72-1.29-7.81,0-15.62,0-23.43,0-1.81,0-2.36-.55-2.35-2.35q.07-25.5,0-51c0-1.86.65-2.32,2.4-2.3,10.27.06,20.54-.19,30.8.1,7.46.21,14.9,1,22.34,1.67,3.28.29,6.55.74,9.79,1.3a113.23,113.23,0,0,1,11.3,2.35c5.13,1.46,10.24,3.07,15.21,5a122,122,0,0,1,15.43,6.91,100.81,100.81,0,0,1,13.12,9.16,57.24,57.24,0,0,1,12.56,13.74,82.36,82.36,0,0,1,10.12,22.72c2.84,10,2.64,20,2.21,30-.49,11.43-4.52,22-10.39,31.89a53.19,53.19,0,0,1-10.89,12.81c-3.5,3.09-7.72,5.39-11.71,7.89C516.51,220.3,514,221.49,511.27,223Z"/><path class="d5bfdd1b-51a7-4ad3-acb2-1add0a996a5e" d="M660.48,259.52q0,59.53,0,119.08c0,2.89,0,2.9-2.82,2.9-22.19,0-44.39,0-66.59,0-2.08,0-2.69-.56-2.69-2.67q.07-119.31,0-238.61c0-2,.49-2.73,2.64-2.72q33.4.11,66.81,0c2.08,0,2.7.56,2.7,2.67Q660.44,199.86,660.48,259.52Z"/><path class="d5bfdd1b-51a7-4ad3-acb2-1add0a996a5e" d="M439.23,0a89.91,89.91,0,0,1-9.71,21.61c-4.55,7.13-9.19,14.24-14.32,21a129.1,129.1,0,0,1-19,20.3c-1.32,1.11-2.55,2.34-3.77,3.57a2.38,2.38,0,0,0-.52,1.3,17.44,17.44,0,0,0,0,2.17V377.56c0,3.52-.06,3.74-3.54,3.94-4.74.27-9.5.31-14.25.43-5.05.13-10.11.38-15.17.31a65.73,65.73,0,0,1-10.09-.93c-3-.51-4-2.1-4.24-5.82-.23-4.1-.45-8.21-.45-12.31q0-138.65-.06-277.28a5.57,5.57,0,0,1,2.67-5.13c11-8,21.93-16,32.61-24.34,7.85-6.15,15.33-12.79,22.86-19.35,4.45-3.88,8.73-8,13-12.08q7.9-7.69,15.59-15.6C433.69,6.37,436.41,3.14,439.23,0Z"/><path class="d5bfdd1b-51a7-4ad3-acb2-1add0a996a5e" d="M328.14,236.94q0,68.55,0,137.12c0,3.85-1.9,6.11-5.54,6.19q-13.84.31-27.7.41a74.05,74.05,0,0,1-8.81-.44,6,6,0,0,1-5.37-6c-.06-1.52,0-3,0-4.56q0-114.66,0-229.33c0-2.92-.3-5.85-.37-8.77-.07-2.57-.06-5.13,0-7.7a3.79,3.79,0,0,1,2.28-3.46c10.55-6,21-12.2,31.5-18.39,3.61-2.13,7.11-4.44,10.64-6.7a1.72,1.72,0,0,1,2.87,1,13.57,13.57,0,0,1,.56,4.22q0,68.24,0,136.48Z"/><path class="d5bfdd1b-51a7-4ad3-acb2-1add0a996a5e" d="M263.37,130.84a21.18,21.18,0,0,1,.44,3.11c-.1,5-.37,9.94-.38,14.91,0,8.79.19,17.58.18,26.36q-.08,96.1-.19,192.2a66.86,66.86,0,0,0,.25,8c.54,4.8-3.54,6.95-7.37,6.87-7-.16-14-.23-20.92-.37-4.73-.11-9.48-.12-14.19-.47-4.47-.34-6-2.23-6-6.81q0-100.23,0-200.46c0-5.67.1-11.34-.05-17a3.69,3.69,0,0,1,2.48-3.94q20.38-9.75,40.68-19.64C259.86,132.85,261.34,132,263.37,130.84Z"/><path class="d5bfdd1b-51a7-4ad3-acb2-1add0a996a5e" d="M198.81,161.84v18.4q0,95.14,0,190.28a36.49,36.49,0,0,1-.73,6.82c-.44,2.29-2.19,3.32-4.41,3.33-11.57,0-23.14.07-34.71,0-4.38,0-7.15-3.09-7.15-7.73q0-62.49,0-125c0-2.28-.65-4.55-.67-6.83,0-3.08.32-6.16.38-9.25.07-3.72,0-7.45,0-11.18q0-8.88,0-17.78c0-2.49,0-5-.05-7.48,0-4.27-.09-8.54,0-12.8a2.75,2.75,0,0,1,1.33-2.06c9.19-3.75,18.46-7.34,27.65-11.09,5.33-2.17,10.56-4.57,15.85-6.84C196.94,162.37,197.69,162.2,198.81,161.84Z"/><path class="d5bfdd1b-51a7-4ad3-acb2-1add0a996a5e" d="M134.94,187.64c0,4.4.75,8.62-.18,12.42-1.24,5-.46,10-.54,14.89-.32,19.1-.13,38.22-.13,57.33q0,49.68,0,99.36c0,2.41.38,4.77-.77,7.18s-2.06,3.45-4.79,3.37c-5.27-.17-10.53-.56-15.8-.64-3.81-.06-7.63.33-11.44.34-3.2,0-6.42-.11-9.61-.42a5.23,5.23,0,0,1-4.84-4.74,59,59,0,0,1-.48-7.64q0-62.91,0-125.82c0-3.27-.4-6.54-.38-9.82.06-9,.28-18,.38-27.06,0-1.5.7-2.13,2-2.58q12.48-4.17,24.9-8.48c6.24-2.18,12.43-4.5,18.65-6.74C132.78,188.28,133.67,188,134.94,187.64Z"/><path class="d5bfdd1b-51a7-4ad3-acb2-1add0a996a5e" d="M0,229c3.5-.84,7-1.61,10.49-2.54,10.21-2.72,20.42-5.43,30.58-8.3,8.93-2.52,17.83-5.2,26.7-7.92,1.77-.54,2.15.34,2.14,1.6-.06,4.9-.3,9.79-.34,14.69,0,2.87.27,5.74.3,8.61s-.11,5.46-.19,8.19c0,.94-.15,1.87-.15,2.8q0,63-.07,126.07a18,18,0,0,1-1.37,6.13c-.69,1.85-2.48,2.44-4.39,2.44-8.46,0-16.92,0-25.39,0-3.44,0-6.89-.24-10.34-.41-3.16-.16-5-2-5.09-5.19-.05-1.44,0-2.89,0-4.34.12-4,.39-8.05.39-12.08q0-55.32,0-110.66c0-5.11-.25-10.22-.43-15.33-.08-2.37-1.6-3.2-4-3.05-4.21.25-8.43.16-12.64.13-2.07,0-4.13-.21-6.19-.32Z"/><path class="d5bfdd1b-51a7-4ad3-acb2-1add0a996a5e" d="M462.16,506.92q-111.3,0-222.62,0a22,22,0,0,1-4.29-.41,7.56,7.56,0,0,1,0-14.8,19.4,19.4,0,0,1,3.86-.41q223.28,0,446.55,0a15.08,15.08,0,0,1,5.68,1.07A7.27,7.27,0,0,1,695.4,500c-.8,4.18-3.45,6.46-8,6.85-.79.07-1.59,0-2.39,0Z"/><path class="d5bfdd1b-51a7-4ad3-acb2-1add0a996a5e" d="M624.47,125.46c-11.2,0-22.41,0-33.61,0-1.88,0-2.49-.51-2.48-2.44q.11-23.64,0-47.27c0-1.89.53-2.48,2.45-2.47q33.61.09,67.21,0c1.88,0,2.49.51,2.48,2.44q-.1,23.64,0,47.27c0,1.89-.53,2.48-2.45,2.47C646.87,125.42,635.67,125.46,624.47,125.46Z"/><path class="d5bfdd1b-51a7-4ad3-acb2-1add0a996a5e" d="M529.89,436.93c-.25.64-.52,1.27-.75,1.92-2.75,8.06-5.54,16.1-8.22,24.19a2.38,2.38,0,0,1-2.74,1.95c-4.76-.09-4.76,0-6.29-4.51-2.62-7.71-5.25-15.41-8.28-23.08v27.4h-10.2v-44c4.22,0,8.33-.07,12.42.09.55,0,1.28,1.18,1.53,1.94,2.82,8.64,5.56,17.31,8.33,26,.29.89.61,1.76,1.06,3.08.39-.94.64-1.47.82-2,2.91-9,5.84-18,8.68-27,.49-1.55,1.16-2.18,2.87-2.12,3.67.15,7.35.05,11.18.05V464.8h-9.82V437.05Z"/><path class="d5bfdd1b-51a7-4ad3-acb2-1add0a996a5e" d="M58.58,420.75c3.21,0,6.17-.1,9.12.08.7,0,1.54.91,2,1.61,4.64,7.84,9.2,15.71,13.78,23.57a6.11,6.11,0,0,0,1.78,2.09V420.89h9.92v44c-3.11,0-6.27.06-9.41-.07-.49,0-1-.89-1.38-1.47q-6.91-11.77-13.76-23.58a7.43,7.43,0,0,0-1.81-2.28v27.26H58.58Z"/><path class="d5bfdd1b-51a7-4ad3-acb2-1add0a996a5e" d="M667.1,437.6v27.2H657v-44c3.2,0,6.29-.09,9.37.08.61,0,1.34.94,1.73,1.62,4.63,7.84,9.19,15.71,13.78,23.57a5.74,5.74,0,0,0,1.78,2.06V420.88h9.92v44.06c-3.07,0-6.15.08-9.23-.07-.55,0-1.22-.88-1.58-1.5q-6.91-11.76-13.76-23.58c-.46-.79-.94-1.56-1.41-2.34Z"/><path class="d5bfdd1b-51a7-4ad3-acb2-1add0a996a5e" d="M846,442.93V439c0-10.59-6.22-17.61-16.69-18.91-9.74-1.21-18.66,4.72-20.28,14.17-.82,4.72-.47,9.66-.38,14.49a17.12,17.12,0,0,0,1.24,5.66c3,7.61,9.86,11.5,19.22,11a17.19,17.19,0,0,0,16.24-13.27c.67-3,.62-6.15.89-9.24Zm-10.48,7.21c-.53,5.32-4.45,8.09-9.52,7.56-4.06-.42-7.08-4.23-7.35-9.38-.1-1.87,0-3.76,0-5.63a.58.58,0,0,0-.18,0,61,61,0,0,1,.59-7.54c.93-4.81,4-7.39,8.27-7.35a8.1,8.1,0,0,1,8.22,7.68A78.25,78.25,0,0,1,835.49,450.14Z"/><path class="d5bfdd1b-51a7-4ad3-acb2-1add0a996a5e" d="M321.17,433.66h-9.33c-.92-6-5.27-6.66-9.73-5.61a4.41,4.41,0,0,0-3.57,3.9c-.28,2.11.83,3.47,2.6,4.3,2.15,1,4.39,1.83,6.55,2.81,3.2,1.47,6.64,2.62,9.5,4.6a11.3,11.3,0,0,1-1.35,19.52A23,23,0,0,1,292.68,462c-4-2.43-5.09-6.42-5.09-11h9.68a1.92,1.92,0,0,1,.17.39c1.27,5.71,5.51,8.07,11.12,6.15a4.34,4.34,0,0,0,3.24-3.69,4.27,4.27,0,0,0-2.1-4.64c-2.1-1.1-4.36-1.89-6.52-2.87-3.29-1.47-6.74-2.67-9.78-4.55a11,11,0,0,1-.92-17.9c6.13-5,18.13-5.17,24.43-.36A10.69,10.69,0,0,1,321.17,433.66Z"/><path class="d5bfdd1b-51a7-4ad3-acb2-1add0a996a5e" d="M888.42,450.91h9.39c.08.12.15.18.15.24.36,6.77,6,7.37,10.56,6.53a4.37,4.37,0,0,0,3.85-3.62A4.44,4.44,0,0,0,910,449c-2-1-4.12-1.72-6.16-2.63-3.28-1.47-6.74-2.68-9.78-4.55a11,11,0,0,1-.95-17.9c6.19-5.06,18.35-5.19,24.6-.24a10.85,10.85,0,0,1,4.23,9.85h-9.47c-1.67-5.11-5.25-7.07-9.91-5.41a4.59,4.59,0,0,0-3.4,4.07,3.93,3.93,0,0,0,2.61,4.09c2.15,1,4.39,1.83,6.55,2.82,3.26,1.5,6.77,2.69,9.67,4.72a11.3,11.3,0,0,1-1.29,19.3,23,23,0,0,1-23.53-1.18A11.05,11.05,0,0,1,888.42,450.91Z"/><path class="d5bfdd1b-51a7-4ad3-acb2-1add0a996a5e" d="M242.6,438.13v7.73H227.25v11.3h18.36v7.63H217V420.94h28.62v7.48H227.21v9.71Z"/><path class="d5bfdd1b-51a7-4ad3-acb2-1add0a996a5e" d="M613.7,420.93v7.51H595.2v9.64h15.34v7.73h-15.3v11.3h18.38v7.69H585V420.93Z"/><path class="d5bfdd1b-51a7-4ad3-acb2-1add0a996a5e" d="M161.46,464.89H150.41c-4.71-14.61-9.42-29.21-14.24-44.13,3.44,0,6.6-.06,9.74.08.46,0,1.1,1,1.28,1.61,2.82,10.43,5.59,20.89,8.38,31.34,0,.11.15.21.35.48.22-.64.43-1.15.57-1.67,2.72-10,5.47-19.89,8.1-29.86.41-1.57,1-2.1,2.62-2,2.72.13,5.45,0,8.55,0C170.93,435.67,166.21,450.25,161.46,464.89Z"/><path class="d5bfdd1b-51a7-4ad3-acb2-1add0a996a5e" d="M383.87,464.84H373.82V428.57H362.37v-7.63h33.06v7.51H383.87Z"/><path class="d5bfdd1b-51a7-4ad3-acb2-1add0a996a5e" d="M756.64,464.84h-10V428.57H735.14v-7.63H768.2v7.51H756.64Z"/><path class="d5bfdd1b-51a7-4ad3-acb2-1add0a996a5e" d="M13,464.84H3.37V420.91H13Z"/><path class="d5bfdd1b-51a7-4ad3-acb2-1add0a996a5e" d="M438.18,420.84h9.71v44h-9.71Z"/></g></g></svg>