<svg xmlns="http://www.w3.org/2000/svg" viewBox="0 0 925.77 882"><defs><style>.\37 161d079-2030-41a3-a056-d55eb2b02333{fill:#fff;}</style></defs><title>Asset 3</title><g id="bc452fd9-ae17-4791-80ff-6e0170897412" data-name="Layer 2"><g id="bbd7eca0-c95c-4e4a-b115-1b94d35ffbc1" data-name="Layer 1"><path class="7161d079-2030-41a3-a056-d55eb2b02333" d="M925.17,694.12a24,24,0,0,0-2.63-7.88,19.72,19.72,0,0,0-10-10,61.16,61.16,0,0,0-13.11-4.18c-3.65-.6-7.53.35-11.31.42-1.87,0-3.76-.59-5.63-.55-5.74.12-11.48.63-17.21.6-8.25,0-16.51-.66-24.76-.65q-217.41.35-434.82.78c-6.46,0-12.92,0-19.38,0-40.6,0-81.21.08-121.81-.2a75.55,75.55,0,0,1-19.82-2.88c-5.77-1.63-10.95-5.24-16.6-7.44a51.84,51.84,0,0,1-17.84-11.45c-6.93-6.8-13.52-13.86-18.18-22.49-1.74-3.22-4.08-6.23-5.2-9.64-2.29-6.94-4.12-14.05-5.78-21.16A50.93,50.93,0,0,1,179.66,586q-.14-79.36,0-158.72c0-3.74.81-7.48,1.21-11.22.22-2.11,1.06-4.45.44-6.29-1.46-4.36-.59-8.5-.08-12.78.75-6.28,1.18-12.61,1.82-18.92.72-7.1,1.6-14.15,6.41-20a12.6,12.6,0,0,0,2-4.2c2.61-8.27,7.54-15.31,13.32-21.34,16.56-17.26,33.75-33.92,50.62-50.89q17.73-17.83,35.28-35.88c9.11-9.36,17.92-19,27.19-28.24,7.67-7.62,16.05-14.54,23.73-22.16q41.31-41,82.27-82.37a51,51,0,0,1,18.52-12c5.27-2,10.23-4.47,16.25-3.83,7.65.8,15.58-1.28,22.83,3.17,3.84,2.36,8.52,3.41,12.17,6A119.76,119.76,0,0,1,507.24,118c8,7.64,15.83,15.44,23.64,23.27,13.49,13.53,26.86,27.18,40.37,40.69,6.87,6.88,14.1,13.4,20.87,20.38,8.92,9.2,17.36,18.86,26.33,28,10.86,11.1,22.14,21.79,33.1,32.8,20.05,20.13,39.94,40.41,60,60.54q39.42,39.53,79.06,78.83a9.73,9.73,0,0,0,5.84,2.44c5.46.34,10.95,0,16.43.17a5.92,5.92,0,0,0,5.35-2.52,32.7,32.7,0,0,1,19-11.79c7.32-1.55,14.78-2.57,22.2,2.87-1-1.14-1.31-1.59-1.71-2q-26-26-52-52c-19.59-19.49-39.33-38.83-58.89-58.35-16-15.95-31.66-32.22-47.73-48.08-13.82-13.65-28.11-26.83-42-40.42-14.37-14.08-28.52-28.39-42.73-42.63q-34-34.06-68-68.15Q507.17,42.83,467.83,3.65C466.65,2.47,465.55,1,464.1.35c-1.12-.51-3.2-.49-4,.24-3.43,3-6.57,6.3-9.77,9.54C440.53,20,430.84,30,421,39.89,411.9,49,402.61,58,393.46,67.11c-6.22,6.2-12.32,12.54-18.5,18.79q-13.27,13.42-26.6,26.81c-7.09,7.1-14.25,14.14-21.37,21.23q-12.42,12.36-24.82,24.74-7.43,7.41-14.88,14.83c-7.25,7.22-14.53,14.41-21.75,21.65-5,5-9.8,10-14.74,15-7.44,7.47-15,14.86-22.37,22.37-3.25,3.29-6.3,6.77-9.44,10.17l-1.29-.58a37.62,37.62,0,0,1-.47-4.34c0-16.89,0-33.78,0-50.67,0-4.75-1-5.73-5.65-5.74q-17.79,0-35.57,0c-5.68,0-6.07.36-6.07,6.07,0,32.55.06,65.1,0,97.65,0,2.57-.25,5.84-1.76,7.58-4.74,5.42-10.14,10.27-15.29,15.34-6.66,6.57-13.35,13.09-20,19.72-7,7-13.84,14.1-20.8,21.13Q99,362,85.92,375.1c-3.69,3.68-7.47,7.27-11.2,10.91q-8,7.78-15.93,15.58L59,403c2.3.48,4.6,1.38,6.91,1.39q31.2.17,62.41,0c3.08,0,4.3.77,4.31,4.14.06,12-.87,24.08,1.61,36a1.69,1.69,0,0,1-.06,1c-3,6.3-1.49,13-1.51,19.52-.21,66.55-.15,133.1-.16,199.65,0,6-1.91,8-8,8-33.55,0-67.11.09-100.66-.09a24.41,24.41,0,0,0-14.37,4.56,24.74,24.74,0,0,0-6.06,6.9C-1.1,691,.05,698.9.35,706.56c.53,13.32,12.49,23,25.89,23,33.89-.19,67.78-.07,101.67-.06,4.64,0,4.66,0,4.66,4.68q0,55.36,0,110.73c0,9.33.92,18.59,4.65,27.14A16.5,16.5,0,0,0,145,879.6c7.87,3.64,16,2.93,23.92-.74,5-2.32,8.8-6.15,9.9-11.08,1.68-7.53,1.85-15.4,2.66-23.13a3.91,3.91,0,0,0-.07-.67c-.58-7.63-1.63-15.25-1.68-22.89-.2-29.08,0-58.16-.15-87.24,0-3.19.91-4.55,4.09-4.33,1.33.1,2.68-.06,4,0,14.88.11,29.75.3,44.62.33q95.81.21,191.6.34,127,.06,254-.07,111.57,0,223.14.06c3,0,6.06.21,8.1-2.78.34-.49,1.37-.48,2-.78a15.58,15.58,0,0,0,3.67-1.77c1.72-1.4,3-3.45,4.82-4.58,4.75-2.92,4.07-8.27,5.38-12.44S925.6,698.66,925.17,694.12Z"/><path class="7161d079-2030-41a3-a056-d55eb2b02333" d="M540.88,476.15c-.89-12.83-6.74-22.4-18.87-27.57-2-.84-4.1-1.39-6.87-2.31a35.32,35.32,0,0,0,3.62-2.07c3.15-2.43,6.76-4.52,9.26-7.51,6.51-7.8,7.88-17.11,6.91-27s-5.18-18.12-13.22-24.12c-11.88-8.85-25.85-11.17-40.08-11.58-16.86-.49-33.75-.1-50.63-.1h-3V523.3c18.94,0,37.61.26,56.27-.12a118.73,118.73,0,0,0,23.48-2.73c13.34-3,24.38-9.67,30.06-23C540.7,490.6,541.38,483.43,540.88,476.15ZM461.65,403.3c0-2.53.55-3.69,3.34-3.48,7.65.57,15.47.13,22.94,1.59,12.42,2.43,17.76,17.85,9.81,27.63a19.55,19.55,0,0,1-8.8,5.63c-8.73,2.84-17.83,1.47-27,1.76-.1-1.37-.24-2.34-.24-3.32C461.68,423.17,461.76,413.24,461.65,403.3Zm38.21,90.41c-4.87,3-10.4,3.19-15.84,3.38-6.47.22-12.95.14-19.42,0-1,0-2.76-1.13-2.77-1.76-.16-12-.12-24.06-.12-37,10.66.39,20.84.17,30.87,1.29,9.25,1,13.91,7.19,14.38,16.5C507.32,483.12,506.53,489.6,499.86,493.71Z"/><path class="7161d079-2030-41a3-a056-d55eb2b02333" d="M347,497.76c3-6.93,3.46-14.18,3.27-21.59a30.41,30.41,0,0,0-19.93-27.86c-1.71-.62-3.44-1.21-5.6-2a13,13,0,0,1,1.92-1.42C342.41,438,346.46,421,343.8,406.27c-2.26-12.52-10-20.58-21.18-25.71-11.38-5.2-23.49-6.61-35.82-6.68-15.32-.08-30.64,0-46,0h-3.66v149.3c.9.06,1.45.13,2,.13,18.9,0,37.81.33,56.7-.15a106,106,0,0,0,23.7-3.38C331.79,516.61,341.7,509.94,347,497.76ZM271.21,402c0-.71,1.2-2,1.79-2,8.22.32,16.61-.06,24.61,1.51,12.37,2.44,17.31,17.86,9.53,27.85a15.71,15.71,0,0,1-10.91,5.91c-8.16.85-16.39,1.06-25.1,1.56C271.13,424.54,271.09,413.28,271.21,402Zm29.53,94.46c-9.32.79-18.73.45-28.1.59a4.74,4.74,0,0,1-1.33-.45V458.78c8.07,0,16-.06,23.84,0a39.74,39.74,0,0,1,7.62.8c8.22,1.7,12.91,7.21,13.53,15.59.08,1.11.11,2.23.11,3.34C316.43,489.26,311.37,495.58,300.74,496.48Z"/><path class="7161d079-2030-41a3-a056-d55eb2b02333" d="M404.4,374.05H370.85V523H404.4Z"/><path class="7161d079-2030-41a3-a056-d55eb2b02333" d="M706.47,386.19c-.06-8.3-.23-8.47-8.36-8.55-15.76-.14-31.52,0-47.28-.09-2.9,0-4,1.25-4,4,0,17.43.09,34.86,0,52.3,0,2.92,1.17,3.57,3.8,3.53,8.61-.12,17.21,0,25.82,0s17.43-.05,26.15,0c2.59,0,3.94-.74,3.93-3.62C706.47,417.92,706.6,402.05,706.47,386.19Z"/><path class="7161d079-2030-41a3-a056-d55eb2b02333" d="M706.52,463.28c0-3.8-.95-4.6-4.81-4.58-8.27,0-16.55,0-24.82,0v0H651.73c-4.29,0-4.83.5-4.83,4.75q0,24.81,0,49.61c0,5.48.1,5.64,5.57,5.61q24.48-.1,49-.24c3.64,0,4.65-.92,4.69-4.48Q706.36,488.6,706.52,463.28Z"/><path class="7161d079-2030-41a3-a056-d55eb2b02333" d="M619.73,377.48c-16.88,0-33.75.15-50.62-.06-3.43,0-4,1.44-4,4.11q0,13.25,0,26.48h.15c0,8.59.09,17.19-.05,25.78,0,2.74.77,3.66,3.59,3.64q25.65-.17,51.3,0c3.09,0,4.08-.95,4.07-4,0-17.32.07-34.64.12-52C624.24,378.71,622.72,377.47,619.73,377.48Z"/><path class="7161d079-2030-41a3-a056-d55eb2b02333" d="M619.51,518.56c3.43,0,4.6-1.1,4.59-4.51q-.06-25.32-.11-50.64c0-4.19-.55-4.71-4.85-4.69q-24.32.07-48.65.1c-5.3,0-5.29-.07-5.29,5.24q0,12.26,0,24.5h0c0,8.94,0,17.89,0,26.84,0,2.33.6,3.28,3.29,3.25C585.51,518.49,602.51,518.55,619.51,518.56Z"/><path class="7161d079-2030-41a3-a056-d55eb2b02333" d="M338,571.19a7.09,7.09,0,0,1,2.46,2.63c6.07,9.88,12.1,19.79,18.24,29.63a5,5,0,0,0,2.8,2.29,32.75,32.75,0,0,0,6,.1V557.32H360V592a10.72,10.72,0,0,1-2.83-3.25c-6-9.81-11.93-19.64-18-29.41a4.6,4.6,0,0,0-2.52-2.14,37.44,37.44,0,0,0-6.12-.1v48.48H338Z"/><path class="7161d079-2030-41a3-a056-d55eb2b02333" d="M492.33,605.81c.21,0,.41-.12.17,0-.47-3.07-1-5.74-1.27-8.44-.21-1.88,0-3.8-.23-5.68a10.91,10.91,0,0,0-7.29-9.39,9.5,9.5,0,0,1,1.12-1c4.42-2.49,6.54-6.22,6.08-11.31-.53-5.95-3.38-10.56-9.39-11.47-7.71-1.18-15.59-1.3-23.42-1.89v49.06h7.08c0-5.9.06-11.58,0-17.26,0-2,.51-2.88,2.64-2.77,2.9.15,5.81,0,8.71.13a7.14,7.14,0,0,1,6.86,6.85c.08,1.56,0,3.13,0,4.69C483.44,605.38,484.34,606.24,492.33,605.81Zm-14.62-27.27c-3.82.6-7.76.56-12,.82-.11-1.67-.21-2.65-.22-3.63,0-4,0-8,0-12.68,4.43.25,8.55.17,12.56.8,3.43.53,5.34,3.7,5.32,7.54C483.32,575.39,481.61,577.92,477.71,578.54Z"/><path class="7161d079-2030-41a3-a056-d55eb2b02333" d="M283.32,588.34c.47,9.95,7.28,17.18,18,18,8.41.65,17.19-3.2,19.88-13.8,1.43-5.58.9-11.71.88-17.59,0-8-5.78-15.25-13.55-17.53-8.49-2.48-16.9.3-21.69,7-3.71,5.16-3.74,11-3.51,16.94C283.3,583.65,283.21,586,283.32,588.34Zm8-17.14a11.09,11.09,0,0,1,10.79-8.87,11.29,11.29,0,0,1,11.38,7.73,38.57,38.57,0,0,1,0,22.74,11.19,11.19,0,0,1-12.64,7.64c-6-1-10-5.77-10.33-12.58-.12-2.11,0-4.25,0-6.37l-.33,0C290.58,578,290.59,574.53,291.36,571.2Z"/><path class="7161d079-2030-41a3-a056-d55eb2b02333" d="M600,605.33a19.89,19.89,0,0,0,21.55-5.69c4.52-5.25,4.93-11.48,4.55-17.23,0-2.82,0-4.94,0-7.06-.19-10.11-7.37-17.8-18.44-18.75-8.07-.68-17.1,3.13-19.53,14-1.25,5.66-.88,11.74-.77,17.61A18.08,18.08,0,0,0,600,605.33Zm-4.63-34.21a11.55,11.55,0,0,1,22.26-.65,38.78,38.78,0,0,1,.06,21.75,11.24,11.24,0,0,1-12.22,8.33c-6.19-.75-10.4-5.5-10.89-12.44-.15-2.23,0-4.47,0-6.7l-.34,0C594.61,578,594.63,574.45,595.41,571.12Z"/><path class="7161d079-2030-41a3-a056-d55eb2b02333" d="M560.19,563c7.1-2.37,12.47,1.21,14.22,9.27H581A11.49,11.49,0,0,0,577.8,562c-5.44-5.61-12.32-6.51-19.47-4.79A15.86,15.86,0,0,0,546,570c-1.08,5.62-.85,11.53-.85,17.31,0,9.54,5.26,16.12,14.56,18.66.27.08.49.38.76.61-.18,1-.35,1.94-.35,1.91,1.82,1.87,3.93,3.09,4.21,4.64.19,1.08-2.11,2.61-3.29,3.94l-.74-.48c.13,1.29.25,2.58.39,4,4-.67,8.2-.88,9.6-5.23,1.24-3.88-.16-7-4.84-8.38,9.19-2.14,15.92-6,15.76-16.57h-7c-.29,4.7-2.08,8.27-6.7,9.53-7.08,1.93-13.26-1.72-14.36-9a74.94,74.94,0,0,1-.56-16.33C552.9,569.6,554.78,564.85,560.19,563Z"/><path class="7161d079-2030-41a3-a056-d55eb2b02333" d="M500.16,557.34c0,11.55-.36,22.86.22,34.12a16.1,16.1,0,0,0,4.66,9.92c6.46,6,14.41,6.4,22.44,3.19,7.57-3,10-9.32,10-16.92,0-8.5,0-17,0-25.5v-4.92h-7.82c0,11.22,0,22.06,0,32.9,0,6-4.39,10.13-10.8,10.42-5.74.26-10.57-3.42-10.82-9.06-.44-9.93-.36-19.88-.49-29.82,0-1.42,0-2.83,0-4.33Z"/><path class="7161d079-2030-41a3-a056-d55eb2b02333" d="M391.1,600c-3.6-.79-6.3-2.53-7.36-6.4a3.84,3.84,0,0,0-2.51-2.14,22.65,22.65,0,0,0-5-.1c.12,5.76,1.81,9.13,6.16,11.72a22.54,22.54,0,0,0,20.49,1.63c4.92-1.88,7.9-5.48,8.16-10.79.25-4.89-1.66-9-6-11.52a76,76,0,0,0-8.44-3.89c-2.55-1.07-5.45-1.58-7.68-3.1a9.25,9.25,0,0,1-3.7-5.38c-.91-5.46,4.59-8,9.7-7.53s8,3.47,8.77,8.28h6.87c.22-5.38-2.36-9.1-6.57-11.62-5.47-3.27-11.42-3.48-17.36-1.41-5.25,1.82-8.76,5.41-9.26,11.12-.48,5.48,2.25,9.46,7,11.94,2.73,1.43,5.71,2.37,8.58,3.56,2.55,1.06,5.28,1.86,7.6,3.3a6.47,6.47,0,0,1,1.62,9.65C399.2,600.68,395.23,601,391.1,600Z"/><path class="7161d079-2030-41a3-a056-d55eb2b02333" d="M684.45,562.93c6.69-1.7,10.61.62,13.42,7.93h7.77c-1.53-3.29-2.3-6.26-4-8.46-4.52-5.72-13-7.43-20.8-4.69-5.27,1.84-8.84,5.32-9.43,11s2.24,9.68,7.1,12.2c2.73,1.42,5.73,2.33,8.59,3.52,2.56,1.06,5.29,1.87,7.59,3.34a6.52,6.52,0,0,1,1.2,9.94c-3.17,3.12-7.2,3.26-11.25,2.25-3.4-.85-6.05-2.65-6.91-6.47a3.37,3.37,0,0,0-2.29-2,28.42,28.42,0,0,0-5.23-.09c.47,6.75,2.45,9.88,7.83,12.59a22.68,22.68,0,0,0,18.43,1c5-1.77,8.27-5.31,8.61-10.83.31-5.07-1.67-9.22-6.12-11.8a74.23,74.23,0,0,0-8.47-3.82c-2.65-1.13-5.42-2-8-3.25-2.87-1.39-3.83-3.92-3.3-7S681.67,563.64,684.45,562.93Z"/><path class="7161d079-2030-41a3-a056-d55eb2b02333" d="M646.25,562.93c6,.24,12,.07,18.26.07v-5.72H635.23v48.57h29.65V600.1c-1.28-.06-2.37-.15-3.46-.16-5.25,0-10.51-.11-15.76,0-2.43.06-3.46-.67-3.34-3.21.17-3.35.16-6.71,0-10.06-.11-2.32.67-3.13,3-3.06,5.33.16,10.67.05,16.13.05v-5.91c-5.16,0-10.16-.15-15.15.06-3,.12-4.37-.66-4-3.89a36.69,36.69,0,0,0,0-7C642.05,563.89,643.08,562.8,646.25,562.93Z"/><path class="7161d079-2030-41a3-a056-d55eb2b02333" d="M255.51,563c7.13-2.35,12.43,1.18,14.2,9.28h6.47c.57-4.23-.34-7.49-3.07-10.27-5.47-5.59-12.32-6.48-19.47-4.8-6.49,1.53-11.19,6.11-12.24,12.44a70.4,70.4,0,0,0-.47,21.58c1.76,11.9,12.91,17.59,24.54,14.17,7.71-2.27,12.07-8.52,10.53-15h-6.48c-.77,5.94-3,8.72-7.46,9.61-6.87,1.36-12.54-1.93-13.62-8.81a74.86,74.86,0,0,1-.59-16.66C248.19,569.57,250.09,564.82,255.51,563Z"/><path class="7161d079-2030-41a3-a056-d55eb2b02333" d="M437.36,605.67V562.93h14.75v-5.67h-37V563h14.7v42.69Z"/><path class="7161d079-2030-41a3-a056-d55eb2b02333" d="M601.64,543.75c-3.71.18-5.58,2-6.1,5.44a14.1,14.1,0,0,0,3.21.66c4.1-.05,8.2-.37,12.3-.36s6.66-1.74,7.55-5.57a14.59,14.59,0,0,0-2.24-.33C611.45,543.6,606.54,543.51,601.64,543.75Z"/></g></g></svg>