<svg xmlns="http://www.w3.org/2000/svg" viewBox="0 0 894 448.39"><defs><style>.\38 a045885-31a3-49b7-81b5-d81d5d6362fa{fill:#fff;}</style></defs><title>Asset 6</title><g id="568bffe3-4b27-47e4-aa22-4a995bd6dd0e" data-name="Layer 2"><g id="0f1d2312-f3f6-4a2b-9e5d-aac7a429cfd4" data-name="Layer 1"><path class="8a045885-31a3-49b7-81b5-d81d5d6362fa" d="M143.91,294.38c-1.58-8.87-3.42-17.7-4.66-26.62a134.12,134.12,0,0,1,0-34.09,165.69,165.69,0,0,1,9.9-40.12c11.3-29.45,29-54.64,50.9-77.12,36.18-37.22,79.2-64.25,126.62-84.63a404.73,404.73,0,0,1,96.26-28,289.26,289.26,0,0,1,62-3.34C507,1.68,528.58,5.88,549,15a131,131,0,0,1,32.56,20.63c18.62,16.14,22.07,44,8.17,65.54-11.87,18.39-29.18,28.46-50.47,32-16.58,2.8-32.42.37-47-8.11-7.1-4.12-13.64-9.2-20.71-13.36a168.52,168.52,0,0,0-61.25-21.27c-38.37-5.7-75.34,0-111.28,13.78a254.12,254.12,0,0,0-77.35,46.67c-35.53,31.17-60.93,68.81-72.13,115.2-2.23,9.22-3.38,18.69-5,28Z"/><path class="8a045885-31a3-49b7-81b5-d81d5d6362fa" d="M30.61,262.31c2.9,10.17,5.4,20.1,8.56,29.8,7.88,24.18,19.24,46.54,35.78,66.06,20.17,23.81,45.5,39.83,75,49.57a241.37,241.37,0,0,0,53.32,10.75,341.3,341.3,0,0,0,45.32,1.36,586.3,586.3,0,0,0,80.77-9.16c32.21-5.79,63.92-13.63,95.61-22.15-4.48,2.87-8.9,5.84-13.45,8.59-34.9,21.11-72.49,35.31-112.42,43.42-16.55,3.36-33.22,6-50.11,6.74-14.36.6-28.77,1.47-43.12.93-43.58-1.62-85.92-9.51-126-27.48C59.69,411.69,41,400.29,25.48,384.31,13.06,371.53,3.92,356.92.93,339a70.83,70.83,0,0,1,3.18-35C9.56,288,19.18,274.73,30.61,262.31Z"/><path class="8a045885-31a3-49b7-81b5-d81d5d6362fa" d="M289.29,341.21H275.64V285.59l-.45-.14c-.28.82-.58,1.63-.83,2.45q-7.67,25.44-15.26,50.88c-.57,1.9-1.34,2.76-3.46,2.62a73,73,0,0,0-9.24,0c-1.93.12-2.52-.71-3-2.37q-6.94-25.2-14-50.37c-.31-1.11-.77-2.18-1.32-3.68v56.14H215V268.55h9.63c2.8,0,5.61.13,8.41,0,2-.13,2.89.57,3.45,2.58,4.65,16.79,9.44,33.55,14.19,50.31.23.8.49,1.59,1,3.17.55-1.57.9-2.44,1.17-3.34,5-16.69,10.08-33.36,15-50.08.63-2.16,1.59-2.7,3.69-2.65,5.86.14,11.73.05,17.76.05Z"/><path class="8a045885-31a3-49b7-81b5-d81d5d6362fa" d="M580,341.22H566.32V285.69l-.49-.19q-8.42,27.79-16.87,55.72H534.83Q527,313.29,519.19,285.5l-.42.09v55.57h-13.1V268.55h13.61c7.12,0,7.17,0,9.13,6.85,4.34,15.24,8.62,30.5,12.94,45.75.22.79.52,1.57,1,3,.54-1.27.9-1.95,1.11-2.67,5.06-16.77,10.14-33.55,15.1-50.35.57-2,1.29-2.71,3.39-2.66,6,.15,11.93.05,18.09.05Z"/><path class="8a045885-31a3-49b7-81b5-d81d5d6362fa" d="M748.18,338.65c7.62-4.35,11.92-10.89,13.91-18.87,2.87-11.54,2.87-23.14-1.5-34.38a26.38,26.38,0,0,0-19-16.76,41.17,41.17,0,0,0-18-.47c-10.7,2-18.25,8-21.78,18.33a54.55,54.55,0,0,0,.56,38.08,25.63,25.63,0,0,0,17.48,16.08c3.65,1,7.55,1.12,11.32,1.8a5.69,5.69,0,0,1,3.18,1.54c3.71,4.3,7.17,8.84,10.89,13.16a4.94,4.94,0,0,0,3.23,1.52c5.14.17,10.28.07,15.43.05a17.13,17.13,0,0,0,2-.28Zm-16.58-9.09c-7.08,0-12.25-3.53-14.8-10.27a24.3,24.3,0,0,1-1.42-4.81c-.47-3.23-.73-6.48-1.22-11.2.7-3.48,1.27-8.42,2.81-13,2.29-6.9,7.48-10.08,14.82-10,6.83,0,11.88,3.41,14.19,10.14a44.28,44.28,0,0,1,0,28.87C743.76,326,738.5,329.51,731.6,329.56Z"/><path class="8a045885-31a3-49b7-81b5-d81d5d6362fa" d="M638,303.65a6.29,6.29,0,0,1-1.5-.79c7.95-2.22,10.85-7.76,11.24-15.2.43-8.53-3.43-14.44-11.54-17a34.69,34.69,0,0,0-8.75-1.66c-9-.35-17.95-.35-26.9-.47a13.21,13.21,0,0,0-1.71.26v72c10.92,0,21.6.56,32.19-.16,10.29-.68,17-7.53,18.4-17.63C650.48,315.13,648.15,305.92,638,303.65Zm-23.85-21.43c0-.4.77-1.17,1.17-1.15a90.09,90.09,0,0,1,12.2.91c3.56.66,5.24,3.65,5,7.37-.18,4.28-2,7-5.68,7.55-4.09.61-8.3.61-12.81.89C614.06,292.25,614,287.24,614.13,282.22Zm12.37,46.17c-4,.35-8,.07-12.27.07V309.22c4.46.25,8.76.18,12.95.82,5.05.74,7,3.81,6.85,9.51C633.86,324.69,631.34,327.94,626.5,328.39Z"/><path class="8a045885-31a3-49b7-81b5-d81d5d6362fa" d="M369.07,294c-2.11-11.58-7.55-20.69-19.29-24.69a39.52,39.52,0,0,0-20.48-1.05c-11.31,2.15-18.7,8.93-22.09,19.82a55.83,55.83,0,0,0,0,33.36c3,10,9.47,16.83,19.71,19.59a39.87,39.87,0,0,0,21.29-.12,26.69,26.69,0,0,0,17.63-14.84c3.2-6.71,4.09-13.89,4.23-23C369.86,301.18,369.7,297.53,369.07,294ZM351.7,320c-2.31,6.36-7.27,9.49-14.07,9.56s-12.09-3-14.38-9.44c-1.75-4.84-2.32-10.1-3.44-15.29,1.1-5.14,1.69-10.29,3.39-15.06,2.27-6.4,7.3-9.56,14.29-9.58s11.78,3.11,14.14,9.4A43.1,43.1,0,0,1,351.7,320Z"/><path class="8a045885-31a3-49b7-81b5-d81d5d6362fa" d="M439.57,202.78c-.6-.21-1.19-.44-1.89-.72,6.36-3.37,7.43-4.23,8.93-7.27,5.21-10.64.26-21.77-11.2-24.57-11.12-2.74-22.49-1.43-33.75-1.52-.14,0-.31.21-.47.35v69.71a3,3,0,0,0,.89.3c8.69,0,17.39.38,26.06-.11,15-.82,22.33-8.56,21.86-22.28C449.77,209.49,446.42,205.05,439.57,202.78Zm-23.7-22.16c4.37.3,8.65.28,12.79,1,3.43.6,5,3.41,4.91,7.15-.1,4-1.76,6.64-5.29,7.2-4,.61-8.11.58-12.41.84ZM429,226.23c-4.16.72-8.48.63-13,.91v-19c4.37.24,8.68.14,12.84.8,4.35.67,6.36,3.69,6.4,8.2C435.25,222,433.17,225.5,429,226.23Z"/><path class="8a045885-31a3-49b7-81b5-d81d5d6362fa" d="M549.17,193.34c-2-11.15-7.13-20.18-18.57-23.82a43.92,43.92,0,0,0-13.48-1.8c-14,0-24.08,7.31-27.87,19.94a54.29,54.29,0,0,0,.21,32.79c3.11,9.68,9.56,16.28,19.61,18.43a48.93,48.93,0,0,0,14.19.81c10.17-.84,18-5.7,22.61-15.12,3.2-6.5,4.18-13.49,4.37-20.67C549.89,200.37,549.8,196.8,549.17,193.34ZM532.8,217.16c-2,6.8-6.87,10.28-13.56,10.45-7.22.16-12.36-2.9-14.77-9.63a41.2,41.2,0,0,1,0-28.52c2.31-6.39,7.38-9.59,14-9.61s11.64,3,13.91,9.61c1.52,4.48,2,9.37,2.87,14C534.46,208.25,534.06,212.83,532.8,217.16Z"/><path class="8a045885-31a3-49b7-81b5-d81d5d6362fa" d="M819,268.69h15.22v46.85c0,19.14-13.35,27.38-29.43,26.69a37.51,37.51,0,0,1-10.65-2c-10.5-3.72-15.06-12.1-15.35-22.54-.45-16.07-.11-32.15-.09-48.23a3,3,0,0,1,.22-.71h15v3.1q0,21,0,42.06a33.19,33.19,0,0,0,.29,4.46c1.26,9.44,9.76,14,18.43,10,3.44-1.61,5.11-4.57,5.76-8.12a36.21,36.21,0,0,0,.6-6.4c0-13.93,0-27.86,0-41.78Z"/><path class="8a045885-31a3-49b7-81b5-d81d5d6362fa" d="M495.82,340.1Q484.42,305,472.93,270a3,3,0,0,0-2.36-1.52c-4.86-.14-9.72,0-14.58-.12-1.85-.05-2.53.63-3.07,2.34-5.77,18-11.64,36-17.48,53.95-1.76,5.47-3.51,11-5.36,16.74,4.66,0,9-.09,13.23,0,1.78.07,2.44-.6,2.86-2.22,1.17-4.41,2.57-8.76,3.74-13.18a2.33,2.33,0,0,1,2.69-2.06q10.51.15,21,0c1.78,0,2.39.63,2.81,2.27,1.15,4.42,2.41,8.81,3.81,13.14a3.18,3.18,0,0,0,2.06,1.94c4.49.16,8.95.07,13.6.07A7.78,7.78,0,0,0,495.82,340.1ZM454.44,311c2.88-10.31,5.71-20.5,8.68-31.21,3.06,10.66,6,20.83,9,31.21Z"/><path class="8a045885-31a3-49b7-81b5-d81d5d6362fa" d="M330.08,168.73h14.26c.05,1,.13,2,.14,2.94,0,13.73-.05,27.47,0,41.21a26.62,26.62,0,0,0,1.05,7.43c1.67,5.39,5.25,7.4,12.06,7.25,5.43-.12,9-2.61,10.23-7.76a42.57,42.57,0,0,0,.9-9.44c.1-12.71,0-25.42,0-38.12v-3.48h14.66c.06,1.12.16,2.13.17,3.13,0,13.73.09,27.47-.06,41.21a39.46,39.46,0,0,1-1.39,10.21c-2.71,9.51-11,15.83-21.41,16.49-6.08.38-12.15.34-17.84-2.4-8.54-4.11-12.74-11.33-13-20.39-.42-15.78-.15-31.58-.15-47.37A3.94,3.94,0,0,1,330.08,168.73Z"/><path class="8a045885-31a3-49b7-81b5-d81d5d6362fa" d="M852.34,341.2V268.73H894v12.32H882.55c-4.3,0-8.6-.08-12.9.08-.75,0-2.07,1.05-2.09,1.66-.18,4.64-.1,9.3-.1,14.26h24.42v12.72H867.66v18.75H894V341.2Z"/><path class="8a045885-31a3-49b7-81b5-d81d5d6362fa" d="M395.77,328.73h31.55v12.41H377.61c-.09-5.13-.43-9.89,2.71-14.7,9.08-13.91,17.57-28.21,26.28-42.37.47-.76.84-1.58,1.45-2.74H378.71v-12.6h47.63c-.12,4.79.74,9.33-2.22,13.94-9.14,14.21-17.8,28.73-26.64,43.14C397,326.58,396.56,327.38,395.77,328.73Z"/><path class="8a045885-31a3-49b7-81b5-d81d5d6362fa" d="M263.09,225c0,3,.08,6.48-.06,9.93a2.7,2.7,0,0,1-1.31,2c-10,3.6-20.26,4.37-30.46,1.06a24.16,24.16,0,0,1-15.66-15c-4.82-13-5.13-26.17,1-38.87,4.81-10,13.29-15.11,24.22-16.15a45,45,0,0,1,24.94,4.7c-1.54,3.92-3.06,7.77-4.67,11.85-2.1-.84-4-1.67-6-2.41-14.8-5.52-24.67.08-27.18,15.59a41.89,41.89,0,0,0,1,18c2.14,7.67,7.68,12.18,15.6,11.8C250.7,227.22,256.81,225.89,263.09,225Z"/><path class="8a045885-31a3-49b7-81b5-d81d5d6362fa" d="M565,168.7h39.7v12.08H579.6v18.27h23.5v12.11H579.52v27.68H565Z"/><path class="8a045885-31a3-49b7-81b5-d81d5d6362fa" d="M690.43,268.76c.59,8.21.62,8.27-6.59,11.47a3.29,3.29,0,0,0-2.26,3.57q.13,21.18,0,42.34a3.28,3.28,0,0,0,2.3,3.55c7.25,3.21,7.22,3.27,6.53,11.44H657.49c0-2.5-.1-5,.06-7.48A2.39,2.39,0,0,1,659,332c7-1.41,7.82-6,7.56-12.3-.5-11.85-.19-23.73-.1-35.6,0-1.93-.49-3-2.37-3.8-7-3-7-3.1-6.57-10.74a5.24,5.24,0,0,1,.18-.76Z"/><path class="8a045885-31a3-49b7-81b5-d81d5d6362fa" d="M293.08,227h25.53v12H278.52V168.8h14.56Z"/></g></g></svg>