<svg xmlns="http://www.w3.org/2000/svg" viewBox="0 0 924.29 566.99"><defs><style>.\35 7ce8981-77cb-4f1d-8ac3-2265a040bb7f{fill:#fff;}</style></defs><title>Asset 7</title><g id="2cca197b-74be-477f-918c-f1cf086c3a59" data-name="Layer 2"><g id="94ae4c94-c07b-45ca-baa4-cc52c7f7af7c" data-name="Layer 1"><path class="57ce8981-77cb-4f1d-8ac3-2265a040bb7f" d="M466.15,354.89c-1.63-.22-2.71-.34-3.78-.51-7.37-1.13-15-1.41-22.06-3.55-51-15.42-82-50.1-95.7-101-.33-1.21-.78-2.74-1.69-3.38-6.22-4.31-6-10.14-4.35-16.49a39.49,39.49,0,0,0,1.28-7.21c1-14.24.77-28.7,3.21-42.69A133.42,133.42,0,0,1,377,111.82c26.22-28.53,58.18-44.18,97.54-43,2,.06,4,0,6.39,0-42.58-36.94-100-37.68-131.17-21.72,4.78,0,9.29-.26,13.76.08,4.05.31,8.75-1.7,13.23,3.25C347.47,57.53,324.15,72.29,305.05,94s-31.35,46.81-37.81,74.34c2.47,2.33,5.62,3.91,6.3,6.22,1.59,5.42,5,4.82,8.84,3.88,14.68-3.59,29.6-4.19,44.61-3.73,10.17.31,16.49,9.5,13.31,19.23-4.22,12.92-8.49,25.83-12.6,38.79a22.88,22.88,0,0,1-10.42,12.89c-5.37,3.28-13,3.25-17,.11-4.63-3.6-5.78-8.51-3.65-15.8.42-1.43,1-2.82,1.46-4.24,2.48-7.5,4.95-15,7.62-23.1a37.6,37.6,0,0,0-5.79-.68c-6.65.28-13.3,1-20,1.06s-10.59,3.3-12.63,9.24-4.06,11.95-5.8,18c-1.6,5.58-3.88,10.58-8.76,14.1-.71.51-.89,1.76-1.32,2.67l1.37,1,10.6-10.38c.6,2.78,1,4.33,1.26,5.9,3.21,18.68,8.75,36.56,18.12,53.16a153.94,153.94,0,0,0,30.78,39c1.54,1.39,2.64,3.28,4.31,5.4-1.69.36-2.28.7-2.61.53-8.51-4.32-17-8.69-25.78-13.21C338.94,384.5,411.6,384.69,466.15,354.89Z"/><path class="57ce8981-77cb-4f1d-8ac3-2265a040bb7f" d="M410.25,32.85c36.33,4,65.47,21.71,89.53,48.52,13.34,14.87,23.45,31.79,31.36,50.27,23.79-9,47.07-17.79,70.44-26.39a12,12,0,0,1,7.5,0c9.09,3.2,18,6.88,27,10.3,10.94,4.16,21.92,8.23,34,12.77-1-1.65-1.3-2.22-1.69-2.68-10.27-12-20.42-24.1-30.89-35.93-8.69-9.81-17.82-19.25-26.65-28.94a55.72,55.72,0,0,1-4.33-6.23l1.18-1,14,4.58c-17.65-20.73-63.88-44.76-96-51.84-36.31-8-72.5-8.7-108.77-.23C381.67,14.29,328,42,320.9,55.61,353.17,35.65,377.15,29.23,410.25,32.85Z"/><path class="57ce8981-77cb-4f1d-8ac3-2265a040bb7f" d="M502.69,413.19c56.84-7.94,105.08-32.25,143.58-75.13a7.45,7.45,0,0,1,7.32-2.74c8.31,1,16.67,1.65,25,2.45a16,16,0,0,0-6.92-4.78c-8.31-2.39-16.79-4.18-25.09-6.59-5-1.46-10.27-3-14.71-5.64-9-5.4-17.62-11.41-26.14-17.53-5.48-3.93-11-4.8-17.41-2.88-22.2,6.6-44.51,12.81-66.71,19.42-5.76,1.71-10.91,1.56-16.39-1.11-8.39-4.1-22.88-2.55-30.84,2.85l29.19,4.2c-10.16,16.18-24.13,27.08-39.37,36.65l.7,1.39,19.65-5.7.86,1.08a47,47,0,0,1-4.39,4.63c-11.13,9-23.9,15.05-37.34,19.75-27.29,9.55-54.47,11.22-82.11.65a206.22,206.22,0,0,1-56.27-32.8A190.5,190.5,0,0,0,368,395.9C411.14,415.06,456.19,419.69,502.69,413.19Z"/><path class="57ce8981-77cb-4f1d-8ac3-2265a040bb7f" d="M750.78,186.55c-1.66-3.37-4.52-3.55-7.61-3.55-21.83,0-43.66.1-65.49,0-2,0-4-.89-6-1.37-.33-.56-.67-1.12-1-1.67-2.47,3.54-5.82,6.76-7.24,10.69-5,13.71-9.36,27.64-13.8,41.54-2.45,7.67.76,11.85,8.88,11.88,14.66.06,29.33,0,44,.19,2,0,5.2,1.16,5.76,2.59.75,1.9-.37,4.66-1.06,6.94-.36,1.17-2.33,2.21-2.19,3.1.78,5.14-3,5.06-6,5.13q-16.23.36-32.49.16c-1.69,0-3.36-1.38-5.05-2.12l-1.7-.86c-1,3-3.09,6.23-2.73,9.11.49,3.94,4.67,2.79,7.51,2.8,16.33.07,32.66.05,49,0,10.41,0,15.45-3.73,18.72-13.72,5.26-16.08,10.57-32.15,15.81-48.24,2.24-6.87,4.36-13.79,6.47-20.47C752.9,187.81,751.24,187.48,750.78,186.55Zm-26.19,20.7c-2.41,7.4-2.71,15.94-9.86,21.18-.36.27-.86.89-.76,1.17,2,5.93-3.11,5-5.69,5.21-5.27.51-10.63.16-15.95.16s-10.66.22-16-.08c-4.61-.25-8.49-2.2-9.64-7.18-.49-2.1-1.35-4.66,2.37-5.4,1-.19,1.81-2.14,2.29-3.44,1.38-3.73,2.42-7.58,3.84-11.3,2.3-6.07,6.93-9.27,13.34-9.4,9.64-.2,19.3-.15,29,0C723.45,198.23,726.41,201.66,724.59,207.25Z"/><path class="57ce8981-77cb-4f1d-8ac3-2265a040bb7f" d="M856.22,231.64c3.52-10.72,6.95-21.47,10.4-32.21,1.2-3.74,2.36-7.48,3.54-11.2-1.6-.52-3.29-.56-3.63-1.25-2.28-4.69-6.48-4-10.41-4-23,0-46,.13-69,.09-1.7,0-3.4-1-5.1-1.48l-1.31-1.44c-2.35,3.27-5.58,6.22-6.89,9.86-5,14.05-9.56,28.28-14.05,42.51-2.34,7.39,1,11.55,8.8,11.56q35.24.06,70.48,0C847.7,244.09,853.53,239.86,856.22,231.64Zm-43.67,3.46a13.56,13.56,0,0,1-3,0V235c-4.83,0-9.67.16-14.5,0-4.2-.18-8-1.6-9.56-6-.87-2.51-3-5.91,2.18-7,.83-.17,1.48-2,1.91-3.23,1.36-3.74,2.41-7.61,3.88-11.3,2.39-6,7-9.25,13.44-9.37,8.83-.15,17.67-.12,26.5,0,6.36.08,9.3,3.85,7.15,9.83A210.52,210.52,0,0,1,832,228.31C826.94,238.73,819.14,233.58,812.55,235.1Z"/><path class="57ce8981-77cb-4f1d-8ac3-2265a040bb7f" d="M126.15,244.09q35.72.07,71.42,0c7.57,0,13.26-4.12,15.87-11.32,1.3-3.58,2.46-7.22,3.64-10.84,3.56-11,7.1-22,10.62-32.94-1.6-1-3.34-1.45-3.88-2.51-1.81-3.62-5-3.48-8.14-3.48-23.47,0-46.94.11-70.41.05-1.82,0-3.64-1-5.46-1.52l-1.51-1.48c-2.47,3.75-5.81,7.19-7.28,11.31-4.85,13.57-9.07,27.36-13.44,41.1C115.23,239.86,118.33,244.08,126.15,244.09Zm19.15-21.93c.88-.21,1.56-2,2-3.16,1.42-3.9,2.5-7.93,4.05-11.77,2.35-5.78,6.85-8.95,13.09-9.07,9-.18,18-.14,27,0,5.55.08,8.67,3.23,7.15,8.21-2.32,7.62-2.76,16.25-9.75,21.83-1.8,11.44-10.9,5.31-16.77,6.88-1.39.38-3,.06-4.48.06V235c-5,0-10,.18-15-.06-4.2-.2-8-1.73-9.48-6.08C142.26,226.38,140.71,223.27,145.3,222.16Z"/><path class="57ce8981-77cb-4f1d-8ac3-2265a040bb7f" d="M479.67,183c-2.24,0-4.48-.89-6.71-1.37l-1.09-1.56c-2.43,3.54-5.72,6.78-7.14,10.69-5,13.87-9.56,27.91-13.89,42-.83,2.7-1,7.06.57,8.62s5.9,1.57,8.68.89c15.29-3.76,30.47-8,45.7-12,7.66-2,10.44-.51,12.07,6.55,1.58,6.9,6,8.94,12.85,6.64,5.14-1.73,9-5,10.84-10.24,1.21-3.44,2.35-6.91,3.47-10.38,3.77-11.6,7.51-23.21,11.12-34.39-1.81-1-3-1.77-4.26-2.35-2.4-1.11-4.83-3-7.27-3C523,182.93,501.32,183.09,479.67,183Zm43.24,22.64c-.58,2-4.47,2.86-2.26,6.08a9.58,9.58,0,0,1-2.94,2.19c-11.87,3.92-23.73,7.85-35.68,11.48-5.09,1.55-9.71-.77-10.32-5-.22-1.55,1.25-3.41,2.14-5,.66-1.22,2.08-2.17,2.39-3.43,2.77-11.55,7.53-16.15,21.7-15.11,2.32.17,4.67,0,7,0,4.5,0,9-.23,13.48.1,1.92.14,4.81,1,5.36,2.34C524.5,201,523.52,203.55,522.91,205.64Z"/><path class="57ce8981-77cb-4f1d-8ac3-2265a040bb7f" d="M240.15,244.09c7.14.31,13.58-4.37,16.09-11.79,2.44-7.23,4.63-14.55,7.24-21.71,2.31-6.38,6.61-10.84,13.77-11.36,7.81-.56,15.63-1,23.44-1.17s9.8,2.77,7.38,10.26c-2.55,7.88-5.53,15.66-7.55,23.68a13.65,13.65,0,0,0,1.34,9.63c2.31,3.64,6.79,3.05,10.51,1.78a16.82,16.82,0,0,0,11.08-11.29c4.11-12.79,8.31-25.55,12.44-38.33a16.12,16.12,0,0,0,.48-2.86c-1.51-1.09-3.14-1.67-3.67-2.77-1.89-3.94-5.23-5-9.07-5-7.15.1-14.34.07-21.44.79-7.61.76-15.13,2.39-22.71,3.51-5.42.81-9.7-.63-12.5-5.95-.88-1.67-3.44-2.65-5.42-3.5s-4.41-1.27-8-2.25c-1.29,2.33-3.58,5.36-4.75,8.77-5.39,15.69-10.49,31.47-15.62,47.24a14.52,14.52,0,0,0-.65,4.4C232.48,241.1,235.24,243.88,240.15,244.09Z"/><path class="57ce8981-77cb-4f1d-8ac3-2265a040bb7f" d="M15.58,244q35.76.18,71.5,0c4.76,0,7.5-2.92,8-8-4-.29-7.9-.81-11.85-.85-12.33-.12-24.67,0-37-.09-2.31,0-5.06.27-6.84-.83a19.77,19.77,0,0,1-6.63-6.67c-1.51-2.64-.13-4.92,3.17-5.81.7-.18,1-2,1.4-3.05,1.36-3.91,2.43-7.95,4.06-11.75,2.35-5.47,6.57-8.78,12.71-8.84,9.67-.09,19.35-.25,29,.2,2.85.13,6.45,1.49,8.27,3.55,5.8,6.57,14.12,5.79,18-2.46,1.66-3.56,2.58-7.46,3.86-11.27-1.57-.59-3.39-.69-3.83-1.52-2.09-3.93-5.62-3.65-9.12-3.64-21.33,0-42.66.13-64,.07-1.82,0-3.65-1-6.88-2-1.61,1.92-5.05,4.39-6.21,7.67-5.34,15-10.17,30.19-14.89,45.4C6.57,239.48,10,244,15.58,244Z"/><path class="57ce8981-77cb-4f1d-8ac3-2265a040bb7f" d="M370.71,217.94c1.42-3.15,2.28-6.56,3.47-9.83,2.39-6.55,7.09-10,13.88-10,9.16,0,18.32,0,27.48,0,4.4,0,7.77,1.37,10.53,5.33,1.3,1.86,5.59,3.46,7.47,2.67a22.37,22.37,0,0,0,9.21-7.48c2.08-3,2.52-7.07,3.73-10.82-1.49-.39-3.38-.35-3.76-1.09-2.29-4.39-6.26-3.79-10-3.78-21.16,0-42.31.13-63.46.07-1.85,0-3.69-1-5.54-1.6l-1-1.36c-2.4,3.59-5.62,6.88-7,10.82-4.84,13.41-9.06,27-13.47,40.6a15.72,15.72,0,0,0-.74,3.9c-.32,5.46,2.41,8.62,7.84,8.64q35.24.12,70.46,0c4.91,0,8-2.53,9.4-8-4.75-.33-9.17-.87-13.59-.92-12.83-.14-25.65.05-38.48-.15-7.05-.11-11.23-3.45-11.41-8.7a7.15,7.15,0,0,1,1.45-3.83C368.14,220.88,369.93,219.65,370.71,217.94Z"/><path class="57ce8981-77cb-4f1d-8ac3-2265a040bb7f" d="M590.25,183c-2.4,0-4.81-.84-8.6-1.54-3.14,1.41-5.68,5.05-7.18,9.71-4.31,13.41-8.74,26.78-13,40.19a17.35,17.35,0,0,0-.85,5.35c0,4.35,2.74,7.05,7.07,7.38,7.2.53,14-4.22,16.61-11.79,2.84-8.32,5.48-16.71,8.28-25,2.87-8.53,7.24-11.63,16.3-11.67,7.66,0,15.32.11,23-.06,6.92-.16,11-3.53,12.57-10.26-3.38-.89-6.77-2.52-10.18-2.55C619.55,182.56,604.9,183,590.25,183Z"/><path class="57ce8981-77cb-4f1d-8ac3-2265a040bb7f" d="M38.19,498.55c-4.22-.67-8.63-.26-12.95-.2-13.19.16-18.75,5.36-19.82,18.46-.51,6.25,1.33,9.08,7.55,10.12,4.72.79,9.59.66,14.37,1.14,2.75.27,5.85.3,6.48,4.1a9.36,9.36,0,0,1-9,11.25c-2.15.12-4.32.14-6.48.08-8.36-.22-8.52-.4-8.79-8.72H1.43C-2.2,546,1,550.63,12.2,551c3.5.1,7,.1,10.49,0,14.35-.19,20.22-5.91,20.81-20.22.28-6.59-1.4-8.64-8.07-9.39-4.46-.5-9-.57-13.41-1.14-2.95-.38-6.67,0-6.91-4.66-.25-5.18,2.21-9,6.71-9.59,2.46-.34,5-.12,7.48-.24,5.05-.24,9.85-.21,8.46,8.12,3.7-.91,7.9-.79,8.75-2.43a10.29,10.29,0,0,0-.43-8.86C44.68,500.41,41.05,499,38.19,498.55Z"/><path class="57ce8981-77cb-4f1d-8ac3-2265a040bb7f" d="M245.23,518.91c-6-8.1-23.39-5.76-25.94,5a143.17,143.17,0,0,0-3.54,18.49c-.56,5.66,2.22,8.65,7.87,8.44,5.3-.2,10.56-1.65,15.62-2.52-1,9.61-3,12.64-9.59,13-4.11.23-8.86,1.07-9-6.16-3.09,1.17-7.26-1.9-7.74,3.65-.37,4.23,2,7.25,6.39,8a14.74,14.74,0,0,0,2.49.15c3.16,0,6.32.09,9.48-.05,7.77-.35,11.86-3.38,14.12-11,1.52-5.08,2.55-10.3,3.67-15.48,1.82-8.51,3.54-17,5.36-25.86C250.14,514.45,246.05,512.92,245.23,518.91Zm-5.37,22c-1.17,2.53-5.18,3.74-7.91,5.55-6.95-1-9.14-3.6-7.95-9.78a88.47,88.47,0,0,1,2.09-9.18c2-6.54,6.39-9.23,12.91-7.21,1.95.6,4.64,3.64,4.49,5.34A46.17,46.17,0,0,1,239.86,540.87Z"/><path class="57ce8981-77cb-4f1d-8ac3-2265a040bb7f" d="M355.51,514.46a99.26,99.26,0,0,0-13.47,0c-5.93.39-9.18,3.58-10.67,11.43,3.63-1.43,6.62-1.86,8.55-3.53,3.05-2.63,8.62-4.26,12.39-2.33,4.22,2.17,2.18,5.67,1.59,8.8a8.49,8.49,0,0,1-.49,1.75c-5.26-.52-9.85-1.52-14.39-1.3-8.73.42-13.06,5.53-13.14,14.27,0,4.22,2,6.86,6,7.18,5.89.47,12,1.56,15.67-1.68,3.29.79,5.33,1.79,7.2,1.56a5.06,5.06,0,0,0,3.29-3.24q2.74-11.62,4.83-23.4C363.92,518.28,361.25,514.85,355.51,514.46Zm-14.35,31.78c-2.71-.35-6.84.62-6.85-4.85,0-5.31,2.65-7.57,9.37-7.45,3.46,0,7.88-1,8.12,4.69C352,543.56,348.39,546.23,341.16,546.24Z"/><path class="57ce8981-77cb-4f1d-8ac3-2265a040bb7f" d="M163.63,514.55a68.48,68.48,0,0,0-13.43,0c-5.28.59-9.64,3.41-11.21,8.65a105.32,105.32,0,0,0-4,18.36c-.65,5.82,2.2,8.76,8,9.17a98.41,98.41,0,0,0,13.95,0c6-.43,9.22-3.66,10.68-10.3-5.63-.92-5.63-.92-9.18,2.6-2.57,2.56-11.23,3.66-13.45,1-1.47-1.8-1.5-5.11-1.36-7.69,0-.89,2.53-2.24,4-2.34,4.3-.31,8.64-.12,13-.12,9.78,0,10.46-.68,10.53-10.5v-.5C170.89,517.83,168.65,515,163.63,514.55Zm-.93,12.25c-.11,1-2.16,2.3-3.39,2.38-4.44.29-8.9.11-13.35.11-.49-.55-1-1.11-1.48-1.66,1.68-2.32,3-6,5.12-6.65,3.73-1.06,8.05-.48,12,.13C162.32,521.22,162.92,524.88,162.7,526.8Z"/><path class="57ce8981-77cb-4f1d-8ac3-2265a040bb7f" d="M76.67,520.33c-2.4,6.69-5.68,13.08-8.61,19.59-.69,1.54-1.46,3.05-2.2,4.57l-1.24-.26c-.91-9.79-1.81-19.58-2.73-29.53H53.71c1.22,10.66,2.27,21,3.72,31.31.31,2.21,2,4.23,3.12,6.34l2.09.58c-2.81,2.74-5.58,5.53-8.45,8.21-1.57,1.48-3.31,2.78-5.87,4.91,10,2,15.17-.24,18.91-7.93,5.93-12.24,11.53-24.66,17.25-37,.94-2,1.82-4.1,2.71-6.13C81.38,513.13,78.54,515.12,76.67,520.33Z"/><path class="57ce8981-77cb-4f1d-8ac3-2265a040bb7f" d="M286.06,519.66c-2.58,7.17-6,14-9.09,21-.61,1.37-1.31,2.7-2,4.05l-1.23-.33c-.92-9.93-1.83-19.87-2.73-29.68h-8.25c1.31,10.7,2.47,21.08,3.95,31.41.3,2.07,1.83,4,2.79,5.94l1.31-.26c-1.35,5.53-4.21,9.53-10.71,9.84-.31,1.71-.6,3.27-.88,4.84,8.34,1.35,12.63-.45,16.5-7.27,2.21-3.89,4-8,5.88-12.09,4.94-10.65,9.83-21.31,14.82-32.13C291.21,513.54,288,514.33,286.06,519.66Z"/><path class="57ce8981-77cb-4f1d-8ac3-2265a040bb7f" d="M697,514.67a67.75,67.75,0,0,0-14.93.11c-4.87.61-8.89,3.53-10.3,8.4a109.5,109.5,0,0,0-3.92,18.41c-.66,5.93,2.06,8.78,7.91,9.18a90.78,90.78,0,0,0,14.47-.07c6.14-.57,9.62-4.63,9.59-11.44-2.75.86-5.78,1-7.58,2.55-3.57,3.1-9.4,4.77-13.66,2.86-3-1.35-3.29-3.61-2.77-6.61s1.39-4.38,4.7-4.27c7,.24,14,.08,22,.08.36-4.25.73-8,1-11.79C703.79,517.53,701,515.06,697,514.67ZM695.49,527c-.12.9-2.32,2.07-3.63,2.15-4.29.28-8.6.1-12.9.1L677.32,528c1.57-2.37,2.72-6.24,4.78-6.8,3.87-1.06,8.3-.47,12.4.12C695.16,521.41,695.75,525.12,695.49,527Z"/><path class="57ce8981-77cb-4f1d-8ac3-2265a040bb7f" d="M878.26,514.75a74.23,74.23,0,0,0-15.84.24,11.31,11.31,0,0,0-9.73,8.3,110.45,110.45,0,0,0-3.83,18.37c-.63,5.92,2.06,8.7,7.93,9.12a94,94,0,0,0,13.94,0c6.38-.51,10-4.46,10.16-11.27-2.61.6-6.16.36-7.24,1.88-3.43,4.81-8,4.2-12.56,3.74-3.26-.33-5-2.5-4.51-5.94.41-3.07.85-5.67,5.27-5.4,6.92.41,13.9.11,21.53.11.4-4.07.84-7.79,1.12-11.53C884.83,517.88,882.25,515.13,878.26,514.75ZM876.45,527c0,.79-2.29,2.09-3.6,2.17-4.44.28-8.9.11-13.73.11.84-8.34,9.84-12.85,15.79-8.41C876.27,521.89,876.51,524.93,876.45,527Z"/><path class="57ce8981-77cb-4f1d-8ac3-2265a040bb7f" d="M458.07,520.36c-.67,1.53-1.37,3-2,4.55q-4.38,9.89-8.73,19.77l-1.38-.19q-1.38-14.9-2.75-29.78H435c1.3,10.68,2.44,21.06,3.9,31.38.3,2.07,1.83,4,2.79,5.95l1.32-.34c-1.23,5.88-4.5,9.69-10.9,10.15-.2,1.76-.36,3.2-.51,4.64,8.52,1.38,13-.6,16.9-8.23,4-7.84,7.49-15.94,11.2-23.93,3-6.42,5.93-12.84,9-19.43C460.86,513.94,460.86,513.94,458.07,520.36Z"/><path class="57ce8981-77cb-4f1d-8ac3-2265a040bb7f" d="M498.63,514.36c-19.13-1.52-23.24,1.54-26.92,20.08-2.76,13.92-.52,16.62,13.74,16.57,7.19.07,14.64-.1,17.53-8.26a86.48,86.48,0,0,0,4.22-18.85C508,517.48,505.12,514.88,498.63,514.36Zm.68,11.93A85.7,85.7,0,0,1,497,537.5c-1.71,6.35-3.79,7.83-10.27,7.86-7.26,0-8.73-1.75-7.46-9.06.4-2.29.72-4.6,1.25-6.86,1.92-8.15,5.25-10.42,13.55-9.53C498,520.33,499.81,522.55,499.31,526.29Z"/><path class="57ce8981-77cb-4f1d-8ac3-2265a040bb7f" d="M651,520.6c2.29,5,5.7,2.89,10.76,2.91-1.9-3.32-2.77-7.18-4.65-7.75-8-2.45-16.38-2.92-24.27.64-3.94,1.78-6.49,9.48-5.06,14.18s5.86,4,9.55,4.32c2.65.21,5.42-.09,7.92.6,1.73.48,4.53,2.54,4.35,3.39-.46,2.29-1.75,5.3-3.61,6.25-5.76,3-11.87.66-14.74-4.78H625c-1.21,4.19-1.48,8.53,2.93,9.56,8.25,1.94,16.84,2.55,24.82-1.37,4.14-2,6.83-9.4,5.46-14-1.53-5.15-6.06-4.91-10.21-5.13-2.66-.14-5.35,0-8-.4-4.1-.6-5.25-3.88-2.73-7.22C639.38,519,649.7,517.69,651,520.6Z"/><path class="57ce8981-77cb-4f1d-8ac3-2265a040bb7f" d="M121.56,514.67c-5.89-.77-12-1.67-16.82,3.44-.17.18-.61.12-1.08.2-.18-1.13-.35-2.25-.54-3.44-5.41-1.5-8.4-.19-8.56,5.56,0,2.11-1,4.19-1.41,6.3-1.63,7.86-3.22,15.73-4.86,23.82H96c.47-1.94.92-3.69,1.34-5.45,1.52-6.44,2.68-13,4.69-19.29,1.52-4.78,8.34-7.39,12.88-5.48,4.88,2.06,2.9,6,2.23,9.45-1.33,6.81-2.77,13.59-4.49,21.93,3.49-1.11,7.9-1.44,8.25-2.8,2.31-9.13,3.85-18.46,5.42-27.76A5.27,5.27,0,0,0,121.56,514.67Z"/><path class="57ce8981-77cb-4f1d-8ac3-2265a040bb7f" d="M544.54,520.57c-.62,2.75-1.12,5.53-1.81,8.26-1,3.84-1.69,7.83-3.25,11.44-1.79,4.15-8.53,6.47-12.49,4.63-4.58-2.13-2.43-5.84-1.79-9.11,1.36-6.94,2.79-13.86,4.55-22.54-3.69,1.35-8,1.79-8.4,3.28a238.31,238.31,0,0,0-5.49,26.77c-.74,4.94,1.76,7.19,6.92,7.63,5.59.48,11,.06,15.52-4.88.38,2,.63,3.28.85,4.47h7c2.52-12,5-23.73,7.49-35.52C546.05,513.91,546,513.9,544.54,520.57Z"/><path class="57ce8981-77cb-4f1d-8ac3-2265a040bb7f" d="M835.36,514.46a4,4,0,0,0-.5,0c-16.09-.74-23.67-.76-27.14,19.31-.26,1.47-.7,2.92-.83,4.4-.93,10.31,1.31,12.76,11.72,12.88,1.83,0,3.66,0,5.48,0,9.35-.33,12.77-3.21,15.46-14.56-3.54,1.23-7.17,1.34-8.39,3.12-3.48,5-5.82,6.72-11.68,5.75-3.5-.59-5.45-2.52-4.78-6.21.77-4.24,1.61-8.48,2.75-12.63,1.4-5.07,4.27-6.64,10.25-6.55,4.47.06,6.81,2,6.4,6.52,7.37.8,7.8.64,8.19-2.81C842.87,518.46,840.46,515.29,835.36,514.46Z"/><path class="57ce8981-77cb-4f1d-8ac3-2265a040bb7f" d="M386.63,514.09c.39-3,.68-5.19,1-7.69h-6.9c-1.37,2.82-2,6.24-4.05,7.65-1.71,1.17-4.29,1.26-3.72,4,.31,1.49,2,2.7,3.46,4.54-.54,2.71-1.24,6.28-2,9.85s-1.49,7.13-2.19,10.7c-.64,3.29.15,6,3.49,7.35,10.66,4.27,19.89-1.24,21.26-12.72-3.6-.73-6.59-1.2-7.85,3.86-.41,1.62-4.12,3.55-6.17,3.38-3.61-.28-2.47-3.41-1.88-5.87.74-3.05,1.29-6.16,2-9.23,2-9.14,2-9.37,11.05-9.12,4.61.12,6.21-1.64,5.81-6.66Z"/><path class="57ce8981-77cb-4f1d-8ac3-2265a040bb7f" d="M773.4,520.16c-2.43,6.51-5.83,12.65-8.86,18.92-.81,1.67-1.82,3.23-2.74,4.85l-1.13-.28c-.74-9.61-1.49-19.23-2.24-29h-8.06c1.1,12.22,2.15,24,3.24,36.14,2.87,0,5-.27,7.13.06,4.33.69,6.52-1.19,8.29-5,3.88-8.44,8.24-16.65,12.4-24.95,1-2,1.93-3.93,2.9-5.89C778.51,513.35,775.38,514.85,773.4,520.16Z"/><path class="57ce8981-77cb-4f1d-8ac3-2265a040bb7f" d="M589.72,515.55c-5.24-3.22-10.85-1.4-14.05,1.15l-9.34-3.17c-2.76,13.06-5.25,24.83-7.75,36.61,7.57,1.35,7.59,1.36,9.08-5.33,1.26-5.66,2.41-11.35,3.71-17,1.2-5.21,4.6-8.1,8.81-7.88,5.45.28,3.05,4.86,4,7.66h6.7C591.65,523.27,594.3,518.38,589.72,515.55Z"/><path class="57ce8981-77cb-4f1d-8ac3-2265a040bb7f" d="M208.09,515.67c-5.42-3.52-11-1.36-14.85,1.55-2-1.25-3.34-2.76-4.48-2.62-1.72.2-4.47,1.26-4.76,2.45-2.65,10.92-4.87,22-7.29,33.28,7.83.89,7.86.9,9.28-5.59,1.31-6,2.36-12,3.86-18,1.18-4.66,5.56-8.11,9-6.54,2,.94,3,4.33,4.84,7.28h5.36C210,523.18,212.36,518.45,208.09,515.67Z"/><path class="57ce8981-77cb-4f1d-8ac3-2265a040bb7f" d="M740.51,515.39a12.16,12.16,0,0,0-13.85,1.38l-9.38-3.18c-2.77,13.19-5.23,24.92-7.7,36.71,7.66.92,7.66.92,9.17-5.74.22-1,.39-1.95.62-2.92,1.27-5.47,2.29-11,3.93-16.39,1.21-4,4.57-5.72,8.61-5.19,4.25.56,2.65,4.22,3.1,6.77,0,.28.37.51.48.66h6.44C742.6,523.05,745.28,518.12,740.51,515.39Z"/><path class="57ce8981-77cb-4f1d-8ac3-2265a040bb7f" d="M791.13,520.23C789,530.09,787,540,784.51,551.86c3.61-1.24,8-1.62,8.39-3.06,2.91-11.15,5-22.5,7.42-33.81C792.59,513.78,792.52,513.76,791.13,520.23Z"/><path class="57ce8981-77cb-4f1d-8ac3-2265a040bb7f" d="M908.88,493.35c-8.88,0-15.24,6.56-15.17,15.58.07,8.72,6.45,15,15.21,15a15.12,15.12,0,0,0,15.37-15A15.29,15.29,0,0,0,908.88,493.35Zm0,29c-8,0-13.62-5.88-13.53-14A13.29,13.29,0,0,1,909,494.93a13.89,13.89,0,0,1,13.76,13.54A13.72,13.72,0,0,1,908.85,522.33Z"/><path class="57ce8981-77cb-4f1d-8ac3-2265a040bb7f" d="M795.22,504.58c7.19,1.34,7.83.9,7.95-5.76C795.19,498,795,498.1,795.22,504.58Z"/><path class="57ce8981-77cb-4f1d-8ac3-2265a040bb7f" d="M912.71,509.75c.43-2.66,2.13-6.7,1-7.71-2.18-2-5.9-2.38-9.39-3.56v5.37c2-1.55,3.22-2.93,3.93-2.69,1.71.57,3,2.24,4.53,3.46-1.41,1.23-2.67,3-4.3,3.47a.8.8,0,0,1-.43,0,1.17,1.17,0,0,1-.24-.09l-.28-.15-.15-.1a.65.65,0,0,1-.15-.1,2.39,2.39,0,0,1-.22-.16c-.36-.28-.77-.64-1.23-1s-.92-.81-1.46-1.24V517h.79c.2-2.26.41-4.51.63-7,6-1,5.39,5.57,9.75,7.65-1.64-3-2.86-5.21-4.07-7.43Z"/><path class="57ce8981-77cb-4f1d-8ac3-2265a040bb7f" d="M903.49,504.51c.3.23.59.45.86.68v-1.34C904.08,504.07,903.79,504.29,903.49,504.51Z"/></g></g></svg>