<svg xmlns="http://www.w3.org/2000/svg" viewBox="0 0 856 777.02"><defs><style>.\38 68593b0-4b40-4c09-a8bb-9866dc6ec2ca{fill:#fff;}</style></defs><title>Asset 4</title><g id="a2ebfaa8-7ebe-46ef-a337-63946e2f698f" data-name="Layer 2"><g id="d622a730-9419-4cd9-a2ba-69512aaf0bb4" data-name="Layer 1"><path class="868593b0-4b40-4c09-a8bb-9866dc6ec2ca" d="M416.94,209.4c2.65-1.07,5-5.84,5.38-9.15,5-39.53,9.26-79.15,14.62-118.63.61-4.54,6.58-8.36,10.07-12.52,3.3,4.34,8.91,8.37,9.53,13.05,4.49,34,7.88,68.12,11.81,102.18,1.62,14,2.79,28.13,21.18,31.48,4.51.82,9,5,12.28,8.76,11.77,13.44,23,27.33,35,41.73L712.9,247.78C702,132.85,598.62,6.49,441,.24,276.31-6.29,159.56,120,146.11,244.29l214.07,22.3C372.59,240.66,389.9,220.29,416.94,209.4Z"/><path class="868593b0-4b40-4c09-a8bb-9866dc6ec2ca" d="M714.67,279.66c-4.33,2-7.43,5-8.71,8.65-5.74,16.41-22.08,21.18-35.59,10.77-3.46-2.67-9.19-3.62-13.75-3.34-5.81.37-11.49,2.79-17,4.27-3.32,25.13-10.47,35.34-29,39.39-18.21,4-29.56-6.63-38.4-19.6-21.83.54-36.27,9.18-37.54,32.63-.12,2.17-1.58,4.31-2.58,6.38-20,41.52-52.54,60.67-88,58.85-45.89-2.36-74.05-29.9-86.69-71.93-4.67-15.53-11.35-22.57-26.1-24.4-3.15-.39-6.18-1.67-9.17-2.51-12.89,17.75-25.16,24.23-39.06,20.81-18.37-4.53-26.14-14.91-29.06-38.83-19.28-6.64-19.28-6.64-37.07,1.59-11.85,5.5-23.8-.08-29.14-13-1.52-3.67-4.16-8.48-7.36-9.55-12.63-4.23-25.68-7.18-38.71-10.64C135.54,371,181.9,480.86,289,539c102.73,55.76,206.44,51.28,303.37-14.56C677.38,466.72,717.08,383.2,714.67,279.66Z"/><path class="868593b0-4b40-4c09-a8bb-9866dc6ec2ca" d="M461.29,237.39c-10.14.89-20.42.12-30.64.17-22.86.09-27.6,3.52-36.26,25.89h105.3C493.42,244.79,481.36,235.62,461.29,237.39Z"/><path class="868593b0-4b40-4c09-a8bb-9866dc6ec2ca" d="M257,589.65c-55.39-1.06-98.15,44.54-96.65,91.5C158,730.53,198.05,775,253.77,776.09c51.8,1,96-42.41,96-93C349.81,633.1,306.92,590.61,257,589.65Zm-3.37,145.5c-27.42-.13-46.33-22-46.15-53.28-1.32-27.54,23-52.74,48.51-51.69,25.1,1,46.15,22.88,46.4,53.9C302.59,714.33,282,735.28,253.59,735.15Z"/><path class="868593b0-4b40-4c09-a8bb-9866dc6ec2ca" d="M628.93,669.08c-.26,14.68-1.37,29.37-2.71,44-1.42,15.48-11.22,21.81-26,22.1-19.44.4-27.52-4.52-31.93-20.71a67.62,67.62,0,0,1-1.92-17.35c-.17-34.37-.08-68.75-.08-103.73h-47c0,42.89-1.48,84.38.85,125.65.74,13.24,8.8,28.51,18.24,38.32,20.46,21.25,48.91,21.36,75.75,18.12,35.46-4.29,56.13-19.87,58.24-46.16C676,684.41,676,639.2,677.47,594H629.05C629.05,619.78,629.37,644.44,628.93,669.08Z"/><path class="868593b0-4b40-4c09-a8bb-9866dc6ec2ca" d="M808.84,700.7c4-1.84,7-3.29,10.06-4.65,21.61-9.64,31.86-29.09,29.18-55.47-2.16-21.34-19.05-41.88-40.45-44.13-30.15-3.16-60.61-3.45-91.63-5v178.4h45V700.08C774,722.41,784.45,741,795.49,759.31c2.57,4.25,6.76,10.25,10.57,10.54,15.82,1.19,31.77.5,49.94.5Zm-11.17-34.32c-7,13.59-21.88,11.89-36.65,12.33V631.62c13,0,27.91-6,35.51,9C800.16,647.81,801.15,659.6,797.67,666.38Z"/><path class="868593b0-4b40-4c09-a8bb-9866dc6ec2ca" d="M60.75,717.52c-17-18-18.07-49.42-.17-70.19,6.53-7.57,17.51-13.05,27.45-15.56,18.71-4.73,33.27,6.59,47.82,19.13V599.79c-5.49-2-9.62-3.55-13.8-5C70.86,577.31,18.37,604,4.42,654.48c-10.11,36.61-3.12,70.3,23.4,96.69,26.85,26.72,60.89,31.39,96.52,18.6,4.81-1.73,10.84-7.7,11.35-12.27,1.52-13.4.54-27.09.54-41.78C102.54,739.8,81.91,740,60.75,717.52Z"/><path class="868593b0-4b40-4c09-a8bb-9866dc6ec2ca" d="M365.3,634.27h38.91V769.6h48.63V633.88h38.61V593.8H365.3Z"/></g></g></svg>