<svg xmlns="http://www.w3.org/2000/svg" viewBox="0 0 862 297.09"><defs><style>.ebd143fd-a11b-429c-bb6a-b6143e1290b2{fill:#fff;}</style></defs><title>Asset 8</title><g id="790de72f-da43-4d73-b6e8-fcca9ccee874" data-name="Layer 2"><g id="da17ddec-52b6-4863-b2f1-47d828b5a4a4" data-name="Layer 1"><path class="ebd143fd-a11b-429c-bb6a-b6143e1290b2" d="M174,194.73c2.14-8.21,3.94-15.25,5.83-22.27,1-3.66.28-6.09-4-6.1-7.61,0-15.37-.84-22.76.44-3.45.6-6.18,5.35-9.51,8.47,2.44,1.71,4.25,3,7.19,5.07-8.64-1.29-10.44,1.64-11.53,16.48,6.72,1.54,6.44,7.12,7,12.48.2,2,1.09,4.92,2.54,5.62,1.83.89,4.57.09,6.88-.27,1.68-.26,3.28-1,5-1,5.1-4.51,12.47-7.89,11.59-17.8,11.34,4.5,21.61,8.44,31.71,12.79,1,.44,1.54,3.49,1.26,5.15-3,17.56-14.47,28.48-32.25,29.1-20.23.7-40.51.18-60.76.06a36.35,36.35,0,0,1-8.38-1.29c-7.8-1.92-11.54-5.94-10.37-13.84,1.57-10.52,4.51-20.85,7.09-31.21,2.87-11.55,6.15-23,9-34.56,3.64-14.92,13.22-23.28,28.24-23.79,21-.72,42.1-.7,63.12,0,12.31.38,20,10.39,17.79,22.57s-5.74,24.43-9.17,36.5c-.44,1.57-4,3.52-5.75,3.25C194,199,184.34,196.81,174,194.73Z"/><path class="ebd143fd-a11b-429c-bb6a-b6143e1290b2" d="M487.53,137.4c.38,3.72.75,7.11,1.08,10.51,1,10.35-5.24,17.21-15.69,17.27-11.95,0-23.91,0-35.85.25a11.84,11.84,0,0,0-7,2.53c-1.34,1.19-2,4.14-1.59,6,.27,1.19,3,2.5,4.72,2.57,9.91.4,19.84.44,29.75.62,8.91.16,16.3,3.26,20.67,11.43,1.37,2.56,3.05,5.87,2.5,8.39-2.36,10.77-4.74,21.67-8.63,31.95-2.67,7.08-9.16,10.23-17.36,9.25-27.3-3.3-54.63-6.32-82-9.47-.77-.09-1.52-.35-3-.69,1-4,2-7.79,3.06-11.86h59.29A30.05,30.05,0,0,0,443,216c4.48-.85,5.44-4.37,5.62-8.21.22-4.65-3.42-3.64-6-3.74-12.93-.51-25.88-.63-38.78-1.49-3.64-.24-7.41-2.06-10.66-3.95-5.2-3-7.71-8-6.33-13.93,2.25-9.61,4.89-19.16,7.87-28.57,3.57-11.31,12.15-17.24,23.48-18.08,12.28-.92,24.66-.54,37-.62C465.85,137.34,476.54,137.4,487.53,137.4Z"/><path class="ebd143fd-a11b-429c-bb6a-b6143e1290b2" d="M850.3,138.26c10.12,14,7.32,29.33,8.62,43.84,1.35,15.11,1.42,30.33,2,45.5a40.23,40.23,0,0,1-.23,6.68c-.94,7.1-3,8.9-10,8.91-8.88,0-17.77,0-26,0a11.2,11.2,0,0,1-1.32-1.8c-1.25-3.94-2.36-11.25-3.72-11.29-7.71-.25-16.64-3.89-23,3.32-6.66,7.62-14.31,11-24.48,9.89-6.71-.74-13.57-.14-21.52-.14,6.87-11.69,13-22.07,19.09-32.45,13.33-22.65,26.72-45.26,39.89-68,2-3.43,4.17-4.68,8.13-4.58C828.87,138.45,840,138.26,850.3,138.26Z"/><path class="ebd143fd-a11b-429c-bb6a-b6143e1290b2" d="M769.1,138.52c.47,3,.85,5.62,1.27,8.2,1.73,10.66-4.82,18.49-15.5,18.52-15.19,0-30.38.22-45.57,0-6.38-.08-10.68,2.48-12.37,8.49-3.12,11.09-6.21,22.22-8.63,33.48-1.5,7,.24,8.72,7.49,8.81,15.19.17,30.38.08,45.57.1h6.75c.65,3.51,1.36,6.61,1.77,9.75,1.31,9.92-5.07,17.29-14.92,17.3-21.06,0-42.13.06-63.19-.12a79.67,79.67,0,0,1-14.43-1.58c-7.81-1.51-11.69-5.78-10.52-13.64,1.54-10.32,4.42-20.46,7-30.6,3.12-12.32,6.56-24.55,9.79-36.84,3.57-13.58,12.28-21.52,26.3-21.77C716.18,138.19,742.48,138.52,769.1,138.52Z"/><path class="ebd143fd-a11b-429c-bb6a-b6143e1290b2" d="M513.45,243.19c7-26.64,13.68-51.89,20.47-77.68L506,164.2c2.2-8.39,4.12-16.15,6.37-23.82a4.55,4.55,0,0,1,3.44-2.49c28.92-.14,57.84-.11,87.38-.11.32,5.43,1.4,10.66.75,15.68-1,7.53-6.61,11.61-14.23,11.67-2.63,0-5.26,0-7.89.07-10,.14-11.52,1.2-14.26,11.12-4.47,16.19-8.74,32.44-13.13,48.66a54.71,54.71,0,0,1-2.93,9.25c-2.62,5.48-6.21,9.53-13.35,9.07C530.3,242.81,522.42,243.19,513.45,243.19Z"/><path class="ebd143fd-a11b-429c-bb6a-b6143e1290b2" d="M0,243.21c5.51-20.89,10.64-40.39,15.79-59.87,3.61-13.65,7.39-27.26,10.81-41,1-3.94,2.6-5.76,6.93-5.61,8.43.31,16.87.09,25,.09,2.83,9.66,1.31,18.29-1.06,27C53.72,177.49,50.07,191.2,46.74,205c-2.34,9.66-1.07,11.05,8.77,11.14,8.08.07,16.16,0,24.12,0,.81,3.59,1.6,6.68,2.2,9.8,1.58,8.09-5.87,17.26-14,17.27C45.52,243.22,23.27,243.21,0,243.21Z"/><path class="ebd143fd-a11b-429c-bb6a-b6143e1290b2" d="M217.7,203.94c1.43-5.68,2.6-10.52,3.89-15.33,2.67-10,5.24-20,8.15-29.84,3.65-12.44,12.32-20.06,25-20.43,25.81-.74,51.66-.22,77.92-.22.08,1.46.07,2.41.18,3.34,2.34,19.48-.66,23.22-20,23.77-12.34.35-24.69.07-37,.16-8.81.06-11.78,2.32-14.14,11-2.56,9.37-5.13,18.74-7.28,28.21-.87,3.81-2.67,5.13-6.28,4.52C238.22,207.42,228.32,205.74,217.7,203.94Z"/><path class="ebd143fd-a11b-429c-bb6a-b6143e1290b2" d="M619,138.34h30.39c5,17.5-3.67,32.89-7.11,48.95-2.89,13.44-7,26.61-10.65,39.88a32.92,32.92,0,0,1-2.51,7.46c-2.81,5-6.07,9.17-13,8.69-7.83-.54-15.73-.12-24.89-.12C600.67,207.63,609.82,173.12,619,138.34Z"/><path class="ebd143fd-a11b-429c-bb6a-b6143e1290b2" d="M326.08,221.85c5-18.89,9.74-37,14.53-55.09,2.22-8.38,4.36-16.79,7-25.06.53-1.68,2.93-3.85,4.55-3.92,8.84-.39,17.69-.19,26-.19,3.32,10.23,1.81,19-.66,27.93-4.94,17.75-9.76,35.55-14.19,53.44-1.43,5.79-4.27,7.61-9.89,6.72C344.62,224.28,335.8,223.2,326.08,221.85Z"/><path class="ebd143fd-a11b-429c-bb6a-b6143e1290b2" d="M101.17,0C50.33,11.31,18,41.56,5.93,92.85V0Z"/><path class="ebd143fd-a11b-429c-bb6a-b6143e1290b2" d="M281.86,215.16c.9-4.08,1.54-7,2.35-10.6l-26.32-1.45c2.3-8.45,4.43-16.52,6.79-24.52.22-.72,1.93-1.41,2.94-1.41,18.19-.09,36.39-.06,54-.06,5.28,13.19-.58,24.87-3.1,36.92-.85,4.07-2.84,6.16-7.06,5.55C301.72,218.17,292,216.68,281.86,215.16Z"/><path class="ebd143fd-a11b-429c-bb6a-b6143e1290b2" d="M311.69,235.45c-3.95,6.48-8.37,8-14.44,7.91-19.62-.41-39.26-.11-58.9-.25a74.39,74.39,0,0,1-12.64-1.17c-11.44-2.08-14.49-6.14-13.05-17.5.53-4.13,1.86-8.16,2.81-12.16Z"/><path class="ebd143fd-a11b-429c-bb6a-b6143e1290b2" d="M711.33,276.14c-6.55-.37-6.62,4.58-7.29,7.65-1.19,5.42-3.7,7.14-9.32,5.4.6-3.22,1.39-6.45,1.71-9.72.1-1.09-1-2.29-1.56-3.44-1.09.66-2.6,1.08-3.18,2.05a17.54,17.54,0,0,0-2.44,6.11c-.91,5.73-4.12,6.71-9.22,4.92,1.21-5.92,2.12-11.89,3.81-17.63.49-1.7,3.13-3.85,4.86-3.92,9-.39,18-.35,27-.09,5.63.16,7.18,2.47,5.7,7.92-1.11,4.07-2.12,8.36-4.26,11.89-1.11,1.83-4.57,2.24-7.93,3.7C710.07,285,710.67,280.76,711.33,276.14Z"/><path class="ebd143fd-a11b-429c-bb6a-b6143e1290b2" d="M461.55,289c1-4.27,2-8.52,3.05-12.89-4.12-2.06-6.34-.84-7.31,3.19a31.79,31.79,0,0,0-1.24,4.66c-.45,5.42-3.3,6.92-9,5.17.89-4.27,1.8-8.64,2.72-13.08-3.81-1.82-6.07-1-7,2.9a37.54,37.54,0,0,0-1.35,5.28c-.53,5.64-3.75,6.46-9.26,4.82,1.65-6.19,3.17-12.38,5.07-18.46.32-1,2.26-2,3.55-2.14a64.67,64.67,0,0,1,7.88-.08c6.35,0,12.7,0,19.05,0,4.63,0,7,1.54,5.32,6.64-1,3.06-1.67,6.24-2.52,9.36C468.88,290.32,468.87,290.32,461.55,289Z"/><path class="ebd143fd-a11b-429c-bb6a-b6143e1290b2" d="M800,283h13c1,4.9-.26,7.1-5,6.85-4.63-.23-9.29,0-13.93-.12-3.6-.11-5.23-1.68-5-5.76.76-14.4,13.18-22,26.55-15.72,1.53.72,2.78,3.82,2.7,5.76-.15,3.73-1.62,7.33-6.25,7.58-4,.21-8,0-12,0C800,282.07,800,282.52,800,283Z"/><path class="ebd143fd-a11b-429c-bb6a-b6143e1290b2" d="M862,268c-1.41,7.83-1.41,7.83-14.15,8.42,1.74,0,3.65-.45,5.21.1,2.69.94,7.4,2.61,7.34,3.77-.2,4.05-1.36,8.87-6.9,9.1-7,.29-14,.07-21.77.07,2.84-12.49,13.11-3.4,18.81-7.91-3.11,0-6,.46-8.73-.14s-7-2-7.18-3.5c-.54-4.23,1-9.16,6.06-9.72C847.55,267.45,854.57,268,862,268Z"/><path class="ebd143fd-a11b-429c-bb6a-b6143e1290b2" d="M587.76,274.93H573.93c-2-6.22.64-7.86,5.69-7.61,4.63.22,9.29,0,13.9.34,3.89.33,5.59,2.18,4.25,6.59-5,16.48-4.89,16.65-22.7,15.37-2.14-.15-5.81-2.44-5.87-3.87-.17-3.87.52-8.44,6-8.76,4.17-.25,8.37-.05,12.55-.05Z"/><path class="ebd143fd-a11b-429c-bb6a-b6143e1290b2" d="M747.47,267.51c-4.22-.31-8.47-.17-12.69-.1-5.36.1-8.78,2.75-9.79,8.08-2.71,14.7-3.44,14.42,10.42,14.28,13.1,0,15-1.53,17.87-14.35C754.5,269.91,753.18,267.89,747.47,267.51Zm-14.36,14.67c.14-6.66,4.18-7,9.2-5.93C742.45,283.43,741.93,283.78,733.11,282.18Z"/><path class="ebd143fd-a11b-429c-bb6a-b6143e1290b2" d="M627.66,283c2.43.12,4.86.28,7.29.34s4.83,0,7.54,0c.51,4.78-1,6.89-5.91,6.53-4.63-.33-9.3,0-13.94-.21-3.31-.16-5.28-1.66-4.26-5.53.87-3.31.92-6.9,2.2-10,.89-2.19,3-5.16,4.95-5.43a93.12,93.12,0,0,1,18.59-.55c1.32.08,3.87,4.1,3.39,5-1.52,2.9-3.79,6.54-6.53,7.37-4.09,1.24-8.83.32-13.29.32Z"/><path class="ebd143fd-a11b-429c-bb6a-b6143e1290b2" d="M175.81,271.73a5.12,5.12,0,0,0-3.59-3.17c-6.06-.35-12.15-.28-18.22-.07a3.84,3.84,0,0,0-3.1,2.09c-2.33,8.29-4.42,16.65-6.93,26.51,3.62-1.08,8-1.39,8.26-2.58,1.15-5.75,5.12-4.7,8.85-4.7A15.07,15.07,0,0,0,175.81,271.73Zm-18.88,10.94c-1.11-7.74.49-9,9.82-7.11C167.28,283.82,162.23,283.43,156.93,282.67Z"/><path class="ebd143fd-a11b-429c-bb6a-b6143e1290b2" d="M138.9,41.32c.51,4.13,2.25,8.56,1.32,12.33q-7.72,31.51-16.66,62.73a21.77,21.77,0,0,1-14.06,15c10.27-11,11.39-25.48,15.14-38.88,4.68-16.71,8.75-33.58,13.09-50.38Z"/><path class="ebd143fd-a11b-429c-bb6a-b6143e1290b2" d="M72.31,275.07l-13.93-.73c-.74-4.27.51-6.27,4.93-6s8.89.19,13.32,0c5.46-.2,6.86,2.47,5.36,7.21S79.82,288,77,288.92c-6.17,2-13.49.73-20.3.28-1.15-.07-3.19-2.87-3-4.1.6-3.61,1-8,6.29-8.16,4.09-.09,8.18,0,12.26,0Z"/><path class="ebd143fd-a11b-429c-bb6a-b6143e1290b2" d="M494.19,275H480.36c-1.08-5.16.48-7,5.06-6.72s9.28.11,13.91.07c4.43,0,5.75,2.26,4.72,6.24a88.28,88.28,0,0,1-3.34,11.57,6.4,6.4,0,0,1-4.33,3.45,113.26,113.26,0,0,1-14.51.12c-2.9-.11-6.81.27-6.4-4.28.36-3.94,1-8.38,6.57-8.53,4-.1,8,0,12,0Z"/><path class="ebd143fd-a11b-429c-bb6a-b6143e1290b2" d="M261.28,283H276c.35,4.75-.51,7.22-5.33,6.88-4.43-.31-8.9,0-13.34-.12s-7-1.76-5.2-6.85c.88-2.45,1.24-5.09,2-7.6,1.3-4.35,4.22-6.79,8.85-6.88q5.76-.11,11.52,0c2.86,0,6.33-.15,6,4-.3,3.69-.6,8.13-5.9,8.41-4.43.24-8.89.05-13.34.05Z"/><path class="ebd143fd-a11b-429c-bb6a-b6143e1290b2" d="M195.29,267.27c-4.29,1.18-10.45,1.08-12.4,3.9-3.07,4.39-3.28,10.76-4.71,16.3,4,.77,7.91,1.64,11.88,2.27a37.28,37.28,0,0,0,4.85.07c6,.21,9.09-2.51,10.55-8.43C208.7,268.31,209,268.35,195.29,267.27Zm-7.74,15.29c-.59-7.84,1.71-9.3,10.74-6.79C197.41,283.57,197.41,283.57,187.55,282.56Z"/><path class="ebd143fd-a11b-429c-bb6a-b6143e1290b2" d="M396.11,267.16c-4.39,1.36-10.6,1.4-12.82,4.36-3.07,4.11-3.14,10.41-4.5,15.78,4.11.84,8.26,1.71,12.4,2.44a25.68,25.68,0,0,0,3.63.07c6.41.42,9.89-2.23,11.42-8.82C409.24,268.28,409.55,268.35,396.11,267.16ZM388,282.39c.28-7.81,1.88-8.78,10.84-6.69C398.34,283.61,397.78,284,388,282.39Z"/><path class="ebd143fd-a11b-429c-bb6a-b6143e1290b2" d="M115.22,289.45c.72-2.53,1.24-4.37,1.9-6.71h17.34l0-1.71c-2.86,0-5.74.16-8.58,0-3-.22-7.27.87-7.1-4.16.15-4.29,2-8.11,7-8.33,6-.26,12.09-.06,18.31-.06.76,4.89-.88,7-5.79,6.59-3.45-.29-6.94-.06-10.42-.06v2c2.85,0,5.81-.48,8.52.14s6.86,2.08,7,3.56c.45,4-1.12,8.4-6.29,8.67C130.21,289.72,123.15,289.45,115.22,289.45Z"/><path class="ebd143fd-a11b-429c-bb6a-b6143e1290b2" d="M497.75,39.7c5.15,6.51,9,85.61,3.06,93-1.75-32-3.42-62.42-5.09-92.8Z"/><path class="ebd143fd-a11b-429c-bb6a-b6143e1290b2" d="M83.74,288.87c1.73-6.6,3.47-13.18,5.39-20.48,7,0,14,0,21,0,3.56,0,4.64,2.27,4,5.3-1,4.53-1.75,9.24-3.71,13.36-.88,1.85-4.41,2.44-6.74,3.6l-1.24-1.45q1.52-6.56,3-13.1c-8.8-2.39-9.82-1.83-12,6.44C91.27,290.59,91.27,290.59,83.74,288.87Z"/><path class="ebd143fd-a11b-429c-bb6a-b6143e1290b2" d="M346,288.71l2.9-12.66c-9.33-2.12-10.11-1.87-12.18,7.53-1.23,5.56-3.63,7.68-9.53,5.4,1.56-6,3-12.05,4.84-18,.37-1.19,2.53-2.48,3.92-2.55,5.65-.29,11.33-.13,17-.11,4,0,5.56,1.95,4.61,5.84-1,4.12-1.44,8.54-3.3,12.23-1,2.05-4.46,2.9-6.8,4.28Z"/><path class="ebd143fd-a11b-429c-bb6a-b6143e1290b2" d="M789.9,268.93c-5.08,6.76-9.66,13.57-15,19.71-3.25,3.72-10.49.84-11.56-4-1.16-5.25-2.43-10.48-3.62-15.58,8.18-3.19,8.41-3,12.94,7.9C782.91,266.45,782.91,266.45,789.9,268.93Z"/><path class="ebd143fd-a11b-429c-bb6a-b6143e1290b2" d="M364.75,132.11a62.32,62.32,0,0,1,1-7.25c5.36-20.52,11-41,16.15-61.56,1.32-5.22,3.79-6.66,8.6-4.84-8.43,17.84-11,37.37-16.72,56-1.36,4.44-2.49,9-4.07,13.33-.66,1.83-2.2,3.35-3.34,5Z"/><path class="ebd143fd-a11b-429c-bb6a-b6143e1290b2" d="M568.8,267.74c-.07,8.06-5,7.77-9.74,7.27-5.64-.6-8.33,1.54-8.06,7.75h12.77c1,5.28-.66,7.49-5.82,7.08-4-.32-8.15.26-12.07-.46-1.52-.28-3.79-3.17-3.63-4.64a40,40,0,0,1,3.29-12.15c.94-2,3.59-4.39,5.7-4.63C556.93,267.33,562.75,267.74,568.8,267.74Z"/><path class="ebd143fd-a11b-429c-bb6a-b6143e1290b2" d="M265.73,108.84l19-70.42,2.47.3c0,2.94.58,6-.1,8.81-3.44,14.15-7.27,28.21-10.8,42.34a114.16,114.16,0,0,0-2.88,14.85C272.85,109.52,270.63,110.49,265.73,108.84Z"/><path class="ebd143fd-a11b-429c-bb6a-b6143e1290b2" d="M8.89,289.09c1.63-6.59,3.25-13.14,5-20.08L7.2,268c-.37-4.66,1.28-6.78,6.16-6.51,6,.34,12.05.08,18.4.08.22,4.84-.87,7.52-6.19,7.08-1.28-.11-3.43,1.73-4,3.13a59.59,59.59,0,0,0-3.4,12.18C17.36,289.53,14.53,290.93,8.89,289.09Z"/><path class="ebd143fd-a11b-429c-bb6a-b6143e1290b2" d="M522,261.47c1.5,3.45,3,5.52,3.14,7.68.1,1.87-1.07,4-2.23,5.69-1.6,2.27-3.73,4.18-6.42,7.1l7,1.53c-1.06,5.88-8.29,8.94-12.65,5.15-1.12-1-1.43-3.67-1.1-5.38,1.27-6.48,2.91-12.9,4.5-19.31C515,260.68,516.83,260.3,522,261.47Z"/><path class="ebd143fd-a11b-429c-bb6a-b6143e1290b2" d="M53.42,108.74c2.69-10,5.35-19.95,8-29.86,1.4-5.27,3-10.51,4.11-15.84,1.06-5,3.67-6.09,6.83-4.86C68.45,74,64.46,89.39,61,104.87,60,109.44,58.21,110.65,53.42,108.74Z"/><path class="ebd143fd-a11b-429c-bb6a-b6143e1290b2" d="M249.22,269.83l-9.14,12.35,6.9,1.35c-.62,1.9-.95,4.87-1.75,5a35.42,35.42,0,0,1-11,.17c-.7-.11-1.48-4.06-1.12-6,.9-4.93,2.79-9.69,3.62-14.63.89-5.38,3.49-7.24,8.57-5.73.58,2.32,1.15,4.63,1.73,6.93Z"/><path class="ebd143fd-a11b-429c-bb6a-b6143e1290b2" d="M358.82,289.18c1.55-5.77,2.91-11,4.33-16.18,3-11.22,4.88-12.36,18.66-10.05l-8.06,5.68a8.72,8.72,0,0,0,1.51.79,22.87,22.87,0,0,0,3,.59c-.82,1.71-1.48,4.16-2.07,4.15-7.13-.21-7.15,5.43-7.88,9.84C367.4,289.71,364.42,290.72,358.82,289.18Z"/><path class="ebd143fd-a11b-429c-bb6a-b6143e1290b2" d="M682.26,261.25c-2.9,9.62-5.2,18.3-8.34,26.66-.55,1.46-4.6,1.61-8.28,2.76,2.18-9.74,3.9-17.89,5.86-26C672.88,258.94,677.22,261.33,682.26,261.25Z"/><path class="ebd143fd-a11b-429c-bb6a-b6143e1290b2" d="M231.83,268.92c-.39,3.26-.43,7-5.24,6.09-7.23-1.32-8.57,3.38-9.29,8.66-.8,5.78-3.79,7.41-9.39,5.37.45-2,.8-3.94,1.31-5.85C213.71,266.37,213.71,266.37,231.83,268.92Z"/><path class="ebd143fd-a11b-429c-bb6a-b6143e1290b2" d="M408.46,289c1.57-5.92,3-11.77,4.77-17.49a5,5,0,0,1,3.47-3c5.18-.35,10.4-.15,15.6-.15.4.64.8,1.28,1.21,1.92-1.89,1.59-4,4.73-5.62,4.52-7.23-.91-9.27,3.11-9.95,8.91S414.09,291,408.46,289Z"/><path class="ebd143fd-a11b-429c-bb6a-b6143e1290b2" d="M53.05,268.89c0,3.48-.36,6.92-5.06,6.1-7.21-1.26-8.64,3.32-9.34,8.66-.75,5.8-3.71,7.47-9.42,5.38.53-2.15,1-4.26,1.58-6.34C35.27,266.44,35.27,266.44,53.05,268.89Z"/><path class="ebd143fd-a11b-429c-bb6a-b6143e1290b2" d="M313.28,289c2.17-8.31,4-16.73,6.77-24.83.54-1.57,4.71-1.89,8.62-3.29-2.6,10-4.33,18.23-7.09,26.11-.64,1.82-4.75,2.44-7.26,3.61Z"/><path class="ebd143fd-a11b-429c-bb6a-b6143e1290b2" d="M818.9,290.42c1.1-5.93,1.73-10.47,2.81-14.9,1.65-6.81,2.85-7.31,11.16-4.9-1.91,5.86-3.41,11.87-6,17.4C826.22,289.5,822.3,289.49,818.9,290.42Z"/><path class="ebd143fd-a11b-429c-bb6a-b6143e1290b2" d="M527.92,289.13c1.17-4.49,2.54-8.47,3.2-12.56.9-5.6,3.58-7.61,9.55-5.43-1.07,4.09-2.52,8.19-3.17,12.41C536.63,289.19,533.91,291.09,527.92,289.13Z"/><path class="ebd143fd-a11b-429c-bb6a-b6143e1290b2" d="M321.09,242.69c0-4.3,1-6.29,5.71-5.22,7.38,1.7,14.91,2.79,22.27,5.22Z"/><path class="ebd143fd-a11b-429c-bb6a-b6143e1290b2" d="M162.74,109.05c-.13-10.71,2-13.29,9.35-11.34C168.05,109.93,168.05,109.93,162.74,109.05Z"/><path class="ebd143fd-a11b-429c-bb6a-b6143e1290b2" d="M183.08,58.63c-5.34,11.75-5.34,11.75-9.88,10.95C173.37,59.09,174.85,57.34,183.08,58.63Z"/><path class="ebd143fd-a11b-429c-bb6a-b6143e1290b2" d="M227.43,116c4.93,6.65,2.09,15.43-5,17.83Z"/><path class="ebd143fd-a11b-429c-bb6a-b6143e1290b2" d="M243.7,54.88c1.4-5.57,2.79-11.14,4.31-17.23C253.32,42.14,251.36,52,243.7,54.88Z"/><path class="ebd143fd-a11b-429c-bb6a-b6143e1290b2" d="M284.25,292.26c-1-2.22-3.09-5.06-2.45-6,1.39-2,4.17-2.94,6.39-4.32.63,2.23,2.37,4.94,1.66,6.57-1.21,2.76-4,4.84-6.08,7.21l-1.45-1.32Z"/><path class="ebd143fd-a11b-429c-bb6a-b6143e1290b2" d="M454.39,93.85q3.51-5.76,7-11.54l1.81.38c-.31,3.92-.15,8-1.26,11.68-.31,1-4.4.91-6.75,1.32Z"/><path class="ebd143fd-a11b-429c-bb6a-b6143e1290b2" d="M196.64,92.82c1.47-5.16,2.93-10.32,4.71-16.58C205.07,83,203.39,89.64,196.64,92.82Z"/><path class="ebd143fd-a11b-429c-bb6a-b6143e1290b2" d="M415.9,53.84c1.39-5,2.78-10.07,4.37-15.81C424.25,43.72,422.66,50.32,415.9,53.84Z"/><path class="ebd143fd-a11b-429c-bb6a-b6143e1290b2" d="M834.34,261.73c-.73,7.4-1.29,7.75-9.45,6.22C824.47,261,825.71,260.12,834.34,261.73Z"/><path class="ebd143fd-a11b-429c-bb6a-b6143e1290b2" d="M533.89,267.19c.06-6.53,1.43-7.32,9.27-5.33C543,268.44,541.68,269.18,533.89,267.19Z"/><path class="ebd143fd-a11b-429c-bb6a-b6143e1290b2" d="M306.48,117.29c3.62,6.63,2,12.26-4.55,16.49C303.67,127.48,305.07,122.38,306.48,117.29Z"/><path class="ebd143fd-a11b-429c-bb6a-b6143e1290b2" d="M433,134.31c1.56-10.27,4-12.57,10.66-11.21Z"/><path class="ebd143fd-a11b-429c-bb6a-b6143e1290b2" d="M747.18,258.5,740,264l-1.7-2.28,7.23-5.73C746.06,256.81,746.62,257.66,747.18,258.5Z"/></g></g></svg>