<svg xmlns="http://www.w3.org/2000/svg" viewBox="0 0 1651.27 564.4"><defs><style>.\34 8f207aa-ae83-4a1f-b3f8-33d7e77735b5{fill:#fff;}</style></defs><title>Asset 14</title><g id="8293c179-fcf1-45be-b94f-f24ca4b33c95" data-name="Layer 2"><g id="0f4b2201-219e-4020-a3e9-fbdb438d9610" data-name="Layer 1"><path class="48f207aa-ae83-4a1f-b3f8-33d7e77735b5" d="M1171.77,85.11c-24.22-4.18-48.37-8.71-72.72-12.12-14.44-2-28.84-4.22-43.36-5.72-20-2.06-39.86-4.57-59.82-6.58C982,59.3,968,58.22,954.09,57.37c-22.26-1.36-44.54-2.75-66.83-3.5s-44.64-1-67-1c-23.82.07-47.63,1-71.4,2.53-21.39,1.38-42.74,3.32-64.12,4.85C645,63.13,605.36,68.1,565.85,73.65q-64.49,9-128.21,22.53c-50.31,10.73-99.87,24-148.39,41.11C248,151.82,208,169.22,171.65,194.07c-21.88,15-41.81,32.11-55.85,54.94-26.15,42.53-22.58,84.86,2.89,126.15,17.14,27.79,42.05,47.83,69,65.51,33,21.68,68.77,38.22,104.52,54.72,3,1.38,5.95,2.81,9.66,4.56-3.34.71-5.24-.86-7.26-1.68-42.71-17.11-84.85-35.46-124.57-58.88-25.6-15.09-49.79-32.08-70.63-53.48-21.79-22.39-36.45-48.5-41-79.71-4.69-32.44,3.87-61.55,23.12-87.73s44.64-45,72.11-61.42c45.14-27,93.88-45.56,143.86-61.15C349,79.84,401.41,67.8,454.44,58.16Q498,50.24,542,44.52c26.36-3.41,52.82-6,79.3-8.42C690,29.83,758.93,28.26,827.9,29.43c26.47.45,52.92,1.78,79.35,3.56,21.91,1.48,43.79,3.19,65.62,5.44,22.62,2.34,45.19,5.24,67.7,8.54q51.23,7.5,101.81,18.32c9.72,2.09,19.41,4.28,29.12,6.43A9.39,9.39,0,0,1,1171.77,85.11Z"/><path class="48f207aa-ae83-4a1f-b3f8-33d7e77735b5" d="M1610.31,405.23c2.89.64,4.44,2.36,3.78,5.36-.71,3.19-2.58,5.29-6.11,5.57-4.9.38-9.71-.51-14.72-.14-28.85,2.12-57.73,1-86.56-.86-5.1-.32-10.19-.8-15.31-.75-12.17,3.09-20.93,12.06-31.23,18.32-37.67,22.87-77.88,40.09-119.43,54.34-64.77,22.21-131.32,37.21-198.82,48.32-34,5.6-68.18,10-102.45,13.63-21.51,2.25-43.05,4.14-64.65,5.43-18.77,1.12-37.54,2-56.31,3-44.12,2.42-88.25,2.11-132.37,1.61-25.27-.29-50.57-1.36-75.81-3-28.89-1.85-57.77-3.93-86.55-7-45.54-4.87-90.87-11.11-135.91-19.52C430.79,519,374.51,505.29,319.62,486.3c-42-14.52-82.72-31.89-120.35-55.8-24.19-15.36-46.56-32.88-63.58-56.35-12-16.51-20.12-34.63-21.18-55.23-.92-18.1,4-35,12.81-50.69C140.93,244,161,225.82,183.08,209.71c26.54-19.34,55.6-34.19,85.67-47.09,56.55-24.26,115.44-41.06,175.43-54.24,41-9,82.37-16,124-21.67,25.56-3.46,51.19-6.37,76.91-8.52,22.87-1.91,45.73-3.9,68.67-5,15.46-.76,30.94-1.18,46.37-2.08,16.66-1,33.32,0,49.94-.94,9.82-.55,19.66-1.38,29.43-.71,18,1.24,36,.2,53.94,1,21.77,1,43.57,1.5,65.3,3,43.66,3,87.24,6.94,130.65,12.64,59.35,7.79,118.09,18.59,176.07,33.48,23.88,6.13,47.57,13,70.83,21.21,2.38.84,6.32.66,5.67,5.15-6.82,2.77-13.86,1.14-20.83,1.08-19.55-6.09-39.21-11.79-59.08-16.78-2.88-.72-5.94-1.2-7.84-3.93-1-3.2-3.33-4-6.5-4-7.08-.07-14.19.6-21.27-.45-9.88-3-20.09-4.5-30.17-6.55-43.74-8.91-87.85-15.58-132.18-20.77q-33.21-3.88-66.58-6.38c-21.06-1.58-42.13-3-63.24-4-21-1-41.92-1.28-62.86-2.07q-28.49-1.08-56.94-.65c-25.79.4-51.6.83-77.36,2-25.92,1.2-51.83,2.73-77.68,5-55.07,4.82-109.9,11.48-164.32,21.39C437,120.41,379.67,134,323.76,153.11c-42.68,14.62-84,32.23-122,56.85-23.94,15.52-45.6,33.64-61.12,58-9,14.18-14.38,29.64-14.35,46.65,0,16.25,4.88,31.14,13.29,44.93,13.53,22.21,32.43,39.12,53.5,53.83,33,23.05,69.26,39.82,106.74,54.05,51.83,19.69,105.26,33.68,159.48,45,41.6,8.66,83.51,15.32,125.64,20.58,24.27,3,48.6,5.59,73,7.46,26.7,2,53.42,3.62,80.17,5,49.62,2.66,99.25,1.87,148.87,1.55,23.42-.15,46.9-1.32,70.3-2.94,35.84-2.5,71.65-5.45,107.36-9.6,67.23-7.82,133.81-19.21,199.39-36,45.41-11.66,89.86-26.16,132.88-44.95,23.6-10.32,53-26.16,68.72-37.66-1.09-1.2-2.81-.78-4-1.58a63.68,63.68,0,0,1-8-4.34c-2.13-.72-4.26-1.43-5.61-3.43a1.88,1.88,0,0,1,.12-1.47,3.59,3.59,0,0,1,2.72-1.17,9.93,9.93,0,0,1,3,.08,6,6,0,0,1,1.45.49c2.6,1.3,5.53,1.18,8.26,2a221.47,221.47,0,0,0,26.61,3.55c18.79,1.34,37.57.65,56.35.78,16.78.12,33.54-.69,50.27-1.86a21.63,21.63,0,0,1,4.94.56c2.59.4,5.33,1,7.41-1.4C1609.61,407.16,1609.46,406,1610.31,405.23Z"/><path class="48f207aa-ae83-4a1f-b3f8-33d7e77735b5" d="M1342.28,145.17c-16-6.2-32.42-11-48.87-15.83-38.49-11.21-77.55-20-116.91-27.42-23.8-4.5-47.67-8.52-71.69-11.64-17.26-2.24-34.49-4.68-51.77-6.72-11.52-1.36-23.11-2.2-34.66-3.25q-21.3-1.94-42.6-3.83c-5.45-.48-10.93-.43-16.41-1-9.74-.94-19.59-.6-29.37-1.25-26.41-1.76-52.91-1-79.29-2.29-27.34-1.33-54.54,1-81.82.65-16.06-.2-32.23.72-48.29,1.85-20.84,1.47-41.7,2.66-62.52,4.59-15.68,1.46-31.41,2.63-47.05,4.41-24,2.73-48,5.82-72,9.54-28.7,4.46-57.31,9.4-85.72,15.41-32.86,6.94-65.44,15.08-97.58,24.88-29.47,9-58.57,19-86.82,31.34-35.2,15.3-69.09,33-98.88,57.56-18,14.81-33.82,31.6-44.13,52.85-6.55,13.51-10.31,27.88-9.54,42.9,1.12,22.16,10.16,41.38,23.67,58.7,20.34,26,46.76,44.61,74.93,61,30.46,17.73,62.78,31.36,95.83,43.39,37.73,13.73,76.35,24.44,115.38,33.69,34.58,8.2,69.48,14.84,104.58,20.34,23.41,3.67,46.89,6.95,70.48,9.41,20.12,2.09,40.2,4.36,60.37,6s40,3,60.1,4c17.93.91,35.88,1.21,53.79,2,34.48,1.63,69,.79,103.41.57,18.25-.12,36.54-1,54.8-1.85,20.71-1,41.42-2.3,62.09-4,23.45-2,46.9-4.16,70.26-7,34.55-4.24,69-9.29,103.27-15.56,59.78-11,118.69-25.23,176.11-45.25,30-10.47,59.44-22.6,87.58-37.52,16.61-8.8,32.89-18.25,47.83-29.76,3.41-2.63,7-1.36,10.51-1.65-8.75,8.22-19,14.34-29.05,20.75a422.09,422.09,0,0,1-47.66,25.93c-19.19,9.06-38.82,17.11-58.75,24.43a1027.86,1027.86,0,0,1-118.07,35c-29.44,7-59.09,12.85-88.92,17.93-18.41,3.14-36.83,6.16-55.32,8.62-18.18,2.42-36.39,4.66-54.67,6.37-18.78,1.75-37.53,3.67-56.35,5q-24.3,1.68-48.61,3c-20.08,1.09-40.19,1.12-60.24,2.1-25.31,1.24-50.6.88-75.87.47-12.78-.2-25.61,0-38.37-.8-14.41-.87-28.83-1.37-43.24-2-18.85-.87-37.69-2.28-56.48-4-22.56-2-45.12-4.14-67.57-7.07-31.77-4.13-63.48-8.76-95-14.56-31.73-5.85-63.29-12.43-94.52-20.42-42.9-11-85.12-24.19-126-41.27-31.74-13.25-62.47-28.52-90.82-48.23C172.21,416.18,159.08,406,147.62,394c-18-18.84-32.69-39.79-36.65-66.38a88.3,88.3,0,0,1,6.88-49.57c9-20.47,22.93-37.32,39.36-52.06,17.44-15.64,36.78-28.7,57.14-40.32C257.25,161.24,303,143.68,350,129A1162.37,1162.37,0,0,1,468.81,99.11q34.76-6.92,69.73-12.57c18.11-2.89,36.36-4.86,54.54-7.27,19.18-2.54,38.42-4.42,57.7-6.1,17.48-1.52,35-2.91,52.48-4,12.91-.79,25.84-1.21,38.74-2,47.4-3,94.83-1.81,142.24-1.66,17.06,0,34.16,1.19,51.24,1.89,15.55.63,31.11,1.57,46.61,3,19.91,1.85,39.85,3.48,59.74,5.62,15.62,1.68,31.22,3.52,46.8,5.42q27.54,3.36,54.9,8.18c24.9,4.36,49.76,9,74.44,14.53,22.76,5.13,45.43,10.6,67.88,16.94A892.52,892.52,0,0,1,1386,155.41c11.62,4.83,23.23,9.72,34.31,15.74a5.36,5.36,0,0,1-2,4.67c-2.43,1-4.61-.09-6.66-1-21.35-10-43.2-18.77-65.38-26.72a21,21,0,0,1-3.07-1.63A2.42,2.42,0,0,1,1342.28,145.17Z"/><path class="48f207aa-ae83-4a1f-b3f8-33d7e77735b5" d="M1171.77,85.11l-.27-13.39c.94-1.9.26-3.94.53-5.89.37-2.72-1-3.88-3.44-4.43-27.47-6-55-11.55-82.78-16.18q-37.53-6.26-75.3-10.6c-19-2.2-37.94-4.18-57-5.36-13.76-.84-27.5-2.06-41.25-3.11a32.16,32.16,0,0,1,0-17.67c12.08,1,24.18,1.87,36.23,3.14q24,2.54,48,5.65c19.9,2.6,39.81,5.13,59.62,8.32,30.4,4.9,60.68,10.58,90.65,17.71,7.25,1.72,14.57,3.2,21.7,5.29,3.33,1,3.64-.06,3.61-2.82-.08-8.83.08-17.66-.08-26.48-.06-3,.72-4,3.88-4q30.24.21,60.46,0c3.5,0,4,1.26,4,4.31-.13,15,0,30-.12,45,0,3.43.71,5.18,4.35,6.34q16.07,5.1,31.77,11.25c4.56,1.77,5.4.51,5-3.76-.29-3,.15-6-.1-9-.27-3.2,1.07-3.9,4-3.86,12.33.13,24.66.16,37,0,3.33,0,4.19,1,4.14,4.27-.17,11.15,0,22.32,0,33.47,1.21,2,1.91,4.06,0,6.1.11,1.9-.31,3.07-2.69,3-3.46-.15-6.95.07-10.42.13-2.67,2.81-6.11,2-9.28,1.72-4.39-.35-8.75-1.09-13.12-1.71-2.39-.09-4.78-.26-7.17-.23-1.53,0-2.41-.48-2.62-2a11.13,11.13,0,0,1-1.66-7.37c.34-8,.19-8.25-7-10.71-8.32-2.83-16.76-5.24-25.17-7.75-2.31-.69-4.43-1.3-6,1.41-1,1.73-2.9,2.09-4.81,2a46.23,46.23,0,0,0-7.42.61c-16.1,0-32.21.63-48.18-2.11Z"/><path class="48f207aa-ae83-4a1f-b3f8-33d7e77735b5" d="M71.22,396.33c-27-21.45-50.78-45.89-62.7-79-15.94-44.22-9.3-85.81,18.14-124a226,226,0,0,1,49.52-50.27c2.34,1.31,3,3.6,3,5.95q.36,25.2,0,50.4a17.69,17.69,0,0,1-.93,4.89C65.17,220.13,54,237.06,48.32,257c-10,35.4-3.27,68.46,14.7,99.76,3.45,6,7.57,11.66,11.38,17.47,1.44,5.57.93,11.24.77,16.87C75.1,393.56,74.75,396.29,71.22,396.33Z"/><path class="48f207aa-ae83-4a1f-b3f8-33d7e77735b5" d="M682.31,18.45c-10.06,1.61-20.24,1-30.35,1.73q-29.1,2.05-58.11,4.87-31,3-61.78,7.39c-19.84,2.79-39.61,6.19-59.4,9.4a19.79,19.79,0,0,1-5.42.46,4.06,4.06,0,0,1-1.85-3.37c0-8.27-1-16.56.59-24.79,9.56-2.08,19.32-2.76,29-3.78C511.86,8.6,528.73,7,545.62,5.67s33.84-2.62,50.79-3.24c26.94-1,53.88-2.48,80.86-2.2,1.66,0,3.32.1,5,.16C685.55,6.4,685.39,12.42,682.31,18.45Z"/><path class="48f207aa-ae83-4a1f-b3f8-33d7e77735b5" d="M78.26,204.33c-1.14-2-1-4.13-1-6.28,0-13.56,0-27.12,0-40.69,0-4.78.19-9.58-1.08-14.27,14.83-12.42,31.28-22.41,48.06-31.87a349,349,0,0,1,36-18c3.13,1.81,3.86,5,4,8.09.35,11.23.16,22.48.12,33.72a16.48,16.48,0,0,1-1,4.32c-12.06,7.55-24.47,14.51-36.18,22.65A283.64,283.64,0,0,0,78.26,204.33Z"/><path class="48f207aa-ae83-4a1f-b3f8-33d7e77735b5" d="M682.31,18.45,682.25.39c9.48-.13,19-.31,28.44-.36,37.6-.2,75.19.7,112.74,2.43,25.39,1.16,50.76,3.07,76.11,5,4.23.32,8.51.4,12.73,1,1.74,5.89,1.35,11.78,0,17.67-13.43-.67-26.88-1.23-40.31-2-12.79-.76-25.55-1.91-38.34-2.65q-67.1-3.91-134.32-3.15C693.62,18.39,688,18.41,682.31,18.45Z"/><path class="48f207aa-ae83-4a1f-b3f8-33d7e77735b5" d="M209.19,73.15c20.67-8.35,42-14.61,63.41-20.76,10.45-3,20.85-6.28,31.62-8.1,4.21-.34,5.69,2.46,5.87,5.83.46,8.26.32,16.54.07,24.82-.07,2.3-1.43,4-2.79,5.68-29.26,9.63-58.51,19.32-86.85,31.53-2.71,1.16-5.51,2.11-8.27,3.16s-3.58-1.09-3.62-2.67C208.28,99.47,207.15,86.28,209.19,73.15Z"/><path class="48f207aa-ae83-4a1f-b3f8-33d7e77735b5" d="M1614.37,331.27c5.36,1.94,5.36,1.94,8.56-5.39,1.48-.08,1.52,1.19,1.62,2,.53,4.21,3.28,5.49,7,5.35,5.23-.19,10.23,2.86,15.58,1,.85-.3,1,.57,1.14,1.21,1.9,10.87,4.47,21.71,2,32.85a3.24,3.24,0,0,1-1.4-3c.35-6.47-4-9.06-9.09-10.82a35.2,35.2,0,0,0-13.21-2.13c-2.65.13-5.33-.14-8,.05-19.13,1.34-38.08-2.46-57.18-2.05-11.15.24-22,2.38-32.93,4.38-4.39.8-8.79,1.66-13.2,2.36-8.17,1.29-12.2-1.3-15.27-9.23-1-2.72-3.21-5.17-2.31-8.44,2.18-3.31,5.72-2.83,9-3.2,8.74-1,8.71-1,8.62-9.57,0-2.65-.29-5.33.48-7.94.29-1,.73-2.1,1.73-2.28,1.37-.23,2,1,2.47,2.07,1.19,2.47,1.24,5.14,1.32,7.81.23,6.92.43,7,7.08,7.08,4.7.09,9.25-1.08,13.92-1.12,2.68,0,4-1.31,3.52-4.12a48.89,48.89,0,0,1-.53-10.46c.17-3.83-1.44-5.54-5.29-5.33-4.83.26-9.61-.8-14.45-.56-1.64.09-3.35.12-4.74-1.1-2.32-3.2-3.24-6.75-1.13-10.22,2-3.28,5.63-3.16,9-2.86,4.14.36,8.27-.93,12.38.06,2.38.84,3.16-.55,3.86-2.5s2.3-3,3.68-1.07c2.36,3.34,6.38,5.49,7.21,9.92a8.79,8.79,0,0,1-.77,6.4,7.39,7.39,0,0,0-2.85,7c.26,2.81.14,5.63.66,8.43.92,5,5,7.28,9.64,5.21a2.91,2.91,0,0,0,1.74-2.76c.15-1.82,0-3.66.17-5.47.22-2.25-.15-5.45,2.74-5.69,3.2-.27,3.39,3.08,3.94,5.42.42,1.77.75,3.58,1.06,5.37.38,2.15,1.39,3.33,3.72,2.91,3.81-.68,7.61-.16,11.42,0s7.44-.28,7.57-5.46a3.08,3.08,0,0,1,1.25-2.1c2.81-.17,3.25,2.22,3.43,3.93.38,3.54,2.32,3.8,5.14,3.41C1607.9,330.11,1611.2,330,1614.37,331.27Z"/><path class="48f207aa-ae83-4a1f-b3f8-33d7e77735b5" d="M1649.23,371.18c-1.56,1.4-.45,4.3-2.9,5.21a3.39,3.39,0,0,1-3.08-2.23c-1.4-4.06-4.57-4.45-8.25-5-10.33-1.56-20.23.8-30.12,2.88-9,1.89-17.63,2.49-26.56-.37-13.87-4.44-28.36-5.77-42.76-7.23-11.45-1.16-22.52,1-33.31,5-6.55,2.39-13.31,3.54-20.24,4.62-5.28.83-10.46,3.14-16.19,3.2-2.5,0-3.74,3.06-4.92,5.27-1.88,3.52-3.55,7.17-6.67,9.86-5.06,2.26-10.21,2.88-15.5.81-2.21-2.58-.52-4.85,1.09-6.53,4.15-4.36,5.6-9.89,6.12-15.37.61-6.42,2.08-12.69,2.59-19.1,4.21-5.25,10.63-6.14,16.45-8.13,2.47-.84,5.1-1.3,7.61-2.1,3.35-.59,6.68-2,10.06-.15,3.28,3.27,4.65,7.63,6.6,11.65,3.53,7.27,5.39,8.19,13.26,6.93,7.4-1.2,14.62-3.2,21.87-4.93a110.89,110.89,0,0,1,49.3-.64c4.23.89,8.49,1.64,12.72,2.53,10.86,2.26,21.53-.28,32.23-1.35a114.4,114.4,0,0,1,16.43-.57C1646.56,355.9,1649.7,359.51,1649.23,371.18Z"/><path class="48f207aa-ae83-4a1f-b3f8-33d7e77735b5" d="M307.37,80.62c1.61-9.85.59-19.78.89-29.67.1-3.15-1-5.48-4-6.66,13.47-4.34,27.38-6.9,41.17-9.91,11.9-2.6,23.76-5.41,35.86-6.94,3.73,1.83,5,5,5,8.94q0,7.93,0,15.87c0,3.37-1,6.17-4,8-15.12,4-30.26,8-45.36,12.12C327,75,317.21,77.85,307.37,80.62Z"/><path class="48f207aa-ae83-4a1f-b3f8-33d7e77735b5" d="M382.25,60.2c2.89-11,4-22-1-32.76,12.05-3,24.35-4.7,36.58-6.64,16-2.54,32-5.35,48.16-6.66,1.62,1.38,1.25,3.28,1.25,5,0,7.71,0,15.42,0,23.12-9.15,1.92-18.28,4-27.47,5.73q-28.17,5.46-56,12.22A5,5,0,0,1,382.25,60.2Z"/><path class="48f207aa-ae83-4a1f-b3f8-33d7e77735b5" d="M1454.26,391.32c2.09-4.14,4-8.41,6.32-12.4,2.55-4.35,6.24-5.51,10.83-3.46,2.82,1.25,4.46.27,5.76-2s2.85-3.23,5.68-1.94c3.78,1.72,7.5-.23,11.07-1.29,8.27-2.44,16.24-5.73,24.87-7.15,9.56-1.56,18.86-.14,28.26.7,14,1.25,27.46,4.75,41,8.27,4.19,1.09,8.36-.29,12.31-1.11,8.3-1.72,16.6-3.5,25-4.21,5.17-.43,10.5.82,15.75,1.45a3.15,3.15,0,0,1,3.12,3.29c0,2,1.18,3.41,2.14,4.95-1.8,7.22-7.88,10.59-13.18,14.67a2.62,2.62,0,0,1-.88-1.72c-.74-6.19-3.37-8.58-9.67-8-8.88.76-17.19,3.37-24.45,8.74a6.65,6.65,0,0,1-3,1.64c-5.86.06-11.72.55-17.56-.29-9.19-6.95-20-9.24-31.07-11.06-16.36-2.68-32.89-2.74-49.29-1.73A61.57,61.57,0,0,0,1462,392.48C1459.34,392.79,1456.51,394,1454.26,391.32Z"/><path class="48f207aa-ae83-4a1f-b3f8-33d7e77735b5" d="M209.19,73.15c1.12,2,1.08,4.13,1.07,6.3,0,10.29,0,20.59,0,30.88,0,1.83-.85,4.18,2,5l-40.81,19.93c-2.74,1.34-5.46,2.71-8.19,4.07-1.14-2-1-4.13-1-6.28,0-7.61-.13-15.22.05-22.83.13-5.8-.1-11.5-2.1-17A428.71,428.71,0,0,1,209.19,73.15Z"/><path class="48f207aa-ae83-4a1f-b3f8-33d7e77735b5" d="M1569.25,132.29c2.25,4.44,0,8.3-1.64,12.19-2,4.84-5.87,8.71-7.34,13.84-2.14-.25-2.29,1.17-2.22,2.7s.61,3-1.52,3.35c-.71-3.94-2.22-1-3-.19-5.38,5.84-10.67,11.75-15.93,17.69-3.39,3.83-6.71,7.74-10,11.64-1.15,1.35-3.09,2.55-2.38,4.57.79,2.26,3.16,1,4.79,1.48.79.23,1.58.43,2.37.65-.51,1.27-1.72,1.65-2.8,2.18-3.43,0-5.06,2.56-6.79,4.92-1.25,1.71-2.94,3-4.17,4.76-2.17,3.18-5.17,5.67-7.35,8.85-1.32,1.51-2.79,2.89-4.19,4.33a69.67,69.67,0,0,1-5.4,5.05c-2.08,1.4-4.17,2.8-6.22,4.26-1.72,1-3.39,2.16-5.5,1.07-1.5-1.41-2.06-3.3-2.59-5.19.09-5.17,4.08-8.5,6.1-12.77.76-1.63,2.16-2.95,2.81-4.66s2-3.9-.22-4.75a4,4,0,0,0-5.45,2.81c-.39,1.38-.22,3.08-2.14,3.54a3.71,3.71,0,0,1-2.16-1.8c-.73-1.73-2-3.36-1.07-5.41l3.86-1.23a10.47,10.47,0,0,1,4.45-3.07,4.51,4.51,0,0,0,3.23-2.86c1-3.31,3.31-5.71,5.48-8.23,10.72-12.47,20.69-25.59,31.65-37.84,8.68-9.72,18.83-17.71,31.58-21.74C1566.79,132,1568,131.41,1569.25,132.29Z"/><path class="48f207aa-ae83-4a1f-b3f8-33d7e77735b5" d="M1372.31,125.42c2-5.8.43-11.78.84-17.66.28-4-1.23-9.19.77-11.59,2.37-2.86,7.79-.84,11.88-1,6.83-.18,13.66.08,20.49-.1,2.93-.08,4.08.61,4,3.83-.21,10.33-.15,20.66,0,31,0,2.53-.6,3.52-3.32,3.48-10.25-.14-20.5-.24-30.75,0-5.59.14-1.84-4.73-3.88-6.37C1371.71,126.52,1371.62,126,1372.31,125.42Z"/><path class="48f207aa-ae83-4a1f-b3f8-33d7e77735b5" d="M1649.23,371.18c-.26-1-.59-1.91-.77-2.89-1.49-8.26-4.28-10.58-12.84-11-11.84-.55-23.46,1.58-35.15,2.79a54.15,54.15,0,0,1-17.77-1.47c-14.14-3.22-28.42-5.37-43-4.22-7.94.62-15.69,2.59-23.39,4.69-5.76,1.56-11.61,2.83-17.45,4.05-4.93,1-8-1.8-9.92-5.8-2.37-4.9-5.22-9.62-6.73-14.92,3.54-3.79,10.76-5.18,16-3.07,1.57,3.81,3.68,7.35,4.88,11.38,1.07,3.6,4.42,4.71,8.06,4.58,9.83-.33,19.35-2.71,28.94-4.51a149.58,149.58,0,0,1,48.06-1c10.81,1.44,22,.39,33,.51,5.31.05,10.6-.3,15.88,1.07,9.29,2.39,14.4,5.43,13.22,16.9C1650.15,369.34,1650.36,370.5,1649.23,371.18Z"/><path class="48f207aa-ae83-4a1f-b3f8-33d7e77735b5" d="M71.22,396.33c2.62-1.39,1.83-3.9,2-6.12.54-5.31-1.28-10.79,1.13-16,25.75,31.9,58.55,55,93.81,75a7.28,7.28,0,0,1,1.09.92c1.25,2.23,1.68,4.31-1,5.83C134,439.24,100.89,420.58,71.22,396.33Z"/><path class="48f207aa-ae83-4a1f-b3f8-33d7e77735b5" d="M1349.68,59.88c0-4.82.09-9.65,0-14.48-.07-2.4.83-3.16,3.19-3.13,8.82.11,17.65.09,26.47,0,2,0,3,.43,3,2.74q-.15,14.73,0,29.46c0,2.15-.66,2.9-2.85,2.88q-13.47-.15-27,0c-2.26,0-2.85-.95-2.82-3C1349.74,69.54,1349.69,64.71,1349.68,59.88Z"/><path class="48f207aa-ae83-4a1f-b3f8-33d7e77735b5" d="M1618.32,398.42l-8.1,5.88c-.48,2-.57,4.15-3.54,4.49-4.36.49-7.25-.52-9.82-4.09-.51,1.17-.9,2.41-2,3.17-2,1.24-4.19.92-6.33.92-36.39,0-72.79.16-109.19-.08-8.42,0-16.8-1.53-25.06-3.31v-.27l.23-.13c1.36-3.3,4.3-2.75,6.76-2.36a81.46,81.46,0,0,0,13.42.61c25.23-.12,50.43,1.72,75.67,1,1.49,0,3,0,4.48,0,1.85-.08,3.78-.15,4.63-2.2s0-3.51-1.32-4.95c-1.6-1.7-3.32-3.42-2-6.1,6.45-2.28,13.11-1.34,19.61-.76a111.93,111.93,0,0,0,22.19,0c8.08-.89,16.23-.35,24.35-.24,1.18,0,2.45.32,2.91,1.52.56,1.47-.41,2.5-1.52,3.34C1622,396.11,1619.93,397,1618.32,398.42Z"/><path class="48f207aa-ae83-4a1f-b3f8-33d7e77735b5" d="M1432.26,136.82c0-4.32.07-8.65,0-13,0-2.12.7-2.94,2.86-2.92q12.21.12,24.43,0c2.44,0,3.12,1,3.1,3.27-.08,8.81-.1,17.62,0,26.43,0,2.49-1.08,3.08-3.3,3.07-8.15,0-16.3-.11-24.44.11-2.58.07-2.63-1.22-2.62-3C1432.27,146.13,1432.25,141.47,1432.26,136.82Z"/><path class="48f207aa-ae83-4a1f-b3f8-33d7e77735b5" d="M1608.29,278.29c1.24,3.27.94,6.69,1,10.07-.25.21-.49.58-.75.6-6.73.44-7.78,5.23-8.11,10.58-1.3,2-.77,4.08-.62,6.19.38,5.42-1.06,7.09-6.54,7.52-2,.16-3.9.37-5.85.57-1.66-.3-2.38-1.65-1.79-2.87,1.83-3.78.27-7.76,1-11.56-.2-2.79-1.14-5.57-.23-8.39,2.18-2.28,4.94-.88,6.86-1.29a21.31,21.31,0,0,0-6.53.24c-7.79.78-7.79.78-7.81,9.86.76,3.38,1.91,6.74.26,10.17-1.49,2-4,2.7-5.51,4.69-2.74,1.05-4.56.35-3.7-2.8.67-2.43-.39-4.61-.13-6.91-.18,2.53.72,5-.11,7.59-1,2.9-3.1,3.86-5.35,2.53-1.33-.78-2.28-1.38-3.76-1-2.45-4.48-.64-9.45-1.61-14.1,4.88-2.77,3.39-8.85,6.51-12.54a7.72,7.72,0,0,1,3.75-1.14c2.29-.19,3.68-1.32,3.91-3.67.4-4,2.73-5,6.49-4.84C1589.21,278.22,1598.77,277.23,1608.29,278.29Z"/><path class="48f207aa-ae83-4a1f-b3f8-33d7e77735b5" d="M1180.7,86.28c16.34-.61,32.67-.57,49,0,15.12,1.71,29.3,7,43.75,11.32,2.79.83,6,1.24,7.47,4.39q0,4.11.08,8.22c-32.32-8.7-64.93-16.15-97.73-22.73C1182.31,87.31,1181.27,87.3,1180.7,86.28Z"/><path class="48f207aa-ae83-4a1f-b3f8-33d7e77735b5" d="M1489.64,160.37c12.49,0,12.57,0,12.45,12.25,0,4.1,1.82,9.39-.82,12s-7.9.79-12,.77c-4.25,0-9.7,1.89-12.44-.87-2.5-2.54-.69-7.91-.72-12-.1-12.11,0-12.11,12-12.11Z"/><path class="48f207aa-ae83-4a1f-b3f8-33d7e77735b5" d="M1569.25,132.29c-9.27,2.37-16.73,8-24.1,13.66-11.86,9.16-19.87,21.84-29.61,32.93-4.5,5.12-8.75,10.46-13.15,15.66-1.65,2-3.2,3.6-3.8,6.53-.94,4.61-6.1,3.69-9.47,5.1,1.41-7.66,7.43-12.49,12.05-17.81,8.13-9.4,14.84-19.93,23.26-29,7.69-8.26,13.1-18.93,24.1-23.87,4.82,0,8-4,12.48-5C1563.15,133.91,1567,129.63,1569.25,132.29Z"/><path class="48f207aa-ae83-4a1f-b3f8-33d7e77735b5" d="M1618.32,398.42c.94-3.08,5-3.23,6.24-7h-68.33c-1.76,1.93-4.09,2-6.45,2q-39.21,0-78.41,0c-2,0-4,0-5.7-1.35-1.72-2.87,1.09-3.4,2.48-4.3,9-5.83,19.1-6.19,29.34-5.14,8.26.84,16.55,1.19,24.83,1.61a115,115,0,0,1,23.61,3.29c7.28,1.93,14.89.5,22.36.77,3.15.11,6.35-.11,9.08,1.93h18.8a17.92,17.92,0,0,1,9.11-2c6.14.13,12.28-.17,18.4.15,2.86.15,6.35.19,5.53,4.82A46.32,46.32,0,0,1,1618.32,398.42Z"/><path class="48f207aa-ae83-4a1f-b3f8-33d7e77735b5" d="M1501.17,229.25l5-5c3,.27,4.29,2.69,6,4.63,1,1.52,2,3.05,3.12,4.5,9,9.58,17.57,19.52,24.08,31,1.06,1.87,2,3.79,3,5.69,2.52,1.81,2.81,4.2,1.83,6.94a7.09,7.09,0,0,1-3.06,2.88c-3.47.54-6.91.71-10.22-.83-1.26-1.05-1-2.2.33-2.67,3.78-1.33,2.46-3.52,1.2-5.79A128.45,128.45,0,0,0,1509,240c-2.74-2.62-5.71-5.08-7.74-8.37A2.19,2.19,0,0,1,1501.17,229.25Z"/><path class="48f207aa-ae83-4a1f-b3f8-33d7e77735b5" d="M1290.8,112.47h22.4c17.94,7,36,13.69,53.79,21,14.51,6,28.73,12.63,43.08,19-.16.38-.31.77-.47,1.15q-8.86-3.54-17.74-7.07a962.1,962.1,0,0,0-99.37-33.13A8.26,8.26,0,0,1,1290.8,112.47Z"/><path class="48f207aa-ae83-4a1f-b3f8-33d7e77735b5" d="M1487.58,212.4l.85,2c1,1.83-.13,2.86-1.48,3.79-3.7,1.39-6.73-.13-9.75-2.1-2.29-1.49-4.57-3.64-7.65-1.57a36.57,36.57,0,0,1-5.31,2.37c-4.54,1.5-9,3.26-13.57,4.63-2,.61-4.08,1.48-6.21.26a1.66,1.66,0,0,1-.6-1.38c.8-2.31,2.83-2.92,4.84-3.55,3.09-.75,5.82-2.52,9-3.08a23.63,23.63,0,0,0,5.47-2.83c-10.7-6.93-21.36-13.45-32.51-19.2-2.33-1.21-6-1.77-5.25-6,2.26-1.73,5.2-1.27,7.66-2.38a5.23,5.23,0,0,1,3.39.29c10,4.93,20,9.85,28.62,17.19,2.29,5.66,6.55,3.12,10.36,2.5,2,.25,3.23,1.92,4.85,2.86C1481.18,210.14,1482.51,213.51,1487.58,212.4Z"/><path class="48f207aa-ae83-4a1f-b3f8-33d7e77735b5" d="M1565.18,288.38c0,1.81,0,3.63.07,5.43.21,3.54.07,6.68-5.14,5.17,2.36,5.32.86,10.33,1,15.26-1.25,2.35-3.29,2.86-5.4,1.68s-2.52-3.31-1.37-5.56q-.06-3.51-.11-7c-.73-3.71-3.23-6.83-3.21-10.83,0-2.42-2.9-2.45-4.22-3.87-1.39-4-3.66-8.17,1.57-11.27,5.3.38,10.68-.59,15.91.94C1567,281.45,1566.59,284.87,1565.18,288.38Z"/><path class="48f207aa-ae83-4a1f-b3f8-33d7e77735b5" d="M168.27,456c.34-1.94.69-3.89,1-5.83,31.61,17,64.1,32.26,96.75,47.15a10.27,10.27,0,0,1,4.62,3.4c-7.14-2.84-14.31-5.63-21.43-8.53-26.63-10.87-53-22.39-78.89-34.89A19.52,19.52,0,0,1,168.27,456Z"/><path class="48f207aa-ae83-4a1f-b3f8-33d7e77735b5" d="M1587.21,313.34c.44-2.34,2.25-1.91,3.85-1.94,7.27-.14,7.29-.15,6.45-7.13-.25-2-.41-4,1.85-5.07a3.63,3.63,0,0,1,1.52-.59c3.39.67,7.16-.8,10.2,1.8l1.92,21.7c-3.84,3.66-7,1.24-10.07-1.18a11,11,0,0,0-3.45-1.66c-4-1.88-8.66-.54-12.56-2.75A2.5,2.5,0,0,1,1587.21,313.34Z"/><path class="48f207aa-ae83-4a1f-b3f8-33d7e77735b5" d="M1629.21,393.18c-.51-3.33-3.11-2.86-5.36-2.88-9.23-.07-18.45-.09-27.68-.12,8.38-8.53,19.13-10.81,30.39-10.6,6.11.11,8.25,4.69,6.59,11.48A7.63,7.63,0,0,1,1629.21,393.18Z"/><path class="48f207aa-ae83-4a1f-b3f8-33d7e77735b5" d="M1433.43,184.24c-1.5,4.5-5.52,1.19-8,2.59-5,2.11-6.56,1.55-8.74-3.07,0-2.89-1.15-6,1.38-8.44.52-1.51-.7-3.94,2.22-4.17a35.86,35.86,0,0,0,6.37.18c4.78-.68,7.53.56,6.74,6C1434.64,179.61,1435.65,181.92,1433.43,184.24Z"/><path class="48f207aa-ae83-4a1f-b3f8-33d7e77735b5" d="M1535.16,199.24c1.14-2,2.57-3.47,5.16-2.78,1.55,3.14,5.12,4.24,7,7l-1.77,1.43c5.7-2.19,11.19.3,17.1.59-1.76,4.11-4.9,5.41-8.71,5.76-4.94.47-10,.69-13.56,4.9-2.09,2.48-2.72-1.12-4.24-.93-.82-.29-1.92-.06-2.29-1.21a4.36,4.36,0,0,1,1.33-3.6C1538.86,206.62,1538.56,203,1535.16,199.24Z"/><path class="48f207aa-ae83-4a1f-b3f8-33d7e77735b5" d="M1296.86,39.44c-7.65,0-7.65,0-7.65-7.53,0-6.78,0-6.78,8.91-6.77,6.14,0,6.14,0,6.14,8.54C1304.25,39.44,1304.25,39.44,1296.86,39.44Z"/><path class="48f207aa-ae83-4a1f-b3f8-33d7e77735b5" d="M1433.43,184.24c0-2.31,0-4.62,0-6.93,10.69,6.18,21.72,11.78,31.9,18.84.49,1.92.92,3.83-1.2,5.14C1453.9,195.56,1444.36,188.66,1433.43,184.24Z"/><path class="48f207aa-ae83-4a1f-b3f8-33d7e77735b5" d="M1603.12,319.57c3,2.19,6.17,3.3,9.88,2.54.46,3.05.92,6.11,1.37,9.16-4.7,2.46-9.63.85-14.46.72-1.44,0-1.69-1.36-1.74-2.58a10.87,10.87,0,0,0-1.88-6c-2.56-2.49-6-3.08-9.19-4.05-.82-1.24-.95-2.39.41-3.36,4.68-.27,9.21.89,13.81,1.44a8.47,8.47,0,0,1,.75,5.1c1.45,1.42-4.92.2-.87,2.46C1603.28,323.67,1601.35,321,1603.12,319.57Z"/><path class="48f207aa-ae83-4a1f-b3f8-33d7e77735b5" d="M1372.31,125.42c0,.55,0,1.09,0,1.64q-20.62-8.19-41.28-16.34a47.57,47.57,0,0,0-4.74-1.35q0-3.06,0-6.1Z"/><path class="48f207aa-ae83-4a1f-b3f8-33d7e77735b5" d="M1515.31,233.41c-3.66.9-3.94-1.56-4.11-4.12a15.23,15.23,0,0,0-.94-9c1.5-3.63,4.86-5.79,7.06-8.87a3.11,3.11,0,0,1,4.27,1.16c1,1.62-.45,2.69-1.26,3.86a22,22,0,0,0-2.74,4c-.94,2.24-1.6,4.73,2.55,3.69,1.41-.36,2.68-.07,3.18,1.45.44,1.33-.09,2.37-1,3.53A11.48,11.48,0,0,1,1515.31,233.41Z"/><path class="48f207aa-ae83-4a1f-b3f8-33d7e77735b5" d="M1565.18,288.38c-1.44-3.25-.86-6.69-.92-10.07,13.09-1.22,26.21-1,39.32-.94,1.6,0,3.36-.51,4.71.92-9.58,0-19.16,0-28.73,0-2.25,0-4.15-.07-4.36,3.18-.44,6.8-.61,6.79-7.54,6.83C1566.83,288.34,1566,288.37,1565.18,288.38Z"/><path class="48f207aa-ae83-4a1f-b3f8-33d7e77735b5" d="M1600.2,299.41a6.07,6.07,0,0,1-.84-.21c0-.16,0-.33,0-.5-.24-10.33-.24-10.33,9.91-10.34a33.68,33.68,0,0,0,1,10.77C1607,300.4,1603.59,299.89,1600.2,299.41Z"/><path class="48f207aa-ae83-4a1f-b3f8-33d7e77735b5" d="M1464.09,201.29c.61-1.66-.69-3.77,1.2-5.14.81.08,1.63.21,2.45.23,7.16.17,7.16.16,7.67,7-1.24,5.76-5.74,2.47-8.67,2.85C1462.85,206.78,1464.87,203.06,1464.09,201.29Z"/><path class="48f207aa-ae83-4a1f-b3f8-33d7e77735b5" d="M1520.33,216.47c1.73-3.32-1.14-3.87-3-5,2.19-2.81,4.48-5.55,6.53-8.46,1.41-2,3.43-1.52,5.29-1.83l.45.53a3.7,3.7,0,0,1-.35,2.85c-1.82,3.28-2.25,6.35.77,9.26a2.06,2.06,0,0,1,.3,2.7c-1.07,1-1.64,3.31-3.3,0S1522.6,216.15,1520.33,216.47Z"/><path class="48f207aa-ae83-4a1f-b3f8-33d7e77735b5" d="M1535.16,199.24c5.31,2.1,6.28,4.88,3.22,9.4-1.27,1.89-2.67,3.7-4,5.54-4.29.7-4.25-2.44-4.35-5.14-.09-2.53,1.07-5.15-.64-7.55l-.25-.33,3.26-.95Z"/><path class="48f207aa-ae83-4a1f-b3f8-33d7e77735b5" d="M1529.39,201.49c3.8-.82,3.37,1.3,3,3.92-.44,3.08-3.19,6.89,2,8.77l1.79,1c-1.66,1.77-3.87,1.06-5.86,1.28-1.73-1.3-1.91-4.12-4.76-4.45-1.38-.16-.6-1.43-.29-2.34A32,32,0,0,1,1529.39,201.49Z"/><path class="48f207aa-ae83-4a1f-b3f8-33d7e77735b5" d="M1556.53,164.37c2.23-1.81-.88-3.87.31-5.93.53-.91-1.19-3,1.4-3.16,2.42-.17,1.86,1.69,2,3-.73,2.17-3.46,5.11,2,4.69,1.57-.12,2.33,1.29,2.34,2.67a2.63,2.63,0,0,1-2.24,2.73C1557.41,169.79,1556.61,169.33,1556.53,164.37Z"/><path class="48f207aa-ae83-4a1f-b3f8-33d7e77735b5" d="M1548.35,277.37c-2.17,3.46-1.55,7.17-1,10.88,1.07,1.45,2.42,3.26.19,4.4-1.88,1-3.27-.45-3.66-2.52-.06-.55-.09-1.11-.1-1.66.66-3.7-1.68-7.22-.65-11a14.78,14.78,0,0,0-.7-7.37c1.88,0,.54-3.62,3.08-2.75s.44,2.78.74,4.17C1546.68,273.61,1545.07,276.37,1548.35,277.37Z"/><path class="48f207aa-ae83-4a1f-b3f8-33d7e77735b5" d="M1595.18,406.13a8.88,8.88,0,0,1,2.5-7.47c.47,4.32,0,8.9,5.9,8.75,2.81-.07,5.58.41,6.64-3.11a3.67,3.67,0,0,0,.09.93c.32.69.65,1.38,1,2.06,0,2.84-2.1,2.83-4.13,3-4.15.42-8.12-.95-12.2-1.12A2.85,2.85,0,0,1,1595.18,406.13Z"/><path class="48f207aa-ae83-4a1f-b3f8-33d7e77735b5" d="M1487.58,212.4c-1.51,3.22-4.32,2.56-6.28,1.28-2.69-1.75-2.93-4.61-1-7.4l5,1.12A7.16,7.16,0,0,1,1487.58,212.4Z"/><path class="48f207aa-ae83-4a1f-b3f8-33d7e77735b5" d="M1547.35,203.47c-4.14-.53-7.63-1.72-7-7,2.53-2,4.78-1,6.63.93S1549.55,201.3,1547.35,203.47Z"/><path class="48f207aa-ae83-4a1f-b3f8-33d7e77735b5" d="M1561,130.51c-2.78,3.48-7,4.75-10.72,6.63-1.25.62-1.57-.64-1.76-1.63C1552.31,132.9,1556,130,1561,130.51Z"/><path class="48f207aa-ae83-4a1f-b3f8-33d7e77735b5" d="M1600.2,299.41l10.12-.28.76,1.28C1607.51,299.49,1603.71,301,1600.2,299.41Z"/><path class="48f207aa-ae83-4a1f-b3f8-33d7e77735b5" d="M1221,140.28a3.26,3.26,0,0,1-2.86-.86,53.93,53.93,0,0,1,.47-6.83c.12-4.15-2.22-5.68-6-6.48-41.4-8.76-83.1-15.63-125.08-21q-39.87-5.1-79.9-8.58c-16.24-1.39-32.51-2.47-48.79-3.35C933.55,91.82,908.27,91,883,90.07c-31.16-1.21-62.3-.82-93.43-.51q-29.18.3-58.37,1.87c-21.26,1.17-42.53,2.3-63.74,4Q621.68,99.24,576.1,105c-42.47,5.43-84.67,12.37-126.55,21.28C389.15,139.08,329.81,155.49,273,180c-33,14.24-64.7,30.8-92.5,53.95-16.94,14.1-31.63,30.09-40.2,50.81-10.66,25.73-7.23,50.22,7.14,73.51,13,21.11,31.35,37,51.49,51,31.71,22,66.55,37.83,102.48,51.44,61.91,23.46,126,38.85,191,50.66q55.54,10.08,111.67,16.18c25.31,2.73,50.64,5.18,76.05,6.92,17.26,1.18,34.52,2.13,51.8,3,24.12,1.24,48.24,1.56,72.38,2,12.3.24,24.64,1.33,36.93.67,18.65-1,37.31-.23,55.93-1,21.11-.91,42.24-1.47,63.31-3,29.53-2.1,59-4.38,88.5-7.54,49.53-5.31,98.77-12.45,147.6-22.22,60.53-12.11,120.09-27.74,177.54-50.66,28.36-11.32,55.9-24.35,81.52-41.14a16,16,0,0,1,5.51-2.19c2.81,1.53,6.35.23,9.44,2.57-8.09,5.8-16.27,11.11-24.73,16-40.41,23.39-83.69,40.09-128,54.2a1112.39,1112.39,0,0,1-113.45,29.11c-26,5.34-52.12,10.12-78.39,14-18.69,2.74-37.39,5.46-56.14,7.79-14,1.74-28,2.92-42.06,4.22-18.48,1.71-37,3.39-55.48,4.89q-16.62,1.34-33.3,2c-12.79.54-25.61.49-38.39,1.13-40.29,2-80.6.73-120.89.82-18.93,0-37.88-1.07-56.8-2-15.08-.73-30.16-1.6-45.19-3-17-1.59-34.05-2.53-51-4.69-16.11-2-32.32-3.31-48.44-5.28-14.65-1.79-29.28-3.76-43.83-6.17-22.25-3.69-44.5-7.46-66.62-11.83-35.72-7.05-71.09-15.57-106-25.87a801.59,801.59,0,0,1-91.15-32.49c-31.87-13.75-62.51-29.79-90.07-51.09-19.24-14.86-36.2-32-47.09-54.1-14.37-29.2-11.85-57.71,5-85.05C151.79,246,170.35,229.43,190.9,215,224.74,191.11,262,174,300.54,159.36c40.82-15.52,82.74-27.37,125.2-37.31,32-7.49,64.28-13.62,96.73-18.91C547.68,99,573,95.66,598.3,92.5c18.25-2.28,36.63-3.49,55-5.21,19-1.78,38-3.2,57.08-4.13,14.26-.7,28.55-1.12,42.79-2.07,13.66-.92,27.32.12,40.9-.92,21-1.59,42-1,62.9-.61,15,.32,30,.16,44.9.91,14.44.73,28.9.91,43.3,2,21,1.54,42,2.66,63,4.62,15.51,1.46,31.06,2.71,46.54,4.41,19.6,2.14,39.12,5,58.66,7.67,31.25,4.24,62.27,9.77,93.14,16.21,6.63,1.39,13.43,2.15,19.78,4.76-3.49,3.19-2.91,7.41-3,11.52C1223.14,134.63,1224.16,138,1221,140.28Z"/><path class="48f207aa-ae83-4a1f-b3f8-33d7e77735b5" d="M1461.12,412.44c-5.37,5.91-12.64,9.06-19.31,13-28.18,16.65-58.22,29.29-88.89,40.53-37.54,13.75-76,24.49-114.88,33.54-32.5,7.57-65.26,13.76-98.21,19.06q-33.64,5.41-67.44,9.53c-17.43,2.12-34.91,4-52.44,5.36-17.69,1.39-35.35,3-53.08,4-11.93.66-23.87,1.22-35.79,2-25.42,1.63-50.86,1.35-76.29,2.15-12.47.39-25,1.16-37.39.47-17.15-.94-34.29-.09-51.4-.89-15.77-.74-31.54-1.28-47.3-2-19.71-.9-39.42-2.29-59.08-4-23.11-2-46.22-4.22-69.25-7q-36.75-4.5-73.32-10.54c-43.3-7.11-86.23-15.86-128.63-27.11-41.22-10.93-81.65-24.16-120.73-41.4-28.4-12.53-55.75-26.89-80.44-45.85-19.28-14.81-36.43-31.61-47-54-10-21.12-10.86-42.56-2.22-64.31,5-12.68,12.75-23.58,21.81-33.72,21-23.59,47.09-40.35,74.69-54.94,49.42-26.11,102.05-43.63,155.88-58,32-8.55,64.29-15.4,96.76-21.56,24.27-4.59,48.71-8.24,73.2-11.57,20.69-2.82,41.42-5.44,62.17-7.56,17.48-1.78,35-3.39,52.55-4.39,16.4-.93,32.78-2.15,49.19-3,18.6-1,37.22-1.12,55.79-2,28.15-1.4,56.27-.48,84.4-.68,14.79-.11,29.6.69,44.39,1.1,14.09.4,28.2,1.18,42.29,1.91,18.88,1,37.77,2.19,56.58,4,26.55,2.57,53.09,5.26,79.56,8.67,33.41,4.3,66.66,9.37,99.7,15.9q12.94,2.57,25.87,5.2c8.85,1.8,7.28.7,7.44,9.05-2.37,1.49-4.82.82-7.27.29-38.77-8.3-77.88-14.59-117.14-19.92-22.26-3-44.62-5.23-67-7.45-18.71-1.85-37.44-3.43-56.19-4.6-16.09-1-32.24-1.59-48.34-2.47-46.45-2.55-92.91-1.93-139.36-1.61-22.1.15-44.22,1.15-66.32,2.52-13.44.84-26.9,1.5-40.35,2.38q-24.64,1.62-49.22,4.15c-21.68,2.25-43.35,4.62-65,7.54q-42.82,5.76-85.3,13.65A1183.46,1183.46,0,0,0,355,157.5c-35.92,10.82-71.22,23.5-104.84,40.28-29,14.47-56.84,30.93-79.54,54.61-11.28,11.77-20.58,24.95-25.37,40.8-6.15,20.37-3.78,39.86,6.59,58.34,11.34,20.19,27.95,35.52,46.38,49,27.78,20.26,58.41,35.27,90.24,47.95,56.52,22.51,115.05,38,174.6,50,42.46,8.55,85.23,15,128.23,20.1,23.63,2.78,47.29,5.2,71,7,21.23,1.58,42.45,3,63.73,4,20.29.93,40.59,1.16,60.86,2.07,24.66,1.12,49.31.9,73.93.57,23-.3,45.93-.86,68.86-2,21.42-1,42.86-2.22,64.23-4,28.35-2.34,56.67-5.11,84.91-8.55,40.68-5,81.14-11.18,121.3-19.26,55.59-11.19,110.34-25.46,163.39-45.75,29.77-11.39,58.7-24.57,85.68-41.71,1.57-1,3.49-1.14,4.91-2.37Z"/><path class="48f207aa-ae83-4a1f-b3f8-33d7e77735b5" d="M1454.15,408.52c-3.08,5.37-8.83,7.26-13.71,10.09-46.82,27.21-97.44,45-149.23,59.92-32.44,9.34-65.32,16.85-98.43,23.33-27.34,5.35-54.83,9.84-82.45,13.64-20.36,2.81-40.75,5.44-61.18,7.6-16.31,1.72-32.66,3.23-49.05,4.37-21.2,1.47-42.38,3-63.6,4-20.6,1-41.22,1.14-61.8,2.09-22.32,1-44.61.53-66.91.65-16.63.09-33.27-.72-49.9-1.13-14.76-.36-29.55-1-44.3-1.88-23.35-1.37-46.71-2.86-70-5.06-26.89-2.55-53.77-5.41-80.54-9-47.2-6.38-94.08-14.63-140.5-25.45-49.84-11.61-98.75-26.08-146-45.87-31.23-13.09-61.21-28.68-87.82-49.91-15.8-12.6-30.22-26.77-39.63-45C135.41,324.22,137,298,152.53,272.51c14.5-23.74,35.78-40.42,58.75-55.16,26.85-17.24,55.7-30.51,85.4-42,35-13.52,70.81-24.23,107.13-33.35,40.28-10.1,81-18.06,122-24.49,23.41-3.66,46.9-6.86,70.48-9.37,20.28-2.15,40.55-4.3,60.88-5.94s40.7-3,61.09-4.06c16.77-.83,33.55-1.22,50.3-2,36.14-1.69,72.27-.6,108.4-.69,20.44,0,40.88,1,61.3,2,15.92.71,31.84,1.59,47.7,3,20.31,1.81,40.62,3.49,60.91,5.62,18.3,1.92,36.59,3.95,54.82,6.38q35.76,4.77,71.24,11.28c15.83,2.88,31.68,5.7,47.31,9.57-.34,2.18,1.45,5.1-2.13,6.15-20.91-3.91-41.76-8.09-62.72-11.68-30.16-5.15-60.49-9.17-90.9-12.61q-56.34-6.36-112.93-9.41c-53.08-2.8-106.21-4.21-159.37-2.86-24.64.62-49.29,1.4-73.91,2.55C685,107,651.87,109.64,618.73,113c-36.25,3.64-72.38,8.18-108.3,14.25-84.67,14.31-168.06,33.36-246.78,69-26.43,11.95-51.62,26-74,44.67a149.42,149.42,0,0,0-24.93,25.83c-23.29,31.39-23.38,64.41,0,95.73,15.91,21.36,37,36.74,59.61,50.11,40.58,24,84.38,40.35,129.31,53.92,61,18.44,123.37,30.92,186.41,40.1,46.95,6.83,94.09,11.6,141.41,15,68.53,5,137.13,5.88,205.77,4.49q69.43-1.39,138.62-7.94c68.1-6.35,135.74-15.85,202.56-30.69,55-12.22,109.06-27.48,160.88-49.95,1.67-.72,3.29-1.56,4.94-2.35,1.33-1.61,2.7-3.15,5.13-2.56a302.11,302.11,0,0,0,49-26.24Z"/><path class="48f207aa-ae83-4a1f-b3f8-33d7e77735b5" d="M1465.26,391.33l91,.05a4.9,4.9,0,0,0,2.87,3.83c3.5,1.9,3.51,4.79,2.66,8.15-1,3.79-3.94,2.89-6.45,2.9-15.46,0-31,.67-46.36-.18-14.44-.79-28.86-.49-43.29-.8-3.74-.08-7.42-2.19-11.2-.28l-2.93.15c-3.06-1.87-1.63-4-.07-5.76,3.4-3.89,7.24-7.24,12.47-8.49A1.52,1.52,0,0,1,1465.26,391.33Z"/><path class="48f207aa-ae83-4a1f-b3f8-33d7e77735b5" d="M1221,140.28c0-4.79.38-9.6,0-14.37-.29-4.11.74-6.34,5.23-5.81,7.61.06,15.23.49,22.81.07,5-.27,7.06,1.2,6.34,6.17a10,10,0,0,1,1.52,7.85,22,22,0,0,1,0,7.2c.29,2.48.49,5-1.5,6.93.36,3.87-.92,5.36-5.24,5.13-8.45-.45-17-.24-25.42-.07-2.83.05-3.82-.78-3.65-3.64C1221.3,146.6,1221.05,143.44,1221,140.28Z"/><path class="48f207aa-ae83-4a1f-b3f8-33d7e77735b5" d="M1340.19,172.49c-5.16-.06-10.31-.15-15.47-.17-7.26,0-7.26,0-7.63-7.15-1.29-2.13-2.18-4.34-1.49-6.89.09-2.42-.82-4.83-.09-7.25.38-2.91-.73-7,4.72-5.86h22a2.89,2.89,0,0,0,.83.21c2.05,1.87,2.36,4.24,2,6.82-.21,2.69.52,5.41-.16,8.09.21,2.43.6,4.87-.06,7.29C1344.73,170.57,1344.71,173.68,1340.19,172.49Z"/><path class="48f207aa-ae83-4a1f-b3f8-33d7e77735b5" d="M1320.23,145.17c-4.74.13-2.27,4-3.14,6.09-2.29,1.36-4.56.39-6.73-.24-16.7-4.92-33.41-9.78-50.29-14.05a7.83,7.83,0,0,1-4.65-2.66v-8c15.63,4.33,31.3,8.55,46.89,13C1308.33,141.12,1314.53,142.4,1320.23,145.17Z"/><path class="48f207aa-ae83-4a1f-b3f8-33d7e77735b5" d="M1464.42,391.4c-5.19,2-8.54,6.36-12.61,9.79-1.57,1.32-.74,2.61-.28,4l-3.17.14c-5.58-2.18-11.58-2.11-17.38-2.82s-9.89-2.78-11.92-8.75l19.12-1.52a80.12,80.12,0,0,0,16.08-.88l7.81-.21C1462.91,390.79,1463.73,390.6,1464.42,391.4Z"/><path class="48f207aa-ae83-4a1f-b3f8-33d7e77735b5" d="M1595.18,406.13c0,1.06,0,2.12.07,3.18a4.37,4.37,0,0,1-3.24,1c-27.19.58-54.38,1.57-81.58,1-10.89-.24-21.79-.61-32.65-1.52a95.86,95.86,0,0,1-15.58-2.38c-2.84.08-5.59-.2-8-2,8.6.61,17.2,1.69,25.81,1.74,36.29.22,72.59.13,108.88.14C1591.07,407.28,1593.29,407.57,1595.18,406.13Z"/><path class="48f207aa-ae83-4a1f-b3f8-33d7e77735b5" d="M1462.2,407.37c12.45,2.14,25.1,2.18,37.63,2.56,9.53.29,19.11.8,28.7.49,13.44-.43,27,.41,40.36-.38,8.8-.52,17.58-.46,26.36-.73,1.21-1.35,2.27-1.3,4.18-.79,3.91,1.05,8.26,2.49,11.85-1.23,1.06,4-1.86,3.87-4.27,4-5.09.27-10.13-.41-15.29-.18q-45.6,2-91.27,1.05c-11.88-.25-23.84-.93-35.51-3.73A21.23,21.23,0,0,1,1462.2,407.37Z"/><path class="48f207aa-ae83-4a1f-b3f8-33d7e77735b5" d="M1343.41,152.36l-.3-7c15.81,4.68,30.93,11.19,46.14,17.47,9.67,4,19.21,8.3,28.81,12.47q0,4,0,8c-2.22,1.25-4.25.24-6.16-.7-20.63-10.12-42-18.49-63.53-26.43C1346.34,155.4,1344.28,154.66,1343.41,152.36Z"/><path class="48f207aa-ae83-4a1f-b3f8-33d7e77735b5" d="M1498.26,339.35l-16,3.07-10,.95c-1.71-1.11-.78-3.11-1.5-4.09a4.28,4.28,0,0,0,0-.55c-.12,1.73.84,3.72-1.48,4.77-2,.92-3.55.51-4.39-1.69-1-3.69,0-7.21.92-10.74a26.7,26.7,0,0,1,10.1-13.22c7.36-2.36,10.21-7.35,8.86-14.91a3.55,3.55,0,0,1,1.15-3.13c3-1.73,6.17-1,9.26-.76,2.85.25,3.77,2.69,3.78,5.11,0,3.78,1.5,5.46,5.38,5.28,2.33-.11,4.7.4,6.14,2.64,1,1.57,2.61,1.19,4.06,1.24,2,.06,4,0,6,0,1.83,0,3.67,0,5.69,0-1.88-.33-3.68-.31-5-1.68a1.16,1.16,0,0,1,0-1.43c6.81,0,13.63.24,20.44,0,3.75-.12,5.54.9,5.52,5,0,4.79-.14,9.62.86,14.4.63,3-.72,4.54-4,4.7-7,.33-13.92.82-20.84,1.6-2.76.32-2.91-1.1-3.39-3-1.28-5,.34-10.31-2.13-15.57,0,5.21-.48,10.05.14,14.76.52,3.94-.8,5-4.34,5.33C1508.43,337.88,1503.35,338.69,1498.26,339.35Z"/><path class="48f207aa-ae83-4a1f-b3f8-33d7e77735b5" d="M1588.22,319.38c4.94-1.83,6.85-.88,8.07,4,.16,8.81.16,8.75-8.62,9.13-4.29.19-8.59-.43-12.88.55-3,.69-4.36-.82-4.75-4.05-.43-3.68-.27-7.62-2.83-11.58-1.49,4.19-.87,7.95-.81,11.59,0,2.92-.84,4.08-3.91,4.26-10.92.65-11,.76-12.1-10.05-.3-2.79.21-5.7-.31-8.43-.75-3.87.94-4.77,4.24-4.45.62,4.16,2.51,6.09,6.77,3.88,1.48-.74.92-2.33,1.79-4.26.32,3,1.06,5,4,4.16s2-2.81,1.57-4.8c-.29-1.27.15-2.79-.35-3.92-2.9-6.56,2-3.41,5.24-4.09-3.38,3.82.16,7.64-1.44,10.41-1.73,3-.41,2.48,1.5,2.44,3.54-1.47,7.06-1.11,10.55.19,3,2.95,2.72,6.78,2.77,10.53C1586.88,323,1586.26,320.83,1588.22,319.38Z"/><path class="48f207aa-ae83-4a1f-b3f8-33d7e77735b5" d="M1521.3,310.24c0,.31,0,.62,0,.94-3.54,2.51-8.11,2.82-10.93.74s-3.88-6.5-2.68-10.38c.86-2.79,2.93-3.85,5.56-4.18,2-.25,4.08-.21,4.67-2.75.85-3.9,1.41-8,6.55-8.72.32,0,.55-.34.81-.55,1.45-1.15,1.23-4.33,3.87-3.81,2,.39,1,3.42,2.8,4.35,3.15,1.11,6.82-.28,9.69,2.05a15,15,0,0,1,2.15,4.73c.37,2.47.68,4.93-1.55,6.8-5.29-.28-10.55.6-15.87.15-5.66-.48-6.53.72-5.73,6.2Z"/><path class="48f207aa-ae83-4a1f-b3f8-33d7e77735b5" d="M1542.24,299.46V292.3c-.91-2.95-.19-4.25,3-3,.28,1,0,3,1.4,2.68,2.12-.48-.06-2.53.66-3.74,4.68-.37,6.35,1.81,6,6.42-.19,2.85.53,5.77.84,8.67-1-1.56-1.19-3.82-3.82-3.9-3.42-.12-1.11-4.14-3.56-5.29C1545.05,295.65,1548,301.65,1542.24,299.46Z"/><path class="48f207aa-ae83-4a1f-b3f8-33d7e77735b5" d="M1466.08,341.17c.3,1,.66,2,1.91,1.87a2.3,2.3,0,0,0,2.12-2.34,19,19,0,0,1,.79-5q.69,3.82,1.4,7.65c-7.71,3-16,4.33-23.17,8.79-7.24,1.45-13.21,5.89-20,8.45-4.09,1.54-7.92,3.78-11.87,5.7-2.79-3.7-2.47-7,1.06-11.37a4.27,4.27,0,0,1,1.33-.58c2.43-.36,3.6,1.54,5.11,2.83,2.16,1.75,3.76-.21,5.41-.95,7.24-3.26,14-7.45,21.14-10.9,3.6-1.74,7.55-2.53,11.06-4.48A3,3,0,0,1,1466.08,341.17Z"/><path class="48f207aa-ae83-4a1f-b3f8-33d7e77735b5" d="M1464.42,391.4l-2.35-.29a53.8,53.8,0,0,1,33.82-14.44c22-1.4,44.25-1.19,65.82,4.83,5.76,1.61,11.93,3.12,15.66,8.68-9.63,0-19.27.26-28.89,0-5.25-.17-10.11-2.63-15.49-3.12-8.74-.79-17.5-1-26.24-1.57-7.25-.49-14.5-1.89-21.81-1.11-7.1.75-14.13,1.82-19.68,7l-.41.11Z"/><path class="48f207aa-ae83-4a1f-b3f8-33d7e77735b5" d="M1501.17,229.25c6,7.5,13.76,13.38,19.69,21a154.77,154.77,0,0,1,14.41,22c1.78,3.33,2.4,5.6-2.73,5.18-.68-.06-1.42.64-2.14,1l-.58.66c-3.65,1.58-7.23,2-10.6-.68a1.32,1.32,0,0,1,.11-1.46,5.15,5.15,0,0,1,.78-.59c1.68-1.15,4.76.22,5.38-1.68.72-2.2-1.51-4.23-2.7-6.17-6.81-11.13-15.33-20.87-24.56-30-1.46-1.44-3.76-2.42-3-5.16A12.53,12.53,0,0,1,1501.17,229.25Z"/><path class="48f207aa-ae83-4a1f-b3f8-33d7e77735b5" d="M1495.24,233.31a171.58,171.58,0,0,1,27.69,32.08c.82,1.24,1.59,2.51,2.28,3.82,4.29,8.14,4.28,8.14-5,8.11-2-1.63-3-3.94-4.31-6.07-6.35-10.44-14.36-19.52-22.82-28.28-2-2.06-5.39-2-6.61-4.9.1-2.29,1.26-3.27,3.54-2.82Z"/><path class="48f207aa-ae83-4a1f-b3f8-33d7e77735b5" d="M1486.31,217.39a5.49,5.49,0,0,0,2.12-2.95,2.75,2.75,0,0,0,.54-2.78c-.56-1.49-1-3.16.88-3.82,2.57-.92,5.3-3.14,7.9-1.83s1.88,4.47.73,6.63c-2.32,4.35-5.09,8.46-7.58,12.72-.9,1.54-2.45,2.75-2.49,4.75-2.14,2.86-5.34,3.55-8.57,4.21-4.15-6.75-3.68-9.38,2.38-14.19C1483.52,219.1,1485.09,218.52,1486.31,217.39Z"/><path class="48f207aa-ae83-4a1f-b3f8-33d7e77735b5" d="M1480.14,234.12c1.17-4.61,5.57-2.55,8.27-4,1.91,1.28,2.09,3.11,1.64,5.14-1.14.83-2.74,1.23-2.8,3.05-1.56,3.06-4.37,3.12-7.16,2.72a3.53,3.53,0,0,1-3-3.85C1477.07,235.3,1477.46,233.45,1480.14,234.12Z"/><path class="48f207aa-ae83-4a1f-b3f8-33d7e77735b5" d="M1510.26,220.32c5.39,3.64,5.57,5.38.94,9a16.67,16.67,0,0,1-5-5Z"/><path class="48f207aa-ae83-4a1f-b3f8-33d7e77735b5" d="M1588.22,319.38c.12,2.64-.08,5.3.76,7.88.38,1.15.23,2.44-1.29,2.73-1.78.34-2.38-.81-2.4-2.33-.08-4.13,0-8.27-1-12.32-1.49-2.28-4.25-3.07-5.94-5.11l-.93-11q5.34-4.11,10.7,0c.28,2.63,0,5.48,1,7.85,1.19,2.94-4.33,3.35-1.86,6.27l.3,2.65C1587.37,317.19,1587.25,318.4,1588.22,319.38Z"/><path class="48f207aa-ae83-4a1f-b3f8-33d7e77735b5" d="M1588.1,299.21l-10.7,0c-.08-.65-.18-1.3-.25-1.94-1.1-9.79.26-10.86,10.11-8a.66.66,0,0,1,.28.59c0,.22,0,.34-.11.34Z"/><path class="48f207aa-ae83-4a1f-b3f8-33d7e77735b5" d="M1578.33,310.23c3.22.25,7.29-.46,5.94,5.11-3.63-.19-7.39.82-10.83-1.16C1572.5,309.69,1575.88,310.53,1578.33,310.23Z"/><path class="48f207aa-ae83-4a1f-b3f8-33d7e77735b5" d="M1587.43,290.24c-.07-.31-.13-.62-.17-.93,2.91-1.83,6.11-.86,9.18-.87,2,0,1.74,1.65,1.56,3-.27,2-1.54,1.58-2.43.67C1593.21,289.65,1589.66,292.91,1587.43,290.24Z"/><path class="48f207aa-ae83-4a1f-b3f8-33d7e77735b5" d="M1541.23,288.25c-3.62-.22-7.42,1.36-10.79-1.14-.81-2.92-1.59-5.83-.23-8.8l.19.11c3.54.25,7.22-1,10.6,1,1.91,1.09,2.06,2.91,2,4.82C1542.59,285.63,1542.73,287.3,1541.23,288.25Z"/><path class="48f207aa-ae83-4a1f-b3f8-33d7e77735b5" d="M1541.37,284.29c-.12-1.64-.25-3.27-.37-4.91a1.92,1.92,0,0,1,2.12-1.86,15.67,15.67,0,0,1,2.12,10.8C1540.51,290.28,1542.41,285.88,1541.37,284.29Z"/><path class="48f207aa-ae83-4a1f-b3f8-33d7e77735b5" d="M1480.14,234.12c-2.47.95-2.46,2.9-1.59,4.8s2.2,1.07,3.66.41,3.56.38,5-1c6.74.16,9.48,6,13.19,10a124.7,124.7,0,0,1,18.16,24c.91,1.61,1.79,3.17,1.65,5.09l-.92,0a3.79,3.79,0,0,1-1.54,2,13.11,13.11,0,0,1-9.83,0,2.75,2.75,0,0,1-1-1.1c2.8-3.79,1-6.84-1.38-10A200.09,200.09,0,0,0,1490.13,250c-2.71-2.83-5.29-4.37-9.05-2.41-5.23,2.13-7.89,7.19-11.9,10.7-2.33,2,2.54,1,2.2,3.11-.38.27-.87.89-1.43,1-8.2,1.17-15.39,5-22.72,8.48-1,.49-2.53,1.11-3.3.71-8.54-4.49-16.24,1.14-24.33,1.79-2.32.18-4.54,1.95-8.09.2,6.42-2.25,12-4.2,17.52-6.13,4.08-1.42,8.15-2.85,12.26-4.17,1.52-.49,2.89-.89,2.67-2.89,5.36-.09,8.6-3.2,11.39-7.44,2.91-4.41,6.91-8,10-12.35,1.12-1.6,2.47-3.17,2.6-5.29.82-2.75,3.42-4.49,4.17-7.28-4.49-4.26-4.78-9.34-3-14.84,3.37-2.82,6.21-.73,8.62,1.34a10.91,10.91,0,0,0,8.58,2.92,8.41,8.41,0,0,1-4.28,5.24c-3.52,2.14-4.45,4.48-2.22,8.1C1480.34,231.6,1480.05,233,1480.14,234.12Z"/><path class="48f207aa-ae83-4a1f-b3f8-33d7e77735b5" d="M1343.41,152.36a805.55,805.55,0,0,1,74.66,30.92c.31,5.6,5,2.1,7.35,3.55,13.79,7.85,28,15.06,41.49,24.78l-8.68,3.67c-10.74-5.3-20.59-12.12-31.17-17.73-23.43-12.42-47.78-22.64-72.61-31.82-3.84-1.43-8.12-2.09-11-5.44Z"/><path class="48f207aa-ae83-4a1f-b3f8-33d7e77735b5" d="M1343.4,160.29c11.74,3.17,23,7.83,34.2,12.37,14.49,5.85,28.82,12.15,42.74,19.28a367,367,0,0,1,33.77,19.31c1.61,1.05,3.72,1.7,4.12,4l-9,3c-17.33-11.53-35.83-20.85-54.83-29.25-15.19-6.72-30.63-12.81-46.26-18.42a8.66,8.66,0,0,1-4.78-3.35C1343.39,165,1343.4,162.63,1343.4,160.29Z"/><path class="48f207aa-ae83-4a1f-b3f8-33d7e77735b5" d="M1343.39,167.3c18.8,6,37,13.66,55,21.59a398.72,398.72,0,0,1,46.63,24.49c1.72,1,5.42,1.13,4.21,4.94l-5,2c-25.5-16.06-52.85-28.3-80.88-39.12-7.71-3-15.47-5.81-23.2-8.7C1344.45,172.73,1342.77,169.3,1343.39,167.3Z"/><path class="48f207aa-ae83-4a1f-b3f8-33d7e77735b5" d="M1428.28,238.2c-1.28-4-4.15-3.51-7.33-2.76-7.68,1.83-15.39,3.48-23.75,5.35,1-3.08,1.68-4.93,4.45-5.61,14.59-3.56,28.64-8.81,42.78-13.77l19.81-6.14c.73.86.43,1.86.41,2.84,0,3.28-1,7.06,4.19,7.5.75.07.94,1.26.79,2.14-1.75,3.26-4.07,5.29-8.05,3.76-4.23-2-7.94-.64-11.38,1.87-2.51,1.84-4.66,3.18-7.93,1-2.61-1.77-5.7.33-8.58.57C1431.69,235.68,1430.8,238.29,1428.28,238.2Z"/><path class="48f207aa-ae83-4a1f-b3f8-33d7e77735b5" d="M1469.27,227.26c-1.14-2-2.17-1.08-3.49-.07-2,1.57-3.23.8-2.66-1.64.78-3.4-2.21-7.19,1.12-10.28l4.87-2.14c2.35.6,1.41,2.36,1,3.53-1.5,4.2-.63,7.34,3.54,9.27,1.29.59.95,1.47.62,2.41C1472.28,229.43,1470.43,229.94,1469.27,227.26Z"/><path class="48f207aa-ae83-4a1f-b3f8-33d7e77735b5" d="M1601.17,323.28l.15-5.86c1.37.07,1,1.62,1.8,2.15-.15,3.32.61,6.7-.32,10.14-2-.74-1.24-2.3-1.59-3.4C1600.5,325.31,1600.24,324.3,1601.17,323.28Z"/><path class="48f207aa-ae83-4a1f-b3f8-33d7e77735b5" d="M1601.17,323.28c0,1,0,2,0,3-3-.36-3.06-2.72-3.52-4.92C1599.69,320.68,1600.06,322.64,1601.17,323.28Z"/><path class="48f207aa-ae83-4a1f-b3f8-33d7e77735b5" d="M1541.37,284.29c1.12,1.5.59,4.6,3.87,4,0,.33,0,.66,0,1-2.12-.13-3.15.85-3,3-1.27-1.11-.91-2.64-1-4.05S1541.32,285.61,1541.37,284.29Z"/><path class="48f207aa-ae83-4a1f-b3f8-33d7e77735b5" d="M977.59,173.14a52.25,52.25,0,0,0-12.38-1.09q-86.16-.12-172.33-.22c-3.35,0-4.6,1.27-5.56,4.11-6.26,18.5-12.67,36.94-19,55.43-5.43,16-10.76,31.95-16.14,47.93,1.51,4.52,5.77,3.37,8.8,3.72,22.74,2.59,45.45,5.48,68,9.41,11.3,2,22.87,2.6,33.91,6,.41.11.81.25,1.22.38,9.69,1.14,19.46,0,29.17,1.31,4.17.54,7.29,1.58,9.16,5.41l.07.06a9.61,9.61,0,0,0,4.79,2.32c14.23,3.27,28.27,7.27,42.33,11.2,2.2.61,4.45,1.52,6.77.27.82-2.49,1.78-4.94,2.45-7.47,3.26-12.47,6.3-24.93-6.62-35.44,10.92-1.05,18-6.34,22.88-14.25,13.24-21.28,18.64-44.89,18.93-69.63C994.2,181.69,988.2,175.74,977.59,173.14ZM871,249.27v-.67c-16,0-32-.07-48,.06-3.57,0-4.33-.81-2.81-4.18,3.15-7,6.07-14,8.9-21.11.93-2.32,2.12-3.26,4.71-3.23,31,.35,61.95-.25,92.91,1,4.27.17,5.63,2,5.42,5.85a38.46,38.46,0,0,1-5.49,17.92c-1.88,3.14-4.44,4.5-8.23,4.46C902.65,249.18,886.83,249.27,871,249.27Z"/><path class="48f207aa-ae83-4a1f-b3f8-33d7e77735b5" d="M722.82,275.36c-3.68,0-7.28-.76-10.92-1q-26.85-1.68-53.72-3c-15.61-.75-31.25-.17-46.88-1.06-10.77-.61-21.6.47-32.39.64-17.3.28-34.57.91-51.86,1.37-4.38.12-9,0-12.9,2.91a20.74,20.74,0,0,0-1.48,2.52q-13.23,32-23.89,64.93a48,48,0,0,0-2.48,16.68c.54,14.19,7.75,22,21.77,23.32,3.31.31,6.64.45,10,.52,56.6,1.25,113.2,1.05,169.81,1.13,3.15,0,4.55-.84,5.6-3.94,7.88-23.25,16.07-46.39,24-69.63,3.69-10.8,8.2-21.33,10.8-32.5A5.86,5.86,0,0,0,722.82,275.36Zm-58.21,26.18q-5.75,15.66-11,31.52c-.89,2.67-2.19,3.57-5,3.53-30.27-.5-60.56-.76-90.81-2.32-8.82-.45-11.39-3.75-9.06-12.27a175.51,175.51,0,0,1,6.46-18.28c1.66-4.21,5.13-6.37,9.66-6.79,10.81-1,21.62-.05,32.43-.17,6-.07,12,0,18,0v.57c15.47,0,31,.1,46.42-.07C665.45,297.21,665.81,298.26,664.61,301.54Z"/><path class="48f207aa-ae83-4a1f-b3f8-33d7e77735b5" d="M728.25,278.32c-5.28-1.88-10.89-1.22-16.3-1.73-13.87-1.31-27.86-1.31-41.77-2.35-15.3-1.13-30.65-.13-45.89-1.18a295.68,295.68,0,0,0-33.92-.56c-21.27,1-42.56.72-63.82,1.9-4.13.23-8.22,1.19-12.4.89A72.13,72.13,0,0,1,523,257a12.58,12.58,0,0,1,10.45-5.91c5.15-.14,10.32-.21,15.48-.17,36.32.31,72.64-.62,108.95-1.32,7.66-.15,15.33-.34,23-.27,2.85,0,4-.82,4.61-3.74,1.42-6.49,2.92-12.94,3.13-19.62.12-4-1.15-5.77-5.73-5.81-49.82-.49-99.63-1.22-149.45-1.89-1.13,0-2.25-.11-3.93-.19,4.8-12.19,9.45-24,14.13-35.86,4-10,4-10,14.93-10,58.32.06,116.63-1.2,174.95-.17,12.49.22,19.1,4.77,22.15,15.26a22.74,22.74,0,0,1,0,13.78c-8.58,24.89-17.34,49.72-26.07,74.56A20,20,0,0,1,728.25,278.32Z"/><path class="48f207aa-ae83-4a1f-b3f8-33d7e77735b5" d="M903.21,305.33a467.93,467.93,0,0,1,53.22,14.1c-5.6,19.55-13.85,37.7-28,52.66-7.08,7.49-15.71,11.07-26.25,11.05-60.29-.09-120.57.1-180.85.2h-5.14c2.12-6.14,4.1-11.85,6.07-17.58q14.46-42.12,28.93-84.25a22.17,22.17,0,0,1,1.05-2.2c5.8,2.17,12,2.22,18,2.88q36.57,4,72.74,10.59c7.13,1.29,14.46,1.73,21.3,4.48-1.94,2.5-4.76,2-7.36,2.05-15.49.06-31,0-46.45,0-6.94,0-7.18.16-9.34,6.48-2.75,8-5,16.2-7.71,24.26-1.43,4.32-.83,5.14,3.59,5.16,19,.07,38,.62,56.93-.23,8.93-.41,17.92-.33,26.87-1.39,7.81-.92,12.25-5.33,15.5-11.7a49.09,49.09,0,0,0,3.87-11.83C900.59,308.12,901,306.13,903.21,305.33Z"/><path class="48f207aa-ae83-4a1f-b3f8-33d7e77735b5" d="M489.21,277.32c-5.67,17-12.72,33.42-19.25,50.05-4.67,11.88-9.44,23.73-14.86,35.27-3.92,8.34-9.2,15.93-19.2,18.1-1.77.38-3.6.46-5.4.67-12.94.9-25.9.28-38.85.31-3.62,0-5.5-2.47-6.43-5.91-1.81-6.66-.68-13.56-1.84-20.31-.75-4.37-.14-8.94-.79-13.41a6.49,6.49,0,0,1,2.68-6.59c5.29-.28,10.59-.82,15.88-.78,7.74,0,12.13-4.36,15.39-10.6,5.29-10.15,8.57-21.12,12.8-31.71l4-10.11c2.64-2.42,6-2.66,9.3-3,12.73-1.26,25.46-2.42,38.18-3.71C483.76,275.3,486.85,274.62,489.21,277.32Z"/><path class="48f207aa-ae83-4a1f-b3f8-33d7e77735b5" d="M385.27,335.5c-1.83,6.72-.28,13.54.33,20.13.59,6.39,0,12.85,1.4,19.24,1.05,5,3.51,6.53,8.2,6.49,11.76-.11,23.53,0,35.3.05-2.18,1.16-4.56.86-6.86.86q-85.39,0-170.78,0c-1,0-2-.1-3.44-.18,5.4-15.43,10.72-30.57,16-45.74,1-2.77,3.21-1.9,5-1.88,23.46.28,46.93.67,70.39.92C355.64,335.5,370.46,335.45,385.27,335.5Z"/><path class="48f207aa-ae83-4a1f-b3f8-33d7e77735b5" d="M489.21,277.32c-13.73.66-27.39,2.06-41,3.73-4.92.61-9.89.84-14.84,1.25q13.71-39.92,27.41-79.84c3.06-8.92,6.2-17.82,9-26.81.84-2.68,2-3.74,4.84-3.72,17,.11,34,0,51,0,2.31,0,4.32-.38,2.87,3.39Q509,225.89,489.82,276.54A4,4,0,0,1,489.21,277.32Z"/><path class="48f207aa-ae83-4a1f-b3f8-33d7e77735b5" d="M1226.42,399.41l-2.19,2.88c-.63,4.39-2.28,5.83-7.28,4.65-4.44-1.05-9.44-.1-14.19-.18-1.79,0-4.11.59-4.4-2.37-.46-7.12-2.79-9.46-9.57-9.6-4.78-.1-10,4.6-10.36,9.33.91,2.84-1.26,4-3.08,3.84-6.8-.76-13.28,2.55-20,1.29-2.82-.53-6.75-.06-6.12-5-1.16-4.33-3.49-8.35-3.34-13.07.06-1.68-1.53-1.82-3-1.82-13.14,0-26.28,0-39.42-.09-2.65,0-2.78,1.73-3.28,3.47-1.46,5-3.46,9.66-8.19,12.53-3.25,3.83-7.06,4.17-11.8,1A19,19,0,0,1,1074,391.5c.08-2.48-1.27-3.45-3.76-3.24a55.72,55.72,0,0,1-5.92-.08A2,2,0,0,1,1066,386c8.76-1.48,17.46-4.33,26.48-1.61,6.65.42,13.31,1.13,19.91-.46l1.29-1c5.32-1.9,10.74-.36,16,0,6.15.36,12.3.14,18.43.54,2.31.15,3.83-.67,4.35-3.08.28-1.3.73-2.56,1.12-3.83,1.8-6,2.89-6.76,7.28-5.18,5.85,2.12,7,4.52,4.69,10.13-.21.63-1.46.25-1.21,1.31,1.87,1,2.8,2.7,3.92,4.28,1.09,2,.91,4.53,2.86,7,3.82-5.31,3.62-11.13,3.62-16.9a49.68,49.68,0,0,0,0-6c-.35-2.81-.86-5.65-4.22-6.6-1.94-.54-3.5-1.37-2.67-3.82.72-2.16,1-4.57,4.09-5,3.47-.43,6,1.25,8.52,3.12-.44-1-1.54-1.05-2.35-1.52-6.36-3.74-10.61-1.45-10.54,6,0,3.65-1.24,5.3-4.79,5.35-.82,0-2.07.18-2.36-.35-2.16-4-6.77-4.12-9.89-6.54-.6-3.78-2.91-4.68-6.53-4.77-2.68-.06-6.8,1.85-7.64-3.18,1.18-1.18,2.71-1.1,4.18-1.07,6.75.11,13.5-.41,20.24.17,2.24.2,3.83-.47,4.83-2.55,2.17-4.51,5.65-6.24,10.55-4.82,2.09.5,4.12,1.27,6.33,1.25a3.87,3.87,0,0,1,4,2.48c1.2,3.68,4.27,4.19,7.36,5,10,2.59,20,4.94,29.92,7.61,2.4.64,5.46.89,5.63,4.52-3.82,3.83-8.46,1.73-12.8,1.76-7.11-.64-14-2.72-21-4-6.65-1.19-6.61-1.37-8.15,5-5.61,4.11-2.93,10.58-4.42,15.86-.25.87,1,1.06,1.88,1.13q12.51.92,25,1.3c3,.79,6,1.76,7.53,5,1.47-1.41,1-3.22,1.51-4.7a13.83,13.83,0,0,0-.08-9.37,13.82,13.82,0,0,1-.11-1.58,21.88,21.88,0,0,0-.41-2.4c-1-5.32.8-6.8,6.33-5.14.31,5.7-1.69,11.25-1,17,.28,2.27,0,4.61.94,6.77C1225.43,395.2,1227.66,396.81,1226.42,399.41Z"/><path class="48f207aa-ae83-4a1f-b3f8-33d7e77735b5" d="M1062.06,352.33a4,4,0,0,1,.06-5,7,7,0,0,1,3.26.73,6.83,6.83,0,0,0,3.31.7c1.76-.27,1.87-1.61,1.93-2.92.11-2.53-1.74-1.73-3.1-1.75a5.11,5.11,0,0,1-4.12-1.7c2.74-8.46,3.78-17.23,4.84-26,3.41-.93,6.73.13,10.1.41,8.37,2,16.88.46,25.32.88a245.32,245.32,0,0,0,39.36-.95c4.52.25,8.78-1.69,13.29-1.66a3.73,3.73,0,0,1,3.41,3.76c-.09,9.24,2.1,18.53-.38,27.73-1.43,5.29-2.67,6.32-8,6.27a59.82,59.82,0,0,0-18.14,2.3c-3.09.93-6.29-.29-9.43-.24-12.49.18-25-.22-37.47.32-6,.25-12.27.79-18.1-2C1066.37,352.27,1063.92,354.25,1062.06,352.33Z"/><path class="48f207aa-ae83-4a1f-b3f8-33d7e77735b5" d="M1242.12,323c1.73-6.54,6-8.27,12.58-8.13,19.94.4,39.9.16,59.85.16,1.66,0,3.31,0,4.76,1a6.75,6.75,0,0,1-.13,6.57c-2.13,4.13-.71,8.79-.87,13.23,0,1.42.94,2.94-.46,4.22-6.76,2.88-13.79,2.56-20.86,1.87-13.1-.33-26.2-.06-39.28-.13a41.52,41.52,0,0,1-7.4.33c-5.31-.43-6.33-1.67-5.36-7a21.55,21.55,0,0,1,1.15-4.8c.61-1.43.52-2.91.84-4.24-.3,3.79-1.67,7.45-2.43,11.25-.71,3.53-3.54,3.95-6.65,2.79C1235.21,335.71,1237.3,327.35,1242.12,323Z"/><path class="48f207aa-ae83-4a1f-b3f8-33d7e77735b5" d="M1242.12,323c-1.23,3.77-2.62,7.49-3.61,11.31-.42,1.59-1.76,3.39-.1,5.1.47,2.88.26,5.39-3.31,6.07-2.13-1.3-2.34-3.48-2.61-5.65-.68-5.55-.69-5.55-6.29-5.41-2.67-.17-4.11-1.91-5.16-4.08a73.48,73.48,0,0,1-3.14-7.83c-4.06-11.7-11.91-20.47-21.94-27.24-4.62-3.11-3.89-7.61-4.69-11.86-.25-5.92.32-11.85-.93-17.77-.89-4.23.37-5.3,5-5.5,13.65,11.56,27.21,23.24,41,34.61,3.68,3,5.31,6.12,5.16,11C1241.38,311.5,1240.14,317.36,1242.12,323Z"/><path class="48f207aa-ae83-4a1f-b3f8-33d7e77735b5" d="M1074.3,282.39c-.85-5.3.91-10.23,2.59-15,2.25-6.48,7.67-8.68,14-9,13-.68,26-1.87,39-1.8,8.56,0,17.3.45,25.6-.68,6.87-.93,13.18.2,19.74.54,1.5,1.63,3.49,1.34,5.42,1.44s3.91-.63,5.52,1a3.38,3.38,0,0,1,.64,3c-1.89,3.39-4.86,2.88-7.86,2.13-9.14-2.28-11.15-1.17-14.17,7.91-2.09,6.27-4.37,7.85-11.16,7.15-5.61-.57-11.18-1.52-16.85-1.25-17.12.23-34.25,0-51,0,1.88,1.49,6.34-2.93,7.12,2.72a2.85,2.85,0,0,1-.91,1.51C1086.15,283.45,1080.29,286.35,1074.3,282.39Z"/><path class="48f207aa-ae83-4a1f-b3f8-33d7e77735b5" d="M1164.06,381.48c1.71-2,2.07-4.75.42-6.32s-4.57-2.48-7.06-3.18c-1.11-.31-1,1.39-1.22,2.3-2.88,11.05-2.91,10.68-14.1,11.17-7.1.31-14.12-2.36-21.19-.33-2.32.66-4-3.84-6.5-.78-2-4.06-5.37-5.15-9.68-4.58-3.09.4-6.26-.3-9.34.43a2.9,2.9,0,0,0-1.68,3,5,5,0,0,1-.38,1.86,8.52,8.52,0,0,1-.77,1c-6.6-1.92-13.16-.42-19.6.69-2.88.49-6-.41-8.66,1.41a5.7,5.7,0,0,1-6-4.76c-1-5.15-1.07-10.36,2-15,2.33-2.66,5.56-1.6,8.43-2.08,1.08-.18,2.65,0,2.56-1.64-.06-1.2-1.41-1.12-2.33-1.41-1.88-.58-4.59.13-4.87-3,.08-.61.16-1.23.23-1.84.94-5.6.94-5.6,6.41-4.7a29.85,29.85,0,0,0,4.43.12c5.36.07,5.75.51,5.27,6.1a19,19,0,0,1-1.11,2.21c-3.33,7.08-1.47,10.7,6,11.19a351.26,351.26,0,0,0,41.68,0c2.84-.16,4.19-1.52,4.79-4.07.65-2.74,1.08-5.52,1.63-8.28.5-2.34-1.33-5.71,2.84-6.41,3.29,1.59,6.78.59,10.17.73,5.82.23,6.17.59,4.59,6.4-2.71,2.36-6.06,1.07-9.09,1.62-1.17.21-2.54.3-2.41,1.87.1,1.31,1.46,1.25,2.38,1.21,4.06-.2,8.29,1.15,12.14-1.38,1.38-.91,3.13-.82,3.86.84,1,2.32,3,2.4,4.94,2.62,1.1.13-.37-.69.15-1,1.74-.25,3.08-.72,3.28-2.94s1-4.15,1.42-6.25c.72-4,3.49-4.34,6.71-3.9s5.15,3.48,8.56,3.52c1,0,1.48,1.64,1.17,2.91a2.78,2.78,0,0,1-2.51,2.1c-1.42.19-2-.85-2.32-2.08-1-4.49-4.63-3.36-7.62-3.48-2.26-.09-2.55,1.78-3,3.31-.42,1.29-.25,2.47,1.56,2.07,4.07-.92,4.74,2.12,5.51,4.8.93,3.22.51,6.57.44,9.87-2.9,0-1.94-3-3.49-4.4-2.57,1.09-2.12,3.7-2.73,5.74-.87,2.89-.08,6.32-2.81,8.6l-4-3.77A3.49,3.49,0,0,1,1164.06,381.48Z"/><path class="48f207aa-ae83-4a1f-b3f8-33d7e77735b5" d="M1136.3,354.54c-1.54,2.06-.74,4.52-1.12,6.77-2.1,1.42-4.5,1.17-6.8,1a388.22,388.22,0,0,0-43.42,0c-2.19.12-4.37,0-5.84-2-1-1.94,2.16-5.26-1.85-6.12-6.74-1.45-11.53.22-12.94,4.26.41-2.46-1.93-3.89-2.27-6.06,4.3-1.79,8.33.78,12.46.81,20.46.18,40.93.29,61.38-.05,6-.1,11.89-2.47,18-1.85a2.34,2.34,0,0,0,2.63-1.89c.49-4.64,3-8.76,1.55-14-1.28-4.52-.41-9.71-.12-14.59.14-2.42.46-4.4-2.79-4.47a1.11,1.11,0,0,1,.11-1.43,3.86,3.86,0,0,1,2.13-1,9.5,9.5,0,0,1,5.86,1.55c2,.7,3.94.07,5.92-.14s2.87-1.32,3-3.26c.49-6.63,1.44-13.23.8-19.89-1.46-3-5.71-4.17-5.22-8.35,1.62-2.19,3.71-1.4,5.23-.29,4,2.92,8,5.64,13,6.43a3.59,3.59,0,0,1,2.43,2.3c1.49,8-.17,15.89-.63,23.77s-.54,15.56-1.44,23.33c-1,8.24-1.71,9.26-10.22,8-5-1.57-8.32-.29-9.29,5.34-.55,3.21-3,2.89-5.39,2.48C1153.18,353.77,1144.74,354.13,1136.3,354.54Z"/><path class="48f207aa-ae83-4a1f-b3f8-33d7e77735b5" d="M1077.27,318.29c-3.24.42-6.38.35-9-1.94l-1-1.05c-2.18-3.45-.14-6.92,0-10a49.37,49.37,0,0,1-1.84,8.15c.39,3.37-1.9,3.7-4.36,3.82-3.15.17-2.85-2.17-2.86-4.11s.32-3.65.4-5.47c.16-4.17,2.64-7.91,2-12.32a3.39,3.39,0,0,1,3.52-3.95c3.32-.12,2.12,2.17,2.22,3.77.06,1-.06,2.08,1.47,1.94,2.39-.23,1.9-2.37,2.5-3.78a1.05,1.05,0,0,1,1.3.07c2.28,4,.13,8.06.13,12.09,0,4.25.16,4.53,3.91,2.84,6.91-3.11,9.53-8.06,8.15-15.19a3.83,3.83,0,0,0-2.11-2.53c-1.34-.9-3-1.53-3-3.6.86-2.27,3-2.19,4.87-2.7,2.94-.81,6.34-.26,8.68-2.87l-.12-.18c.69-.48.86-2.15,1.17-1.88,3.5,3,6.75-.25,10.09-.23,1.51,3.78,4.32,4.93,8.25,4.39,2.29-.31,4.65-.06,7-.15,1.67-.06,3-.41,3.13-2.38a3.43,3.43,0,0,1,1-1.83c4,2.51,8,.54,12,.17a4,4,0,0,1,.94,2c.42,3,2.74,2.89,4.91,2.94,4.47.08,8.95,0,13.42.05,2.48,0,5-.05,7.13,1.57a1.59,1.59,0,0,1,.18,1.59c-1.7,1.92-4.14,1.74-6.35,2.22a93.33,93.33,0,0,1-23.32,0c-8.83-1.11-9.6-.56-12.28,7.9-1.82,5.74-1.57,11.8-3.25,17.53-4.71,5.05-10.86,3.43-16.37,2.82-4.66-.53-9.22-1-13.78-.13C1083.1,318.43,1080.15,317.42,1077.27,318.29Z"/><path class="48f207aa-ae83-4a1f-b3f8-33d7e77735b5" d="M1361.24,335.41c0-16.57.13-33.13,0-49.7,0-4.18.62-6.3,5.63-4.74,2.94.91,6.32.42,9.52,1.18-3.58,0-7.16.06-10.75,0-1.29,0-2.75-.7-3.28,1.12s.08,2.93,2,3.21a6.87,6.87,0,0,1,1.82,4c.55,2.65,2.14,3.9,4.92,3.93s3.79-1.54,4.17-3.93a6.45,6.45,0,0,1,1.78-4c3.24,1.22,4.16,4.38,2.12,7.57-.44.69-2.25,1.55-.66,2,4.41,1.17,2.62,4.4,2.65,6.88.1,9.47,0,18.95,0,28.42,0,1.45-.35,3,1.1,4.13,6.66,2.41,7.13,3.82,6.77,11.45-.29,6.21-1.91,12.47-.12,18.7,1.19,7.52-1.13,15.05.08,22.57-.08,2.22-.42,4.44-.32,6.7.07,1.45.44,2.51,2,2.73a5.3,5.3,0,0,1,3.44,1.19c1.46,2.25,0,3.27-1.81,3.95s-3.28,1.33-4.19,3a2.42,2.42,0,0,1-1.25.66,6.36,6.36,0,0,1-.84-4.25c.07-1.81-.52-3.05-2.45-2.72-4.58.79-4.7-2-4.52-5.26.11-2,.06-3.93.09-5.89-2.59-3-3.22-6.46-2.7-10.25a108.39,108.39,0,0,1,0-19.15,26,26,0,0,0,.18-2.64c-.09-5.88.22-11.77-.18-17.65-3.57-2.7-7.12-2.8-10.67.07-.33,5.84-.06,11.68-.14,17.52a23.38,23.38,0,0,0,.16,2.64c.73,6.05.34,12.12.27,18.18-.42,3,.6,6-.53,8.93a4.38,4.38,0,0,1-1.28,2.33c-1.74,2.41-.67,5.15-.83,7.74-.13,2.05-.35,3.61-3,3.41-2.23-.17-4.39,0-4.26-3.32.07-2,.49-4.19-.87-6.74-2.74,4.09.43,8.6-2.16,12-2.47,1.5-4.68,2.14-5.43-1.73,4.31-5.44,5.43-12.09,6.29-18.6.84-6.35-.38-12.86.6-19.25a6.18,6.18,0,0,0,.18-6.31,57.5,57.5,0,0,0-1.11-10.79C1353.39,339.25,1356.66,336.8,1361.24,335.41Z"/><path class="48f207aa-ae83-4a1f-b3f8-33d7e77735b5" d="M1233.13,406.21c-4.68-4.88-3-11.2-3.83-17-3.13-.41-4-2.66-3.85-5.28.1-2.11.32-4.22.32-6.34a11.18,11.18,0,0,1,1.53-6.94c3.57-2.73,6-2,7.16,2.14.83,3.05-.21,5.94-.85,8.85-1.12,5-1,5.2,4.21,5.93a40.31,40.31,0,0,0,5.49.2c19.82,0,39.63,0,59.45,0,11.57,0,11.71-.15,14.39-11.21.88-3.61.87-7.88,5.67-9.09a3.83,3.83,0,0,1,1.75.12c3.24,2.21,2.54,5.32,1.92,8.41-.34,1.76-.11,3.63-1,5.26-.59,1.45-4.19,1.21-2.29,4.07.9.93,1.3.35,1.78-.49,1.81-3.12,2-6.57,2.35-10.05.33-3.71.89-4.15,3.92-4.47a19.17,19.17,0,0,1-.18,14.93c-1.68,4.22-1.42,8.24-1.62,12.43-.13,2.9-.66,5.78-1,8.67-5.43,2.93-10.85,3.22-16.25-.08-3-2.93-2-6.85-2.29-10.34-.24-2.62-.65-3.77-3.63-3.72-11.48.17-23,.11-34.44,0-2.35,0-3.82.37-3.71,3.16.17,4.05-3.17,7.62-1.66,11.87-3,2.8-6.08,2.52-9.1,0,1.28-4.94-1.39-9.51-1.42-14.41,0-3-3.84-1.1-5.9-1.44-1.64-.26-3.49-.65-4,2.25-.69,4-.48,8.41-3.71,11.64C1239.6,410.1,1235.92,410.46,1233.13,406.21Z"/><path class="48f207aa-ae83-4a1f-b3f8-33d7e77735b5" d="M1176.24,347.37c7.72-.14,7.63-.14,8-7.86.88-16.08,1.87-32.15,2.81-48.22a5.31,5.31,0,0,1-1.6-4.5c1.37-8.48.25-17,.78-25.51l-.91-1.8a9.57,9.57,0,0,1,9.74,0,3.77,3.77,0,0,1,.26.66c-3.81,1.17-4.06,3.31-2.84,7,1.84,5.51.32,11.41.7,17.13a3.93,3.93,0,0,0-.43,3.36c2.69,12.21-.51,24.46.36,36.69.23,3.2.86,5.88,3.52,7.82a40,40,0,0,1,12.55,15.26,10.74,10.74,0,0,0,7.9,6.16c3.4.76,6.68,2,10,3,2.25.68,4.48,1.47,5.32,4,.46,2.42,0,4.51-2.21,5.92a1.82,1.82,0,0,1-1.6-.21c-4.24-3.53-9.72-3.47-14.66-4.86-8.4-2.38-17-4.23-25.43-6.35-.78-.19-2.12-.63-2.14-1C1186.1,347.16,1180.07,348.93,1176.24,347.37Z"/><path class="48f207aa-ae83-4a1f-b3f8-33d7e77735b5" d="M1015.73,353.18c0-1.24.53-2.67-.73-3.7-6.69-.17-6.69-.17-6.81,6.6,0,.81-.14,1.61-.21,2.42-3.37.95-6.93-.45-10.27.86-6.29,2.23-8.9,6.9-8.86,13.35,0,5.31,1.51,10.21,6.74,12.16a31.18,31.18,0,0,0,19.71.41C1016.35,374.59,1015.48,363.88,1015.73,353.18ZM1008,368.35c0,3.61-.11,7.22-.17,10.83-1.32,0-2.64,0-3.95,0-4.58-.1-7.12-2.13-6.73-7a33.11,33.11,0,0,0,0-3.45c1.84-4.61,5.88-3.32,9.32-3.34C1008.35,365.32,1008,367.11,1008,368.35Z"/><path class="48f207aa-ae83-4a1f-b3f8-33d7e77735b5" d="M1387.45,334.08c4.78-.34,5.11-3.33,5-7.33-.31-8.81-.16-17.63-.14-26.45,0-2.14,0-3.49-3-4-3.82-.61-2.8-4.37-3.07-7.09-.31-3.18,2-2.84,4-2.84a23.89,23.89,0,0,0,3.49,0c3.51-.55,4.65.89,4.58,4.38-.17,8.47,2,16.9,1.68,25.26-.33,7.82.29,15.55.23,23.31-.13,14.86,3.82,29.36,3.88,44.22a101.43,101.43,0,0,1-.76,15.88c-4.43,1.12-5.44.37-5.54-4.43-.3-15.1,0-30.2,0-45.29,0-1.83.06-3.66-.06-5.49-.29-4.39-1.87-7.73-6.83-8.33A4.48,4.48,0,0,1,1387.45,334.08Z"/><path class="48f207aa-ae83-4a1f-b3f8-33d7e77735b5" d="M1440.42,302.37c3.44-2.55,5.89-6,8.7-9.18,2.64,4.83,7.58,8.52,7.26,14.81-.83,9.63.92,19.08,1.85,28.59a8,8,0,0,1-5.21,7.24c-1.29.52-2.31,2.46-3.91,1.24s-1-2.9-.67-4.61c.29-1.52,1.47-3.91-1.9-3.74-4.51,2.32-1.47,5.84-1.42,8.88-.28,2.41-1.15,3.49-3.95,4.4-4.13,1.34-3.75-.37-3.49-3,.21-2.17.34-4.3-2.22-5.31-2.87-5.23-2.44-10.8-1.28-16.3a3.85,3.85,0,0,1,4.87-3.11c1.2.29.91-.16.76-.79-.07-.33-.16-.64-.21-1a4.37,4.37,0,0,1,1.79-3.19c1.28-.77,2.47-1.91,4.16-1.09,1.31,1.06,1.46,2.79,2.36,4.94.51-3.45,1-6,.09-8.65-.43-1.42-.22-2.94-.76-4.71-1.75-.32-3.43,1.93-5.32.66C1440,306.79,1441.18,304.33,1440.42,302.37Z"/><path class="48f207aa-ae83-4a1f-b3f8-33d7e77735b5" d="M1039.84,368.23c-.64-2.5-2.57-3.22-4.81-3.34a46.47,46.47,0,0,0-7.82-.11c-4.44.51-6.05-1.14-5-5.45,6.38-.55,12.77-1.47,19.08.49,3.06,1.11,5.31,2.92,5.55,6.46,1.67,6.33.94,12.71.4,19.08-7.29,1.86-14.72,1.54-21.93.21-5.32-1-6.46-6.17-3.62-12.55,2.6-4.44,7.18-3,11-3.7C1035.12,368.9,1037.74,370.23,1039.84,368.23Z"/><path class="48f207aa-ae83-4a1f-b3f8-33d7e77735b5" d="M1440.14,320.2c1.94,2.67,1.26,5.46.57,8.89-2.2-1.86-.74-4.24-1.9-5.75-3.89,1.92-5.08,10.85-2.41,18.08a1.41,1.41,0,0,1-.12,1.32c-.48.47-1.3,1.12-1.66.82-3.4-2.8-2.84,1.19-4,2.25a2.16,2.16,0,0,1-2.75.5,15.43,15.43,0,0,1-.87-9.16c.5,3.17-1.47,7.36-2.2,11.78-.45,2.72-1.39,5.17-4.32,6.19l-1.7.21c-1.23.47-2.15,1.88-3.75,1.21a3.54,3.54,0,0,1-.89-1.07c-.79-3.39-.24-6.85-.39-10.28s2.87-4.79,5.58-6.95c-3.29-.91-4.45,2.94-7,1.95-1.66-1.92-1.32-3.78.6-5.11,2.67-1.83,3.3-6.25,7.81-5.85,1.37.12,1.25-1.7,1.26-2.83.06-3.47,2.1-5.23,5.19-6.1,2.49-1.27,1.73-3.8,2.26-5.82l5.52-4.54c1.89.85,1.87,3.42,3.82,4.23C1440.44,315.93,1439.41,318.25,1440.14,320.2Z"/><path class="48f207aa-ae83-4a1f-b3f8-33d7e77735b5" d="M1428.28,238.2c1.34-1.65,2.4-3.55,4.32-4.66,7.21,3.37,14.39,6.82,21,11.29,1,2.36,2.34,1.59,3.7.36a70,70,0,0,0,6.81-7.07c1.3-1.56,2.47-3.62,5.13-2.8-1.13,6.42-6.63,10-9.8,15.11-1.56,2.5-3.54,4.75-5.34,7.1-2.67,3.51-5.81,5.33-10.15,2.8C1438.61,253.05,1432.71,246.15,1428.28,238.2Z"/><path class="48f207aa-ae83-4a1f-b3f8-33d7e77735b5" d="M1317.09,158.32v6.85c-20.39-6.22-40.84-12.24-61.67-16.85q0-3.49,0-7c2.07-1.9,4.41-1.11,6.61-.52,16.37,4.32,32.78,8.51,49,13.58C1313.37,155.14,1315.71,156,1317.09,158.32Z"/><path class="48f207aa-ae83-4a1f-b3f8-33d7e77735b5" d="M1486.27,300.3a6.19,6.19,0,0,0-.11,1.48c1.36,8.53.12,15.61-9.88,17.85-3.87-3-3.71-8.63.7-9.48,5.79-1.11,5.43-4.69,5.23-8.79-.22-4.51-2.24-7.11-7-7-.47,0-.89-.42-1.29-.73-1.92-3.35-1-6.17,2.66-6.67,4.22-.59,6.54-2,6.43-6.51,0-.8.76-1.42,1.38-2a45.41,45.41,0,0,1,11.82,0c2.69,2.4,2,5.67,2.21,8.69a6.51,6.51,0,0,0,0,1c2,10.72,1.43,11.47-9.3,11.71A4.55,4.55,0,0,0,1486.27,300.3Z"/><path class="48f207aa-ae83-4a1f-b3f8-33d7e77735b5" d="M1341,355.19c.31-10.78,1.65-21.67.63-32.33s1.5-21.13.49-31.68c-.34-3.55.75-5.44,4.67-4.78a18.63,18.63,0,0,0,3,0c6.56,0,7,.82,5.83,7.22-.52,2.78-1.95,3.21-4.06,2.82-4.66-.85-5.5,1.3-5.35,5.48q.46,13.2,0,26.42c-.13,3.81.85,5.54,4.78,4.89,1.49-1,3-1.32,4.37.11a1.3,1.3,0,0,1-.37.83,5.36,5.36,0,0,1-3.81,2c-5.29,1-6.28,2.14-6.43,7.42-.07,2.47,0,4.95,0,7.43,0,1.63.14,3.35-1.36,4.56A2,2,0,0,1,1341,355.19Z"/><path class="48f207aa-ae83-4a1f-b3f8-33d7e77735b5" d="M987.13,385.21c-6.49,1.94-13,2-19.17-.88-3.82-1.78-5.48-5.48-5.57-9.38-.2-8.45.11-16.9.21-25.35,6.62-1.86,7-1.49,7.19,4.91.19,6.73-.8,13.51.64,20.2,1.06,3.6,3.91,4.73,7.22,5.06,1.81.19,3.65,0,5.47.05C988.22,379.86,988.22,379.86,987.13,385.21Z"/><path class="48f207aa-ae83-4a1f-b3f8-33d7e77735b5" d="M1318.18,339.42c-1.4-1.24-3.31-2.2-2.07-4.69a3.93,3.93,0,0,0,.14-2.43c-1.29-5.86,2-10.83,3.06-16.24,1.59.48,1.75,1.87,2,3.18,1,5.9.55,11.92,1.69,17.78,1.11-1.94.16-5.79,4.44-4.89,3.64-.55,5.65.49,5,4.69-.3,2.12.1,4.33-.07,6.47s1.16,4.93-2.57,6.07c-2,.62.6,2.47.21,3.83-1.08.38-3-.42-2.47,2.11a2.71,2.71,0,0,1-2.08,3.39c-1.63.3-2.27-1-2.62-2.32-.39-1.46-1.74-1.83-2.72-2.64-3-3.64-.39-8.16-1.92-12A2.68,2.68,0,0,1,1318.18,339.42Z"/><path class="48f207aa-ae83-4a1f-b3f8-33d7e77735b5" d="M1481.08,247.55c4-5,3.9-4.92,8.49-.46a155.07,155.07,0,0,1,20,24.08c2.49,3.63,2,5.41-2.31,6.11a1.39,1.39,0,0,1-2.07.05C1498.51,266.33,1490.13,256.67,1481.08,247.55Z"/><path class="48f207aa-ae83-4a1f-b3f8-33d7e77735b5" d="M1341,355.19l2.06.18c2.25,1.48,1.65,3.82,1.66,5.88q.09,17.89,0,35.77c-.33,2.51,1.24,2.12,2.78,1.78a1.54,1.54,0,0,1,1.11.7c.72,2.71,3.35.56,4.63,1.83-.08,1.62-.17,3.24-.25,4.86-4,2.57-8.29,1.79-12.56,1A202.8,202.8,0,0,1,1341,355.19Z"/><path class="48f207aa-ae83-4a1f-b3f8-33d7e77735b5" d="M1343.11,399.19l-.06-43.82c.07-3.45.19-6.9.19-10.34,0-9.58,2-11.45,11.76-10.84,1.78,1.93,4.17.77,6.24,1.22-2.34,2.78-6.27,4.49-6,9-.23,4-.44,7.95,1,11.8,1.26,1.32,4.19,2.54.25,4.18a11.94,11.94,0,0,1-2-.36c-6.15-1.57-7.11-.85-7.25,5.32-.07,3,.19,6-.93,8.89-1.14,6.73-.15,13.5-.55,20.23C1345.6,396.35,1346.57,399.06,1343.11,399.19Z"/><path class="48f207aa-ae83-4a1f-b3f8-33d7e77735b5" d="M1484.36,278.45c0,.82,0,1.63.07,2.45.36,7.11.37,7.34-6.6,7.42-3.9.05-3.74,2.12-3.4,4.75a3.34,3.34,0,0,1,.23,4c-2.14,1-2.72-.89-2.86-2.09-.43-3.67-2.4-5-5.9-4.85a5.65,5.65,0,0,1-4-1.49c-2.56-3-.84-6.19-.58-9.33,4.74-2.21,9.75-.61,14.62-1C1478.7,278.12,1481.54,278.39,1484.36,278.45Z"/><path class="48f207aa-ae83-4a1f-b3f8-33d7e77735b5" d="M1321.15,353.55c4.26-1.62,2.47,3,4.43,4.47a6.54,6.54,0,0,0,0-5.76c-.4-.91-2.06-1.89-.24-2.8,1.16-.58,1.57.64,2.17,1.45a16,16,0,0,0,2.55,2.28c-2.15,5.89-.56,11.53,1.13,17.17-3,.77-2.46,4-2.29,5.33.57,4.17-1.31,7.33-2.93,10.67-1.36,2.83-3,3.29-4.63.07.85-1.44,1.27-3.18,2.75-4.22.47-3.09.33-6.23,1.15-9.32.43-1.6.78-3.69-1.18-5C1323.38,363.07,1321,358.58,1321.15,353.55Z"/><path class="48f207aa-ae83-4a1f-b3f8-33d7e77735b5" d="M1387.45,334.08c10.38.46,11.37,1.33,11.52,11.59q.36,24.61.43,49.25c0,2.81.2,5.08,3.91,4.49l-.08,1.94c-3,2.22-5.85,2.54-8.15-1.06a6.84,6.84,0,0,1-.25-1.69,182.06,182.06,0,0,0-1.07-21c-.68-3.53,2.45-6,2.48-9.41a68.84,68.84,0,0,0-.44-10.35c0-.54,0-1.07-.08-1.61a43,43,0,0,1-.1-11.94c.28-2.35.35-4.75-2.34-6-1.87-1.37-4.73-.78-6.11-3.09C1387.26,334.83,1387.35,334.45,1387.45,334.08Z"/><path class="48f207aa-ae83-4a1f-b3f8-33d7e77735b5" d="M1387.17,335.2c2.35.44,5-.68,7.09,1.19,3.15,3.5,2,7.12,0,10.51-3.39,5.74-3.5,5.67,2,8.53a4.78,4.78,0,0,1,1.09,1,1.16,1.16,0,0,1-.12.89,2.06,2.06,0,0,1-.66.71c-2,1-8.39,5.93-9.51,7.37-2.14-4.94.47-9.82.21-14.75-.29-5.58,1.61-11.76-5-15.27Z"/><path class="48f207aa-ae83-4a1f-b3f8-33d7e77735b5" d="M1355.37,333.36l-4.37-.11c-1.28-5.83-2-11.64-1.14-17.66.4-2.62,1.88-2.66,3.72-2.84,2.47-.25,2.67,1.28,2.53,3.12C1355.66,321.69,1357.29,327.6,1355.37,333.36Z"/><path class="48f207aa-ae83-4a1f-b3f8-33d7e77735b5" d="M1377.11,286.43a25,25,0,0,1,.37,3.92c-.2,3.8-1.29,6.57-6.08,6.32-5.29-.28-7-1.5-7.21-6.27a37.52,37.52,0,0,1,.23-3.95Z"/><path class="48f207aa-ae83-4a1f-b3f8-33d7e77735b5" d="M1364.4,386.37v-9.11c4.73-1.4,9.4-2,13.81,1l1,10-1.06-.13c-2.39-1.68-5.07-.51-7.6-.76C1368.5,387.14,1366.32,387.61,1364.4,386.37Z"/><path class="48f207aa-ae83-4a1f-b3f8-33d7e77735b5" d="M1505.23,277.33l2.07-.05.06,1.13c1.78,1.79,2.05,3.95,1.62,6.31-2,6.53-7.59,7.65-12.62,2.52l-.18-8.81C1499.15,277.68,1502.42,279.39,1505.23,277.33Z"/><path class="48f207aa-ae83-4a1f-b3f8-33d7e77735b5" d="M1092.33,281.45c.16,2.6-.87,3.61-3.64,4.08-3.17.53-6.68-.2-9.52,2a38.22,38.22,0,0,0-8,5.85h-.8c.59-3.91-.56-8.44,3.93-10.95C1080.35,282.82,1086.26,280.72,1092.33,281.45Z"/><path class="48f207aa-ae83-4a1f-b3f8-33d7e77735b5" d="M1328.21,409.3c-3,1.17-6,2.45-9.1,3.49-5.14,1.75-7.38.39-8-4.67l1-1.81,16.25.08C1328.32,407.36,1328.27,408.33,1328.21,409.3Z"/><path class="48f207aa-ae83-4a1f-b3f8-33d7e77735b5" d="M1415.49,366.51c-1.93,1.12-3.87,3.8-5.92,2.58-1.67-1-1.33-4.47-.5-6.06,2.84-5.39.73-11.51,3.09-16.86,2.65.13,2.31,2.26,2.57,3.93.33,2.07-.55,4.25.55,6.25l0-.05C1417.32,359.65,1415.53,363.1,1415.49,366.51Z"/><path class="48f207aa-ae83-4a1f-b3f8-33d7e77735b5" d="M1064.1,360.23c1.66,2.56,4.23,1.26,6.37,1.36,2.49.11,3.66.88,3.56,3.52s-1.27,3.48-3.76,3.37c-3.31-.15-6.64-.08-10-.1C1061.64,365.69,1058.75,361,1064.1,360.23Z"/><path class="48f207aa-ae83-4a1f-b3f8-33d7e77735b5" d="M1455.11,307.19c-1.49-1.26-.74-3.15-1.33-4.66-.3-.76-.7-2.19-1-2.16-7.26.67-2.21-5-3.71-7.18a9.54,9.54,0,0,1,3.19-3.85c2.68.68,3.47,4.3,6.63,4.25a6.94,6.94,0,0,1,1.09,4.32c-.92,2.55,1,5.67-1.55,7.92A4,4,0,0,1,1455.11,307.19Z"/><path class="48f207aa-ae83-4a1f-b3f8-33d7e77735b5" d="M1458.22,293.34c-1.54.5-2.2,3.1-4,2.29-1.52-.68-.52-2.74-.9-4.12a15,15,0,0,0-1-2.17l9-10c2,2.91.41,6.29,1.22,9.35C1462.38,291.43,1460.87,292.91,1458.22,293.34Z"/><path class="48f207aa-ae83-4a1f-b3f8-33d7e77735b5" d="M1327.46,332.13c-1.81.33-2.44,1.54-2.31,3.23.23,2.82-1.09,5.05-3.34,8.37-.77-8.89-3-16.57-.48-24.49a17.64,17.64,0,0,1,3.56,9.13A4.53,4.53,0,0,0,1327.46,332.13Z"/><path class="48f207aa-ae83-4a1f-b3f8-33d7e77735b5" d="M1398.27,407.3c-3.5-1.58-7.27-.23-10.85-1-1.16-3.89-.19-6,4.34-5.43,1,.13,2,0,2.18-1.37a1,1,0,0,1,1.43-.07c2,3.18,5.35.86,7.86,1.93-.38,2-.76,3.91-1.15,5.87-1.24,1.27-2.52,1-3.81.08Z"/><path class="48f207aa-ae83-4a1f-b3f8-33d7e77735b5" d="M1227.07,377.56c1.33,3.79-1,8.27,2.23,11.69-2.81,2.87-1,7-2.88,10.16.61-2.64-2.46-2.45-3.14-4.1-1.14-5.53-.6-11.08.15-16.58C1223.71,376.67,1224.87,374.87,1227.07,377.56Z"/><path class="48f207aa-ae83-4a1f-b3f8-33d7e77735b5" d="M1415.28,356.35c-1.81-1.51-.92-3.62-1.18-5.47s-.13-3.61-1.94-4.71l.21-6c1.32-1.46,2.43-3.26,4-4.3,1.42-.92,4.08-1.49,4.73.41.47,1.41,1,4.64-2.39,5-2.88.28-3.37,2.16-3.35,4.58C1415.42,349.36,1415.32,352.86,1415.28,356.35Z"/><path class="48f207aa-ae83-4a1f-b3f8-33d7e77735b5" d="M1440.14,320.2c-3.62-1-.6-4.14-1.86-5.91-2.68-2.66-1.2-5.45-.24-8.23q1.18-1.85,2.38-3.69c3,1.22,1,4.1,2,6,3.07,3.25,1.64,6.51,0,9.77Z"/><path class="48f207aa-ae83-4a1f-b3f8-33d7e77735b5" d="M1092.23,406.36c-.23,5-3.93,4.83-7.39,4.95-2.92.1-5.8.06-5.65-4.1l1-.9c3.94-.26,8,1.07,11.8-1Z"/><path class="48f207aa-ae83-4a1f-b3f8-33d7e77735b5" d="M957.22,386.3l-2.44,4.34c-.28-4.36-6.26-6.1-2.53-10.76C957.93,379,958.44,379.65,957.22,386.3Z"/><path class="48f207aa-ae83-4a1f-b3f8-33d7e77735b5" d="M1064.24,349.38l-2.12-2.09,1.28-4.94h4.81c2.46,1.29,2.4,3.36,1.44,5.45C1068.52,350.26,1066.43,350.16,1064.24,349.38Z"/><path class="48f207aa-ae83-4a1f-b3f8-33d7e77735b5" d="M1015.3,385.28l-.3-35.8c1.56,0,1.22,1.27,1.23,2.14q0,15.81,0,31.63C1016.24,384.06,1016.29,384.92,1015.3,385.28Z"/><path class="48f207aa-ae83-4a1f-b3f8-33d7e77735b5" d="M970.14,375.49c-1.75-6.28-.56-12.7-.77-19.05-.22-6.77,0-6.77-6.77-6.84,1.81-2.61,4.55-1.49,6.58-1s1,3.11,1.12,4.77c.38,6.92-.54,13.87.57,20.77C970.85,374.71,970.85,375.29,970.14,375.49Z"/><path class="48f207aa-ae83-4a1f-b3f8-33d7e77735b5" d="M1065.47,313.44q.52-6.42,1.06-12.82c.08-1,.08-2.23,1.5-2s.88,1.48.78,2.41c-.5,4.75-1.85,9.41-1.53,14.25C1066.15,315.19,1066.08,314.05,1065.47,313.44Z"/><path class="48f207aa-ae83-4a1f-b3f8-33d7e77735b5" d="M1039.84,368.23c-.18,3.58-2.94,1.72-4.45,1.88-4.67.51-9.71-.95-13.67,2.91.47-2.77,2.54-3.39,4.89-3.9C1031,368.18,1035.45,368.66,1039.84,368.23Z"/><path class="48f207aa-ae83-4a1f-b3f8-33d7e77735b5" d="M1195.11,259.52l-9.74,0c-2.24-2-5-.72-7.46-1.15-1.14-.2-3.39.93-2.63-1.93,4.87,1.33,9.88.72,14.82,1C1192.05,257.44,1194.22,257,1195.11,259.52Z"/><path class="48f207aa-ae83-4a1f-b3f8-33d7e77735b5" d="M1364.4,386.37c4-.89,8.06.48,12.08-.53,1.69-.43,1.53,1.2,1.71,2.27l-13.81.11Z"/><path class="48f207aa-ae83-4a1f-b3f8-33d7e77735b5" d="M970.14,375.49c.25-.45.49-.9.73-1.35.73,2.63,2.37,3.89,5.14,4.48a41.61,41.61,0,0,0,7.85.48c5.11.15,5.58,1,3.27,6.11.57-4.19-1.32-5.19-5.35-5C977.44,380.33,972.06,381.85,970.14,375.49Z"/><path class="48f207aa-ae83-4a1f-b3f8-33d7e77735b5" d="M1415.49,366.51c-.09-3.4-.18-6.81-.26-10.21,1.24-.16,2.06-1.9,3.59-1-1.66,3.5-2.7,7.09-1.56,11Z"/><path class="48f207aa-ae83-4a1f-b3f8-33d7e77735b5" d="M1429.49,314.48c1.36,1.89.75,4,.7,6.08,0,1.15-.47,2.47-1.92,2.2-1.1-.2-.72-1.61-1-2.46A7.76,7.76,0,0,1,1429.49,314.48Z"/><path class="48f207aa-ae83-4a1f-b3f8-33d7e77735b5" d="M1438,306.06l.24,8.23c-4.57,1.17-2.54-2.63-3.27-4.35A7.38,7.38,0,0,1,1438,306.06Z"/><path class="48f207aa-ae83-4a1f-b3f8-33d7e77735b5" d="M957.22,386.3c.08-3.49.8-7.47-5-6.42a5.08,5.08,0,0,1,4.49-1.62c1.81.22,1.65,1.48,1.52,2.54C958,382.65,959.24,384.79,957.22,386.3Z"/><path class="48f207aa-ae83-4a1f-b3f8-33d7e77735b5" d="M1041.33,359.82c-6.34-1-12.72-.29-19.08-.49C1028.65,357.88,1035,357.11,1041.33,359.82Z"/><path class="48f207aa-ae83-4a1f-b3f8-33d7e77735b5" d="M1047.28,385.36q-.19-9.54-.4-19.08C1049.27,372.59,1048.7,379,1047.28,385.36Z"/><path class="48f207aa-ae83-4a1f-b3f8-33d7e77735b5" d="M1398.27,407.3l3.81-.08.1,8C1399.14,413.44,1400.83,409.32,1398.27,407.3Z"/><path class="48f207aa-ae83-4a1f-b3f8-33d7e77735b5" d="M1008,358.51c-3.29,1.85-6.85.52-10.27.85C1001,357.11,1004.53,358.56,1008,358.51Z"/><path class="48f207aa-ae83-4a1f-b3f8-33d7e77735b5" d="M1317.09,158.32c-20.37-6.33-40.88-12.2-61.68-17v-7c11.65,1.76,22.79,5.58,34.11,8.67,9.25,2.52,18.38,5.5,27.56,8.28Z"/><path class="48f207aa-ae83-4a1f-b3f8-33d7e77735b5" d="M1457.24,305.27c2.46-2,.12-4.85,1.22-7.1,1.7.29,3.07,1.43,4.74,1.79,1.93,1.53,1.72,3.8,2,5.89.22,1.77.58,3.39,2.88,3.1,2-.24,4-.53,4.22-3.23.16-2.13,0-4.29.6-6.38a2.84,2.84,0,0,1,1.19-1.82l.36-4.45a26.8,26.8,0,0,1,3.87-.43c2.6.08,4.92.57,5.09,4,.1,2.28.55,4.56.84,6.84.6,4.94.37,8.83-6.58,8-3-.37-3.58,3.27-1.37,8.2-4.13,3-6.74,7.23-9,11.68-2,2.25-3.56,4.94-5.78,7.06-1.22,1.18-2.39,2-3.17-.4C1457.81,327.07,1455.57,316.23,1457.24,305.27Z"/><path class="48f207aa-ae83-4a1f-b3f8-33d7e77735b5" d="M1496.36,287.24c2.67,1.86,5.69,1,8.57,1,2.73,0,2.12-2.36,2.47-4,3.69,2.32,8.41,1.41,12.09,3.8.77,2.05-.36,4.31.72,6.31.6,4-1.15,5.52-5,5-4.31-.62-6.27.71-6.08,5.62.17,4.57,1.25,7,6.23,6.34a54.16,54.16,0,0,1,6-.13c2.81.06,5.63.11,8.45.19,1.27,0,2.31.44,2.28,2s-1.11,1.91-2.36,1.92c-5.8,0-12.37,1.7-17.19-.47a42.37,42.37,0,0,0-14-4c-1.72-.16-1.27-2.47-1.25-3.89.12-7.35,0-6.5-6.94-6.55-1.33,0-2.66-.05-4-.07,1-1.21,2.37-1,3.67-1,7.74-.31,8.3-1,7.12-8.65C1496.89,289.49,1496.6,288.37,1496.36,287.24Z"/><path class="48f207aa-ae83-4a1f-b3f8-33d7e77735b5" d="M1459.19,339.25c.82-4.21,5.6-5.42,7-9.21.11-.26.82.68,1,1.27q-.59,4.92-1.16,9.86c-11.17,4-21.69,9.43-32.12,15-3.23,1.73-6.64,2.85-10.24,4.73.17-1.54.28-2.63.4-3.71,3.11-2.93,1.36-7.75,4.2-10.79l1.93-1.09c2,.84,1,3.78,3.41,4.61,1.81-2.2,0-5.64,2.48-7.53a4.52,4.52,0,0,0,.25-1c1.76-1.2,2.79-.77,2.77,1.4s-.21,4.51-.16,7c.68-2.88,5.36-.54,5.29-4.4a4.26,4.26,0,0,1,.65-1c1.61-2.31.45-4.75.37-7.14a3.21,3.21,0,0,1,.88-1.86c1.76-2.51,2.89-2.23,3.79.68s-.84,5.43-.28,8.38c1.38-3.71,6.6-3.06,7.54-7.12C1459.16,336.7,1458.41,338.74,1459.19,339.25Z"/><path class="48f207aa-ae83-4a1f-b3f8-33d7e77735b5" d="M1520.21,294.39c-1.52-1.85-.66-4.13-1.1-6.18-2.26-3.1-3-6.34-.91-9.84l1.13-1c3.49,1.94,7.26.54,10.88,1q.11,4.4.23,8.8c-2.45-.76-.38-3-1.76-4.54-.56,3.56-1.74,6-6.06,6C1518.83,288.56,1520.81,292.31,1520.21,294.39Z"/><path class="48f207aa-ae83-4a1f-b3f8-33d7e77735b5" d="M1428.33,346.39a22.94,22.94,0,0,0-.21,4.44c.48,3.34-.62,5.51-4,6.35-2.51,1.63-2-2.14-3.62-2.05,3.48-6.41,3.83-13.73,6.53-20.92C1427.49,338.5,1427.91,342.45,1428.33,346.39Z"/><path class="48f207aa-ae83-4a1f-b3f8-33d7e77735b5" d="M1469.26,235.32c-4.66,3.72-7.62,9.16-12.67,12.46-1.16.75-2,2.88-3.63,1.79s.39-2.7.21-4.13c2.84-5.15,7.22-9.39,9-15.15,3.69,2.09,4.45-2.64,7.07-3,1.44,1.36,3.23,1.14,5,1.08Z"/><path class="48f207aa-ae83-4a1f-b3f8-33d7e77735b5" d="M1518.2,278.37a34.29,34.29,0,0,1,.91,9.84,42,42,0,0,0-5.84.18c-3.42.55-5.09-1.07-5.87-4.11,0-2,0-3.91,0-5.87Z"/><path class="48f207aa-ae83-4a1f-b3f8-33d7e77735b5" d="M1323.26,368.36c-4.48,2.53-3.8,7.41-4.75,11.33-2.28,9.45-2.19,9.63-11.71,9.62h-69.47c-6.26,0-7-1.06-5.61-7a63.51,63.51,0,0,0,1.37-7.83,4.65,4.65,0,0,0-2-4.37c-1.48-1.05-1.86.8-2.74,1.36-2.05.6-3-1.24-4.5-2-6.81.05-2.93,5.07-3.69,7.93-2,1.1-2.14,4.48-5.18,4.42-4.36-1.64-3.1-5.32-3.1-8.55a12.47,12.47,0,0,0,4.21-6.88c4.18.73,8.36,1.85,12.53,0a1.31,1.31,0,0,0,.68,0,4.35,4.35,0,0,0,2.83.48c4.14,0,8-1.71,12.19-1.67,3.08,0,2.77-2.63,2.78-4.78,0-6.17,1.08-7,7.46-6,2.42,3,5.78,2.35,9,2.42,2.19.05,4.81-.44,5.07,3-2,3.22-5.25,2-8,2.48,2.83.57,6.09-.58,8.54,1.87-1.26,4.86-5.55,1.85-8.11,3.47,7.38,1.68,14.85-.89,22.3-.18.64,0,.66-.1,0-.2-2.52-.39-6.87.53-6.8-2.29.08-3.38,4.45-2.12,7.07-2.53.6-.09,1.22,0,1.91-.07-1.54-.3-3.06-.08-4.51-.44s-3.24-.69-3.17-2.57c.08-2.15,1.94-2.43,3.67-2.51a23.22,23.22,0,0,1,4,0,6.8,6.8,0,0,0,6.21-2.36c2.1-.81,4.48-.7,6.47-1.92a6.63,6.63,0,0,1,1.52-.51c4.47.65,9.31-1.14,13.39,2.05a7.35,7.35,0,0,1,.58,4.73c-.07,1.34-.78,2.54-.91,3.87-.19,2,.36,3.08,2.68,3.17C1318.26,366,1321.25,365.77,1323.26,368.36Z"/><path class="48f207aa-ae83-4a1f-b3f8-33d7e77735b5" d="M1211.11,389.51l-27.83-1.23c-2.4-5.59.79-11.21-.86-17,4.55.52,3,5.5,6.16,6.28a7.19,7.19,0,0,0,2.17.07c2-.19,1.88-1.8,2.13-3.23s.9-2.55,2.5-2.48c1.32.05,1.72,1.25,2.28,2.26.8,1.44-.24,3.82,2.21,4.41a3.11,3.11,0,0,0,1.82-.37,2.74,2.74,0,0,0,.66-.75c.84-1.67.91-4.7,3.41-4.08,2.13.53,5.32,1,5.4,4.55,0,.61.54,1.2.78,1.82a6.13,6.13,0,0,0,1.8,1.52c3,1.28,3.67,3.64,2.72,6.47S1213.24,389.94,1211.11,389.51Z"/><path class="48f207aa-ae83-4a1f-b3f8-33d7e77735b5" d="M1216.13,366.38c2,5.27,1,7.16-3.88,7.08a2.06,2.06,0,0,1-1.45.47,20.75,20.75,0,0,0-7.65-.61c-3.68-.2-7-2.37-10.85-1.79-1.89-1-4.43-.25-5.9-2.3-.38-8.87-.39-8.82,8-7.12C1201.6,363.59,1208.87,365,1216.13,366.38Z"/><path class="48f207aa-ae83-4a1f-b3f8-33d7e77735b5" d="M1167.16,387.35c.49-3.94.83-7.91,1.53-11.81.36-2,.49-4.26,4.06-3.79,3,.39,2.12,2.39,2.78,3.81.27.59.44,1.23.66,1.85.1,5.63-.26,11.21-2.36,16.51-.6,1.51-1.23,3.41-3.25,3.17-1.68-.21-2.06-2-2.35-3.42C1167.8,391.58,1167.51,389.46,1167.16,387.35Z"/><path class="48f207aa-ae83-4a1f-b3f8-33d7e77735b5" d="M1163,367.48l2.15,1c.06.77-.56.61-.93.84-4.12,2.59-5.89-5.94-10.91-2-3.3,2.6-8.24.82-12.44,1-1.74.07-4.37.93-4.17-2.48.16-2.74.91-4.73,4.41-4.41,3.28.31,6.61.13,9.92.17,1.61,1.16,3.48.61,5.23.74s3,.26,2.82,2.4C1158.79,368.1,1161.17,367.4,1163,367.48Z"/><path class="48f207aa-ae83-4a1f-b3f8-33d7e77735b5" d="M1211.11,389.51c1.68-.5,4,.19,4.06-2.93.06-2.53-.29-4.4-3-5.1.91-1.09,2-.7,3-.3,1.57-.49,1.61-1.93,1.91-3.17.63-2.5,1.83-1.72,3.13-.62a2.6,2.6,0,0,0,.13.92,28.58,28.58,0,0,1,.12,10,20,20,0,0,1-.41,3.39c-.53,1.78-.15,4.7-2.41,4.85-2.48.16-1.71-2.76-2-4.29C1215.17,389.31,1212.53,390.55,1211.11,389.51Z"/><path class="48f207aa-ae83-4a1f-b3f8-33d7e77735b5" d="M1092.53,385.13l-.15-1.72c3.06-2.31,6.55-1.22,9.89-1.16,2,0,3.87.84,6.24,0-4.39.35-8.33-.52-12.36-.15-1.51.14-4.06.18-3.13-2.89,6.34-1.42,12.76-.58,19.13-.54,4.39,0,1.23,3.88,2.26,5.71-.14.27-.28.54-.43.8A69.81,69.81,0,0,1,1092.53,385.13Z"/><path class="48f207aa-ae83-4a1f-b3f8-33d7e77735b5" d="M1186.4,369.23c2.07-.08,4.15-.21,6,.88l-.31.61a2.61,2.61,0,0,0-1.56,3.13c.35,1.9.45,3.94-1.3,5.44-5.77,1.17-5.43-2.87-6-6.52v15.51c-2,.15-2.87-.66-2.21-2.65a23,23,0,0,0,.77-9.85C1181.41,372,1182.63,369.85,1186.4,369.23Z"/><path class="48f207aa-ae83-4a1f-b3f8-33d7e77735b5" d="M1223.89,369.46a5.1,5.1,0,0,1,4.5,2l-1.32,6.12c-2.18-1.21-2.35.21-2.79,1.87-1.39,5.25-.85,10.58-1,15.88A52.86,52.86,0,0,1,1223.89,369.46Z"/><path class="48f207aa-ae83-4a1f-b3f8-33d7e77735b5" d="M1092.53,385.13H1114c-3.82,2.31-8,.72-12,1-3.12.25-6.28,0-9.42-.1A2.53,2.53,0,0,1,1092.53,385.13Z"/><path class="48f207aa-ae83-4a1f-b3f8-33d7e77735b5" d="M1164.06,381.48c1.31,1.36.59,1.88-.87,2.1-1.54-.37-3.26.17-5-1.06C1160,380.44,1162.21,381.88,1164.06,381.48Z"/><path class="48f207aa-ae83-4a1f-b3f8-33d7e77735b5" d="M1220.45,388.33l-.12-10A12.4,12.4,0,0,1,1220.45,388.33Z"/><path class="48f207aa-ae83-4a1f-b3f8-33d7e77735b5" d="M1115.27,315.28c-.9-8.48,1.83-16.34,4-24.31.91-3.3,3.35-4,6.17-3.6,9.89,1.26,19.81.86,29.73,1,2.49,2,1.73,4.75,1.57,7.37-.42,6.6-1.51,13.16-1.28,19.8q-.12.39-.27.78c-3.7.52-7,3.58-11,1.91-8.26-.95-16.5.72-24.76.12C1117.36,318.17,1114.86,318.74,1115.27,315.28Z"/><path class="48f207aa-ae83-4a1f-b3f8-33d7e77735b5" d="M1108.51,337.77c5.32,0,10.65-.09,16,.05,1.35,0,3.73-1,3.7,1.81,0,2.64-2.09,2.56-4,2.57l-26.44,0c-1.83,0-3.67.11-5.49,0-1.63-.12-4,.86-4.12-2.14-.17-3.18,2.31-2.23,3.88-2.27C1097.53,337.7,1103,337.78,1108.51,337.77Z"/><path class="48f207aa-ae83-4a1f-b3f8-33d7e77735b5" d="M1108.26,335.24h-16.49c-1.73,0-3.51.08-3.35-2.45s2-1.8,3.38-1.8q17-.08,34,0c1.29,0,3.31-.7,3.4,1.66s-1.62,2.55-3.43,2.55c-5.83,0-11.66,0-17.48,0Z"/><path class="48f207aa-ae83-4a1f-b3f8-33d7e77735b5" d="M1115.27,315.28l4.82.24-3.46,1.22.07.55c7.41,0,14.81,0,22.22,0,1.78,0,3.68-.44,5.26.89-20.34,2-40.73,1.11-61.1,1.09a33.65,33.65,0,0,1-5.81-1c7.85-1.69,15.4-4.88,23.83-1.34C1105.54,318.81,1110.68,317.12,1115.27,315.28Z"/><path class="48f207aa-ae83-4a1f-b3f8-33d7e77735b5" d="M1127.13,345.42a.89.89,0,0,1,0,.85c-.46,1.48-1,2.61-3,2.57-12-.28-24,.42-36-.39v-.06c-.55-1.75-.81-3.57,1.77-3.52C1102.32,345.13,1114.74,344.07,1127.13,345.42Z"/><path class="48f207aa-ae83-4a1f-b3f8-33d7e77735b5" d="M1143.19,326.22q-2,9.9-4,19.81c2.83-5.76,7-6,12-3.55a36.48,36.48,0,0,1-1.92,6.79c-3.55,2.74-8.08-.77-11.9,2.12.09-8.4,3.66-15.92,3.88-24C1141.5,326.42,1142.09,325.91,1143.19,326.22Z"/><path class="48f207aa-ae83-4a1f-b3f8-33d7e77735b5" d="M1143.19,326.22l-2,1.21c-2.65-.1-5.3-.15-7.94-.33-1.93-.13-4.54.12-4.58-2.58s2.59-2.72,4.48-3c4.09-.53,8.21-.83,12.77-1.27C1144.92,322.49,1144.05,324.36,1143.19,326.22Z"/><path class="48f207aa-ae83-4a1f-b3f8-33d7e77735b5" d="M1072.78,320.29c5.63.66,9.73,1.1,13.81,1.64,1.33.17,2.74.59,2.82,2.26.08,1.95-1.46,2.53-3,2.64a51.25,51.25,0,0,1-8.92.26C1073.86,326.73,1075.54,322.74,1072.78,320.29Z"/><path class="48f207aa-ae83-4a1f-b3f8-33d7e77735b5" d="M1127.13,345.42c-11.54,0-23.09,0-34.63-.08-2.28,0-4.39-.1-4.36,3.05-1.05-2.18-1.24-4,2-4q17.72,0,35.43.09C1126.08,344.5,1126.6,345.1,1127.13,345.42Z"/><path class="48f207aa-ae83-4a1f-b3f8-33d7e77735b5" d="M1088.15,348.45c11.3,0,22.59-.05,33.88,0,2.1,0,4-.17,5.13-2.18.31,1.75-.16,3.1-2.14,3.1q-18.13,0-36.27-.19C1088.55,349.18,1088.35,348.7,1088.15,348.45Z"/><path class="48f207aa-ae83-4a1f-b3f8-33d7e77735b5" d="M1064.24,349.38c4.57-.19,5.14-1.19,4-7,1.79.16,4.68-1.52,4.36,2.32-.22,2.62,1.14,6.6-4.18,5.69C1067,350.12,1065.43,350.56,1064.24,349.38Z"/><path class="48f207aa-ae83-4a1f-b3f8-33d7e77735b5" d="M1149.24,349.27c-.32-2.54-2.24-5.52,1.92-6.79C1153.34,345.54,1152.21,347.66,1149.24,349.27Z"/><path class="48f207aa-ae83-4a1f-b3f8-33d7e77735b5" d="M1299.48,353.41a.6.6,0,0,0-.37.54,45.69,45.69,0,0,1-12.92,1.79c-8.3.23-16.63.29-24.93,0-6.06-.22-12.28-.17-17.71-3.73-2.84-1.86-4.23-.42-4.86,2.44a23,23,0,0,0-.4,4.45c-.21,8.38-.21,8.38-8.32,9.26-.74-.41-.72-1.1-.63-1.81a5.5,5.5,0,0,0,1.94-5c-.07-4.42-.07-8.84,1.58-13.06a3.76,3.76,0,0,1,2.64-2.82l2.91-6c3.4.52,4.91-.5,5-4.38.06-4.6,3.28-12.61,5.59-16.05,1.41,3.24-.41,5.9-.7,8.64a14.45,14.45,0,0,1-.38,1.94c-2.26,10.26-2.26,10.26,8.22,11a6.25,6.25,0,0,0,1.55.61c12.25.86,24.49.54,36.73.1a4.37,4.37,0,0,0,3-.85l20.84-1,1,1.08a64.74,64.74,0,0,1-1.29,17.67,17.31,17.31,0,0,1-.56,1.9c-.8,2.34-1.66,5.76-4.36,5.1-2.4-.58-1.06-3.88-.8-6.05l.13-4.8c.18-3.69-1.5-4.94-4.8-3.33C1304.9,352.24,1301.91,351.88,1299.48,353.41Z"/><path class="48f207aa-ae83-4a1f-b3f8-33d7e77735b5" d="M1297.34,340.45c-.14.77-.26,1.54-1.17,1.81-3.91-.88-7.86-.55-11.78-.24-9.39.73-18.73,0-28.08-.64a1.53,1.53,0,0,1-.21-.79C1269.85,340,1283.6,340.19,1297.34,340.45Z"/><path class="48f207aa-ae83-4a1f-b3f8-33d7e77735b5" d="M1234.31,348.35c-1.33,4.26-.31,9.07-3,13-.41-2.09-2.28-2.23-3.79-2.73a32.82,32.82,0,0,0-5.76-1.58c-8.68-1.19-14.13-6-17.33-14.1-1.51-3.85-5.1-6.49-8.56-8.85-3.27-2.23-4.59-5.06-4.7-9.19-.34-12.49,1.37-24.9,1.12-37.36a4.33,4.33,0,0,1,1-3.26c-1,6.15,3.23,8,7.26,11.56,7.86,7,16,14.56,19,25.53.79,2.86,2,5.59,3.1,8.37.67,1.74,1.45,3.41,3.67,3.57,2,1.45,2.12,3.72,1.89,5.75C1227.57,344,1228.7,347.61,1234.31,348.35Z"/><path class="48f207aa-ae83-4a1f-b3f8-33d7e77735b5" d="M1234.31,348.35c-7.47,2.11-8.29,1.48-8.15-6.17,0-3,0-5.91.07-8.87,7-2.51,8.35-1.69,8.17,5.37a14.94,14.94,0,0,0,1.1,6.79Z"/><path class="48f207aa-ae83-4a1f-b3f8-33d7e77735b5" d="M1186.28,261.28c3,3.89,2,8.5,2,12.81,0,5.73-.73,11.46-1.14,17.2-5.17-.11-9.82-1.15-13.42-5.49-1-1.18-3.08-3.38-5.45-1.25a35.14,35.14,0,0,0-3.15,5.49c-.59,1.08-1.11,2.73-2.74,2.17a2.42,2.42,0,0,1-1.24-3.33c1.44-3.36-.53-4-3.11-4.31-5.71-.59-11.44-.07-17.15-.29-2.61-.1-5.37,0-6.44-3.25l-.18-1.68c-.27-1.72,1-2,2.12-1.84a18.92,18.92,0,0,0,5.15.17c.66-.11-.37-.76,0-.19.13.21,0,.4-.35.3-1.33-.4-3.37,1.14-3.92-1.4,5.27.05,10.52-.25,15.81.71,7.5,1.37,8.37.52,10.28-6.92.2-.8.42-1.6.68-2.38,2.13-6.31,7.48-8.73,13.74-6.29C1180.57,262.62,1183.51,264.51,1186.28,261.28Z"/><path class="48f207aa-ae83-4a1f-b3f8-33d7e77735b5" d="M1137.19,276.39c1.57,1.58,3.78.5,5.81,1.4-3,1.24-6.28-.71-8.78,1.56-3-.36-1.2,3.58-3.62,3.89-3.35.42-6.29.38-7.14-3.78a136.53,136.53,0,0,1-19.4.14l-.83-.16c-2.33,2.37-4.33,5.54-8.49,3.42-.89-.45-.15-3.52-2.53-1.59.21-2.58-1.36-3-3.45-2.95a73.44,73.44,0,0,1-8.89-.3C1098.92,275.4,1118.07,276.58,1137.19,276.39Z"/><path class="48f207aa-ae83-4a1f-b3f8-33d7e77735b5" d="M1117.29,264.39c-9.31,0-18.63,0-27.94,0-1.33,0-3.58.84-3.77-1.13s2.1-1.69,3.45-1.74c19-.69,37.9-.62,56.85-.09,1.18,0,3.15-.48,3,1.49-.08,1.72-1.92,1.48-3.21,1.49q-14.22,0-28.43,0Z"/><path class="48f207aa-ae83-4a1f-b3f8-33d7e77735b5" d="M1079.12,360.25l49.26.1c2.31,0,4.67-.31,6.8,1a6.77,6.77,0,0,1,0,1.49c-3,15.11-.44,12.41-14.52,12.57-13,.14-26-.15-38.94.16-5,.12-6.65-1.71-6-6.42a25.1,25.1,0,0,0,.08-5.48C1075.64,361.13,1077.11,360.48,1079.12,360.25Z"/><path class="48f207aa-ae83-4a1f-b3f8-33d7e77735b5" d="M1093,379.17c.16,1.73,1.38,1.45,2.56,1.43,4.64-.08,9.28-.16,13.91-.09,1.3,0,3.42-.79,3.52,1.52.09,2.14-1.9,2-3.32,2-5.77-.14-11.54-.39-17.31-.61C1092.09,381.92,1091.73,380.42,1093,379.17Z"/><path class="48f207aa-ae83-4a1f-b3f8-33d7e77735b5" d="M1155.49,315.51c-3.75-1.62-2.08-4.79-1.92-7.36.41-6.61,1.07-13.2,1.63-19.81,1.76-1.66,3.93-.82,5.93-1,.46.28.52.73.63,1.21.31,1.48-.94,3.65,1.15,4.28,1.74.53,3.73.84,5.31-1.15s4-1.81,6.18-.55c2.39,4.22-.42,8.63.44,12.92a7,7,0,0,1-.19,2c-1,11.12-1,11.12-12.5,11.32,1.3-3.94-.74-7.78-.35-11.7-.27,2.24.45,4.41.49,6.59.08,3.72-3.4,2-5.19,2.91Z"/><path class="48f207aa-ae83-4a1f-b3f8-33d7e77735b5" d="M1107.75,359.27c-5,0-10,0-15,0-1.33,0-2.88.05-2.88-1.88s1.58-1.92,2.88-1.93q15-.06,30,0c1.26,0,2.93-.17,2.88,1.83-.05,1.8-1.48,2-2.88,2h-15Z"/><path class="48f207aa-ae83-4a1f-b3f8-33d7e77735b5" d="M1174.4,291.15c-2.91-.08-5.6,0-6.28,3.8-.38,2.13-1.54,2.43-2.84.47-.09-.13-.13-.34-.25-.42-3.48-2.39-3.48-2.39-3.9-7.64a7.37,7.37,0,0,0-.11-.93c-.68-1-2.75-1.32-1.71-3.25,2.84,1.32,2.84,1.32,3.26,7.81,2-2.23.77-7.16,5.66-6.45Z"/><path class="48f207aa-ae83-4a1f-b3f8-33d7e77735b5" d="M1157.1,315.15c3.25-.67,4.37-2.63,4.1-5.92a36.28,36.28,0,0,1,.61-10.06c1.73,1.74,1.14,3.57.91,5.43-.34,2.69-1.3,5.45,2.51,7,1.8.73,1.48,2.84-.59,3.7-1.1.45-2.24.64-2.49,2C1161,315.41,1159.08,315.21,1157.1,315.15Z"/><path class="48f207aa-ae83-4a1f-b3f8-33d7e77735b5" d="M1170.7,338.45c-1-.14-1.48-.65-1.26-1.67s.47-2.18,1.54-2.33c1.37-.2,1.45,1,1.43,2S1172,338.42,1170.7,338.45Z"/><path class="48f207aa-ae83-4a1f-b3f8-33d7e77735b5" d="M1071.17,293.34c.3-5.19,3.55-6.34,8-5.85,6.08,1.09,6.6,4.65,6.62,10.44,0,7.78-4.37,10.23-10,12.57-1.82.76-3.89,2.26-5.61,1.15-2-1.26-.45-3.62-.29-5.49C1070.26,301.88,1070.74,297.61,1071.17,293.34Z"/><path class="48f207aa-ae83-4a1f-b3f8-33d7e77735b5" d="M1159.31,283.18l1.71,3.25c-7-.05-14,.1-20.93-.24-2.89-.14-7.33.41-5.69-5.16,3.33,2.17,7.08,1,10.63,1.29C1149.78,282.74,1154.61,281.84,1159.31,283.18Z"/><path class="48f207aa-ae83-4a1f-b3f8-33d7e77735b5" d="M1123.2,281.23c.31,2.86-.73,4.31-3.86,4.12a49.6,49.6,0,0,0-9.36,0c-4.77.61-7.61-.41-6.75-5.94l.22-.45c4.66,1.54,9.48.57,14.22.81C1119.62,279.9,1121.67,279.51,1123.2,281.23Z"/><path class="48f207aa-ae83-4a1f-b3f8-33d7e77735b5" d="M1123.2,281.23c-5.14.08-10.29.07-15.42.29a4.15,4.15,0,0,1-4.33-2.53c6.69-.93,13.39-1.83,20,.47C1123.37,280.05,1123.29,280.64,1123.2,281.23Z"/><path class="48f207aa-ae83-4a1f-b3f8-33d7e77735b5" d="M1345.44,373.05c-.11-3.6-.3-7.2-.27-10.8,0-1.78-.88-4.75,2.06-4.56,3.11.21,7.45-2.51,9.17,2.7-.07,6.5,0,13-.29,19.49-.15,3.25,1.75,7.06-2.6,9.54-.9.51-.46,3.8-.24,5.76.41,3.72-.79,5.37-4.66,4.32l-1.16-.19c-2.18-1.28-1.63-3.43-1.68-5.36C1345.56,387,1346.13,380,1345.44,373.05Z"/><path class="48f207aa-ae83-4a1f-b3f8-33d7e77735b5" d="M1395.37,399.42l-1.43.07-3.7-.08c-2.73-2.87-1.13-6.92-2.78-10.08l-.39-23.91a9,9,0,0,0,.2-2.45c-.89-4.64,1.5-5.78,5.53-5.45a36.71,36.71,0,0,0,4.44-.18c.33,5.77,3,11.73-1.6,17.1-.51.61-.21,1.92-.28,2.91-4,3.79-3.7,4.23-.78,9,2.45,4,1.16,8.66.76,13.06Z"/><path class="48f207aa-ae83-4a1f-b3f8-33d7e77735b5" d="M1378.2,378.27c-4.58-.66-9.32.89-13.81-1q0-9.43-.07-18.88a14.51,14.51,0,0,1,13.93-.06Q1378.22,368.3,1378.2,378.27Z"/><path class="48f207aa-ae83-4a1f-b3f8-33d7e77735b5" d="M1364.28,312.46c0-3,0-6-.06-8.94,0-3.36,1.12-5.75,4.92-6.07,4.12-.36,8.14.2,8.73,5,.67,5.38.32,10.9.32,16.36,0,2.68-1.94,2.63-3.87,2.46-1.87-1.13-1.45-3.48-2.66-4.95C1370.22,313.08,1366.14,314.87,1364.28,312.46Z"/><path class="48f207aa-ae83-4a1f-b3f8-33d7e77735b5" d="M1364.28,312.46c3,1,7.35-2.55,9.16,2.64.63,3.8.46,7.61,1.94,11.45,1.83,4.75-.61,7.31-5.72,7.23-1.74,0-3.61.61-5.25-.58Z"/><path class="48f207aa-ae83-4a1f-b3f8-33d7e77735b5" d="M1378.25,358.32l-13.93.06c0-.72,0-1.43.08-2.15,2.95-5.25.62-10.93,1.34-16.37a3.79,3.79,0,0,0-1.42-3.5,19,19,0,0,1,13.81,0c-2.85,4.9-.75,10.25-1.35,15.36-.2,1.64-.12,3.31,1.37,4.5C1378.18,356.94,1378.21,357.63,1378.25,358.32Z"/><path class="48f207aa-ae83-4a1f-b3f8-33d7e77735b5" d="M1364.41,333.2c10.15.29,10.09.3,9-10.23a73.79,73.79,0,0,1,0-7.87c1.27,1.92.41,4.14.88,6.17-.28,2.75,4.9.4,3.79,4.21-.81,2.76,1.54,7.43-1,8.27C1373.3,335,1368.56,335.53,1364.41,333.2Z"/><path class="48f207aa-ae83-4a1f-b3f8-33d7e77735b5" d="M1378.15,356.25c-2.2.18-2.9-1-2.88-3,.06-4.64,0-9.28,0-13.92,0-2,.54-3.27,2.85-2.93Q1378.13,346.32,1378.15,356.25Z"/><path class="48f207aa-ae83-4a1f-b3f8-33d7e77735b5" d="M1364.32,336.36c2.19-.21,3,.89,2.93,3q-.06,7,0,14c0,2.07-.7,3.18-2.9,3Q1364.37,346.3,1364.32,336.36Z"/><path class="48f207aa-ae83-4a1f-b3f8-33d7e77735b5" d="M1387.46,389.33c2.69,2.87,2.7,6.48,2.78,10.08-2,.46-3.1-.07-3-2.35C1387.39,394.48,1387.4,391.9,1387.46,389.33Z"/><path class="48f207aa-ae83-4a1f-b3f8-33d7e77735b5" d="M1356.15,356.21c-4.16-3.63-2.09-7.75-1-11.8A29.21,29.21,0,0,1,1356.15,356.21Z"/><path class="48f207aa-ae83-4a1f-b3f8-33d7e77735b5" d="M1312.13,359.12l.49,5.17c4.64-7.38,4.8-15.79,6.52-23.79,1.83,2.45.54,5.27.89,7.9.24,1.76,0,3.59,1.12,5.15,2.47,4.48,5.31,8.9,2.92,14.37-.27.13-.54.28-.81.44-2.13-.21-4.27-.53-6.41-.6-6.14-.18-6.16-.14-5.47-6.32A11.2,11.2,0,0,1,1312.13,359.12Z"/><path class="48f207aa-ae83-4a1f-b3f8-33d7e77735b5" d="M1324.1,382.21c.6,2.4-1.11,3.29-2.76,4.22,0-1.95,0-3.91,0-5.92C1322.84,380.22,1323,382,1324.1,382.21Z"/><path class="48f207aa-ae83-4a1f-b3f8-33d7e77735b5" d="M1007.79,379.18c-9.19,1.94-11.71-.53-10.71-10.51a33.11,33.11,0,0,1,0,3.45c-.39,4.9,2.15,6.93,6.73,7C1005.15,379.18,1006.47,379.17,1007.79,379.18Z"/><path class="48f207aa-ae83-4a1f-b3f8-33d7e77735b5" d="M1007.79,379.18a7.48,7.48,0,0,1-9.61-.17c-3.45-2.72-2.39-6.69-1.1-10.34a33.11,33.11,0,0,1,0,3.45c-.39,4.9,2.15,6.93,6.73,7C1005.15,379.18,1006.47,379.17,1007.79,379.18Z"/><path class="48f207aa-ae83-4a1f-b3f8-33d7e77735b5" d="M1395.86,294.42c.7,12.66,2,25.33,1.36,38l-1.36,0Z"/><path class="48f207aa-ae83-4a1f-b3f8-33d7e77735b5" d="M1459.19,339.25l-1.94-1.94c-2.53-9.91-3.86-19.91-2.14-30.12l2.13-1.92c1.86,8.08,2.16,16.29,2,24.53C1459.23,333,1459.22,336.1,1459.19,339.25Z"/><path class="48f207aa-ae83-4a1f-b3f8-33d7e77735b5" d="M1442.42,318.16q0-4.89,0-9.77a4.28,4.28,0,0,1,1.28-.71c2.26-.41,2.58-4.61,4.58-3.55,2.23,1.18.64,4.46,1,6.79a9,9,0,0,1,0,1.47c-.49,2.22-1.65,3.71-4.09,3.87Z"/><path class="48f207aa-ae83-4a1f-b3f8-33d7e77735b5" d="M1445.21,316.26c.92-1.76,2.63-2.68,4.09-3.87.65,4,3.09,8.48-2.91,11.48Z"/><path class="48f207aa-ae83-4a1f-b3f8-33d7e77735b5" d="M1446.2,335.37c.06.64.13,1.28.2,1.93-.12,2.74,2,5.82-1.19,8.12l-.45-.11-.46.09C1441.07,340.42,1441.66,337.29,1446.2,335.37Z"/><path class="48f207aa-ae83-4a1f-b3f8-33d7e77735b5" d="M1437.31,331.56c1.4,2.75.78,4.89,1.18,7.13C1436.16,336.05,1436.16,336.05,1437.31,331.56Z"/><path class="48f207aa-ae83-4a1f-b3f8-33d7e77735b5" d="M1028,376.87c-.36,2.27,1.3,3,2.91,3.16,2.89.29,5.92,1.06,8.65-.8Z"/><path class="48f207aa-ae83-4a1f-b3f8-33d7e77735b5" d="M1028,376.88c.65,3.09,3.11,2.33,5.14,2.39s4.29,0,6.43,0c-2.95,3.68-6.78,1.34-10.17,1.27C1027.67,380.47,1026.62,378.83,1028,376.88Z"/><path class="48f207aa-ae83-4a1f-b3f8-33d7e77735b5" d="M1436.15,342.38a38,38,0,0,0,.25,5.86c.66,3.47-2.63,3.85-4.09,4.17-2.06.46-1.69-2.15-1.83-3.69-.09-1.14-.15-2.28-.22-3.42.08-2.27.11-4.55.28-6.82.06-.8.5-1.66,1.46-1.65s1.09,1,1.2,1.77C1433.47,340.42,1432.33,343.33,1436.15,342.38Z"/><path class="48f207aa-ae83-4a1f-b3f8-33d7e77735b5" d="M1424.3,328.19a7,7,0,0,1-.34,7.1C1422.9,332.28,1423.08,330.24,1424.3,328.19Z"/><path class="48f207aa-ae83-4a1f-b3f8-33d7e77735b5" d="M1345.44,373.05c2.92.55,1.58,2.9,1.69,4.43.53,7.27-1,14.57.32,21.83-1.14,3.07-4,2.05-5.44,1.33s.35-1.15,1.1-1.45c2.55-3.62.69-7.69,1.17-11.53C1344.89,382.81,1342.81,377.75,1345.44,373.05Z"/><path class="48f207aa-ae83-4a1f-b3f8-33d7e77735b5" d="M1347.9,336.55c.44,4.34-.81,8.14,3.81,10.51,2.71,1.39,2,5.2,1.21,7.81s-3.67,1.36-5.67,1.52a1.46,1.46,0,0,1-1.75-1.35c0-5.6-1.07-11.25.62-16.77C1346.28,337.74,1347,337.38,1347.9,336.55Z"/><path class="48f207aa-ae83-4a1f-b3f8-33d7e77735b5" d="M1474.07,297.52c0,.48,0,1,0,1.44-3.51,4.12-7.74,1.84-11.78,1.35-3.72,3.64-2.83-.87-3.78-2.14l-.24-4.83,4.28-4.66C1472,287.94,1472,287.94,1474.07,297.52Z"/><path class="48f207aa-ae83-4a1f-b3f8-33d7e77735b5" d="M1397.36,356.45c-1.16,0-2.33.05-3.49,0-1.72-.11-4.1.63-4.41-2-.27-2.35-1.21-5.3,1.35-6.91,4.5-2.82,4.17-6.85,3.45-11.14,2.69,1,3.08,3.2,3.08,5.63Q1397.36,349.24,1397.36,356.45Z"/><path class="48f207aa-ae83-4a1f-b3f8-33d7e77735b5" d="M1395.34,399.42c0-2.64-.11-5.29-.11-7.93,0-2.08-.15-3.56-2.8-4.36-4.1-1.25-2-5.09-2-7.67.07-3,2.66-2.74,4.91-2.11C1395.84,384.71,1397.17,392.07,1395.34,399.42Z"/><path class="48f207aa-ae83-4a1f-b3f8-33d7e77735b5" d="M1462.24,300.31c3.74-2.1,8,0,11.78-1.35.07,2,0,4,.23,5.94.37,3.49-.57,5.37-4.54,5.9-5.53.74-6.28.41-6.44-5.33C1463.23,303.7,1463.79,301.78,1462.24,300.31Z"/><path class="48f207aa-ae83-4a1f-b3f8-33d7e77735b5" d="M1445.21,345.42c2-2.48.46-5.46,1.18-8.13,1.31,2.67.79,5.49.48,8.21C1446.71,346.87,1445.72,346.92,1445.21,345.42Z"/><path class="48f207aa-ae83-4a1f-b3f8-33d7e77735b5" d="M1286,381.12c7.8.07,15.61.11,23.41.24,1.18,0,3-.63,3.22,1.29.15,1.23-1.11,2-2.2,2.43-4.29,1.88-8.81,1.22-13.27,1.11-1.89,0-1.61-2.24-3.26-3.76-.17,4.82-2.94,5-6.36,5-10.13-.18-20.27.15-30.39-.13-6.59-.19-13.16-1.09-19.73-1.73-1.7-.17-3.73-.72-3.49-2.76.29-2.43,2.65-1.36,4.09-1.4,6.81-.14,13.62-.11,20.43-.14.56-.36-.22,0,.36-.34C1263.1,378.41,1281.69,378.56,1286,381.12Z"/><path class="48f207aa-ae83-4a1f-b3f8-33d7e77735b5" d="M1268.35,360.41c-1.82-3.75-5.22-1.65-7.9-2-2.44-.31-5.07.28-6.08-2.88,1.23-1.29,2.82-.68,4.23-.69q14.64-.09,29.29,0c1.42,0,3-.53,4.27.64-.77,2.2-2.32,2.92-4.62,2.91-2.77,0-5.61-.54-8.91.63,3.13,2.23,6.28.84,9.13,1.28,1.18.18,3-.43,2.84,1.71-.11,1.53-1.28,2.26-2.8,2.27a33.34,33.34,0,0,0-10,1c2.74,0,5.48,0,8.22,0,1.27,0,2.92-.16,2.82,1.85a2.14,2.14,0,0,1-2.44,2c-9.22-.48-18.43,2.06-27.67.14-1.7-.35-3.08-1-2.89-2.72s2.07-1.14,3.29-1.31c3.38-.47,7,1.07,10.17-1.1l.42-.54c1.21-1.16,3.16-.64,4.42-1.9-1.71-1.08-3.68,0-5.32-.9Z"/><path class="48f207aa-ae83-4a1f-b3f8-33d7e77735b5" d="M1292.16,355.48l-37.79.06c-4.22-.76-6.44-.23-5.34,5.22,1.22,6,.29,6.73-5.76,6.48-4.5-.19-8.78,2.05-13.3.91,6.28-.07,7-4,6.49-9a26.45,26.45,0,0,1,.5-6.43c.87-5.88,2.18-7,6.56-3.07,6.59,6,13.91,4.84,21.3,4.75,11.43-.13,22.88.71,34.29-.41C1297.26,356.57,1294.44,354.81,1292.16,355.48Z"/><path class="48f207aa-ae83-4a1f-b3f8-33d7e77735b5" d="M1286,381.12l-27.55.11c-.82-6.16-.82-6.17,5.23-6.2,5.64,0,11.29.27,16.9-.09C1285.48,374.62,1287.34,376.26,1286,381.12Z"/><path class="48f207aa-ae83-4a1f-b3f8-33d7e77735b5" d="M1299.48,353.41c2.14-2.59,5.29-3.31,8.23-4.36,1.84-.66,4.47-2.24,5.54-1,1.41,1.64.32,4.29-1,6.27A69.21,69.21,0,0,1,1299.48,353.41Z"/><path class="48f207aa-ae83-4a1f-b3f8-33d7e77735b5" d="M1269.34,364.21c-3.77,0-7.54.08-11.3.07-1.19,0-2.4-.23-2.54-1.73-.16-1.79,1.11-2.21,2.53-2.22,3.44,0,6.88.05,10.32.08l.13.12c1,1,1.63,2.09,1,3.54Z"/><path class="48f207aa-ae83-4a1f-b3f8-33d7e77735b5" d="M1215.16,381.18l-3,.3-1.83-.21c-.24-2.76-2.24-5.74,1-8.07a2.8,2.8,0,0,1,.94.26C1214.88,375.41,1211.71,379.55,1215.16,381.18Z"/><path class="48f207aa-ae83-4a1f-b3f8-33d7e77735b5" d="M1192.45,370.11c3.75.39,7.51.64,11.1,1.88a2.74,2.74,0,0,1-.39,1.25c-2.35,1.78-.49,5.27-2.86,7-6.83,1-2.44-5.35-4.85-7.39-3,1.08,1.19,7.05-4.27,6.36-1.15-3-2-6,.73-8.63Z"/><path class="48f207aa-ae83-4a1f-b3f8-33d7e77735b5" d="M1211.31,373.2c-2,2.48-.84,5.35-1,8.07-2.39-1.47-.28-4-1.48-6-1.57,1.45-.1,3.67-1.49,5.29-1.87-1.89,0-4.54-1.45-6.4-3.44.69.5,5.88-3.66,6.1-1.23-2.76-2-5.47.8-7.8.17-.17.35-.34.51-.51C1206.1,372.62,1208.86,371.92,1211.31,373.2Z"/><path class="48f207aa-ae83-4a1f-b3f8-33d7e77735b5" d="M1191.91,370.62c-.24,2.87-.49,5.75-.73,8.63l-1.9,0c0-2.12.45-4.41-.18-6.33C1187.83,369.11,1190.24,370.48,1191.91,370.62Z"/><path class="48f207aa-ae83-4a1f-b3f8-33d7e77735b5" d="M1203,372.5c-1,2.52-.57,5.19-.8,7.8l-1.94,0c0-1.93,0-3.87,0-5.8S1201.24,371.94,1203,372.5Z"/><path class="48f207aa-ae83-4a1f-b3f8-33d7e77735b5" d="M1172,389.77c-1-4.7-1.62-8.44,1.59-12.71C1174.68,381.78,1175.3,385.51,1172,389.77Z"/><path class="48f207aa-ae83-4a1f-b3f8-33d7e77735b5" d="M1256.31,341.38l37.24-.1c1,0,2,0,2.62,1a303.86,303.86,0,0,1-36.34.25C1258.6,342.45,1257.09,343,1256.31,341.38Z"/><path class="48f207aa-ae83-4a1f-b3f8-33d7e77735b5" d="M1105.75,368.74c5.15,0,10.3,0,15.45,0,1,0,2.58-.78,2.76,1.05.14,1.42-1.13,1.94-2.3,2.16a25.73,25.73,0,0,1-4.45.52q-12.46.08-24.93,0a19.3,19.3,0,0,1-3.47-.38c-1.19-.21-2.43-.67-2.25-2.14.2-1.62,1.57-1.28,2.74-1.27C1094.78,368.75,1100.26,368.73,1105.75,368.74Z"/><path class="48f207aa-ae83-4a1f-b3f8-33d7e77735b5" d="M1106.25,363.09c5.14,0,10.28-.06,15.42.05,1,0,3-.71,2.85,1.58-.14,1.88-1.74,1.7-3,1.71q-15.92.06-31.83.07c-1.1,0-2.47.17-2.57-1.54-.12-2.09,1.53-1.85,2.76-1.86,5.47-.06,10.94,0,16.41,0Z"/><path class="48f207aa-ae83-4a1f-b3f8-33d7e77735b5" d="M1368.32,346.26c0-2.32,0-4.64,0-7,0-2.05.86-3,3-3s2.88,1.11,2.88,3.1q0,7,.06,13.91c0,2.1-.92,3-3,2.95s-3-1-2.92-3C1368.35,350.9,1368.31,348.58,1368.32,346.26Z"/><path class="48f207aa-ae83-4a1f-b3f8-33d7e77735b5" d="M1269.44,364.07a2.84,2.84,0,0,1-1-3.54c2.8-1.25,5.61-1.8,8.36.07.71.48,1.17,1.29.42,2C1275,364.9,1272.2,364.4,1269.44,364.07Z"/></g></g></svg>