<svg xmlns="http://www.w3.org/2000/svg" viewBox="0 0 62.63 33.96"><defs><style>.\38 2afa981-1de3-4be0-b57c-1c034ad4418d{fill:#fff;}</style></defs><title>Asset 10</title><g id="56ac68df-21f3-4422-8613-a62a66775e81" data-name="Layer 2"><g id="7e5f3c97-5059-411f-a49d-bd5a32a6c55c" data-name="Layer 1"><path class="82afa981-1de3-4be0-b57c-1c034ad4418d" d="M58.79,34c-.23-.06-.47-.1-.7-.17a8.43,8.43,0,0,1-1.78-.88L44,26a.43.43,0,0,1-.24-.4,1.37,1.37,0,0,1,.31-.88l.7.44c3.68,2.28,7.43,4.45,11.28,6.44.63.33,1.27.65,1.92.94a2.25,2.25,0,0,0,2.79-.7.34.34,0,0,0,.08-.17l-.28.25a2.22,2.22,0,0,1-2.5.12c-1.27-.79-2.54-1.58-3.84-2.32-1.89-1.08-3.78-2.14-5.7-3.17-1.32-.71-2.68-1.35-4-2l-.24-.12c.27-.63.55-1.25.8-1.88A15.69,15.69,0,0,0,46,18.28c0-.26,0-.25.26-.23a34.8,34.8,0,0,0,4.79.13,6.5,6.5,0,0,0,4.5-2A5.08,5.08,0,0,0,57,12.9c0-.3,0-.61-.05-.91h-.07c0,.14-.06.29-.1.44a5.46,5.46,0,0,1-4,4.09,10.36,10.36,0,0,1-2.76.41c-1.2,0-2.39.1-3.58.15h-.31v-.84h.23c1.38,0,2.77,0,4.15,0a5.91,5.91,0,0,0,3.09-.84,4,4,0,0,0,2-4,4.3,4.3,0,0,0-3.34-3.74,7.88,7.88,0,0,0-2-.26H46.06l-2.78,0A.36.36,0,0,1,43,7.28,16.88,16.88,0,0,0,39.51,3.6a.12.12,0,0,1,0-.05.87.87,0,0,1,.69-.38c3.42,0,6.84,0,10.26,0a9.86,9.86,0,0,1,6.4,2.28,8.42,8.42,0,0,1,1.77,2.08,1.06,1.06,0,0,0,1,.58s.11.06.14.12a10.86,10.86,0,0,1,1,3c0,.12,0,.23.07.38a.33.33,0,0,0,0-.12,8.11,8.11,0,0,0-.39-3.69.29.29,0,0,1,0-.24,1,1,0,0,0,0-1.16A10.65,10.65,0,0,0,58,3.6a11.87,11.87,0,0,0-6.62-2.55C50.91,1,50.44,1,50,1H40.23a4,4,0,0,0-1.14.17,2.37,2.37,0,0,0-1.42,1.22L37,2A3.51,3.51,0,0,1,38.2.85a3.7,3.7,0,0,1,2-.54c3.38,0,6.76,0,10.13,0a12.89,12.89,0,0,1,7.79,2.5,11,11,0,0,1,4.34,6.92c.09.46.11.94.17,1.41a1.1,1.1,0,0,0,0,.16v1a1,1,0,0,0,0,.17,10.84,10.84,0,0,1-2.26,6.1,11.77,11.77,0,0,1-6.06,4.13L53.19,23l.13.09,7.51,4.2a3.23,3.23,0,0,1,1.46,1.57A9.45,9.45,0,0,1,62.63,30v.65c0,.06,0,.11,0,.17a3.49,3.49,0,0,1-2.89,3l-.33.07ZM48.7,22l0,0,.37.32a32.62,32.62,0,0,0,5.06,3.43C56,26.92,58,28,59.88,29a.68.68,0,0,0,.4.07c.29,0,.47-.27.53-.63a.64.64,0,0,0-.39-.64c-2.23-1.24-4.46-2.48-6.7-3.69a29.47,29.47,0,0,0-4.42-1.94C49.1,22.14,48.9,22.09,48.7,22ZM50.42,22v.07a9.58,9.58,0,0,0,6.68-1.55,7.69,7.69,0,0,0,2.94-3.76l-.09.11a13.47,13.47,0,0,1-4.63,3.68,16.31,16.31,0,0,1-4.14,1.29C50.93,21.86,50.67,21.93,50.42,22ZM40.68,3.84v0l.1,0,5.6.14c1.1,0,2.21,0,3.31,0a15.18,15.18,0,0,1,2.43.15,9,9,0,0,1,4.33,1.87c.24.19.46.39.69.58A7.36,7.36,0,0,0,54.75,4.7,10.7,10.7,0,0,0,50,3.64c-1.37,0-2.74,0-4.1,0l-5,.15ZM50.3,6.05l1.78.57a9.55,9.55,0,0,1,3.57,2.06c.23.22.47.43.68.62a.28.28,0,0,0,0-.06,3.65,3.65,0,0,0-1.08-1.88A5.32,5.32,0,0,0,51.69,5.9,4.18,4.18,0,0,0,50.3,6.05Z"/><path class="82afa981-1de3-4be0-b57c-1c034ad4418d" d="M28.56,6.3a13.26,13.26,0,0,1,3.62,1.09H24.5V26.72h.09c1.42,0,2.83,0,4.25,0a9.08,9.08,0,0,0,5.25-1.84,9.41,9.41,0,0,0,3.72-5.68A8.94,8.94,0,0,0,38,16.52a1.55,1.55,0,0,0,0-.21h3.44l0,.28h0l0-.28H45c0,.69,0,1.38,0,2.06a15.65,15.65,0,0,1-1.28,5.3,16.52,16.52,0,0,1-8,8.39,15.56,15.56,0,0,1-6.58,1.67c-1.52,0-3,0-4.55,0-1.19,0-2.38,0-3.57,0-5.88-.14-11.76,0-17.63-.06A3.49,3.49,0,0,1,.13,31.05,4.38,4.38,0,0,1,0,30Q0,16.85,0,3.65A3.51,3.51,0,0,1,3,.05,3.55,3.55,0,0,1,7.08,3a3.27,3.27,0,0,1,0,.54v23H17.51V4.09A3.5,3.5,0,0,1,21,.55c2.51,0,5,0,7.53,0a16.28,16.28,0,0,1,10.59,4A16.48,16.48,0,0,1,41.7,7.23l.1.16H40.47a1.35,1.35,0,0,0-.54-1.2,16.11,16.11,0,0,0-7.19-4.34,12.91,12.91,0,0,0-3.55-.57c-2.78,0-5.56,0-8.34,0a2.52,2.52,0,0,0-1.93.89,1.12,1.12,0,0,0,0,1.54.32.32,0,0,1,.09.23l.18,3.35a.35.35,0,0,0,0,.17L19.47,4h.16a1.13,1.13,0,0,0,.9-.34.68.68,0,0,1,.5-.2c2.55,0,5.1,0,7.64,0a13.41,13.41,0,0,1,9.12,3.68l.22.22s0,0,0,0a1.1,1.1,0,0,1-.89-.23,12.56,12.56,0,0,0-6.4-3.09,14.89,14.89,0,0,0-3.27-.16c-.89,0-1.77,0-2.66.07L22.08,4l-.33.06,2.42.08c1.56,0,3.12,0,4.68.09a12.79,12.79,0,0,1,5.7,1.58,13.61,13.61,0,0,1,2.27,1.55l-.16,0h-2.4A.47.47,0,0,1,34,7.32a9.44,9.44,0,0,0-4.32-1.18,10.54,10.54,0,0,0-1.12.08ZM43.73,17.64h-.06l0,.22c-.09.55-.14,1.1-.26,1.65A15.71,15.71,0,0,1,38.55,28a15.05,15.05,0,0,1-8,3.84,27.45,27.45,0,0,1-4.25.21c-2.42,0-4.84-.05-7.26-.06-1.29,0-2.58,0-3.87,0-1.57,0-3.13-.07-4.7-.08q-2,0-4,0c-.92,0-1.84,0-2.76.13a2.08,2.08,0,0,1-2.26-1.55l-.07-.24a2.25,2.25,0,0,0,1.31,2.09,3.64,3.64,0,0,0,1.46.27c1,0,2,.1,2.93.11h6.8c.53,0,1.06,0,1.59-.05,1.13,0,2.27-.14,3.41-.13,1.79,0,3.57.09,5.36.14.69,0,1.37,0,2.06,0,1.13,0,2.27,0,3.41,0a14,14,0,0,0,5.65-1.5,14.85,14.85,0,0,0,6-5.28,14.48,14.48,0,0,0,2.36-6.72C43.71,18.72,43.71,18.18,43.73,17.64Zm-4.4-.28c0,.05,0,.11,0,.16a12,12,0,0,1-3.76,7.06,11,11,0,0,1-6.73,3l-4.26.35c-.28,0-.55.07-.83.11v.07a.85.85,0,0,0,.22.09c.71.07,1.42.16,2.13.21,1,.08,2,.18,3,.19a9.52,9.52,0,0,0,5.82-1.83,10.38,10.38,0,0,0,4.37-6.55A8.34,8.34,0,0,0,39.33,17.36ZM7.23,27.85v.07l.06,0c.31.07.61.15.92.21a31.78,31.78,0,0,0,5.25.42c1.28,0,2.55,0,3.83,0h.2v-1.3h-.08c-1.45,0-2.9,0-4.35,0-1.08,0-2.16.07-3.23.17C9,27.56,8.1,27.72,7.23,27.85ZM25.79,31l.12.18a.87.87,0,0,0,.91.35.77.77,0,0,0,.57-.66.78.78,0,0,0-.41-.76,3.82,3.82,0,0,1-.46-.21c-.05,0-.05-.15-.08-.23a.74.74,0,0,1,.25-.05c.06,0,.11.08.16.13a.26.26,0,0,0,.38,0c.13-.1.11-.23,0-.36a.84.84,0,0,0-.85-.34.69.69,0,0,0-.53.61.7.7,0,0,0,.48.76,4,4,0,0,1,.36.17.2.2,0,0,1,.1.29.23.23,0,0,1-.32.09.57.57,0,0,1-.15-.12c-.22-.26-.3-.28-.58-.07V29.31c0-.13,0-.27-.18-.3a.91.91,0,0,0-.31.09l0,0A1,1,0,0,0,25,29c-.4,0-.79,0-1.19,0a.26.26,0,0,0-.28.3v.27a1,1,0,0,0-.81-.56h-.83c-.19,0-.28.1-.28.29,0,.62,0,1.25,0,1.88a.26.26,0,0,0,.26.29c.15,0,.25-.11.26-.29a2.53,2.53,0,0,0,0-.29l.88.49a.51.51,0,0,0,.28.07c.09,0,.17-.11.2-.14a1.65,1.65,0,0,0,.38.12h1a2.28,2.28,0,0,0,.33-.08c.13,0,.26.13.36.11C25.82,31.43,25.75,31.18,25.79,31ZM3.42.67H3.26a2.66,2.66,0,0,0-1.93,1A1.08,1.08,0,0,0,1.47,3.2,1.12,1.12,0,0,0,3,3.12a.69.69,0,0,1,.49-.23,1.08,1.08,0,0,0,1.07-.7A1.12,1.12,0,0,0,3.42.67Zm7.35,30.17v.37c0,.18.11.29.26.29s.27-.1.28-.3V31a1.29,1.29,0,0,1,.2.21.86.86,0,0,0,.92.26.73.73,0,0,0,.5-.71.76.76,0,0,0-.54-.75l-.3-.13c-.1-.05-.17-.13-.11-.24s.18-.12.28-.05.11.13.18.14a.47.47,0,0,0,.33,0,.22.22,0,0,0,.06-.32A.83.83,0,0,0,12,29a.71.71,0,0,0-.14,1.36,2.6,2.6,0,0,1,.41.2.3.3,0,0,1,.09.27.2.2,0,0,1-.29.11,1,1,0,0,1-.17-.13c-.08-.07-.16-.18-.25-.2s-.22.06-.34.1V29.37c0-.15,0-.31-.16-.35s-.25,0-.38.06-.25-.09-.36-.06-.17.22-.17.37c0,.36,0,.73,0,1.09a.45.45,0,1,1-.9,0c0-.38,0-.77,0-1.15,0-.21-.1-.32-.27-.33s-.26.11-.26.32q0,.61,0,1.23a.91.91,0,0,0,.6.88.92.92,0,0,0,1.06-.18A3.48,3.48,0,0,0,10.77,30.84Zm5.44-.9a3.59,3.59,0,0,0-.42-.6,1.61,1.61,0,0,0-1.42-.29c-.08,0-.18.17-.19.25,0,.63,0,1.26,0,1.88a.26.26,0,0,0,.29.28H15a1.16,1.16,0,0,0,1-.67,2.72,2.72,0,0,0,.11-.25,2.61,2.61,0,0,0,.37.58,1.31,1.31,0,0,0,.59.34,1.46,1.46,0,0,0,.69,0,1.22,1.22,0,0,0,.87-1.31,1.27,1.27,0,0,0-1-1.13A1.3,1.3,0,0,0,16.21,29.94Zm3.23,1.56a.81.81,0,0,0,.88-.59.77.77,0,0,0-.42-.86,4.08,4.08,0,0,1-.42-.19.26.26,0,0,1-.1-.23c0-.12.15-.12.25-.06a.7.7,0,0,1,.17.13.26.26,0,0,0,.38,0,.24.24,0,0,0,0-.37,1.09,1.09,0,0,0-.36-.28.71.71,0,1,0-.59,1.3c.14.06.28.11.41.18a.21.21,0,0,1,.11.3.21.21,0,0,1-.33.08,1,1,0,0,1-.2-.2.27.27,0,0,0-.37-.08.25.25,0,0,0-.08.37A.86.86,0,0,0,19.44,31.5Zm-11.9-.57v-.26c0-.46,0-.93,0-1.4A.26.26,0,0,0,7.27,29a.24.24,0,0,0-.25.26q0,1,0,1.95a.22.22,0,0,0,.24.25c.43,0,.87,0,1.3,0a.24.24,0,0,0,.19-.39.46.46,0,0,0-.28-.13Z"/><path class="82afa981-1de3-4be0-b57c-1c034ad4418d" d="M50.87,12.53V8.85a.8.8,0,0,1,.49-.78.82.82,0,0,1,1.14.73v6.14a.81.81,0,0,1-.58.76.79.79,0,0,1-.91-.31c-.84-1.06-1.67-2.13-2.51-3.2l-.76-1c0,.11,0,.17,0,.24v3.3a1.42,1.42,0,0,1,0,.29.81.81,0,0,1-.85.69.8.8,0,0,1-.77-.81V8.85a.81.81,0,0,1,.55-.8.83.83,0,0,1,.94.29L49.64,11l1.11,1.42Zm-4.33-3.7a.73.73,0,0,0,.22-.09c.14-.11.23-.06.33.06a35.37,35.37,0,0,0,2.28,2.75,17.93,17.93,0,0,1,1.44,1.68l.13.14.14.13a.28.28,0,0,1,0-.06c-.5-.86-1.15-1.61-1.67-2.46a30.17,30.17,0,0,0-2-2.56.62.62,0,0,0-.94-.08.38.38,0,0,0-.1.29A2.45,2.45,0,0,0,46.5,9Zm.91,2.3h-.07c0,.55-.08,1.1-.09,1.66s0,1.31,0,2c0,.07.09.14.14.21s.13-.14.13-.2q0-1.38,0-2.76A8.72,8.72,0,0,0,47.45,11.13ZM52,8.43c-.07-.09-.1-.18-.17-.22a.53.53,0,0,0-.65.27.36.36,0,0,0,.07.24c.2.2.36-.07.55-.08S51.89,8.52,52,8.43Zm-4.61.92-.06,0,1.9,2.42.06-.05Zm-1,5.67a.31.31,0,0,0,.11.33.33.33,0,0,0,.36.1Zm5.47.38-.55-.16C51.4,15.52,51.59,15.58,51.84,15.4Z"/><path class="82afa981-1de3-4be0-b57c-1c034ad4418d" d="M44.11,12.69H42a.8.8,0,0,1-.81-.82.79.79,0,0,1,.81-.81h3.05a.79.79,0,0,1,.81.82,3.86,3.86,0,1,1-4.48-3.82A3.75,3.75,0,0,1,44.64,9a.82.82,0,0,1,.07,1.14.81.81,0,0,1-1.14.09,2.24,2.24,0,0,0-3.71,2.09A2.24,2.24,0,0,0,42,14.1a2.17,2.17,0,0,0,2-1.22A1.21,1.21,0,0,0,44.11,12.69ZM39,10.17l0,0,.28-.32s.08-.08.11-.08.23-.08.32-.17a3.2,3.2,0,0,1,4.41-.14c.1.09.22.14.32,0a.45.45,0,0,0,.1-.28c0-.05-.06-.11-.11-.15a3.67,3.67,0,0,0-5.13.26.47.47,0,0,0-.1.2c0,.1,0,.2-.08.3A2.39,2.39,0,0,1,39,10.17Zm6.52,2.38a3.47,3.47,0,0,1-3.28,2.76,3.51,3.51,0,0,1-3.69-2.72,3.53,3.53,0,0,0,3.62,2.93A3.48,3.48,0,0,0,45.53,12.55Zm-2-1.05h.94a5.23,5.23,0,0,0,.56,0c.06,0,.11-.09.16-.14a.65.65,0,0,0-.16-.13s-.09,0-.13,0H42s-.13.09-.13.12a.45.45,0,0,0,.13.15s.09,0,.13,0Zm-1.68,2.9A3.07,3.07,0,0,1,39.51,12,2.21,2.21,0,0,0,41.89,14.4Zm2.1-2v-.07c-.58,0-1.16,0-1.74,0-.27,0-.52,0-.69-.3a.49.49,0,0,0,.53.46l1.78,0Zm-1.8-3.06a4.37,4.37,0,0,1,1.62.79.42.42,0,0,0,.55-.07.62.62,0,0,1-.65-.2A2,2,0,0,0,42.19,9.33Zm-3.12,1.85a5.77,5.77,0,0,1,.35-.76,3.72,3.72,0,0,1,.52-.68,3.34,3.34,0,0,1,.67-.5c.23-.14.5-.23.75-.35A2.9,2.9,0,0,0,39.07,11.18Z"/><path class="82afa981-1de3-4be0-b57c-1c034ad4418d" d="M27.26,9.71v1.37h2.92a.79.79,0,0,1,.63,1.3.82.82,0,0,1-.66.28H27.27V14h.21c.89,0,1.77,0,2.65,0a.82.82,0,0,1,.87.8.8.8,0,0,1-.86.79H26.53a.79.79,0,0,1-.85-.85V9a.79.79,0,0,1,.86-.85c1.22,0,2.43,0,3.65,0a.79.79,0,0,1,.27,1.54,1.32,1.32,0,0,1-.34,0H27.26Zm-1.13-.78a2,2,0,0,1,1.2-.15c.94,0,1.87,0,2.8,0,.2,0,.31-.09.31-.24s-.1-.24-.31-.24H26.49a1,1,0,0,0-.45.17A.27.27,0,0,0,26,8.7a6.87,6.87,0,0,0,.14.71Zm1,2.4v.07c.13,0,.27,0,.41.06l2.62.06c.1,0,.21,0,.21-.14s-.12-.14-.23-.14c-.58,0-1.17,0-1.76,0C27.93,11.25,27.51,11.3,27.09,11.33Zm0,2.95v.06l.24,0,2.79.09c.11,0,.23,0,.23-.14s-.11-.15-.23-.15H28.56C28.07,14.2,27.58,14.25,27.08,14.28Zm-.36,1v.08h3.43a.53.53,0,0,0,.45-.23,1.77,1.77,0,0,1-.44.11l-3.2,0Zm.42-5.94v.08c.28,0,.57.05.85.05.74,0,1.48,0,2.22,0a.41.41,0,0,0,.42-.32c-.21.22-.23.21-.66.21Zm0,3a11.49,11.49,0,0,0,2.93,0A11.49,11.49,0,0,0,27.13,12.36ZM29.78,9V8.93H26.84V9Z"/><path class="82afa981-1de3-4be0-b57c-1c034ad4418d" d="M33.81,15.72a2.83,2.83,0,0,1-2.47-1.64.82.82,0,0,1,1.43-.78,4.49,4.49,0,0,0,.37.49.92.92,0,0,0,.76.3.7.7,0,0,0,.63-.55.69.69,0,0,0-.39-.78c-.43-.2-.88-.39-1.32-.57a2.19,2.19,0,0,1-1.28-2.27A2.23,2.23,0,0,1,33.3,8a2.67,2.67,0,0,1,2.56,1.17.81.81,0,0,1-.21,1.08.83.83,0,0,1-1.11-.11A2.31,2.31,0,0,0,34,9.73a.53.53,0,0,0-.79.23.56.56,0,0,0,.32.76l1.18.5a2.37,2.37,0,0,1,1.43,2.63A2.34,2.34,0,0,1,33.81,15.72ZM32,10c.06-.09.11-.2.18-.29s.16-.14.21-.22a1.5,1.5,0,0,1,2.15-.65,5,5,0,0,1,.77.62c.15.13.29.17.4.06s.1-.23,0-.38a3.17,3.17,0,0,0-1.09-.83,2,2,0,0,0-2.66,1,.37.37,0,0,0,0,.18C31.88,9.71,31.93,9.87,32,10Zm.93.35a.76.76,0,0,0,.45.69c.38.19.77.38,1.16.54a2.16,2.16,0,0,1,1.33,1.5.31.31,0,0,0,.05.1A1.72,1.72,0,0,0,35,11.56,8.28,8.28,0,0,0,33.62,11,1,1,0,0,1,32.89,10.39Zm.76,3.93a4.77,4.77,0,0,1-.64-.43c-.19-.18-.33-.41-.51-.6a.46.46,0,0,0-.63-.07.7.7,0,0,1,.56.41,2.29,2.29,0,0,0,.56.56A.76.76,0,0,0,33.65,14.32Zm0,1a3.37,3.37,0,0,1-2-1.24A1.94,1.94,0,0,0,33.68,15.31Zm1.18-2.05a.82.82,0,0,0-.44-.8c-.45-.22-.92-.38-1.38-.57L33,12c.34.17.67.35,1,.49A1.26,1.26,0,0,1,34.86,13.26Zm.53-3.17a.61.61,0,0,1-.62-.28,1.21,1.21,0,0,0-.87-.49l.88.76A.47.47,0,0,0,35.39,10.09ZM33.09,9a1.32,1.32,0,0,0-.74.9A1.23,1.23,0,0,0,32.6,11,1.47,1.47,0,0,1,33.09,9Z"/><path class="82afa981-1de3-4be0-b57c-1c034ad4418d" d="M38,11.89c0,1,0,2,0,3a.82.82,0,0,1-1,.85.78.78,0,0,1-.66-.74V8.75A.78.78,0,0,1,37.13,8a.81.81,0,0,1,.85.71A1.77,1.77,0,0,1,38,9Zm-.25-.81h-.07c0,.23-.06.45-.06.68,0,.93,0,1.86,0,2.79a1.38,1.38,0,0,0,0,.29c0,.05.08.12.12.12s.1-.07.14-.12,0-.07,0-.11c0-.6,0-1.2,0-1.8S37.77,11.7,37.74,11.08Zm-.27-2.65a.88.88,0,0,0-.17-.22.51.51,0,0,0-.65.29.29.29,0,0,0,.06.22c.21.22.36-.06.55-.08S37.39,8.51,37.47,8.43ZM36.65,15c0,.27.18.49.39.42Z"/><path class="82afa981-1de3-4be0-b57c-1c034ad4418d" d="M46.54,8.83l0,.18a2.45,2.45,0,0,1-.12-.38.38.38,0,0,1,.1-.29.62.62,0,0,1,.94.08,30.17,30.17,0,0,1,2,2.56c.52.85,1.17,1.6,1.67,2.46a.28.28,0,0,0,0,.06l-.14-.13-.13-.14a17.93,17.93,0,0,0-1.44-1.68A35.37,35.37,0,0,1,47.09,8.8c-.1-.12-.19-.17-.33-.06A.73.73,0,0,1,46.54,8.83Z"/><path class="82afa981-1de3-4be0-b57c-1c034ad4418d" d="M47.45,11.13a8.72,8.72,0,0,1,.08.88q0,1.38,0,2.76c0,.06-.08.13-.13.2s-.14-.14-.14-.21c0-.66,0-1.32,0-2s.06-1.11.09-1.66Z"/><path class="82afa981-1de3-4be0-b57c-1c034ad4418d" d="M52,8.43c-.08.09-.13.2-.2.21s-.35.28-.55.08a.36.36,0,0,1-.07-.24.53.53,0,0,1,.65-.27C51.87,8.25,51.9,8.34,52,8.43Z"/><path class="82afa981-1de3-4be0-b57c-1c034ad4418d" d="M47.36,9.35l1.9,2.41-.06.05L47.3,9.39Z"/><path class="82afa981-1de3-4be0-b57c-1c034ad4418d" d="M46.37,15l.47.43a.33.33,0,0,1-.36-.1A.31.31,0,0,1,46.37,15Z"/><path class="82afa981-1de3-4be0-b57c-1c034ad4418d" d="M51.84,15.4c-.25.18-.44.12-.55-.16Z"/><path class="82afa981-1de3-4be0-b57c-1c034ad4418d" d="M39,10.17a2.39,2.39,0,0,0,.16-.32c0-.1,0-.2.08-.3a.47.47,0,0,1,.1-.2,3.67,3.67,0,0,1,5.13-.26c.05,0,.11.1.11.15a.45.45,0,0,1-.1.28c-.1.1-.22.05-.32,0a3.2,3.2,0,0,0-4.41.14c-.09.09-.16.2-.32.17s-.08.05-.11.08l-.28.32Z"/><path class="82afa981-1de3-4be0-b57c-1c034ad4418d" d="M45.53,12.55a3.48,3.48,0,0,1-3.35,3,3.53,3.53,0,0,1-3.62-2.93,3.51,3.51,0,0,0,3.69,2.72A3.47,3.47,0,0,0,45.53,12.55Z"/><path class="82afa981-1de3-4be0-b57c-1c034ad4418d" d="M43.57,11.5h-1.4s-.1,0-.13,0a.45.45,0,0,1-.13-.15s.08-.12.13-.12h2.9s.1,0,.13,0a.65.65,0,0,1,.16.13c0,.05-.1.13-.16.14a5.23,5.23,0,0,1-.56,0Z"/><path class="82afa981-1de3-4be0-b57c-1c034ad4418d" d="M41.89,14.4A2.21,2.21,0,0,1,39.51,12,3.07,3.07,0,0,0,41.89,14.4Z"/><path class="82afa981-1de3-4be0-b57c-1c034ad4418d" d="M44,12.39l-.12,0-1.78,0a.49.49,0,0,1-.53-.46c.17.3.42.3.69.3.58,0,1.16,0,1.74,0Z"/><path class="82afa981-1de3-4be0-b57c-1c034ad4418d" d="M42.19,9.33a2,2,0,0,1,1.52.52.62.62,0,0,0,.65.2.42.42,0,0,1-.55.07A4.37,4.37,0,0,0,42.19,9.33Z"/><path class="82afa981-1de3-4be0-b57c-1c034ad4418d" d="M39.07,11.18a2.9,2.9,0,0,1,2.29-2.29c-.25.12-.52.21-.75.35a3.34,3.34,0,0,0-.67.5,3.72,3.72,0,0,0-.52.68A5.77,5.77,0,0,0,39.07,11.18Z"/><path class="82afa981-1de3-4be0-b57c-1c034ad4418d" d="M26.13,8.93l0,.48A6.87,6.87,0,0,1,26,8.7.27.27,0,0,1,26,8.47a1,1,0,0,1,.45-.17h3.64c.21,0,.31.09.31.24s-.11.24-.31.24c-.93,0-1.86,0-2.8,0A2,2,0,0,0,26.13,8.93Z"/><path class="82afa981-1de3-4be0-b57c-1c034ad4418d" d="M27.09,11.33c.42,0,.84-.08,1.26-.09.59,0,1.18,0,1.76,0,.11,0,.23,0,.23.14s-.11.14-.21.14l-2.62-.06c-.14,0-.28,0-.41-.06Z"/><path class="82afa981-1de3-4be0-b57c-1c034ad4418d" d="M27.08,14.28c.5,0,1-.08,1.48-.1h1.55c.12,0,.23,0,.23.15s-.12.15-.23.14l-2.79-.09-.24,0Z"/><path class="82afa981-1de3-4be0-b57c-1c034ad4418d" d="M26.72,15.29l.24,0,3.2,0a1.77,1.77,0,0,0,.44-.11.53.53,0,0,1-.45.23H26.72Z"/><path class="82afa981-1de3-4be0-b57c-1c034ad4418d" d="M27.14,9.35H30c.43,0,.45,0,.66-.21a.41.41,0,0,1-.42.32c-.74,0-1.48,0-2.22,0-.28,0-.57,0-.85-.05Z"/><path class="82afa981-1de3-4be0-b57c-1c034ad4418d" d="M27.13,12.36a11.49,11.49,0,0,1,2.93,0A11.49,11.49,0,0,1,27.13,12.36Z"/><path class="82afa981-1de3-4be0-b57c-1c034ad4418d" d="M29.78,9H26.84V8.93h2.93Z"/><path class="82afa981-1de3-4be0-b57c-1c034ad4418d" d="M32,10c0-.17-.08-.33-.11-.5a.37.37,0,0,1,0-.18,2,2,0,0,1,2.66-1,3.17,3.17,0,0,1,1.09.83c.13.15.14.28,0,.38s-.25.07-.4-.06a5,5,0,0,0-.77-.62,1.5,1.5,0,0,0-2.15.65c-.05.08-.15.14-.21.22S32,10,32,10Z"/><path class="82afa981-1de3-4be0-b57c-1c034ad4418d" d="M32.89,10.39a1,1,0,0,0,.73.59,8.28,8.28,0,0,1,1.37.58,1.72,1.72,0,0,1,.89,1.66.31.31,0,0,1-.05-.1,2.16,2.16,0,0,0-1.33-1.5c-.39-.16-.78-.35-1.16-.54A.76.76,0,0,1,32.89,10.39Z"/><path class="82afa981-1de3-4be0-b57c-1c034ad4418d" d="M33.65,14.32a.76.76,0,0,1-.66-.13,2.29,2.29,0,0,1-.56-.56.7.7,0,0,0-.56-.41.46.46,0,0,1,.63.07c.18.19.32.42.51.6A4.77,4.77,0,0,0,33.65,14.32Z"/><path class="82afa981-1de3-4be0-b57c-1c034ad4418d" d="M33.68,15.31a1.94,1.94,0,0,1-2-1.24A3.37,3.37,0,0,0,33.68,15.31Z"/><path class="82afa981-1de3-4be0-b57c-1c034ad4418d" d="M34.86,13.26a1.26,1.26,0,0,0-.85-.8c-.34-.14-.67-.32-1-.49l0-.08c.46.19.93.35,1.38.57A.82.82,0,0,1,34.86,13.26Z"/><path class="82afa981-1de3-4be0-b57c-1c034ad4418d" d="M35.39,10.09a.47.47,0,0,1-.61,0l-.88-.76a1.21,1.21,0,0,1,.87.49A.61.61,0,0,0,35.39,10.09Z"/><path class="82afa981-1de3-4be0-b57c-1c034ad4418d" d="M33.09,9a1.47,1.47,0,0,0-.49,2,1.23,1.23,0,0,1-.25-1.11A1.32,1.32,0,0,1,33.09,9Z"/><path class="82afa981-1de3-4be0-b57c-1c034ad4418d" d="M37.74,11.08c0,.62.08,1.23.1,1.85s0,1.2,0,1.8c0,0,0,.09,0,.11s-.09.11-.14.12-.11-.07-.12-.12a1.38,1.38,0,0,1,0-.29c0-.93,0-1.86,0-2.79,0-.23,0-.45.06-.68Z"/><path class="82afa981-1de3-4be0-b57c-1c034ad4418d" d="M37.47,8.43c-.08.08-.14.21-.21.21s-.34.3-.55.08a.29.29,0,0,1-.06-.22.51.51,0,0,1,.65-.29A.88.88,0,0,1,37.47,8.43Z"/><path class="82afa981-1de3-4be0-b57c-1c034ad4418d" d="M36.65,15l.39.42C36.83,15.53,36.61,15.31,36.65,15Z"/><path class="82afa981-1de3-4be0-b57c-1c034ad4418d" d="M25.22,29.46v.62c-.38-.2-.79,0-1.18-.12v-.39C24.42,29.49,24.83,29.65,25.22,29.46Z"/><path class="82afa981-1de3-4be0-b57c-1c034ad4418d" d="M24,30.52a4.29,4.29,0,0,0,1.19-.1V31c-.38-.19-.79,0-1.19-.11Z"/><path class="82afa981-1de3-4be0-b57c-1c034ad4418d" d="M22.11,30.19c0-.18,0-.35,0-.52s.06-.1.1-.1a3.23,3.23,0,0,1,.44,0,.34.34,0,0,1,.32.32.34.34,0,0,1-.33.3Z"/><path class="82afa981-1de3-4be0-b57c-1c034ad4418d" d="M23.49,30.16v.93l-.64-.38A1.13,1.13,0,0,0,23.49,30.16Z"/><path class="82afa981-1de3-4be0-b57c-1c034ad4418d" d="M23.32,29.64l-.06,0c-.38-.5-.93-.35-1.44-.35l-.13,0s0-.1.1-.12a.65.65,0,0,1,.2,0,7.38,7.38,0,0,1,.82,0A.55.55,0,0,1,23.32,29.64Z"/><path class="82afa981-1de3-4be0-b57c-1c034ad4418d" d="M25,29.19a.58.58,0,0,1-.18,0h-.92l-.31,0c-.05-.11,0-.17.13-.17.39,0,.79,0,1.18,0,0,0,.07,0,.11.06Z"/><path class="82afa981-1de3-4be0-b57c-1c034ad4418d" d="M26,29.54a.7.7,0,0,1,.06-.19.65.65,0,0,1,1-.13.5.5,0,0,1,.13.12s0,.09,0,.14a.37.37,0,0,1-.15,0c-.4-.34-.58-.33-.94.06l-.08.06Z"/><path class="82afa981-1de3-4be0-b57c-1c034ad4418d" d="M25.65,31.21V30.15h0v1.06Z"/><path class="82afa981-1de3-4be0-b57c-1c034ad4418d" d="M26.39,29.9c.32.17.77.17.87.64C27.1,30.15,26.65,30.15,26.39,29.9Z"/><path class="82afa981-1de3-4be0-b57c-1c034ad4418d" d="M25,30.12h-.9v-.05H25Z"/><path class="82afa981-1de3-4be0-b57c-1c034ad4418d" d="M25,31.07h-.87v0H25Z"/><path class="82afa981-1de3-4be0-b57c-1c034ad4418d" d="M22.25,30.31l.72-.14C22.94,30.32,22.61,30.41,22.25,30.31Z"/><path class="82afa981-1de3-4be0-b57c-1c034ad4418d" d="M23.3,31.14l-.69-.39,0-.06.7.38Z"/><path class="82afa981-1de3-4be0-b57c-1c034ad4418d" d="M26.12,30.66l.17.19.21.18c-.23,0-.31-.19-.41-.33Z"/><path class="82afa981-1de3-4be0-b57c-1c034ad4418d" d="M11.55,29.55a.37.37,0,0,1,0-.15.63.63,0,0,1,.56-.35.77.77,0,0,1,.63.33s0,.07,0,.11-.07,0-.1,0l-.2-.17a.51.51,0,0,0-.73.12,1.58,1.58,0,0,1-.12.15Z"/><path class="82afa981-1de3-4be0-b57c-1c034ad4418d" d="M11.94,29.88c.29.19.74.18.86.6-.13-.1-.26-.22-.41-.32a4.23,4.23,0,0,0-.48-.23Z"/><path class="82afa981-1de3-4be0-b57c-1c034ad4418d" d="M11.23,30.15v1.06h0V30.14Z"/><path class="82afa981-1de3-4be0-b57c-1c034ad4418d" d="M12,31c-.2,0-.23-.06-.36-.35l.27.44Z"/><path class="82afa981-1de3-4be0-b57c-1c034ad4418d" d="M17.45,29.53a.72.72,0,1,1-.72.72A.72.72,0,0,1,17.45,29.53Z"/><path class="82afa981-1de3-4be0-b57c-1c034ad4418d" d="M14.7,30.93V29.57a.79.79,0,0,1,.86.3.66.66,0,0,1,0,.74A.82.82,0,0,1,14.7,30.93Z"/><path class="82afa981-1de3-4be0-b57c-1c034ad4418d" d="M18.33,29.58a1.24,1.24,0,0,0-1.82.08.94.94,0,0,1,1-.61C17.91,29.08,18.3,29.32,18.33,29.58Z"/><path class="82afa981-1de3-4be0-b57c-1c034ad4418d" d="M15.8,29.62c-.42-.47-1-.41-1.56-.35.08-.08.12-.17.17-.17a1.86,1.86,0,0,1,1.22.19,1.9,1.9,0,0,1,.24.25Z"/><path class="82afa981-1de3-4be0-b57c-1c034ad4418d" d="M14.86,31.06c.64-.21.64-.21.86-.54C15.71,30.85,15.33,31.1,14.86,31.06Z"/><path class="82afa981-1de3-4be0-b57c-1c034ad4418d" d="M16.64,30.42a1.13,1.13,0,0,0,.7.65A.71.71,0,0,1,16.64,30.42Z"/><path class="82afa981-1de3-4be0-b57c-1c034ad4418d" d="M17.65,31.4a1,1,0,0,1-.78-.13Z"/><path class="82afa981-1de3-4be0-b57c-1c034ad4418d" d="M15,31.37l.62-.21A.77.77,0,0,1,15,31.37Z"/><path class="82afa981-1de3-4be0-b57c-1c034ad4418d" d="M18.94,29.54a.53.53,0,0,1,0-.17.62.62,0,0,1,.55-.32.81.81,0,0,1,.62.33s0,.07,0,.1-.08,0-.1,0-.15-.13-.24-.19a.49.49,0,0,0-.69.15l-.11.16Z"/><path class="82afa981-1de3-4be0-b57c-1c034ad4418d" d="M20.19,30.53c-.16-.36-.54-.38-.83-.58A.86.86,0,0,1,20.19,30.53Z"/><path class="82afa981-1de3-4be0-b57c-1c034ad4418d" d="M19.44,31c-.24,0-.31-.2-.39-.37Z"/><path class="82afa981-1de3-4be0-b57c-1c034ad4418d" d="M7.72,31h.83v0H7.72Z"/></g></g></svg>