<svg xmlns="http://www.w3.org/2000/svg" viewBox="0 0 517.58 144.45"><defs><style>.\34 24d42ff-af83-492f-9872-115eefca5a65{fill:#fff;}</style></defs><title>Asset 16</title><g id="f9dd1934-4a6c-4d65-9095-e223db0e5d5c" data-name="Layer 2"><g id="14da28f8-03a6-4e1d-a08f-cb4e5fc4aebc" data-name="Layer 1"><path class="424d42ff-af83-492f-9872-115eefca5a65" d="M281.38,55.5h0c0,4.66,0,9.31,0,14,0,11.88,6.32,19.78,18.26,21.61a119.15,119.15,0,0,0,35.77,0c12.75-1.91,19-9.75,19-22.58,0-8.32-.63-16.69.13-24.94,1.4-15.17-10.19-21.92-21.07-23.44-9.26-1.3-18.6-.6-27.9-.42a28.16,28.16,0,0,0-11.12,2.46C287,25.6,280.34,30.57,281.31,41,281.75,45.82,281.38,50.68,281.38,55.5Zm20.31-18.27c10.66.08,21.33.1,32,0,2.79,0,3.31,1.17,3.28,3.58-.08,10-.13,20,0,30,0,2.91-1,3.71-3.78,3.62-5.16-.17-10.33,0-15.49,0v.09c-5.34,0-10.67-.1-16,0-2.38.06-3.21-.76-3.19-3.14q.12-15.49,0-31C298.45,37.9,299.38,37.21,301.69,37.23Z"/><path class="424d42ff-af83-492f-9872-115eefca5a65" d="M369.66,37.26c8.33,0,16.65,0,25,0,1.56,0,3.81-.86,4.56.69.84,1.76-1.44,2.7-2.54,3.8q-17,17-34,33.8c-3.25,3.21-4.81,6.91-2.9,11.27,1.82,4.15,5.34,5.36,9.8,5.24,8.66-.23,17.32,0,26,0,9.16,0,18.32.12,27.47,0,5-.09,8.45-3.37,8.75-7.81.35-5.08-2.24-8.49-7.48-9.5a32.75,32.75,0,0,0-5.95-.35c-8.93,0-17.85,0-28.43,0,3.4-3.51,5.73-6,8.13-8.37q15.19-15.18,30.42-30.32c2.94-2.93,4.44-6.42,2.81-10.4s-5.06-5.74-9.58-5.71c-17.32.11-34.64,0-52,0-6.45,0-10.74,3.54-10.86,8.62C358.72,33.57,363.05,37.23,369.66,37.26Z"/><path class="424d42ff-af83-492f-9872-115eefca5a65" d="M276.64,81.48c0-17.15,0-34.31.07-51.46,0-4.22-1.09-7.8-5-9.46S264,20,260.82,23.25c-5.64,5.88-11.61,11.46-17.13,17.45-2.61,2.84-4.14,2.65-6.66-.07-5.42-5.87-11.15-11.46-16.85-17.06-3-2.92-6.39-5-10.76-3.14-3.66,1.54-5.83,4.18-5.81,8.43,0,18,0,36,0,54,0,5.25,3.79,9.11,8.55,9.19a8.84,8.84,0,0,0,9.13-8.68c.29-8.15.14-16.32.18-24.47,0-2.42,0-4.84,0-7.27.94,0,1.37-.06,1.54.11q4.41,4.39,8.76,8.85c6,6.13,10.55,6.12,16.63.11,3.1-3.07,5.84-6.61,9.81-8.78,1.12,1.71.58,3.24.59,4.69.07,8.49-.16,17,.16,25.48.23,6.33,4.33,10.3,9.47,10C273.4,91.77,276.63,87.65,276.64,81.48Z"/><path class="424d42ff-af83-492f-9872-115eefca5a65" d="M504.21,91.22c3-1.4,5.32-3.45,5.37-7.33.25-1.4-.47-2.73-1.15-4.07Q494.67,52.4,480.93,25c-1.62-3.23-4.17-5.28-7.81-5.34-3.88-.06-6.45,2.15-8.16,5.56-8.9,17.65-17.88,35.27-26.75,52.94-3,5.92-1.87,10.43,2.84,12.89s9.15.53,12.05-5.17c5.81-11.4,11.49-22.86,17.32-34.25.62-1.22.76-3.33,2.6-3.24,1.4.07,1.76,1.86,2.34,3q8.25,16.22,16.4,32.5a21,21,0,0,0,3.74,5.85A7.18,7.18,0,0,0,504.21,91.22Z"/><path class="424d42ff-af83-492f-9872-115eefca5a65" d="M89.49,2.24C78.55-.37,67.57-1.07,56.6,2.17A59.8,59.8,0,0,0,26.48,16.83h0A58.27,58.27,0,0,0,8.4,39.14C2.74,49.46-.24,60.35.21,72c-.56.9.21,2.49,0,3.6a1.51,1.51,0,0,0,.32.92A35.54,35.54,0,0,0,2,90.18c10.92,39.56,49.11,61.87,88.61,51.9,6.74-1.28,12.6-4.6,18.68-7.59,9.06-4.45,13.76-10.8,11.24-21.19V74.92c-6.33,5.42-11.22,11.28-16.42,16.84-3.72,4-6.42,9-11.47,11.65-3.22.28-5.17-1.68-7.07-3.88Q76,88.4,66.35,77.35c-.84-1-1.62-2.64-3-2.26-2,.55-1,2.54-1,3.88q-.32,24.16-.5,48.31c-15.85.19-26.16-9.88-26.21-25.55,0-1.81-.1-3.62-.15-5.43v-39l.21-32h0c4-4.75,8.79-5.57,14-2.2a23.79,23.79,0,0,1,4.1,3.61C65.07,38.49,76.46,50.18,87.59,62.11c3,3.26,5,3.27,7.94-.06,4.9-5.64,10.15-11,15.25-16.44s10.36-10.77,15.76-15.92c2.19-2.09,1.61-3.27-.11-5.18A70.93,70.93,0,0,0,89.49,2.24Z"/><path class="424d42ff-af83-492f-9872-115eefca5a65" d="M149.45,90.17c-13.27,0-12.73-1.45-12.8,12.58-.07,13.23-.13,12.39,12.13,12.32,14.13-.08,12.86,1.19,12.89-12.9C161.69,88.37,162,90.28,149.45,90.17Z"/><path class="424d42ff-af83-492f-9872-115eefca5a65" d="M148.47,68.91C160,69,160,69,160,61.91c0-12.69.79-11.71-9.19-11.74-9.33-.05-9.33-.05-9.36,6.64C141.38,68.86,141.38,68.86,148.47,68.91Z"/><path class="424d42ff-af83-492f-9872-115eefca5a65" d="M265.31,119.65a5.76,5.76,0,0,0,1.93-7.15,6.61,6.61,0,0,0-6.69-4.27c-3.33,0-6.67.18-10-.07s-4.64,1.16-5.07,4.08q0,7,.11,14c.56,1.55.86,3.48,3.16,3.08s1.83-2.37,2-4c.13-1.37-.74-3.23,1.24-3.87,1.74-.57,3.26.28,4.55,1.43,1.73,1.55,3.41,3.15,5.12,4.73,1.37,1.26,2.9,2.76,4.72,1.11,2.14-1.93.09-3.23-1.18-4.42C263.42,122.68,262.92,121.38,265.31,119.65ZM260,116.36c-1.15,0-2.3,0-3.44,0-.82,0-1.65,0-2.46,0-1.26-.06-2.93.26-2.84-1.73.07-1.61,1.54-1.39,2.65-1.41,2,0,3.94,0,5.9,0,1.15,0,2.55,0,2.64,1.49S261.14,116.33,260,116.36Z"/><path class="424d42ff-af83-492f-9872-115eefca5a65" d="M336.1,119.51a5.37,5.37,0,0,0,2-6.63c-1.12-2.81-3.1-4.67-6.39-4.65-3.82,0-7.64.08-11.46,0-2.84-.07-3.82,1.45-3.82,4v14.11c.31,1.75.88,3.42,3.08,3.07s1.95-2.28,2.13-3.93c.14-1.37-.75-3.2,1.12-3.94,1.72-.68,3.16.13,4.45,1.39,1.67,1.61,3.47,3.09,5.18,4.65,1.37,1.23,2.87,2.91,4.66,1.22s.31-3.38-1.13-4.54C333.78,122.5,333.44,121.32,336.1,119.51Zm-7.5-3a1.72,1.72,0,0,1-1,0c-2-.56-5.67,1.38-5.65-1.7s3.76-.81,5.26-1.65a6.49,6.49,0,0,1,1.38,0c1.66.54,4.79-1.28,4.78,1.68S330.26,115.91,328.6,116.47Z"/><path class="424d42ff-af83-492f-9872-115eefca5a65" d="M483,108.27c-12.4,0-10.23-1.19-10.45,10.1,0,11.46,0,11.46,10.34,11.16,6.48-.19,11.74-5,11.6-10.55C494.33,113,489.45,108.29,483,108.27Zm-1.57,16.33c-5.36.41-3.52-3.3-3.78-5.18-.14-3.6-.89-6.73,4.09-6.28,3.93.36,6.87,1.6,7.37,5.72C489.53,122.31,486.19,124.23,481.43,124.6Z"/><path class="424d42ff-af83-492f-9872-115eefca5a65" d="M437.18,108.41c-1.55,0-2.33,1.18-2.42,2.67s0,3-.14,4.48c-.14,1.22.8,3-.83,3.51-1.3.39-2.24-1.11-3.17-2-2.66-2.52-5.23-5.13-7.94-7.58-2.53-2.26-4.67-1.28-4.91,1.71-.41,5.12-.16,10.3-.06,15.45a2.52,2.52,0,0,0,2.85,2.75c2-.14,2.18-1.71,2.19-3.28,0-2.62,0-5.24,0-8.84,5.19,3.38,8.08,7.54,11.85,10.74,2.14,1.83,4.57,2.6,4.91-1.09.49-5.28.15-10.63.11-16A2.29,2.29,0,0,0,437.18,108.41Z"/><path class="424d42ff-af83-492f-9872-115eefca5a65" d="M416.29,114.32a5.6,5.6,0,0,0-3-4.85c-4.71-2.86-15-1.34-18.86,2.74q0,6.57,0,13.12c3.11,3.94,12.21,5.86,17.76,3.68,4.91-1.92,4.09-6.27,4.18-10.19C416.36,117.32,416.33,115.82,416.29,114.32ZM405.39,125c-4.83.39-7.44-1-5.91-6.21-1.81-7.29,3.47-5.16,7.08-5.67,6.37-.89,4.51,3.63,5,6.92C412.33,125.5,408.73,124.76,405.39,125Z"/><path class="424d42ff-af83-492f-9872-115eefca5a65" d="M225.67,109.23c-1.87,1-3.14,2.45-3.16,4.67,0,3.48,0,6.95,0,10.43,0,2.1,1.38,3.28,3,4.19,4.15,2.28,14.37,1,18.24-2.2a13.65,13.65,0,0,0,.92-2.32h0a11.69,11.69,0,0,1-.36-1.38v0a65.85,65.85,0,0,0,0-6.59v0a14.82,14.82,0,0,1,.39-1.56h0c-.13-.64-.26-1.28-.41-1.92C240.56,108.24,230.64,106.53,225.67,109.23ZM234.22,125c-7.15.08-7,.07-7.23-7.65-.11-3.87,1.84-4.2,4.93-4.17,7.52.07,7.28,0,7.65,5.84C239.88,123.69,238.61,126.1,234.22,125Z"/><path class="424d42ff-af83-492f-9872-115eefca5a65" d="M296,109.46c-4.63,2.83-4.43,16.46.28,19.09.29.16.58.44.88.46,6,.36,12.33,2.34,17.51-2.73q.11-7.05.22-14.09C311.09,108.12,300.65,106.61,296,109.46ZM309.92,120c.2,2.1,1.26,6-4.09,4.9-3-.61-8.65,2.9-8-4.27.28-2.92-2.53-7.74,4.28-7.52C309.76,113.35,309.77,113,309.92,120Z"/><path class="424d42ff-af83-492f-9872-115eefca5a65" d="M280.19,108.22c-10.62,0-10.62,0-10.57,10.52,0,2.5,0,5,0,7.5,0,1.67.39,3.08,2.35,3.15a2.35,2.35,0,0,0,2.55-2.94c-.74-4.84,1.8-5.35,5.77-5.2,7.46.26,11.59-2.31,11.39-6.48C291.47,110.27,287.89,108.23,280.19,108.22Zm3.55,8.3c-1.16,0-2.33,0-3.49,0v.08c-1,0-2,0-3,0-1.34-.06-2.83,0-2.67-2,.15-1.67,1.5-1.5,2.63-1.51,2.16,0,4.33,0,6.49,0,1.32,0,2.91-.12,2.73,1.91C286.28,116.62,284.88,116.48,283.74,116.52Z"/><path class="424d42ff-af83-492f-9872-115eefca5a65" d="M211,113.19a64,64,0,0,0,7.45-.34,2.18,2.18,0,0,0,2-2.42,2.08,2.08,0,0,0-2.32-2.08c-3.81,0-7.72-.37-11.4.37-4.68.94-7.46,4.62-8,9.2s1.91,8.31,6,10.62c2.45,1.37,5.18.92,6.75,1,2.73,0,4.4.07,6.06,0,1.39-.06,2.74-.47,2.77-2.2s-1.34-2.16-2.72-2.24c-2.48-.16-5,0-7.47-.3-3.54-.47-6.78-2-6.38-6.17C204.23,114.63,207.23,113.19,211,113.19Z"/><path class="424d42ff-af83-492f-9872-115eefca5a65" d="M168.31,71.3c-6.13,0-6.13,0-6.07,7.21,0,7.51,0,7.51,8.32,7.46,6.15,0,6.15,0,6.08-8.69C176.6,71.23,176.6,71.23,168.31,71.3Z"/><path class="424d42ff-af83-492f-9872-115eefca5a65" d="M508.44,109.1c-1.06-1.77-3-.71-3.91,1q-3.88,7.49-7.65,15c-.7,1.4-1.13,3,.6,3.91,2,1.07,3-.51,3.79-2q2-4,4-8c1.13-2.29,2.24-2.14,3.34,0,1.52,2.94,3,5.89,4.55,8.83a2.47,2.47,0,0,0,2.84,1.5c1.14-.24,1.65-1,1.58-3.19C514.86,121,511.9,114.9,508.44,109.1Z"/><path class="424d42ff-af83-492f-9872-115eefca5a65" d="M353.39,110c-1.24-2.28-3.36-2.34-4.64,0-2.77,5.09-5.32,10.3-7.84,15.51-.65,1.35-1,3,1,3.77s2.69-.66,3.39-2.06c1.33-2.67,2.65-5.34,4-8,.43-.85.85-1.81,2-1.86,1.12.38,1.37,1.42,1.81,2.28,1.35,2.66,2.64,5.35,4,8,.66,1.31,1.69,2.14,3.21,1.59s1.67-2,1.05-3.28C358.78,120.57,356.23,115.19,353.39,110Z"/><path class="424d42ff-af83-492f-9872-115eefca5a65" d="M382.35,108.22c-2.5,0-5,0-7.49,0-2.17,0-4.33,0-6.5,0-1.77,0-4.21-.4-4.38,2.07-.18,2.66,2.18,3.08,4.26,2.85,3.52-.39,4.22,1.11,3.86,4.35-.32,2.94.11,6,.26,9,.07,1.37.36,2.74,2.09,2.91,2,.18,2.62-1.19,2.72-2.81a42.52,42.52,0,0,0,.09-6.48c-.36-4.06-.71-7.78,5.35-7.06a2.42,2.42,0,0,0,2.75-2.79C385.14,108.68,383.82,108.21,382.35,108.22Z"/><path class="424d42ff-af83-492f-9872-115eefca5a65" d="M466.45,125c-3.95-.22-8.88,1.55-11.61-.88s-.62-7.56-1-11.46c0-.33,0-.66,0-1,0-1.61-.3-3.17-2.31-3.14s-2.87,1.33-2.82,3.32c.05,2.33,0,4.67,0,7,.09,11.87-1.45,10.61,10.65,10.7,2.33,0,4.66,0,7,0,1.77,0,4.23.36,4.29-2.12S468.32,125.1,466.45,125Z"/><path class="424d42ff-af83-492f-9872-115eefca5a65" d="M389.24,108.48c-2.4.54-1.84,2.66-1.8,4.5.11,4,0,8,0,11.94,0,1.77-.43,4,2.1,4.38,3,.42,2.8-2.1,3.17-4l0-13.09C392.21,110.38,392.11,107.84,389.24,108.48Z"/><path class="424d42ff-af83-492f-9872-115eefca5a65" d="M165.53,45.44c3.69.7,5.67-.12,5.43-4.49-.2-3.56-.23-6-5-5.81-3.71.17-5.81.49-5.59,5.09C160.58,44.06,161,46.51,165.53,45.44Z"/></g></g></svg>