<svg xmlns="http://www.w3.org/2000/svg" viewBox="0 0 335.63 95.6"><defs><style>.fd80e22e-742a-43c1-88b6-155b0d07330f{fill:#fff;}</style></defs><title>Asset 13</title><g id="ab467c5e-94c4-48e4-8169-163c05455935" data-name="Layer 2"><g id="a3840f50-9125-4a04-8589-06d08da6e3d1" data-name="Layer 1"><path class="fd80e22e-742a-43c1-88b6-155b0d07330f" d="M10.18,52c-.47.13-.94.28-1.42.38-2.65.55-6.18,3.42-7.59,1.65-1.8-2.25-1.29-6.25,0-9.44a1.79,1.79,0,0,1,.62,2c-.18-.76.49-2.27-.41-3.7C1.64,34.39,7.66,31.68,14.5,29.8c2.66-3.8,7.27-3.48,11-5.14a25.07,25.07,0,0,1,5.68-1.73c4.63-1.29,9-3.3,13.55-4.79,11.62-3.79,21.23.22,23.28,13,.44,2.75,1.67,5.41.91,8.29a1.63,1.63,0,0,1-1.13.88,42.92,42.92,0,0,0-13.09-.7c-.87.21-1.74.36-2.62.52a62.36,62.36,0,0,0-6.17,1.66h-.65c-2.76-1.29-5,.67-7.43,1.31C32.53,44.49,27.41,46.35,22.24,48c-1.62,2.61-4.63,2.55-7,3.69C13.56,52.14,11.92,53.09,10.18,52Z"/><path class="fd80e22e-742a-43c1-88b6-155b0d07330f" d="M31.51,23.74l-17,6.06C20.64,13.5,32.84,4.47,49.44.81A68.72,68.72,0,0,1,56.34,0a7.51,7.51,0,0,0,4.93,0c21.84,1.05,42.26,18.52,44.87,40.87a49.25,49.25,0,0,0,0,12.95,31.73,31.73,0,0,1-7.73,18.3c-3.34-.75-3.19-3.38-3.2-5.93,4.25-11.34,4.83-22.48-.93-33.65C88.73,21.79,80,15.45,68.51,12.36c-1.56-.42-3.38-.19-4.4-1.86-.09-.43,0-.67.31-.62s.27-.46,0-.38a16,16,0,0,1-9.18,0c-.63-.2.05-.22-.37.08s.69-.16.68.4c-.06,1.27-1,1.73-2,1.89C44.82,13.25,37.74,17.69,31.51,23.74Z"/><path class="fd80e22e-742a-43c1-88b6-155b0d07330f" d="M85.35,58.72c-4,7.13-5.91,15.27-10.52,22.09-4,5.94-11.61,5.52-14.49-1.08-3.69-8.47-6.74-17.21-10.07-25.84.29-3.06,3-2.49,4.82-3,4.68-1.46,9.76-1.82,13.68-5.26,2.1.29,2.3,2.06,2.78,3.62.28.92.29,2.16,1.41,2.39,1.41.29,1.94-1,2.58-2,2.67-3.78,4.33-8.16,6.93-12,1.55-2.29,2.77-5.6,6-5s4.32,3.76,5.18,6.67a11.37,11.37,0,0,1,.42,5.87c-.88,2.61-.06,5.44-1,8-1.19,2.23-4.13,2-5.54,4A4.59,4.59,0,0,1,85.35,58.72Z"/><path class="fd80e22e-742a-43c1-88b6-155b0d07330f" d="M22.39,57.82c.87,2.84,1.68,5.7,2.62,8.52,4.15,12.4,13.17,19.28,25.49,22.39,1.27.32,2.53.73,3.79,1.1,1.63.92,3.31.65,5,.17h3.06c1.68.47,3.36.77,5-.2,5.47-1.87,10.92-3.73,15.81-7,1.32-.87,3.11-1.07,4.71-1.44a2.08,2.08,0,0,1,2.6.9c.57,1.23-.57,1.81-1.29,2.37C78.5,92.85,66.76,97.35,53.07,95a6,6,0,0,1,2.11-.37c-1.61-.16-3.22-.62-4.86.11-17.59-2.32-34.1-17.08-37.87-33.87,2.73-1.51,6.53-.17,8.69-3.23A1.08,1.08,0,0,1,22.39,57.82Z"/><path class="fd80e22e-742a-43c1-88b6-155b0d07330f" d="M69.31,45.84c-1.26,2.46-3.16,3.6-6,4.3-4.38,1.11-9,1.44-13.07,3.75-1.49-1.77-1.85-4-2.67-6.1a2.76,2.76,0,0,1,1.93-2c6.45-1.63,12.54-5,19.51-4.11A2.7,2.7,0,0,1,69.31,45.84Z"/><path class="fd80e22e-742a-43c1-88b6-155b0d07330f" d="M96,66c.33,2.22.2,4.62,2.4,6.11-2.36,4.62-5.54,5-8.16.93a21.17,21.17,0,0,1-2.77-7.28c.2-3,2.74-3.7,4.69-5a3,3,0,0,1,1.69-1.07C96.38,61.2,95.06,64,96,66Z"/><path class="fd80e22e-742a-43c1-88b6-155b0d07330f" d="M21.31,57.83c-1.47,5.36-5.49,3.24-8.86,3l-1-4c1.91-4.47,4.75-5.58,10.12-4C21.81,54.54,22.16,56.21,21.31,57.83Z"/><path class="fd80e22e-742a-43c1-88b6-155b0d07330f" d="M54.16,38.77c4.44-.61,8.94-2,13.07,1.07-6.62,2.91-13.28,5.62-20.75,5l-1.27-3.08.37,0c1.71-1.44,4.13-1.06,5.9-2.33a22.33,22.33,0,0,1,2.84-.11,2.81,2.81,0,0,0,1.08-.07A1.35,1.35,0,0,1,54.16,38.77Z"/><path class="fd80e22e-742a-43c1-88b6-155b0d07330f" d="M46.48,44.85l20.75-5,1,.08a1.15,1.15,0,0,1,.22,1.63c-6.83,2.51-14.17,3.3-20.86,6.24Z"/><path class="fd80e22e-742a-43c1-88b6-155b0d07330f" d="M132.31,38.13c-2.18,8.26-.37,16.7-1.11,25-2.95-4.38-1-9.3-1.49-13.95-.24-2.29,0-4.64-.07-7C129.55,40.18,130.16,38.69,132.31,38.13Z"/><path class="fd80e22e-742a-43c1-88b6-155b0d07330f" d="M21.29,52.86c-3.48.84-7.61,0-9.85,4L10.18,52,15,50.75c2.35-.46,4.68-1.11,7.11-.9v2A1.75,1.75,0,0,1,21.29,52.86Z"/><path class="fd80e22e-742a-43c1-88b6-155b0d07330f" d="M154.34,65.55c3.3-.61,4-2.56,4.12-5.84.19-4.92-1.77-10.08,1.15-14.79,0,5.64-.31,11.29,0,16.91C159.9,66.48,158.27,67.38,154.34,65.55Z"/><path class="fd80e22e-742a-43c1-88b6-155b0d07330f" d="M139.06,65.82c-1.08-7-1.53-14,.21-21Z"/><path class="fd80e22e-742a-43c1-88b6-155b0d07330f" d="M93.08,61.71c-1.69,1.59-4.72,1.35-5.59,4.07l-.89-4a2.1,2.1,0,0,1,1.11-1.59,5.32,5.32,0,0,1,2-.38C91.17,59.85,92.49,60.14,93.08,61.71Z"/><path class="fd80e22e-742a-43c1-88b6-155b0d07330f" d="M150.06,46.9c2.41,4.88,1.3,9.88.56,14.88C149.6,56.85,150.46,51.85,150.06,46.9Z"/><path class="fd80e22e-742a-43c1-88b6-155b0d07330f" d="M87.3,60.84l-.7.95c-.6-.95.2-2.47-1.25-3.07.33-.62.67-1.23,1-1.84,2-.7,3.85-3.25,6.18-.58C92.09,59.3,88.51,58.71,87.3,60.84Z"/><path class="fd80e22e-742a-43c1-88b6-155b0d07330f" d="M106.15,53.83a21.06,21.06,0,0,1,0-12.95A58.41,58.41,0,0,1,106.15,53.83Z"/><path class="fd80e22e-742a-43c1-88b6-155b0d07330f" d="M22.14,49.85c-2.22,1.49-4.7.92-7.11.91C17.14,49.07,19.88,49,22.24,48,22.21,48.63,22.17,49.24,22.14,49.85Z"/><path class="fd80e22e-742a-43c1-88b6-155b0d07330f" d="M149.29,35a8.47,8.47,0,0,1-8,0A25.3,25.3,0,0,1,149.29,35Z"/><path class="fd80e22e-742a-43c1-88b6-155b0d07330f" d="M21.29,52.86l.85-1,.25,6H21.31C21.31,56.17,21.3,54.51,21.29,52.86Z"/><path class="fd80e22e-742a-43c1-88b6-155b0d07330f" d="M1.35,42.86C3,44.28,2,46,2.38,48c-1.58-1.13-.8-2.46-1.24-3.46Z"/><path class="fd80e22e-742a-43c1-88b6-155b0d07330f" d="M50.32,94.71c1.58-1.36,3.3-1,6.12-.26L53.07,95Z"/><path class="fd80e22e-742a-43c1-88b6-155b0d07330f" d="M61.27,0a3.71,3.71,0,0,1-4.93,0Z"/><path class="fd80e22e-742a-43c1-88b6-155b0d07330f" d="M59.28,90c-1.71,1.24-3.38,1.34-5-.17Z"/><path class="fd80e22e-742a-43c1-88b6-155b0d07330f" d="M67.33,89.8c-1.61,1.56-3.28,1.44-5,.2Z"/><path class="fd80e22e-742a-43c1-88b6-155b0d07330f" d="M51.31,39.83a8.64,8.64,0,0,1-5.73,2c1-2.89,3.87-1.67,5.72-2.68.34.16.45.32.34.48S51.42,39.83,51.31,39.83Z"/><path class="fd80e22e-742a-43c1-88b6-155b0d07330f" d="M51.31,39.83c0-.24,0-.48,0-.72l2.87-.34c.69.24,1.6-.24,2.35,1.06Z"/><path class="fd80e22e-742a-43c1-88b6-155b0d07330f" d="M64.15,9.92H55.46A1.36,1.36,0,0,1,55,9.79a5.2,5.2,0,0,1-.58-.57,32,32,0,0,1,10.79,0c0,.12,0,.31-.14.36A9,9,0,0,1,64.15,9.92Z"/><path class="fd80e22e-742a-43c1-88b6-155b0d07330f" d="M93.26,53.88l.07,3a.61.61,0,0,1-1,0c-2-2.24-4,.68-6,.05,1.26-2.43,3.5-3,6-3.05C92.66,53.34,93,53.38,93.26,53.88Z"/><path class="fd80e22e-742a-43c1-88b6-155b0d07330f" d="M93.26,53.88c-.32,0-.63,0-.94-.05.38-3-.89-6.1.82-8.95Z"/><path class="fd80e22e-742a-43c1-88b6-155b0d07330f" d="M180.18,46.93c-.18-5.5-4.13-10-9.92-11.82a21.36,21.36,0,0,0-7.93-.12h0c-4.34,1.61-8.69,2.46-13,0a18.9,18.9,0,0,1-8,0,18.8,18.8,0,0,0-9,3.14,6.46,6.46,0,0,0-2,4.39c.19,6.88-.7,13.81.86,20.63,3,3.16,3.67,3.4,7.86,2.67-.32-7-.69-14,.21-21,4.17-2.31,8-2.61,10.79,2.07,1.62,4.91.53,9.91.56,14.88a5.36,5.36,0,0,0,3.72,3.77c3.45.21,4.62-1.12,4.59-4.82,0-5.25-1.22-10.62.68-15.81,3.7-2,7.27-2.7,10.42,1q.22,6.95.44,13.89c-.18,2.62,1.58,3.94,3.48,5.16.75,1.25,2,1,3.13,1h0c2.42,1.3,3.24.44,3.19-2.14C180.18,58.19,180.37,52.56,180.18,46.93Z"/><path class="fd80e22e-742a-43c1-88b6-155b0d07330f" d="M272.68,61.86c-2.84-2.43-4.32-6-7.47-8.25-2.4-1.73-2.58-4,.16-6.35a40.31,40.31,0,0,0,5.87-7.14c1.08-1.51,2.74-3.3,0-4.94-2.28-.8-4.6-.53-6.93-.23h0c-4.25,2.81-5.57,8.82-11,10.69-.8-6.37.59-12.34-.81-18.19l-1-1.14h0c-2.23-1.33-3.53-5.24-7.19-2.59-1,.35-1,1.19-1,2q.1,17,.22,34.07h0c.5,2.72,1.59,4.88,4.78,5.06,1.34.71,2.69,1.46,4,0h0c1.42-1.91.44-4.1.71-6.15.15-1.1-.18-2.46,1.33-2.82,1.22-.29,1.47,1,2.19,1.57,3.21,2.46,4.7,6.73,8.78,8.23h6.94C275.83,64.78,274.32,63.26,272.68,61.86Zm-20.84-2.09,0,.1a5.18,5.18,0,0,1,.26-1.67C252,58.73,251.91,59.25,251.84,59.77Z"/><path class="fd80e22e-742a-43c1-88b6-155b0d07330f" d="M202.28,35.06h0L196.36,35h0a18,18,0,0,0-8,2.39c-1.45.78-3.62,1.32-2.2,4,1.11,2.07,2.28,3.74,4.93,3.11,1.12-.27,2.14-1,3.27-1.2,2.93-.59,5.91-1.13,8.63.78a3,3,0,0,1,1.3,3.5c-.57,1.7-2-.16-3,.46h-6.93c-7,1.53-9.64,3.86-10,9-.31,4.69,2.18,7.72,8,9.73h0a24.16,24.16,0,0,0,12.93,0h0c7.39-3,9.76-8.25,9-19.16C213.84,41.16,209.2,35.22,202.28,35.06Zm-7.69,20.46c2-3,5.4-1.72,8.22-1.54,2.55.17,1.45,2.47,1.63,3.92a11.4,11.4,0,0,1-.22,2.45,17.65,17.65,0,0,1-7.82.15C194.67,59.23,193.3,57.44,194.59,55.52Z"/><path class="fd80e22e-742a-43c1-88b6-155b0d07330f" d="M335.59,61.52c-.54-4-3.56-4.35-7-3.6a7,7,0,0,1-5.16-1V43l9.82-.31h0c1.35-4.53-.54-7.46-5.22-7.7-2.64-.14-4.81.42-5.12-3.72-.28-3.6-3.91-4.6-7.29-4.35-3.72.26-1.6,3.26-2,5-.33,1.35.35,3-2.08,3.06-1.09,0-2.84-.94-3.18,1.17s-.17,4.85,1.5,5.39c5,1.63,3.47,5.43,3.73,8.75.2,2.6-.63,5.28.59,7.81a.48.48,0,0,0,.13.74h0c.43,4.23,3.3,6,7,6.84a19.07,19.07,0,0,0,8.95,0h0C332.37,64.67,336.08,65.25,335.59,61.52Z"/><path class="fd80e22e-742a-43c1-88b6-155b0d07330f" d="M238.27,34.1a28.26,28.26,0,0,0-9.92,0h0c-3,.52-5.88,1.33-8.11,3.58-1,.35-1.05,1.15-1,2q.13,10.59.28,21.17h0a10.35,10.35,0,0,0,.46,1.36c1.44,3,4.34,3.7,7,3.28,3.16-.48,1.48-3.5,1.59-5.35.24-4.44.06-8.9.09-13.35,0-1.59-.45-3.41,1.67-4.18a25.34,25.34,0,0,1,5.22,0c2.36.46,2.71-1,3.12-2.58h0C239,38,241.76,35.82,238.27,34.1Z"/><path class="fd80e22e-742a-43c1-88b6-155b0d07330f" d="M305,42.9h0v0c-2.3-4.51-5.25-8.22-10.74-8.87h0l-5.93,0h0c-7.24,1.34-11.62,5.54-12.89,12.86v0h0a19.38,19.38,0,0,0,0,7h0c1,6.36,4.67,10.28,10.87,11.88h0c3,.69,6,1.35,9,.14h0c6.23-.48,8.23-3.57,6.19-9.84l-5.26,2.58h0l-6.89.11h0c-2.34-1.55-5-2.92-3.94-6.51h0c6.07-.44,12.29,1.44,18.21-1.23h0a2,2,0,0,0,1.63-2.11h0C306.17,46.82,305.57,44.86,305,42.9Zm-16.64-1.51,4.89-.41c1.79,1.44,3.75,2.79,3,5.87-1.93,0-3.92.15-5.87,0-1.71-.17-4.19,1.11-5-.75C284.64,44,286.9,42.66,288.39,41.39Zm-1.95,10h0a5.31,5.31,0,0,0-1,.8A2.44,2.44,0,0,1,286.44,51.35Z"/><path class="fd80e22e-742a-43c1-88b6-155b0d07330f" d="M93.08,61.71a6.53,6.53,0,0,0-3.79-.88c.78-2.69,2.44-1.91,4.13-1l0-.09C93.34,60.37,93.21,61,93.08,61.71Z"/><path class="fd80e22e-742a-43c1-88b6-155b0d07330f" d="M93.42,59.79c-1.41.22-3-.44-4.13,1h-2c-.47-4,3.47-2.52,5-4l1,0Z"/></g></g></svg>