<svg xmlns="http://www.w3.org/2000/svg" viewBox="0 0 138.42 52.31"><defs><style>.\32 bd856dc-9ff8-4ee5-a82f-528e21d41d69{fill:#fff;}</style></defs><title>Asset 17</title><g id="6acb8fb5-7817-43a1-8fd8-040e68a4c5f4" data-name="Layer 2"><g id="78214885-2160-47cc-8848-88805cc316aa" data-name="Layer 1"><path class="2bd856dc-9ff8-4ee5-a82f-528e21d41d69" d="M25.8,24.58a13.43,13.43,0,0,1-1.91-12.15C26.35,4.33,35.5-.15,44,2.55,51.75,5,56.13,12.49,54.26,20.06c-1.69,6.85-8.44,11.67-16,11.32a5.74,5.74,0,0,0-3.69,1.25A18.38,18.38,0,0,0,45.45,32c9.8-3.53,14.08-14.69,9-23.43C48.12-2.21,31.91-3,24.48,7.17c-4.63,6.31-4,15.39,1.53,20.53A2.78,2.78,0,0,0,25.8,24.58Z"/><path class="2bd856dc-9ff8-4ee5-a82f-528e21d41d69" d="M11.94,43.07c.87-2-.37-3.72-2.93-3.81s-5.36,0-8-.06c-.78,0-1,.29-1,1,0,2.25,0,4.5,0,6.75,0,2.43,0,2.39,2.46,2.36.83,0,1-.28,1.06-1.08,0-2.38.07-2.38,2.41-2.38.23,0,.47,0,.71,0,1.08-.06,1.74.54,1.66,1.51-.15,1.89.82,2.15,2.32,1.93.5-.08,1,.13,1.57-.19-.65-1.51.06-3.4-1.5-4.76C11.2,43.91,11.69,43.65,11.94,43.07Zm-4.8.68a11.53,11.53,0,0,1-1.44,0v0a6.8,6.8,0,0,0-1,0c-1,.15-1.26-.25-1.24-1.19s.08-1.41,1.15-1.3c.86.09,1.73,0,2.59.08.65.06,1.22.35,1.24,1.13S7.85,43.66,7.14,43.75Z"/><path class="2bd856dc-9ff8-4ee5-a82f-528e21d41d69" d="M69,41.66c-.93-.14-1.48.89-2.41.39a6.3,6.3,0,0,0-4.75-.24,3.64,3.64,0,0,0-2.65,3.51A3.47,3.47,0,0,0,62,48.71a7.11,7.11,0,0,0,4.62-.26c.69-.31.86-.08.75.6-.2,1.32-2.23,2.22-3.71,1.34s-2.64-.45-4.07-.54a2.24,2.24,0,0,0,1.52,1.82,11.65,11.65,0,0,0,6.76.27c2-.44,2.54-1.28,2.57-3.38,0-1.82-.07-3.65,0-5.46C70.52,41.9,70,41.82,69,41.66Zm-4.1,5.56c-1.49,0-2.41-.74-2.42-1.89s.92-2,2.44-2,2.51.8,2.51,2S66.42,47.24,64.9,47.22Z"/><path class="2bd856dc-9ff8-4ee5-a82f-528e21d41d69" d="M26.05,35.49,36.28,30.1a.82.82,0,0,0,.52-.63c.12-1.19.84-2.24.76-3.47A23,23,0,0,0,39,20.8a46.33,46.33,0,0,0,1.72-6.09c1-2.85,1.58-5.8,2.46-9L32.31,11.47h0l-4.18,2.18a4.17,4.17,0,0,0,1.7.24c1.59,0,1.59,0,1.15,1.58a1.47,1.47,0,0,0,0,.42q-1,3.6-2,7.2h0l-3.4,12.36C25.88,35.48,26,35.53,26.05,35.49Zm7.27-17.81h0l0,0S33.32,17.67,33.32,17.68Z"/><path class="2bd856dc-9ff8-4ee5-a82f-528e21d41d69" d="M89.39,39.18c-.76.1-1.18.26-1.49,1-.82,1.93-1.75,3.81-2.62,5.72a15.94,15.94,0,0,0-1.46,3.42c.72,0,1.34,0,2,0s1,0,1.12-.59c.23-1.47,1.22-1.58,2.4-1.49a9,9,0,0,0,2,0,1.45,1.45,0,0,1,1.85,1.22,1,1,0,0,0,1.22.87,21.3,21.3,0,0,1,2.13,0c-1.28-2.75-2.62-5.28-3.64-7.93C92.19,39.61,91.24,38.92,89.39,39.18Zm2.1,6.32a24.6,24.6,0,0,1-2.85-.06c-.34,0-.2-.47-.09-.72.45-1.08.92-2.16,1.54-3.58.63,1.48,1.13,2.64,1.62,3.81a.58.58,0,0,1,0,.14C91.77,45.3,91.73,45.5,91.49,45.5Z"/><path class="2bd856dc-9ff8-4ee5-a82f-528e21d41d69" d="M49,47.39a8.19,8.19,0,0,0,0-.86H49c0-.91-.06-1.82-.13-2.72a2.16,2.16,0,0,0-1.82-2,14,14,0,0,0-6.25,0,2.8,2.8,0,0,0-2,1.52c-.16.31-.28.74.28.69,1-.08,2.1.42,3.08-.54s2.06-.58,3.13-.2a.69.69,0,0,1,.47.65.62.62,0,0,1-.54.59,6.83,6.83,0,0,1-1.56.16,13.94,13.94,0,0,0-3.7.38,2.12,2.12,0,0,0-1.9,2.16c0,1.27.78,1.84,1.91,2.14a8.93,8.93,0,0,0,4.81-.12,2.07,2.07,0,0,1,1.55,0,3.71,3.71,0,0,0,2.5-.07C49.35,48.94,48.9,48,49,47.39Zm-3.32-.34a3.15,3.15,0,0,1-2.64.88,3.78,3.78,0,0,1-.8-.11.79.79,0,0,1-.65-.81.72.72,0,0,1,.68-.77c.93-.17,1.87-.3,2.81-.38.28,0,.71-.24.83.26A1,1,0,0,1,45.64,47.05Z"/><path class="2bd856dc-9ff8-4ee5-a82f-528e21d41d69" d="M82.71,47.51a8.34,8.34,0,0,0,0-1c0-.53,0-1.06,0-1.58,0-2.19-.47-2.79-2.6-3.22a14.18,14.18,0,0,0-5,0,3.13,3.13,0,0,0-2.37,1.41c-.14.22-.49.76,0,.83.94.16,2.06.55,2.84-.18A3,3,0,0,1,78.18,43c.58.06,1.42.13,1.33,1s-.85.67-1.41.68a22,22,0,0,0-4.28.35,2.16,2.16,0,0,0-2,2.13,2.11,2.11,0,0,0,1.87,2.19,8,8,0,0,0,5.18-.28c.37-.15.56-.31,1.06.05a3,3,0,0,0,2.62.09C83.05,49,82.64,48.09,82.71,47.51Zm-3.62-.13a3.7,3.7,0,0,1-3.15.49.87.87,0,0,1-.68-1c0-.47.39-.65.78-.72.84-.14,1.7-.24,2.53-.35.35.13.85-.26,1,.29A1.12,1.12,0,0,1,79.09,47.38Z"/><path class="2bd856dc-9ff8-4ee5-a82f-528e21d41d69" d="M22.07,41.86a9.42,9.42,0,0,0-6.07,0,3.88,3.88,0,0,0-2.6,3.74,3.76,3.76,0,0,0,2.86,3.68,11,11,0,0,0,5.68,0A3.87,3.87,0,0,0,24,48c.39-.47.53-.9-.3-.89a5.09,5.09,0,0,0-3.05.46,2.9,2.9,0,0,1-3.57-.4.87.87,0,0,1-.27-.78c.11-.37.46-.26.72-.26,1.05,0,2.11,0,3.16,0h0c.68,0,1.35,0,2,0s1.57.36,1.85-.25a2.6,2.6,0,0,0-.5-2.42A4,4,0,0,0,22.07,41.86Zm-4.52,2.82c-.26,0-.62.14-.72-.25a.8.8,0,0,1,.33-.75,2.66,2.66,0,0,1,4.27,1C20,44.69,18.79,44.7,17.55,44.68Z"/><path class="2bd856dc-9ff8-4ee5-a82f-528e21d41d69" d="M36.09,46.31c-1.06.07-2.07-.14-3,.91-.67.81-1.87.63-2.83.27a1.77,1.77,0,0,1-1.14-1.67c-.08-1,.12-1.93,1.21-2.33s2.3-.51,3.14.55,2,.37,3,.56a.3.3,0,0,0,.35-.35,3.07,3.07,0,0,0-1.71-2.17,3.44,3.44,0,0,0-.51-.25,10,10,0,0,0-6.2,0,3.7,3.7,0,0,0-2.7,3.79A3.77,3.77,0,0,0,29,49.31a8,8,0,0,0,2.54.26,6.59,6.59,0,0,0,1.17,0c1.58-.23,3.13-.54,4-2.13C37.07,46.73,37.16,46.25,36.09,46.31Z"/><path class="2bd856dc-9ff8-4ee5-a82f-528e21d41d69" d="M104.09,44c.9-.6,1.75-1.28,2.62-1.93-3-1.24-4.6,1.13-6.72,2.56,0-1.65-.07-3,0-4.34.07-1-.27-1.3-1.27-1.28s-1.39.11-1.35,1.22c.08,2.59,0,5.18,0,7.77,0,.86,0,1.43,1.16,1.37,1,0,1.71-.12,1.43-1.37-.21-.92.44-1.31,1.07-1.62s.9.44,1.12.79c1.15,1.86,2.67,2.7,5,2-1.08-1.26-2.09-2.53-3.19-3.69C103.38,44.79,103.4,44.43,104.09,44Z"/><path class="2bd856dc-9ff8-4ee5-a82f-528e21d41d69" d="M56.58,41.57A4.12,4.12,0,0,0,55,42.3c-.42.3-.74.86-1.18-.21-.34-.84-1.54-.3-2.36-.31s-.48.71-.48,1.11c0,1.83,0,3.65,0,5.47,0,.34-.17.75.39.93,1.7.55,2.66-.11,2.65-1.86,0-2.8.52-3.33,3.34-3.32H58c.33,0,.48-.11.57-.46C59,42,58.24,41.2,56.58,41.57Z"/><path class="2bd856dc-9ff8-4ee5-a82f-528e21d41d69" d="M109.93,41.82c-.55.1-1.52-.54-1.55.62-.06,2.05,0,4.11,0,6.17,0,.48.18.64.67.7,1.7.21,1.91.06,1.91-1.59V45.56c0-1,0-2,0-3C111,41.7,110.44,41.71,109.93,41.82Z"/><path class="2bd856dc-9ff8-4ee5-a82f-528e21d41d69" d="M46.38,11a9.34,9.34,0,0,0-1.54-3c-.27,1-.51,1.84-.74,2.71-.34,1.26-.68,2.53-1,3.79a15.06,15.06,0,0,0-.88,3.17,14.55,14.55,0,0,0-.88,3.16c-.68,2.35-1.35,4.7-2.12,7.34,1.53-.79,2.74-1.56,4-2.07a3.48,3.48,0,0,0,2.37-3.5,11.45,11.45,0,0,0,.86-3.18c.74-1.18.18-3.2,2.27-3.5l-.06-.27h0A18.21,18.21,0,0,0,46.38,11Z"/><path class="2bd856dc-9ff8-4ee5-a82f-528e21d41d69" d="M128.77,43.48a18.56,18.56,0,0,0-2-.23c-.85-.1-1.23.25-1.19,1.14a21.45,21.45,0,0,1,0,3c-.12,1.35.27,2,1.56,1.68a11.23,11.23,0,0,0,1.32,0,3,3,0,0,0,2.67-2.68A2.67,2.67,0,0,0,128.77,43.48Zm.39,4.77a5.65,5.65,0,0,1-2.11.29c-.45.05-.53-.32-.53-.68V46.13a.88.88,0,0,1,0-.28c.22-.67-.6-1.75.71-2s2.75.52,3,1.52S130.42,47.61,129.16,48.25Z"/><path class="2bd856dc-9ff8-4ee5-a82f-528e21d41d69" d="M114.45,47.1c-.19.12-1.14-.59-1.15.46,0,.64-.68,1.87,1,1.76.54,0,.39.38.28.7a1.72,1.72,0,0,1-1,1,.49.49,0,0,0-.22.72c.14.26.4.11.63,0,1.41-.36,2.1-1.43,2.19-3.26C116.19,47.45,116.11,46.65,114.45,47.1Z"/><path class="2bd856dc-9ff8-4ee5-a82f-528e21d41d69" d="M136,43.49c-.25-.5-.85-.31-1.09.24-.69,1.57-1.36,3.14-2,4.71-.07.18-.17.38.06.5s.45-.06.49-.3c.16-1,.9-1,1.71-1,1.2,0,2.5-.29,2.89,1.64l.38-.46C137.63,47,136.89,45.22,136,43.49Zm-.59,3.75c-.92,0-1.29-.23-.78-1.16a6.84,6.84,0,0,1,.94-1.87,3.82,3.82,0,0,1,.77,1.6C137,47.26,136.93,47.25,135.42,47.24Z"/><path class="2bd856dc-9ff8-4ee5-a82f-528e21d41d69" d="M109.73,39c-.58.05-1.39-.32-1.4.85s.85.69,1.36.82c.58-.06,1.3.27,1.28-.82S110.33,39,109.73,39Z"/><path class="2bd856dc-9ff8-4ee5-a82f-528e21d41d69" d="M121.09,48.69c-1,.06-1.25-.29-1.2-1.23.07-1.37,0-2.75,0-4.12h-.64c0,1.86,0,3.72,0,5.58,0,.22.18.27.41.24,1.25-.22,2.55.12,4-.26A5.05,5.05,0,0,0,121.09,48.69Z"/></g></g></svg>