<svg xmlns="http://www.w3.org/2000/svg" viewBox="0 0 532.48 585.54"><defs><style>.\31 dfe95b1-bb6b-4f45-b31b-c039dc9ea445{fill:#fff;}</style></defs><title>Asset 2</title><g id="e9daa008-e59a-4713-bd59-9ce100bd0fb5" data-name="Layer 2"><g id="445b7353-a0d3-4189-b8dc-aa0fad65c03d" data-name="Layer 1"><path class="1dfe95b1-bb6b-4f45-b31b-c039dc9ea445" d="M345.52,342.47c32.5-23.25,56.59-52.59,69.59-90.45l-1.2-1.65c-2.07,1.12-4.81,1.73-6.1,3.44-8.3,11-23.84,13.94-34.34,2.9a6.27,6.27,0,0,0-4.86-1.39c-12.95,2.2-25.89,4.54-38.76,7.16a12.63,12.63,0,0,0-6.15,3.8,31.78,31.78,0,0,1-44.1,2.22,10.8,10.8,0,0,0-6.19-2.52q-35.45-1.5-70.92-2.49a8.34,8.34,0,0,0-5.43,2.54c-2.65,2.7-5.5,3.24-9.07,2.75a18.64,18.64,0,0,0-7.63.29c-4.5,1.33-8.76,3.21-13.44.46-.91-.54-2.54.08-3.83.28-4.16.66-7.4-.41-9.88-4.16a6.29,6.29,0,0,0-4.64-2.51c-5.51.24-10.86.07-16.38,2.75-4.23,2.05-10.18.56-15.36.64-.78,0-1.55,0-3.89,0,23.06,42.72,55.46,73,100.56,89.24,44.88,16.16,89.25,15.22,133.19-3.57C298,382.07,204.11,388.34,135.92,327.14a187.71,187.71,0,0,1-28-248.83C165.64-2.61,269.55-18,341.69,19.17c-6.27-2-12.45-4.26-18.8-5.89C262-2.41,207.08,10,158.41,49.43c-32,25.91-51.28,59.74-59.72,99.92A182.08,182.08,0,0,0,101,234.89c1.88,7.06,1.83,7.16,8.89,6q35.23-5.76,70.47-11.64c1-.16,1.93-.43,4.2-.95-14.25-8.83-23-20.55-24.87-37.37L126,204.63l-.4-.83c9.83-4.94,19.59-10,29.52-14.77,4.11-1.95,5.93-4.49,4.45-9.58L110.41,205.8l-.57-.9c5-3.19,10.07-6.4,15.12-9.57,11.29-7.07,22.74-13.9,33.8-21.33,3-2,4.77-5.78,7.11-8.74l-1.47-1.43-55.14,36.75-.65-.91q6.08-4.5,12.14-9c6.53-4.89,13.16-9.65,19.5-14.79,1.56-1.27,3-3.77,3-5.67-.08-3.47,1.34-5.29,4.21-6.53,2.13-.92,4.2-2.27,6.44-2.65,8.61-1.45,15-6.62,21.67-11.71,4.46-3.44,9.53-6.09,14-9.57a8.7,8.7,0,0,0,3.12-6c0-3.08,1.14-4.51,3.6-5.76,4.74-2.42,9.39-5,14.09-7.54,5.75-3.08,5.53-9.08,1-13.63-2.22-2.25-1.76-7.16-1.82-11.08,11.25,2.28,9.1,11.14,9.85,18.92a22,22,0,0,0,3.92-1.33c5.38-3.17,11.21-3.3,17-2,15.28,3.39,30.64,6.56,45.65,10.93,6.46,1.88,12.22,6.37,18.1,10,2.62,1.61,4.77,4,8.35,7.05-.84-6.08,1.57-10.81-2.78-15.2-1.34-1.36-.52-4.86.15-7.51,8.71,6.94,4.78,16.72,6.82,26.17-9.08-1.2-17.09-2.17-25.08-3.33-14.34-2.09-28.64-4.36-43-6.43A31.27,31.27,0,0,0,230,135.51c-10.2,4.91-20.56,9.49-30.72,14.48-1.55.77-3.37,3-3.38,4.61-.15,23.32,0,46.65.08,70a8.75,8.75,0,0,0,.59,1.73c6.14-.93,12.49-1.67,18.76-2.88,11.29-2.19,9.74.59,9.81-11.5.11-19.49.06-39,.06-58.49,0-1.5.26-3.13-.27-4.44a4.13,4.13,0,0,0-2.84-2.12c-.77-.11-2.49,1.11-2.5,1.77-.12,5.81,0,11.63.22,17.44,0,.7,1.44,1.25,1.95,2a36.07,36.07,0,0,1,1.91,3.84c-5.35.17-6.83-2-6.58-6.36.34-5.81.16-11.66,0-17.49-.06-2.64.27-4.87,3.55-4.52,3.08.33,7.1-.57,7.58,4.37.11,1.16,0,2.33,0,3.5l.15,63.49c0,1.8,0,3.59,0,6.16l23.65-3.76a19.35,19.35,0,0,1,2-.38c8.94-.42,15.4-2.73,18-13.27,2.12-8.51,9-14.87,18.76-15.82s16.44,4.66,20.63,12.34c3.53,6.46,7.78,8.38,14.32,6.51,12.06-3.45,22.51,2,33.22,5.88,7.82,2.86,15.59,5.87,23.4,8.75a20.57,20.57,0,0,0,5.3,1.36c5.21.4,7.28-2.14,6.11-7.24-2.13-9.24-4.28-18.48-6.43-27.78,8.88,2.35,11.29,4.17,14.33,11.24a60.91,60.91,0,0,0-5.45-4.16c-1.61-.95-3.47-1.46-6.7-2.76,3.15,10.18,5.83,18.88,8.71,28.2-4.63,3.47-9.81,6.6-17.6,3.85a275.25,275.25,0,0,0-38.38-11c-7.32-1.44-15.29.42-23.69.83,1,5.69,1.84,10,2.67,14.55,3.51-.26,6.5-.27,9.42-.73,15.76-2.44,31.18,1.45,46.77,2.23,8.35.42,16.74.07,25.43.55-5.55,1.14-11.12,3.34-16.64,3.21-12-.26-23.91-2.27-35.87-2.5-8.76-.17-17.55,1.27-26.3,2.24a4,4,0,0,0-2.52,2.9c-.27,4.93-.12,9.9-.12,15.1,4.17,0,8.11.12,12,0Q368,250.27,402.4,249a38.21,38.21,0,0,1,4,.16c10,.75,10.1.79,12.38-8.89,14.77-62.85,1.19-118.5-44.13-164.91-30.23-30.95-67.7-47.54-111.2-50-17.19-1-34.07.91-50.94,3.93a115.6,115.6,0,0,1,35-11c33.85-5.35,67.19-3,98.09,12.26,56.25,27.7,90.84,71.81,96.37,135.72,3.46,39.87-3,78.06-23.31,113.11-15.58,26.94-38.45,46.05-66.12,59.72C350.23,340.21,347.87,341.33,345.52,342.47ZM267.25,223.28l-68.64,9.77v26.1h68.64Zm-75.18.81V145.56c-16.1,6.51-26.45,24.46-26,44.53C166.32,205,176.62,218.69,192.07,224.09Zm80,8.83c.64,11.21,2.27,22.38,9.9,31.6,6.36,7.69,14.72,7.75,21.42.44,5.78-6.29,8-14.06,9.26-22.23,2.25-14.1,1-27.72-6.92-39.87-7.49-11.43-18-11.32-25.7-.17C273.83,211.71,272.59,222.1,272.08,232.92Zm-52.81-96.23c3.92-1.84,6.62-3.63,9.58-4.38,5.38-1.35,11.07-3.43,16.34-2.81,14.16,1.68,28.17,4.64,42.25,7.06,7,1.2,14.08,2.34,21.12,3.5a35,35,0,0,0-19.38-12.94c-16.27-4-32.65-7.64-49-11.36-6.26-1.42-12.3-.67-17.69,2.92a7.25,7.25,0,0,0-3.06,4.49C219,127.25,219.27,131.4,219.27,136.69Zm-92.16,105.1v19c6.85-.37,13.14-.63,19.41-1.12.83-.07,2.23-1.27,2.25-2,.18-6.2.1-12.41.1-19.16Zm53.18,14.69c4,0,7.42.13,10.84-.09.91-.06,2.5-1.15,2.51-1.8.18-7.33.12-14.67.12-22.47l-13.47,2Zm15.4-108.31c6.13-2.94,11.27-5.27,16.26-7.89a4.91,4.91,0,0,0,2.36-3.32c.27-4.44.11-8.9.11-14.38-6.24,3.07-11.75,5.7-17.14,8.55a3.85,3.85,0,0,0-1.52,2.86C195.6,138.44,195.69,142.91,195.69,148.17ZM165.2,251.85c1.13,4.48,1.92,9.21,3.55,13.63,1.22,3.28,3.6,3,5.53.15,3.53-5.14,3.6-21.18.12-26.52-2-3-4.36-3-5.74.44C167.15,243.33,166.41,247.41,165.2,251.85Zm-1.57,2.5c-1-4.36-1.75-8.58-2.89-12.7a3.89,3.89,0,0,0-2.59-2.45,3.86,3.86,0,0,0-2.85,2.1c-3.39,7.66-3.19,15.45-.09,23.14.41,1,1.85,2.26,2.78,2.24a4,4,0,0,0,2.75-2.32C161.91,261.13,162.68,257.75,163.63,254.35Zm-45.18-8.1c-3.33,3.67-4.4,14.22-1.57,17.5a3.19,3.19,0,0,0,3.13.18C123.52,260.43,122.49,250,118.45,246.25Zm-7.78,15.47,2.07-.13a97.81,97.81,0,0,0-.62-10.43c-.24-1.46-1.77-2.71-2.71-4.06-.81,1.66-2.54,3.5-2.26,5C107.81,255.38,109.44,258.51,110.67,261.72Z"/><path class="1dfe95b1-bb6b-4f45-b31b-c039dc9ea445" d="M207.76,461.53c11,9.76,12.82,21.37,8.12,34.31-3.92,10.81-12.06,17.1-23.27,17.5-18.92.66-37.88.18-57.4.18-.15-2-.44-3.87-.44-5.78,0-31.14,0-62.27-.1-93.41,0-3.59,1.05-4.5,4.5-4.46,16.48.16,33-.06,49.45.12,16.94.19,27.45,9.49,29.76,26.19,1,7.11-1.37,13.46-5.52,19.16C211.41,457.35,209.71,459.18,207.76,461.53Zm-55.5,34.14c1.88.19,3.35.47,4.81.47,10.82,0,21.64.14,32.44-.2,7.2-.23,11.09-5.38,10.84-13.35-.24-7.35-4.67-11.91-11.73-12.11-2.32-.06-4.65-.32-7-.33-9.73,0-19.46,0-29.39,0Zm-.15-68.09c0,7.72-.08,15.14.11,22.55a3.4,3.4,0,0,0,2.44,2.26c12.11,0,24.25.29,36.33-.44,6.52-.4,9.84-6,9.32-13-.47-6.32-4.91-11.16-11.13-11.28C177.23,427.42,165.28,427.58,152.11,427.58Z"/><path class="1dfe95b1-bb6b-4f45-b31b-c039dc9ea445" d="M529.43,410.12c0,5.09.26,9.73-.2,14.3-.1,1-2.72,2.46-4.2,2.48-13.65.22-27.31.14-41,.23a78.65,78.65,0,0,0-10,.55c-6.27.82-10.23,5.52-10.46,12-.24,6.91,2.83,11.78,9.65,12.21,13.42.86,26.91.7,40.38.91,5.12.08,10.24,0,15.86,0,0,5.08.14,9.71,0,14.32-.14,3.6-3.13,2.82-5.29,2.83-14.16.06-28.31,0-42.47.05a50.11,50.11,0,0,0-7.45.59,12.61,12.61,0,0,0-11,13.28c.28,6.86,5,12,12.16,12.09q24.48.42,49,.11c4.35-.05,5.74,1.05,5.61,5.57-.36,12.09-.14,12.11-12.21,12.09-14.83,0-29.66.27-44.47-.17-21.53-.65-34.95-25.32-24.05-43.84a72.71,72.71,0,0,1,5.4-7.27c-3.16-6.43-7-11.86-8.55-17.88-4.21-16.27,7.95-33.56,24.66-34.3C490.05,409.46,509.38,410.12,529.43,410.12Z"/><path class="1dfe95b1-bb6b-4f45-b31b-c039dc9ea445" d="M0,513.49c.61-12.33.6-24,1.9-35.48,2-17.63,11-25,29-25,7.66,0,15.33,0,23-.28,5.18-.21,9.93-1.87,12.34-7,2.13-4.52,2.41-9.54-1.33-13-2.69-2.52-6.75-4.79-10.3-5-15.13-.67-30.29-.53-45.44-.68-2.31,0-4.62,0-7.33,0V411H15c15.29,0,30.59-.26,45.86.18,16.89.49,27.86,17.16,23.84,35.48-3,13.85-13.18,22.46-27.46,23-5.48.22-11,0-16.47,0-2,0-4.09.19-6.14.3l-.41,1.42A35.82,35.82,0,0,0,38,473.75c14.6,6.47,29.19,13,43.86,19.27,3.89,1.66,5.79,4,5.53,8.34s-.05,8.57-.05,13.73L19,484.55c-.25,2.21-.59,3.89-.61,5.58-.07,6.33-.13,12.66,0,19,.06,3.07-.79,4.62-4.23,4.43C9.74,513.31,5.29,513.49,0,513.49Z"/><path class="1dfe95b1-bb6b-4f45-b31b-c039dc9ea445" d="M332.34,513.66c-5.56,0-10.55.21-15.51-.15a5.2,5.2,0,0,1-3.65-3c-2.73-8.82-8.49-12.24-17.65-11.89-12.31.46-24.65.1-37,0-4.95,0-7.56,2.22-8.59,7.14-1.42,6.82-4.52,8.82-11.35,8.27-3.14-.25-6.29-.37-10-.59,3.41-9.82,6.71-19.5,10.13-29.13q10.68-30.07,21.47-60.11c3.42-9.56,9.43-14.11,18.81-14.25,12-.2,18.22,3.4,21.84,13.49,10.39,28.95,20.55,58,30.79,87A32,32,0,0,1,332.34,513.66Zm-73.75-33h42.89a12.55,12.55,0,0,0-.21-3.16C295.92,462.3,290.58,447.12,285,432c-.64-1.72-3.17-4.22-4.25-4a8,8,0,0,0-4.93,4.33C270,448.09,264.51,463.89,258.59,480.63Z"/><path class="1dfe95b1-bb6b-4f45-b31b-c039dc9ea445" d="M362.3,410V432.6c0,13.66-.05,27.32.05,41,.1,14,7.32,21.7,21.31,22.34a67,67,0,0,0,15.38-.73c9.07-1.71,14.06-7.27,14.46-16.54.54-12.8.33-25.64.39-38.46,0-9.79,0-19.58,0-29.62h16.61c.33.62.62.91.62,1.19,0,23.32.36,46.64-.32,69.94-.46,15.85-9.06,26.36-24.51,30-8.9,2.11-18.54,3.37-27.55,2.34-21.35-2.45-33.44-16.74-33.85-38.61-.38-20,0-40-.17-60,0-4.29,1.49-6,5.88-5.56C354.21,410.29,357.88,410,362.3,410Z"/><path class="1dfe95b1-bb6b-4f45-b31b-c039dc9ea445" d="M117.79,512.75c-.57.35-.7.49-.85.51-15.47,1.66-15.47,1.66-15.47-13.69V410.34h16.32Z"/><path class="1dfe95b1-bb6b-4f45-b31b-c039dc9ea445" d="M254.37,165.36,233,169.78c0-9.25-.11-18,.15-26.78,0-1.09,1.9-2.48,3.22-3.08a59.63,59.63,0,0,1,7.42-2.36q5,13.24,9.6,25.5c2.49-.8,4.61-1.83,6.82-2.12,10-1.31,11.51.09,11.53,10.09,0,6.5-.08,13,.11,19.49.11,3.62-1.44,5.25-4.95,5.27-.5,0-1,.06-1.49.1-10.5.85-11.07.3-11-10.1C254.4,179.32,254.37,172.85,254.37,165.36Z"/><path class="1dfe95b1-bb6b-4f45-b31b-c039dc9ea445" d="M250.51,138.54,355.4,148.88a350.92,350.92,0,0,0-94.78,6.45,4.87,4.87,0,0,1-4.18-2C254.2,148.59,252.47,143.57,250.51,138.54Z"/><path class="1dfe95b1-bb6b-4f45-b31b-c039dc9ea445" d="M376.76,214.69c-8.37-2.29-15.92-4.86-20-14.14-5.37-12.31-12.58-23.81-18.88-35.72-3.87-7.33-2.81-10,5.22-10.23,9.87-.24,19.77.86,29.66,1.38,0,.54-.05,1.08-.08,1.62H367.4c4.61,14.84,9.05,29.17,13.5,43.49l-.69.27c-1.33-3.38-2.68-6.75-4-10.16-3.7-9.81-7.57-19.55-10.93-29.48-1.34-4-3.5-5.11-7.37-4.73-4.3.42-8.64.41-13,.64-3.35.17-4.54,1.7-3,4.91,6.69,14,13.13,28,20.24,41.76,1.6,3.08,5.42,5.12,8.44,7.33C372.48,213,374.72,213.69,376.76,214.69Z"/><path class="1dfe95b1-bb6b-4f45-b31b-c039dc9ea445" d="M314.6,574c-1.72.66-3.31,1.76-3.81,1.39-3.47-2.57-6.51-.43-9.84.22a20.69,20.69,0,0,1-9.2-.1c-7-2-8.68-9.72-3-14.27,3.1-2.48,3.85-4.2,1.57-7.65-2.1-3.17-.61-6.15,2.35-8.14,3.64-2.44,9.75-1.66,12.43,1.44,2.55,2.94,1.93,5.76-.44,8.49-4.07,4.69-4.06,4.69.9,9.47l6.59-2.32C310.13,570.14,310.13,570.14,314.6,574Zm-19.09,1.07,6.77-5.36-7.13-7.78c-1.58,2.1-4.21,4.11-4.4,6.32C290.6,570.06,293.34,572.13,295.51,575.05Zm8.77-24.55c-2.62-1.58-4.16-3.26-5.54-3.14s-2.83,1.95-4.24,3c1.37,1.62,2.48,4,4.21,4.59C299.65,555.31,301.64,552.72,304.28,550.5Z"/><path class="1dfe95b1-bb6b-4f45-b31b-c039dc9ea445" d="M349.14,201.28c-3.69-3.5-7.57-6.83-11.06-10.53-16.38-17.37-38.12-14.67-52.68-6.92-1,.53-2,1.14-2,1.12,0-4.84-.09-10.13.07-15.42,0-1.24,1-2.45,1.5-3.68.68,1.24,1.83,2.44,1.94,3.73.28,3.27.1,6.58.1,9.87l1.57.54c.58-1.3,1.51-2.57,1.65-3.91.27-2.63-.06-5.33.18-8,.08-.82,1.19-1.55,1.83-2.32.59.81,1.61,1.58,1.67,2.43.22,2.76.08,5.56.08,8.34l2.09.42q1.41-5.76,2.81-11.53l1.85.4q.35,4.28.68,8.54l1.47.41c.5-1.32,1-2.63,1.49-4,.59-1.67,1.14-3.35,1.7-5,.66,1.74,1.35,3.48,1.95,5.25a20.36,20.36,0,0,1,.41,3C328.82,172.25,338.83,187,349.14,201.28Z"/><path class="1dfe95b1-bb6b-4f45-b31b-c039dc9ea445" d="M412.68,553.58c0,7.87.19,15.66-.07,23.44-.14,4.21-2.5,7.38-6.83,8.1-5.08.84-10.18.91-13.94-4.39,2.42.47,4.85.91,7.26,1.39,6.7,1.34,9-.89,7.77-7.79a12.56,12.56,0,0,0-2.24.49c-5.41,2.28-9.26,1.63-12-2.1-3-4.1-2.89-13,.24-17.07,2.89-3.76,6.67-4.16,12.08-2.2C407.12,554.24,409.81,553.58,412.68,553.58Zm-4.85,11.57c0-7.78-4.37-12.24-8.49-9.3-2.22,1.59-3.84,5.45-3.85,8.28a12.19,12.19,0,0,0,3.79,8.4c2.55,2.16,5.79.52,7.32-2.59A20,20,0,0,0,407.83,565.15Z"/><path class="1dfe95b1-bb6b-4f45-b31b-c039dc9ea445" d="M124,175.14c4.8-3.56,10.07-6.63,14.31-10.77,7.6-7.4,13.68-16,19.26-25.16a259.79,259.79,0,0,1,20.77-28.49c3.17-3.88,8-6.37,12.8-8.58l-11,8.41.66,1,17.64-7.23.16.55c-5.89,3.45-12.23,6.35-17.52,10.56a26.85,26.85,0,0,0-8.59,11.68c-3.36,10.06-8.69,18.1-17.5,24.09-3.51,2.39-6.28,5.88-9.3,9A64.65,64.65,0,0,1,124,175.14Zm45.83-47.39-1.36-.77-12.93,19.85C163.46,142.6,167.7,135.89,169.78,127.75Z"/><path class="1dfe95b1-bb6b-4f45-b31b-c039dc9ea445" d="M133.92,573.68c0,3.41.17,6.2-.09,9-.1,1-1.23,1.88-1.89,2.81-.89-.9-2.53-1.79-2.55-2.72-.17-8.81-.11-17.64,0-26.45,0-1,1-2.87,1.22-2.83a32.6,32.6,0,0,1,4.93,1.67c6.3-3.81,9.44-3.89,13-.19,3.83,3.94,4.28,12.17.95,17.26C146.68,576.54,143.29,577,133.92,573.68Zm13-8.93c-.48-2.36-.28-5-1.5-6.39-1.39-1.62-4.15-3.18-6.11-3-3.88.42-4.95,4-5.15,7.45-.22,3.87-.06,8.13,4.15,9.73,1.78.68,5-.22,6.5-1.59S146.3,566.81,146.92,564.75Z"/><path class="1dfe95b1-bb6b-4f45-b31b-c039dc9ea445" d="M67.34,575.29c-4.12.33-8.86,1.34-13.43.81-2.27-.27-5.16-3-6.09-5.24-1.37-3.34,1-6,4.31-7.25,1.69-.65,3.58-.77,5.26-1.43a15.12,15.12,0,0,0,4.77-2.77c.31-.3-.86-3.31-1.65-3.45a19.11,19.11,0,0,0-6.51.31c-1.49.26-2.88,1-4.51,1,2-5.67,6.6-5.48,11-5.15,4.19.3,6.72,2.72,6.8,7.08C67.42,564.8,67.34,570.35,67.34,575.29Zm-6.11-11.81c-3.15,2.71-9,.74-8.46,6.7.28,3,3.23,3.77,5.87,2.67C62.51,571.23,63.39,568.27,61.23,563.48Z"/><path class="1dfe95b1-bb6b-4f45-b31b-c039dc9ea445" d="M224.61,565.15c.64,8,4,9.73,9.81,6.32,1.17-.69,2.85-.52,4.81-.82-3.23,5.5-7.86,7-13.38,4.88-5.32-2-7.79-8.08-6.15-15.11,1.25-5.42,5.38-8.63,10.75-8.39,6.17.28,9.18,4,10.05,13.12Zm5.4-1.63,5.24-3.92c-1.88-1.48-3.7-4-5.68-4.13-1.56-.12-3.33,2.69-5,4.21Z"/><path class="1dfe95b1-bb6b-4f45-b31b-c039dc9ea445" d="M514.62,557.94c2.27-5.72,6.81-7.12,12.45-5.56,4.48,1.24,5.14,4.63,5.12,8.53,0,4.94,0,9.89,0,15.52.55-.46.18,0,.09-.09-4.24-2.49-8.4-.61-12.7-.14-3.34.37-6.54-1.24-7.11-5.43-.54-4,1.47-6.26,5.09-7.35a46.76,46.76,0,0,0,4.79-1.27,15.65,15.65,0,0,0,4.67-2.89c.31-.3-.68-3-1.45-3.19a14.77,14.77,0,0,0-6.14-.25C517.75,556.11,516.21,557.21,514.62,557.94Zm13.65,7.49-1.6-1.39c-2,.5-4.4.51-6,1.65s-3.26,3.68-2.87,5c.92,3.08,4.23,3.6,6.4,1.73C526.16,570.76,527,567.81,528.27,565.43Z"/><path class="1dfe95b1-bb6b-4f45-b31b-c039dc9ea445" d="M11.55,548.25c-2.88,0-5.19.15-7.46-.08-.89-.09-1.68-1.07-2.52-1.64.79-.8,1.56-2.28,2.37-2.3,6.81-.18,13.63-.16,20.44,0,.79,0,1.55,1.2,2.33,1.84-.79.69-1.47,1.71-2.38,2-2.36.79-5.9.52-7,2-1.26,1.84-.49,5.12-.52,7.77,0,5,.14,10-.13,15-.07,1.2-1.55,2.33-2.39,3.5-.92-1.21-2.61-2.4-2.64-3.64C11.43,564.77,11.55,556.81,11.55,548.25Z"/><path class="1dfe95b1-bb6b-4f45-b31b-c039dc9ea445" d="M361.16,564.18c0-7.37,4.6-12.17,11.54-12.18a12.21,12.21,0,0,1-.12,24.41C365.61,576.35,361.1,571.53,361.16,564.18Zm18.35-.06c0-5.42-2.51-9-6.42-9.11-4.23-.16-7.37,3.93-7.27,9.48.09,5.16,2.89,8.74,6.88,8.77C377,573.29,379.52,569.93,379.51,564.12Z"/><path class="1dfe95b1-bb6b-4f45-b31b-c039dc9ea445" d="M90.92,575.47c0-4.64.08-9.28,0-13.92-.07-3.14-.71-6.34-4.69-6.4-3.81-.06-5.64,2.59-5.92,6.11-.31,3.8-.08,7.65-.47,11.45-.13,1.29-1.41,2.47-2.16,3.7-.86-1.29-2.37-2.55-2.45-3.88-.28-5-.21-10,0-14.95.06-1.46.93-2.89,1.43-4.33l4.49,2.25c1-.67,2.26-1.7,3.68-2.49,4.5-2.48,10.25-.13,10.8,4.83a95.07,95.07,0,0,1,.24,15.92c-.06,1.12-2.45,2.1-3.77,3.15Z"/><path class="1dfe95b1-bb6b-4f45-b31b-c039dc9ea445" d="M157.68,563.88c.15-7.22,5-12,11.86-11.79s11.68,5.46,11.47,12.46-5.57,12.13-12.18,11.88C161.83,576.17,157.52,571.32,157.68,563.88Zm18.51.89c.31-5.22-2.5-9.33-6.57-9.6-4.22-.27-7.24,3.25-7.53,8.77-.26,5,2.83,9.17,7,9.32S175.85,570.22,176.19,564.77Z"/><path class="1dfe95b1-bb6b-4f45-b31b-c039dc9ea445" d="M334.42,544.6c4-1.18,5.36-.34,5.18,3.59-.3,6.46.18,12.95,0,19.41-.12,3.88,1.56,4.89,5.08,4.64a67.88,67.88,0,0,1,9.46.07c.85.06,1.64,1.13,2.45,1.74-.82.8-1.62,2.25-2.47,2.28-5.64.2-11.3.25-16.93,0-1,0-2.61-2-2.64-3C334.33,563.8,334.42,554.35,334.42,544.6Z"/><path class="1dfe95b1-bb6b-4f45-b31b-c039dc9ea445" d="M451.28,558.25c-2.35-.86-3.88-1.49-5.46-2s-3.55-1.43-5.11-1.1-2.59,2-3.87,3.12c1.05,1.13,1.9,2.74,3.2,3.29,2.57,1.09,5.64,1.16,8,2.5,1.91,1.07,4.44,3.49,4.32,5.13-.15,2.09-2.29,4.82-4.3,5.85-5.89,3-12.28,1.27-16.58-4.77,2.67.62,4.34,1,6,1.4,1.86.49,3.79,1.62,5.54,1.38,1.6-.21,3-1.88,4.5-2.91-1.22-1.13-2.25-2.68-3.69-3.31-2.4-1.06-5.4-1-7.51-2.43-1.79-1.18-3.73-3.74-3.69-5.65s2-4.57,3.87-5.6C441.94,550.15,448.39,552.22,451.28,558.25Z"/><path class="1dfe95b1-bb6b-4f45-b31b-c039dc9ea445" d="M265.09,558.2c-2.66-.86-4.23-1.47-5.85-1.85a22.62,22.62,0,0,0-6.11-.92,3.68,3.68,0,0,0-2.57,2.45,3.74,3.74,0,0,0,1.8,3c2.88,1.25,6.2,1.63,8.86,3.18,2,1.14,4.45,3.61,4.41,5.44-.05,2-2.36,4.76-4.38,5.68-5.85,2.65-11.63,1.1-16.35-4.64,2.83.53,4.4.71,5.9,1.14,1.08.32,2.19,1.53,3.08,1.35a55.2,55.2,0,0,0,7-2.33c-1.67-1.44-3.18-3.17-5.06-4.25-2.27-1.29-5-1.74-7.26-3.1-3.62-2.22-3.85-5.78-.94-8.81C251.76,550.22,261.06,551.49,265.09,558.2Z"/><path class="1dfe95b1-bb6b-4f45-b31b-c039dc9ea445" d="M102.5,570.53c1.65.43,3.3.88,5,1.3,1.87.47,3.84,1.48,5.6,1.21,1.61-.25,3-1.91,4.5-2.94-1.24-1.14-2.31-2.67-3.77-3.31-2.7-1.21-5.83-1.51-8.41-2.88a6,6,0,0,1-1-9.71c4.12-3.83,12.9-2.52,16.86,3.64-2.45-.63-4-1-5.43-1.41s-2.86-1.4-4.12-1.17c-1.72.32-3.27,1.56-4.89,2.4,1.16,1.39,2.06,3.31,3.54,4,2.49,1.21,5.55,1.28,8,2.54,1.7.88,3.66,2.85,3.89,4.54s-1.14,4.19-2.59,5.36C114.7,578.1,106.42,576.86,102.5,570.53Z"/><path class="1dfe95b1-bb6b-4f45-b31b-c039dc9ea445" d="M507.25,558.06c-2.55-.74-4.39-1-5.91-1.76-4.62-2.45-8.46-1.07-9.4,4a21.45,21.45,0,0,0,.23,8.37c1.15,5,6.17,6,10.08,2.65,1.14-1,3-1.21,5.43-2.13-2.63,5.7-7.09,7.95-11.92,7.06-5.57-1-8.83-5.07-9.18-11.37s2.36-10.69,7.8-12.36C499.58,551,504.1,552.58,507.25,558.06Z"/><path class="1dfe95b1-bb6b-4f45-b31b-c039dc9ea445" d="M505,386.25c-7.49,12.95-14.79,18.92-22.81,18.86C488.67,388.07,491.68,384.92,505,386.25Z"/><path class="1dfe95b1-bb6b-4f45-b31b-c039dc9ea445" d="M213.9,575.26c-4,2.41-7.37,1.11-8.06-4-.37-2.8-.05-5.68-.41-8.47s-1.16-5.58-2-9.49L209,546c1.84,3.47,3.27,6.17,4.89,9.21-.67,1-2.56,2.76-3.06,4.86a21,21,0,0,0,0,8.43C211.2,570.65,212.66,572.64,213.9,575.26Z"/><path class="1dfe95b1-bb6b-4f45-b31b-c039dc9ea445" d="M468.35,575.42c-4.64,2-7.43.81-8.12-4.2-.45-3.25-.17-6.6-.55-9.86a67.71,67.71,0,0,0-1.94-7.87l5.49-7.5,4.89,9c-.73,1.24-2.53,3.26-3.12,5.59a17.52,17.52,0,0,0,0,7.89C465.5,570.76,467.07,572.88,468.35,575.42Z"/><path class="1dfe95b1-bb6b-4f45-b31b-c039dc9ea445" d="M406.05,235.21c-1.16,1.67-1.8,3.74-3.07,4.25-10.07,4.07-20.62,2.8-31.05,2.07-1.06-.08-2-2.48-3.35-4.35Z"/><path class="1dfe95b1-bb6b-4f45-b31b-c039dc9ea445" d="M200.63,553.41c-.8.88-1.56,2.46-2.41,2.52-6.29.41-5.92,5.21-6.37,9.37a51.32,51.32,0,0,0,0,7.44c.16,3.67-1.71,4.15-5.22,3.15,0-5.87-.11-11.77.06-17.66.05-1.65.93-3.28,1.43-4.92l4.37,1.54,7.22-3.07Z"/><path class="1dfe95b1-bb6b-4f45-b31b-c039dc9ea445" d="M35.4,554.94l6.7-3.15,1.08,1.62c-.89.88-1.73,2.46-2.69,2.53-4.5.36-5.28,3.54-5.63,7-.32,3.13-.06,6.32-.45,9.43-.19,1.42-1.13,3.68-2.09,3.89-3.1.66-2.72-1.94-2.73-3.91,0-4.82-.13-9.65,0-14.47a21.27,21.27,0,0,1,1.12-4.53Z"/><path class="1dfe95b1-bb6b-4f45-b31b-c039dc9ea445" d="M334.77,197.11c-7.79,2.13-8.47,1.8-12.52-4.28-2.17-3.26-4.71-6.27-7.13-9.45C322.2,182.23,332.36,189.39,334.77,197.11Z"/><path class="1dfe95b1-bb6b-4f45-b31b-c039dc9ea445" d="M424.81,564.68a78,78,0,0,1-.12,8.92c-.12,1-1.66,1.84-2.54,2.75-.67-.93-1.87-1.84-1.91-2.8q-.39-8.91-.25-17.85c0-.86,1.38-1.69,2.12-2.54.91.87,2.5,1.65,2.61,2.61a77.82,77.82,0,0,1,.12,8.91Z"/><path class="1dfe95b1-bb6b-4f45-b31b-c039dc9ea445" d="M480.07,565.05a72.23,72.23,0,0,1-.11,8.46c-.13,1-1.55,1.91-2.39,2.86-.7-.88-2-1.75-2-2.66q-.27-9,0-17.94c0-.9,1.35-1.76,2.07-2.64.83,1,2.25,1.9,2.37,3a83.61,83.61,0,0,1,.11,9Z"/><path class="1dfe95b1-bb6b-4f45-b31b-c039dc9ea445" d="M343.27,246.46c4-4.77,4-8.43-.84-11.77,4.4-1.13,6.27,1,6.86,4.14C350,242.56,349,245.64,343.27,246.46Z"/><path class="1dfe95b1-bb6b-4f45-b31b-c039dc9ea445" d="M363.83,183.49c-6.91.4-4.73-4.62-6.67-6.64l1.91-1.28Z"/><path class="1dfe95b1-bb6b-4f45-b31b-c039dc9ea445" d="M358.52,170.86c-5.76-.87-4.67-4.79-6.07-8.22C357.79,163.31,357,167.26,358.52,170.86Z"/><path class="1dfe95b1-bb6b-4f45-b31b-c039dc9ea445" d="M348.53,162.6l4.28,7.67c-4.93-.24-5.52-1.16-5.55-6.91Z"/><path class="1dfe95b1-bb6b-4f45-b31b-c039dc9ea445" d="M363,175.89c5.61.1,4.64,4.27,6.18,8C363.87,183,364.48,179.07,363,175.89Z"/><path class="1dfe95b1-bb6b-4f45-b31b-c039dc9ea445" d="M150.38,160c3.83-4.74,5.82-5.35,11.65-3.39Z"/><path class="1dfe95b1-bb6b-4f45-b31b-c039dc9ea445" d="M362.17,170.63l-4.09-7.33c4.57.07,4.81.38,5.73,6.38Z"/><path class="1dfe95b1-bb6b-4f45-b31b-c039dc9ea445" d="M372.9,195.41c-3.58-.21-3.81-.54-4.56-6.48C372.15,189.38,372.46,189.81,372.9,195.41Z"/><path class="1dfe95b1-bb6b-4f45-b31b-c039dc9ea445" d="M261,233.47c-1.78,1.93-2.8,4.06-4,4.17-17.2,1.52-34.43,2.79-51.65,4.08a6.94,6.94,0,0,1-1.92-.42C205.09,238.7,250,232.38,261,233.47Z"/><path class="1dfe95b1-bb6b-4f45-b31b-c039dc9ea445" d="M274.17,233.3c1.46-6.94,2.69-13.93,4.47-20.79a18.54,18.54,0,0,1,4-6.79c3.92-4.63,8.91-4.63,12.58.33a32.71,32.71,0,0,1,5.31,10.56c3.45,12.81,3.25,25.62-1.62,38.13A20.51,20.51,0,0,1,296,259.9c-4.66,5.88-9.87,5.72-14.28-.29S275,244.57,274.17,233.3Zm26.37-1.1c-2.05-7.33-3.4-14.89-6.31-21.79s-8.86-6.87-12.11-.17c-7.21,14.9-7,30.23-.41,45.29,1,2.38,4.35,5.44,6.36,5.27,2.43-.2,5.83-3.1,6.66-5.56C297.19,247.94,298.59,240.29,300.54,232.2Z"/><path class="1dfe95b1-bb6b-4f45-b31b-c039dc9ea445" d="M283.06,238.62c-3.47-3.55-2.23-7-.63-10.87C286.16,230.92,286.35,234.67,283.06,238.62Z"/><path class="1dfe95b1-bb6b-4f45-b31b-c039dc9ea445" d="M287.38,244.69c1.07,3.56,7.16,4.67,3.4,10.57l-4.56-10Z"/><path class="1dfe95b1-bb6b-4f45-b31b-c039dc9ea445" d="M294.36,217.94c1.85,7.39-3.79,6.45-6.81,8Z"/></g></g></svg>