<svg xmlns="http://www.w3.org/2000/svg" viewBox="0 0 1450.5 488"><defs><style>.\34 5ef6d08-daac-4e5b-98c2-b157c5ac2a04{fill:#fff;}</style></defs><title>Asset 11</title><g id="97b9013f-4c1e-4c3b-a716-b58bcad62512" data-name="Layer 2"><g id="ca9ba295-d562-4b56-a152-c3fc4361bbea" data-name="Layer 1"><path class="45ef6d08-daac-4e5b-98c2-b157c5ac2a04" d="M1301,488c-3-.33-5.92-.7-8.88-1-32.18-3.11-62.92-11-91.09-27.42-4.8-2.79-9.38-6-14.28-9.15,13.28-19,26.36-37.62,39.54-56.42.77.61,1.42,1.11,2,1.64,16.86,14.47,36.4,23.13,58.21,26.91a111.82,111.82,0,0,0,35.82.44,67.72,67.72,0,0,0,18.16-5.28c13.74-6.27,22.54-17,27.94-30.84a78.26,78.26,0,0,0,4.92-26.65c.15-5.07.06-10.16.06-15.24,0-.58-.07-1.15-.11-1.68-1.25-.64-1.69.34-2.29,1-2.33,2.5-4.51,5.16-7,7.46a83.12,83.12,0,0,1-40,20.41c-23,4.77-45.81,3.63-67.8-5-28-11-47.58-30.93-59.71-58.3a134,134,0,0,1-10.64-40.67,150,150,0,0,1,5.64-60.52c5.41-17.52,13.93-33.34,26.48-46.79,16.72-17.94,37.1-29.39,61.46-33.19,21.18-3.31,41.83-1.37,61.69,7.17a75.67,75.67,0,0,1,32.74,26.57c.47.67,1,1.32,1.5,2,.08.09.31.07.65.14.65-1.91.24-3.89.3-5.82.08-2.08,0-4.16,0-6.25v-18.3c.78-.08,1.34-.18,1.9-.18h72.25V364c-.14.72-.35,1.44-.42,2.17-.36,3.89-.56,7.8-1.06,11.67a138.92,138.92,0,0,1-9.57,36.32c-10.5,25.1-27.35,44.46-51.7,57-18.56,9.55-38.5,14-59.13,15.85-3,.27-6.08.66-9.12,1Zm74.85-237.41a64.88,64.88,0,0,0-3.38-20.27c-6.07-17.68-17.58-30.19-35.31-36.59a57.64,57.64,0,0,0-24.64-2.81c-20.49,1.72-35.47,11.84-44.42,30.25-7.78,16-8.6,32.84-3.77,49.92A57.2,57.2,0,0,0,1281,298.48c10.84,9.84,23.69,14.24,38.26,13.69,22.38-.83,39-11.09,49.57-30.85C1373.8,272,1375.75,261.92,1375.85,250.59Z"/><path class="45ef6d08-daac-4e5b-98c2-b157c5ac2a04" d="M11,0c0,1.08.08,2.16.08,3.25V363.5H0V0Z"/><path class="45ef6d08-daac-4e5b-98c2-b157c5ac2a04" d="M430,0a20.61,20.61,0,0,1,.34,2.69q0,179.1,0,358.21c0,.81-.07,1.62-.11,2.57H419.65V67.68q0-32.25,0-64.49A31.38,31.38,0,0,1,420,0Z"/><path class="45ef6d08-daac-4e5b-98c2-b157c5ac2a04" d="M811.87,340.76c-.6,3.05-.25,5.61-.31,8.13s0,5.17,0,7.75v15.62H739.08V9.34c1.7-.51,75.79-.63,78.77-.06V158.22l.63.24,1.8-1.87c13.17-13.54,28.46-23.52,47.06-27.83a112.39,112.39,0,0,1,31.53-2.34,103.46,103.46,0,0,1,28.86,5.43c23.14,8.1,41.34,22.57,54.85,43,10.89,16.44,17.4,34.57,20.46,54a146.41,146.41,0,0,1,1.41,33.13C1002.55,288.57,995,313.32,979,335c-15.14,20.43-34.94,34.29-59.65,40.76a113,113,0,0,1-39.42,2.82,103.3,103.3,0,0,1-40.55-12.36,72.46,72.46,0,0,1-25.86-23.43C813.1,342.19,812.62,341.68,811.87,340.76Zm116.9-88.12c-.06-11.36-1.88-21.58-6.69-31-9.49-18.56-24.55-29.2-45.53-30.73-21.35-1.56-38.48,6.63-50.34,24.2-15.27,22.63-16.1,46.54-2.55,70.25,11.75,20.55,32.62,31.79,58.89,27.47,16.53-2.72,28.88-11.95,37.3-26.31C926.11,275.85,928.59,264.11,928.77,252.64Z"/><path class="45ef6d08-daac-4e5b-98c2-b157c5ac2a04" d="M1134.47,133.14V372c-1.83.57-73.09.82-78.39.3-.53-1.74-.7-235.71-.15-239.14Z"/><path class="45ef6d08-daac-4e5b-98c2-b157c5ac2a04" d="M304.35,77.73a8.06,8.06,0,0,1,1.19-.2h9.32c.19,2.71.07,5.34.09,8s0,5.49,0,8.24v48.72H379.7v9.1H315.27c-.12.73-.25,1.27-.3,1.81s0,1,0,1.5q0,81.62,0,163.24a63,63,0,0,0,2.21,17.54c3.56,12.39,12.16,19.49,24.24,22.85,7.25,2,14.66,2,22.07,1.27a62.45,62.45,0,0,0,15.07-3.4,12.27,12.27,0,0,1,1.31-.31c.47,2.72.91,5.32,1.37,8a49.37,49.37,0,0,1-9.92,3.16,78.28,78.28,0,0,1-32.47.91c-13.18-2.49-22.53-9.78-28.21-21.89a60.88,60.88,0,0,1-5.6-22.14c-.22-3.32-.26-6.66-.26-10q0-79.38,0-158.74v-3.66H191.56c-.05.95-.14,1.83-.14,2.7q0,9,0,18,0,72.12,0,144.24a76.4,76.4,0,0,0,1.43,15.89c3.14,14.83,12.63,23.27,27,26.4,11.47,2.5,22.85,1.45,34-2.18.63-.21,1.26-.43,1.9-.63a2.58,2.58,0,0,1,.58.09c.44,2.52.91,5.16,1.38,7.85a58.67,58.67,0,0,1-12.41,3.7,76.73,76.73,0,0,1-30.53.26c-11.69-2.37-20.6-8.52-26.32-19.16a60.2,60.2,0,0,1-6.91-24.06c-.24-3-.28-6-.28-9q0-80.25,0-160.49v-3.66H133.33v-9.16h47.4V77.66h10.61v64.7h112.9c.24-7.14.07-14.27.1-21.39s0-14.5,0-21.75Z"/><path class="45ef6d08-daac-4e5b-98c2-b157c5ac2a04" d="M677.86,320.3l7.84,6.88c-3.21,3.64-6.16,7.24-9.38,10.57-14.82,15.28-32.42,25.66-53.39,30a129.62,129.62,0,0,1-33.3,2.4,105.3,105.3,0,0,1-36.82-8.29c-26.59-11.54-45.21-30.94-56.28-57.64a133.07,133.07,0,0,1-9.62-41.92c-1-14.47-.37-28.82,3.14-42.92C496.11,195,508,174.1,527.61,158.07A96.9,96.9,0,0,1,576,136.91c17.22-2.45,34.33-1.68,50.86,3.87,29.66,10,49.8,30,60.64,59.33A117.1,117.1,0,0,1,694.65,241q0,4.25,0,8.5c0,.24-.08.48-.17,1-8.17.19-16.38.06-24.58.08s-16.33,0-24.5,0h-148a13.71,13.71,0,0,0-.24,1.84c.67,23,5.69,44.73,18,64.4s29.45,33,51.64,39.85c10.94,3.36,22.21,4.18,33.6,3.89,31.21-.77,56.28-13.75,75.69-38C676.6,321.88,677.16,321.18,677.86,320.3ZM497.52,241.14c3.12.55,184.56.44,186.4-.06a12.12,12.12,0,0,0,.07-1.22c-.13-2.24-.25-4.49-.42-6.73a105.91,105.91,0,0,0-10.18-38.39c-9-18.63-22.57-32.81-41.54-41.52a91,91,0,0,0-31.29-7.93c-12-.92-23.8-.3-35.4,3-15.17,4.29-27.81,12.8-38.52,24.07-16.26,17.09-25.31,37.71-28.53,61C497.74,235.91,497.7,238.56,497.52,241.14Z"/><path class="45ef6d08-daac-4e5b-98c2-b157c5ac2a04" d="M1098.33,13.3a43.28,43.28,0,0,1,34.17,18.78,42.33,42.33,0,0,1-16.34,62.83c-13.16,6.36-26.76,6.94-40.13,1-13.16-5.82-22.13-15.82-25-30.13-3.47-17,1.46-31.46,15.29-42.42C1075,16.49,1084.42,13.3,1098.33,13.3Z"/><path class="45ef6d08-daac-4e5b-98c2-b157c5ac2a04" d="M97,363.48H86.93c-.49-1.87-.71-215.49-.2-221,3.31-.08,6.67-.05,10,0C97.26,144.56,97.5,357.54,97,363.48Z"/><path class="45ef6d08-daac-4e5b-98c2-b157c5ac2a04" d="M915.58,460.48h-4.36c-.48,0-1-.06-1.76-.11v-2.77c0-8.41.07-16.83,0-25.25a33.84,33.84,0,0,0-.91-7.65c-1.93-7.77-8.4-10-15.14-7.38a13.71,13.71,0,0,0-7.09,6.74,25.13,25.13,0,0,0-2.73,12.06c0,7.08,0,14.17,0,21.25v2.92h-6c-.12-16.07-.24-32.18-.36-48.44h5.68c.18,1.83.36,3.6.58,5.85,4.5-5.07,9.68-7.6,16.13-7.27s11.11,3.51,14,9.58c.69-.93,1.17-1.59,1.67-2.23a19.43,19.43,0,0,1,21.8-6.33c6,2.06,9.07,6.8,10.41,12.73a32.38,32.38,0,0,1,.8,6.93c.09,9.08,0,18.17,0,27.25,0,.65-.11,1.3-.17,2h-5.91c0-.88-.11-1.76-.11-2.63,0-8.5.08-17-.06-25.5a28.16,28.16,0,0,0-1.09-7.87c-2.9-9.26-11.32-9.36-16.62-6.48a15.38,15.38,0,0,0-6.69,7.83,25.92,25.92,0,0,0-2,10.47c0,7.09,0,14.17,0,21.25Z"/><path class="45ef6d08-daac-4e5b-98c2-b157c5ac2a04" d="M969.7,453.64V483.4c-2.14.7-4.07.31-6.12.3V411.78c1,0,2-.08,2.92-.09s1.81,0,3.07,0v7c.88-.76,1.31-1.08,1.7-1.45,7.22-6.86,15.74-8.53,25-5.47s14.18,10.09,15.72,19.55a28,28,0,0,1-2.4,17.27,24.07,24.07,0,0,1-37.15,7.52C971.66,455.45,970.94,454.77,969.7,453.64Zm36.38-17.28a21.6,21.6,0,0,0-3.32-12.1,17.46,17.46,0,0,0-23.94-5.38c-11.65,7.18-12.38,25.38-1.36,33.53a17.6,17.6,0,0,0,26.81-7.1A20.33,20.33,0,0,0,1006.08,436.36Z"/><path class="45ef6d08-daac-4e5b-98c2-b157c5ac2a04" d="M806.24,445.62l4.44,4.16a27.17,27.17,0,0,1-6.16,6.18,35.93,35.93,0,0,1-22.15,6.44c-11-.25-20.27-4.31-27.43-12.77a36.34,36.34,0,0,1-8.24-19.25c-1.06-8.24-.35-16.33,3.27-23.93,5.86-12.31,15.77-19,29.23-20.51a37.56,37.56,0,0,1,18.6,2.57,28,28,0,0,1,11.06,8l-3.9,4.54c-.51-.46-.89-.76-1.22-1.1-6-6.22-13.57-8.52-22-8.19-17.6.71-28.8,14.71-29.25,31.06a35.44,35.44,0,0,0,4,18.07c5.91,11,17.33,16.41,29.43,15.39a31.76,31.76,0,0,0,10.12-2.57,23.08,23.08,0,0,0,8.57-6.32C805.13,446.84,805.64,446.3,806.24,445.62Z"/><path class="45ef6d08-daac-4e5b-98c2-b157c5ac2a04" d="M576.46,98.32h-6.05V21c1,0,1.94-.08,2.9-.1s1.83,0,3.07,0c.15,2.92.06,5.72.07,8.52s0,5.66,0,8.49V55.33c.85-.72,1.39-1.16,1.91-1.63,5.32-4.9,11.62-6.31,18.56-4.92,5.67,1.14,9.4,4.73,11.57,10a26.22,26.22,0,0,1,1.82,9.77c.08,9.41,0,18.83,0,28.24,0,.41-.08.81-.14,1.42h-6.11V95.45c0-8.41,0-16.82,0-25.24a34.78,34.78,0,0,0-.55-6.2c-1.45-7.65-7.79-11.45-15.32-9.27a14.36,14.36,0,0,0-8.48,6.57,21.92,21.92,0,0,0-3.23,11.4c-.05,7.58,0,15.16,0,22.75Z"/><path class="45ef6d08-daac-4e5b-98c2-b157c5ac2a04" d="M662,84.67l4.6,4c-3.88,5.59-8.81,9.41-15.48,10.59C636.54,101.81,626,93.8,622.73,82a30.22,30.22,0,0,1-.8-12.87,24.4,24.4,0,0,1,7.37-14.66c7-6.55,15.38-7.84,24.16-4.73,8.59,3,12.93,9.84,14,18.72a59.42,59.42,0,0,1,0,7H628.25c-.61,6.31,3.72,14,9.84,16.55C647.74,96,655.82,93.39,662,84.67Zm-.78-15.22c-.78-9.29-7.46-15.37-16.61-15.26-8.35.09-15.78,7.06-16.2,15.26Z"/><path class="45ef6d08-daac-4e5b-98c2-b157c5ac2a04" d="M1026.39,422.48l-3.41-4.82a24,24,0,0,1,15.14-7.12,26,26,0,0,1,6.47.16c9.2,1.45,14.2,7.38,14.35,16.92.08,5.32,0,10.65,0,16a84,84,0,0,0,1,15.68,5.91,5.91,0,0,1-.05,1.07H1054c-.26-1.53-.54-3.13-.87-5.06-.64.52-1.17.94-1.68,1.39a21.12,21.12,0,0,1-23.11,2.94c-9.64-4.85-9.77-18.18-2.61-23.75a26.84,26.84,0,0,1,14.8-5.33c3.06-.25,6.15-.25,9.23-.35.89,0,1.78,0,2.61,0,1.45-7.44-2.57-13-9.62-13.74a18.25,18.25,0,0,0-14.34,4.46c-.5.43-1,.87-1.52,1.29A4.06,4.06,0,0,1,1026.39,422.48Zm26.25,13.89a3.19,3.19,0,0,0-.87-.28c-4.24.18-8.49.18-12.7.63a15.9,15.9,0,0,0-9.73,4.06,8.6,8.6,0,0,0,1.52,13.35c4.73,2.81,13.54,2.88,18.3-3.38C1052.42,446.46,1052.91,441.5,1052.64,436.37Z"/><path class="45ef6d08-daac-4e5b-98c2-b157c5ac2a04" d="M865.2,434.24c-.07,10.26-2.86,17.47-9.79,22.67-9.77,7.32-24.68,6.44-33.4-1.85-10-9.5-10.19-27.81-.42-37.51a24.2,24.2,0,0,1,16.32-7.09,27.9,27.9,0,0,1,12,1.74C860.34,416.37,865.41,426,865.2,434.24ZM840.15,416.3c-9.53-.18-16.74,5.34-18.91,14.5a22,22,0,0,0-.56,3.7c-.65,11.9,6.59,20.12,16.58,21.29,9.46,1.1,18.49-3.86,21-14a26.67,26.67,0,0,0,.69-6.67C858.8,424.21,851.05,416.51,840.15,416.3Z"/><path class="45ef6d08-daac-4e5b-98c2-b157c5ac2a04" d="M1157.06,411.8h6.47c-.21.78-.32,1.4-.54,2q-11.19,30.06-22.43,60.1a22.15,22.15,0,0,1-2.66,5.05c-3.7,5.17-10.55,6.55-16.35,3.32.24-.82.47-1.68.74-2.53s.58-1.72.92-2.73l2.93.7c3.31.75,5.71-.21,7.45-3.09a20.8,20.8,0,0,0,1.58-3.38c1.25-3.27,2.38-6.58,3.68-9.82a4.49,4.49,0,0,0-.13-3.56q-8.28-21.42-16.5-42.86c-.36-.93-.69-1.86-1.09-2.95a14,14,0,0,1,5.95-.21c.51.05,1.05,1.16,1.33,1.87,2.73,7.15,5.41,14.32,8.11,21.49q2.51,6.66,5,13.31c.28.75.63,1.48,1.15,2.7C1147.59,437.79,1152.3,424.85,1157.06,411.8Z"/><path class="45ef6d08-daac-4e5b-98c2-b157c5ac2a04" d="M1080.46,460.36h-6c-.05-.85-.15-1.72-.15-2.59,0-8.42.07-16.83,0-25.24-.08-6.58-.4-13.15-.61-19.72a7.89,7.89,0,0,1,.11-.93h6c.15,1.89.29,3.68.47,5.82.71-.62,1.24-1.07,1.75-1.55,5.28-5.07,11.6-6.65,18.67-5.33,5.9,1.11,9.73,4.78,11.92,10.28a26,26,0,0,1,1.75,9.53c.09,9.5,0,19,0,28.49a10,10,0,0,1-.15,1.16h-6.11v-2.76c0-8.33,0-16.66,0-25a38.33,38.33,0,0,0-.48-6c-1.53-9.19-9.29-12.33-17.3-9a14.14,14.14,0,0,0-6.85,6.33,23,23,0,0,0-3,11.72c0,7.25,0,14.49,0,21.74Z"/><path class="45ef6d08-daac-4e5b-98c2-b157c5ac2a04" d="M541,31.51V98.28h-6.13V31.56H511.58V25.63h52.66v5.8c-2.47.19-5,.05-7.56.08s-5.16,0-7.74,0Z"/><path class="45ef6d08-daac-4e5b-98c2-b157c5ac2a04" d="M80.5,46.4a32,32,0,0,1,1.75-5.65c3.83-7.36,13.44-8,18.42-1.36,3.6,4.81,2.93,12.61-1.47,16.7-3,2.8-6.5,4.13-10.54,2.72A11.09,11.09,0,0,1,81.07,50a30.65,30.65,0,0,1-.33-3.47Z"/></g></g></svg>