<svg xmlns="http://www.w3.org/2000/svg" xmlns:xlink="http://www.w3.org/1999/xlink" viewBox="0 0 2606.97 2814.26"><defs><style>.b04270fb-0592-4858-b92e-d2692489d7cd{fill:none;}.\30 d95e24f-59f4-4005-8bd5-f458eab4bdab{clip-path:url(#c4676f59-54a5-46e2-90f7-2d851db6c2da);}.a1268329-20e0-483a-899e-1b726e4f52ba{fill:url(#00dc0a7b-c539-47bb-9916-ae39ed3ad681);}.\38 6c4aa60-b830-44bc-8884-78e4c39eae62{fill:url(#e2647e52-4eab-41ea-8de8-fcf445a157f9);}.\32 99bf0d7-e32b-4819-ab3b-c8b556f3c0aa{clip-path:url(#7695cc9c-ac70-4dc8-8291-aa6ebbdb8298);}.\39 992fb17-854c-4f44-8991-4e36e4eb56fd{fill:url(#4764835e-7920-4639-8b30-a6c841e7af39);}.\37 03b7295-02fc-4a8d-a5bc-2b210fade89c{fill:#133133;}</style><clipPath id="c4676f59-54a5-46e2-90f7-2d851db6c2da"><rect class="b04270fb-0592-4858-b92e-d2692489d7cd" x="1183.48" y="867.13" width="1080" height="1080"/></clipPath><linearGradient id="00dc0a7b-c539-47bb-9916-ae39ed3ad681" x1="2015.34" y1="1305.22" x2="1842.54" y2="724.9" gradientUnits="userSpaceOnUse"><stop offset="0" stop-color="#401381"/><stop offset="1" stop-color="#d11137"/></linearGradient><linearGradient id="e2647e52-4eab-41ea-8de8-fcf445a157f9" x1="1506.8" y1="1249.3" x2="2166.32" y2="2051.37" gradientUnits="userSpaceOnUse"><stop offset="0" stop-color="#16727e"/><stop offset="1" stop-color="#198969"/></linearGradient><clipPath id="7695cc9c-ac70-4dc8-8291-aa6ebbdb8298"><rect class="b04270fb-0592-4858-b92e-d2692489d7cd" x="343.48" y="867.13" width="1080" height="1080"/></clipPath><linearGradient id="4764835e-7920-4639-8b30-a6c841e7af39" x1="2855.34" y1="1305.22" x2="2682.54" y2="724.9" gradientTransform="translate(3446.97 2814.26) rotate(180)" xlink:href="#00dc0a7b-c539-47bb-9916-ae39ed3ad681"/></defs><title>Asset 2</title><g id="d4cb077c-450a-4dc0-a53d-018740600244" data-name="Layer 2"><g id="91884f36-7b9e-47b1-a703-7e0299d1cb21" data-name="Layer 1"><g class="0d95e24f-59f4-4005-8bd5-f458eab4bdab"><path class="a1268329-20e0-483a-899e-1b726e4f52ba" d="M2145.56,538.13C2109.47,389.69,2364.74,323.28,2281,119.27,2215.2-41.17,2080.74-15.51,2019.92,55.54c-86.16,100.66-52.29,164.88-250.27,102.73-146.1-45.86-298.17,40.85-272.19,207.65,36.31,233.18-173.5,126.5-283.28,156.27a392.12,392.12,0,0,0-47.45,15.94Z"/><path class="86c4aa60-b830-44bc-8884-78e4c39eae62" d="M2590,1389.87c-28.49-69.45-69.85-104-112.53-115.13v112.39H2285.21c-38.9,62-52.83,90-206.58,41.74-146.1-45.86-298.17,40.85-272.19,207.65,36.31,233.18-173.5,126.5-283.29,156.27-226.77,61.5-165.18,217.72-82.26,484.26,85.12,273.64,252.56,392.35,500.34,427.09,182.95,25.65,343-1.33,388.45-145.56,65.3-207.1-153.31-276.57,31.26-332.34,110.44-33.37,265.67-156.54,124.78-353.65S2684.81,1620.92,2590,1389.87Z"/></g><g class="299bf0d7-e32b-4819-ab3b-c8b556f3c0aa"><path class="9992fb17-854c-4f44-8991-4e36e4eb56fd" d="M461.41,2276.13C497.5,2424.57,242.23,2491,325.94,2695c65.83,160.44,200.29,134.78,261.11,63.73,86.16-100.66,52.29-164.88,250.27-102.73,146.1,45.86,298.17-40.85,272.19-207.65-36.31-233.18,173.5-126.5,283.28-156.27a392.12,392.12,0,0,0,47.45-15.94Z"/><path class="703b7295-02fc-4a8d-a5bc-2b210fade89c" d="M17,1424.39c28.49,69.45,69.85,104,112.52,115.13V1427.13H321.76c38.9-62,52.83-90,206.58-41.74,146.1,45.86,298.17-40.85,272.19-207.65-36.31-233.18,173.5-126.5,283.29-156.27C1310.59,960,1249,803.75,1166.08,537.21,1081,263.57,913.52,144.86,665.74,110.12c-182.95-25.66-343,1.33-388.45,145.56C212,462.78,430.6,532.25,246,588,135.59,621.38-19.64,744.56,121.25,941.67S-77.84,1193.34,17,1424.39Z"/></g></g></g></svg>