<svg xmlns="http://www.w3.org/2000/svg" viewBox="0 0 787.03 235.87"><defs><style>.\34 7da9560-07b1-4cc7-9b28-edb856d21bd9{fill:#0c9c7f;}.\34 e95343b-fb35-40c5-a9d5-26e52aa52a83{fill:#06626a;}.c23c8a4b-5f4e-44b8-8a00-d20e655734e6{fill:#097a85;}.\38 9077a8d-c0e9-49aa-9deb-a2a7fd53042c{fill:#0c9b7e;}.b4331e98-8908-4135-a0d3-c5615a534851{fill:#0c95a2;}.\37 cb3bb27-f0d8-48c1-bc78-28e962f7cb49{fill:#0c99a6;}.b157e900-1647-4a0a-8ff2-e91745403186{fill:#097984;}.c72c165e-0d0d-4232-a47b-e66a007d4a97{fill:#0b8995;}.\30 50dca03-f5c4-4d27-9fb0-b7cf3b4d707a{fill:#0b9276;}.a8e5ad1f-dcce-4b4a-a77b-d6b24c305ad7{fill:#0b8c98;}.\38 9462f0c-b7c2-41d4-a701-4d02ab9c80cc{fill:#0d9ba9;}.\39 402eada-1677-412d-b96e-ab0fd4a6b9ad{fill:#055259;}.\38 619bebe-5f14-4d76-812f-c8888a0661ef{fill:#0b9076;}.\34 91b998b-26ea-4ee7-862e-19657c38e8de{fill:#076b74;}.\34 dbcd89d-530a-4e4e-8e0f-d5e7bb114706{fill:#0a8692;}.\37 ff85aea-eada-49ee-9c5d-eeb7c8104fe3{fill:#044950;}.ed30de32-e340-4e10-a6a7-7d39f67149ef{fill:#054c53;}.\34 76c880b-d2a2-407a-b149-84a34aaf47cc{fill:#0b8e9a;}.ca0f76f7-845f-4bb2-8cb6-c3548f500847{fill:#0b909c;}.c51f2ea9-03e6-44e4-bf27-d46f29f875bf{fill:#0c939f;}.\39 54da117-49a9-40d6-b1a0-246e2d9af90e{fill:#0b9176;}.e7953ec6-e031-422c-af55-5b92544d5b67{fill:#054f56;}.\32 5200a06-cd60-479c-a6d8-93dba9745231{fill:#097681;}.\31 1a515dc-292b-49d3-8b68-15c860e03329{fill:#076971;}.\33 4368a34-691b-4480-a33d-952840b909fc{fill:#03363a;}.d264b8cd-c45b-4a49-88bc-35e0b426f37c{fill:#065e66;}.\35 f966b3a-3689-4bef-bed7-fcf486a7e61b{fill:#04454b;}.f675fe04-d1b8-403d-9a98-e6ceb48142cc{fill:#065a61;}.\39 5442f64-4a3c-4565-96e1-36912f37aae1{fill:#09757f;}.\33 d23cf49-5450-4c80-9748-268b3cfe57e8{fill:#065961;}.\34 353fc74-a9fb-474b-83ed-ade0ff5c0d83{fill:#065d64;}.a1b550dd-90d1-494e-a728-3e387b13c970{fill:#05545b;}.\31 8af2d61-ab6a-4652-9b1c-92138297d0f7{fill:#09747e;}.\39 969f348-62ed-43d9-a1f1-11da85cea58f{fill:#0c97a3;}.e7f7f9ab-f554-4205-977f-b1308c7373e0{fill:#065c63;}.\31 3b45090-6cc6-4d10-959e-d02b5288e2b2{fill:#032c30;}.d754af22-f928-4b9d-a5bb-f5940424e886{fill:#022a2d;}.\33 8275b76-073e-43a4-92a8-28fcb4adc22f{fill:#06555c;}.\34 543d6c9-7d7a-406b-a9c9-b20e1bb109c7{fill:#032f34;}.b58df478-a727-40ab-b6df-d70167ec090f{fill:#086972;}.b65eb878-76a6-4053-8b8f-40e10b5941c6{fill:#0e7b85;}.a33e41a0-e998-4949-ba59-fe217c595496{fill:#03292c;}.\39 a25e281-defc-4b79-acd5-98b767f8eb7d{fill:#042e31;}.\37 cef8228-472d-4fd1-81e1-fd68f2d438a3{fill:#042d30;}.\39 82cb8e6-2ee8-45ca-b88b-0f173c49c4e1{fill:#0a727c;}.\34 58af1ba-ca14-468d-8279-dbdf4c625064{fill:#022c30;}.\34 28f4499-2cfa-4f86-9905-c3ee3db85e49{fill:#07565d;}.\37 7d90e5d-1008-4160-9d14-b6f89a888923{fill:#000101;}.b0d303b0-5058-4cc4-860f-6e0e7ed7c327{fill:#053337;}.\35 b22a2f6-509c-4b7c-9070-cec4c5eb7da4{fill:#0a2e31;}.\34 18ee9fd-444a-4ed1-a4fe-0a713ac6b5f7{fill:#0a363a;}.\31 0ca5717-be26-4b14-870e-ff71394dc34a{fill:#585858;}.\33 be9fb9f-9386-45cc-8a05-6d7d1a297f61{fill:#0daf8d;}.df42c11b-69b0-4d33-a3fd-1318a9cd9db3{fill:#fff;}.\33 40985d0-bfed-45b1-84e2-cbc32d057bb3{fill:#02373c;}.ed4c497e-1529-47cb-b54d-a522c40623de{fill:#044349;}.\38 3a9262c-db28-41e7-9705-d42f4feaa8ff{fill:#0db693;}.\31 5926570-a568-45ef-9153-ed6dfdc2da31{fill:#082d30;}.\34 98f8567-47c5-4805-941d-75e02c85fefb{fill:#0cab8b;}.\37 f972966-5734-4f9a-8d30-ab188174f73c{fill:#07717a;}.\39 62e1957-d5bc-46b4-86cd-6670cba1a212{fill:#08705b;}.\30 e5eea88-53e1-4afa-8d69-cec2d2b818c1{fill:#0b828e;}.fb773947-a283-469d-a6c5-0a55b2207ca9{fill:#01282b;}.\38 679934b-9ecf-4b13-8593-3cee62c26377{fill:#01282c;}.\39 98c2dcd-f19d-4895-ae16-6de9e8ede631{fill:#022f33;}.\38 f808bb3-37ca-4d6d-9f53-ecad1940289a{fill:#04444a;}.\37 c0fd5ba-cffd-429c-bf88-00b906662c24{fill:#0db894;}.cf050039-5c55-4d37-b2cd-19bb18b4a625{fill:#021613;}.f3575b8d-57fb-454b-81a5-cfb3f20a6b8c{fill:#04464d;}.\31 01a3af1-8b71-43e8-84aa-1098c4a97a36{fill:#052427;}.\37 abcdb41-a6b2-4b1b-922d-77842107e1a4{fill:#052022;}.\30 9768bac-a9e8-4d79-9afd-a160aa924109{fill:#021714;}.\38 3b56d9c-ebcd-43ee-bb94-0978cb283b1d{fill:#07372e;}.ab0b6f6e-aa13-4a1a-a7b9-ab012e6bf799{fill:#0a7660;}.\38 c7e2cc7-816e-415f-a475-3bc78a9ee6eb{fill:#05483b;}</style></defs><title>Asset 3</title><g id="6e470641-9961-43bb-bbe0-ac789234d715" data-name="Layer 2"><g id="0561fbc6-cd10-4844-b56c-d2f9fcfe49a1" data-name="Layer 1"><path class="47da9560-07b1-4cc7-9b28-edb856d21bd9" d="M89,211.75c-.42-.36-.87-.7-1.26-1.09Q63.33,186.27,39,161.85c-.33-.33-.62-.72-.93-1.08-.27-1.52-1.44-2.65-1.82-4.13-.19-.77-.59-1.62.13-2.25a2.18,2.18,0,0,1,2.49,0,4.67,4.67,0,0,1,1.54,1.12c2,2.31,4.49,2.17,7.24,2,6.83-.5,13.67-.91,20.53-.74a2,2,0,0,1,1.11.4c.08,1.69-1.28,1.28-2.11,1.29a46.81,46.81,0,0,0-7.38.81c-2.85.5-3.17,1.28-1.36,3.52A83.41,83.41,0,0,0,70.81,175.7,74.67,74.67,0,0,0,103.69,191a79.64,79.64,0,0,0,32.73-.74A63.59,63.59,0,0,0,156,182.1a84.25,84.25,0,0,0,21.64-19c2.91-3.57,2.68-4.08-1.85-4.76a70,70,0,0,0-10.73-.82q-25.17.08-50.35,0c-1.25,0-2.58.29-3.68-.65a.67.67,0,0,1,.26-.73,5.61,5.61,0,0,1,3-.41c21.76,0,43.52,0,65.27,0,3.51,0,7,.49,10.52.49,2.07,0,4.09-.72,6.2-.21,1,.24,1.56-.69,2.15-1.31,3-3.14,5.3-6.8,8.23-10,1.25-1.35,2.47-2.73,3.67-4.12.57-.66,1.2-1.5,2.19-1.15s.88,1.42.8,2.28a7.58,7.58,0,0,0,.35,3.07c-3.76,4-7.6,7.95-11.69,11.63-.54.48-1,1-1.54,1.51q-26.52,26.52-53,53c-.56.56-1.17,1.06-1.75,1.59-2.28-.31-4.44.33-6.62.8a98,98,0,0,1-27.3,2A106.24,106.24,0,0,1,92,212.25,10.15,10.15,0,0,0,89,211.75Z"/><path class="4e95343b-fb35-40c5-a9d5-26e52aa52a83" d="M215.15,63.28q11.43,12.5,22.87,25c.49.54,1,1,.72,1.86a5.26,5.26,0,0,0-.36,1c-.92,1.55-1.77,3.16-3.5,4a13.92,13.92,0,0,1-6.08,1.07q-19.29,0-38.58,0c-5,0-6.95-2.17-6.65-7.27.28-4.69,2.39-7.13,7-8,.78-.16,1.57-.33,2.33-.54,2-.57,2.21-1.59.62-3.1a3.19,3.19,0,0,0-4-2.17c-4.34.79-8.76.57-13.13.69a101.33,101.33,0,0,1-13.13-.49,15.34,15.34,0,0,0-2.62-.2c-2,.12-2.19.49-1.58,2.57a3.28,3.28,0,0,0,3.34,2.8c2.48.17,4.47,1.54,6.54,2.72a9.62,9.62,0,0,1,.31,8c-9.17-1.61-18.42-.38-27.62-.75-1.52-.06-3,0-4.55,0-2.63-.17-3.83-1.82-3.25-4.39.67-3,3-4.14,5.62-4.88a13.56,13.56,0,0,1,1.9-.26,2.61,2.61,0,0,0,2.48-1.55c.47-1.31-.57-1.84-1.33-2.51-.64-1.21-1.61-1.47-3-1.42-10.32.43-20.64.71-30.95-.2-3.41-.31-6.84,0-10.26-.15-.88-.24-2.35-.37-1.39-1.69a46.48,46.48,0,0,1,9.39-10.06,2,2,0,0,1,.69-.21,12.89,12.89,0,0,1,5.38-1h97.72A7.74,7.74,0,0,1,215.15,63.28Z"/><path class="c23c8a4b-5f4e-44b8-8a00-d20e655734e6" d="M215.15,63.28c-3.78-.78-7.62-.48-11.44-.48q-41.46,0-82.92,0c-4.84,0-9.73-.58-14.48.92.27-2.06,1.88-3.21,3.1-4.62,5.45-5.5,10.44-11.43,15.86-17,1.64-1.38,2.71-3.28,4.33-4.69a6,6,0,0,1,3-1.8,11.16,11.16,0,0,1,4.25-.53q24,0,48.08,0c2.07,0,4.17,0,6,1.21,2.89,2.63,5.3,5.7,7.94,8.57,5.06,5.51,10,11.1,15,16.67A5,5,0,0,1,215.15,63.28Z"/><path class="47da9560-07b1-4cc7-9b28-edb856d21bd9" d="M131.76,36.38a22.45,22.45,0,0,0-4.39,4.48,5,5,0,0,1-1.84,1.75c-.81-2-2.64-2.4-4.36-2.12-3.5.57-7-.12-10.5.28-11,1.26-21.44,4.11-31.06,9.79A81.39,81.39,0,0,0,63,63.11C50.87,75.33,43.27,90,40.94,107.08c-.92,6.79-1.47,13.68,0,20.51a3,3,0,0,1,.09,1.19c-.35,1.76.67,2.25,2.13,2.35.92,1,0,1.61-.56,2.13-2.5,2.43-4.75,5.09-7.11,7.64a2.87,2.87,0,0,0-1.42,3c.09.56.34,1.3-.55,1.56-1.72-.45-2.34-1.87-2.78-3.32a78.87,78.87,0,0,1-3.29-18.82,89.72,89.72,0,0,1,8.06-42.6,16.49,16.49,0,0,0,.82-2.12c-1.08.25-1.67,1.7-2.93,1,.36-.42.68-.88,1.07-1.27l43.7-43.72c.39-.38.85-.71,1.27-1.06.7,1.29-.68,1.9-1.09,3a13.76,13.76,0,0,0,3.44-1.33,86.82,86.82,0,0,1,28.85-7.24,100.59,100.59,0,0,1,20.53.58c2,.25,3.86,1,5.9.83,1,.41.56,1.08.15,1.51C135.45,32.74,133.88,34.84,131.76,36.38Z"/><path class="89077a8d-c0e9-49aa-9deb-a2a7fd53042c" d="M137.52,29.67a6.32,6.32,0,0,1-4.41-.05,19.84,19.84,0,0,0-4.9-.87c-4.21-.24-8.42-.92-12.64-.49-5.35.54-10.79.31-16,1.87-3.72,1.1-7.55,1.86-11.27,3a52,52,0,0,0-5.92,2.55c-1.53.67-3.06,1.36-4.59,2a.71.71,0,0,1-.88-.14c-.22-.3,0-.59.15-.86.78-1.08,2.22-1.64,2.45-3.14.41-.48.79-1,1.24-1.44,9.31-9.33,18.73-18.55,27.91-28A12.58,12.58,0,0,1,127.11,4c5.78,6,11.72,11.79,17.58,17.67A20.71,20.71,0,0,1,137.52,29.67Z"/><path class="b4331e98-8908-4135-a0d3-c5615a534851" d="M137.52,29.67l7.17-8c2.42-1.74,4.15-4.16,6.18-6.29,3.3-3.45,6.5-7,9.73-10.55a13.37,13.37,0,0,0,.94-1.36c2.62,2.88,5,5.44,7.31,8q10.67,11.82,21.29,23.65a2.43,2.43,0,0,1,.78,1.18c-2.08.2-4.07-.49-6.15-.48-15.22.08-30.44,0-45.66,0a30.18,30.18,0,0,0-7.35.47,22.72,22.72,0,0,1,4.07-4.79A7.37,7.37,0,0,0,137.52,29.67Z"/><path class="7cb3bb27-f0d8-48c1-bc78-28e962f7cb49" d="M316.13,62.31c-.15-2.63.18-5.27-.32-7.89-1.37-7.34-5.6-11.4-12.92-12.45a24.69,24.69,0,0,0-8.57.36,3.7,3.7,0,0,0-3.23,3.6,23.76,23.76,0,0,0-.13,2.39q-.1,9.48-.2,18.95c0,1.82,0,1.8-1.81,1.8-3.35,0-6.71-.06-10.07,0-1.27,0-1.67-.37-1.64-1.62.06-2.79,0-5.59,0-8.39a97.08,97.08,0,0,0-.77-9.79c-.55-5.87-5.35-8.5-9.76-8.75a19.41,19.41,0,0,1-2.16-.08A1.79,1.79,0,0,1,263,38.37a1.56,1.56,0,0,1,1.79-1.51c2.16.07,4.32.07,6.47.19,9.67.56,19.35.17,29,.28a61.23,61.23,0,0,1,15.42,1.91,27.17,27.17,0,0,1,5.58,2.15,16.19,16.19,0,0,1,7.93,8.94,21,21,0,0,1,.83,12c-1.36.77-2.82.25-4.21.21C322.62,62.45,319.36,62.92,316.13,62.31Z"/><path class="b157e900-1647-4a0a-8ff2-e91745403186" d="M316.13,62.31c.29-.13.58-.37.87-.37,4.36,0,8.74-.57,13.07.38-.71,5.44-3.65,9.43-8.12,12.36a27.51,27.51,0,0,1-9.23,3.81c-.79.17-2,0-2,1.25s1.14,1.14,1.91,1.45c3.05,1.23,5.91,2.71,7.75,5.6a2.7,2.7,0,0,1-2.21.69c-3.11,0-6.21.07-9.31.32a42,42,0,0,0-3.08-3.31c-3.76-3.35-8-4-12.67-2.11a2.13,2.13,0,0,0-1.59,2.28c.05,7.09,0,14.19,0,21.29-1.28-.33-1-1.45-1.09-2.32-.12-2-.09-4,0-5.95,0-1.56-.6-2.11-2.13-2-2.54.12-5.08,0-7.63,0a4,4,0,0,1-2.93-.72q0-6.11,0-12.21c0-2.32,0-2.3-2.4-2.36a50.11,50.11,0,0,0-10.83,1,3.77,3.77,0,0,1,1.66-2c4.75-4,10.34-5.89,16.43-6.59,4.88-.56,9.73-.11,14.6.08,2.23.09,4.47.11,6.7.12a14.56,14.56,0,0,0,4.7-.85,10.59,10.59,0,0,0,7-7.57C315.76,63.86,315.94,63.08,316.13,62.31Z"/><path class="c72c165e-0d0d-4232-a47b-e66a007d4a97" d="M679.06,107.34c0-.72-.07-1.44-.07-2.15q0-22.38,0-44.76c0-.56,0-1.12,0-1.67s0-1-.57-1.18a1.37,1.37,0,0,0-1.69.51A13.92,13.92,0,0,0,676,59.6c-2.36,5.32-4.71,10.65-7.09,16-.24.55-.26,1.28-1,1.55-2-.6-4.34.48-6.27-.9,1.57-4.19,3.63-8.16,5.48-12.23,3.67-8.07,7.46-16.1,11.13-24.17a3.66,3.66,0,0,1,3.33-2.55c2.07-.18,4.14-.34,6.21-.36,4.88,0,9.76,0,14.63,0,1.58,0,2.08.43,2.27,1.81s-.36,2-1.77,2.41a15.07,15.07,0,0,1-2.59.44,12.62,12.62,0,0,0-3.5.79,6.4,6.4,0,0,0-4.44,6q-.06,1.08-.06,2.16,0,27.23-.05,54.45c0,1.11,0,2.23,0,3.35-1.36-.42-1.08-1.63-1.09-2.57-.06-3.57-.11-7.14,0-10.71-.11-6,0-12-.06-17.92,0-2.82-.51-3.31-3.33-3.44-1.75-.08-3.51,0-5.26,0-2-.08-2.38,1-2.37,2.71,0,5.57,0,11.15,0,16.72,0,.64,0,1.28-.05,1.91.12,3.27.08,6.54,0,9.81C680.15,105.72,680.45,106.93,679.06,107.34Z"/><path class="050dca03-f5c4-4d27-9fb0-b7cf3b4d707a" d="M89,211.75c.64-.93,1.52-.69,2.37-.44a73.51,73.51,0,0,0,10.44,2.33c3,.44,6.09.77,9.18.94,3.74.2,7.47.35,11.21.37,2.7,0,5.35-.64,8-.8,4.64-.27,9-1.63,13.55-2.48a1.59,1.59,0,0,1,2,.93c-6.11,7-12.82,13.36-19.45,19.81-4.9,4.78-12.18,4.53-17-.27-6.53-6.46-13-13-19.5-19.48C89.45,212.38,89.22,212.05,89,211.75Z"/><path class="89077a8d-c0e9-49aa-9deb-a2a7fd53042c" d="M33.42,79.6c1.72-.25,2.21-2.23,3.92-2.79a3.36,3.36,0,0,1-.47,2.45c-1.2,2.95-2.44,5.88-3.65,8.82a22.14,22.14,0,0,0-.85,2.49c-.85,3.13-1.8,6.25-2.47,9.43-.61,2.86-.85,5.79-1.34,8.68-.87,5.08-.26,10.19-.49,15.28a23.07,23.07,0,0,0,.55,4A95.11,95.11,0,0,0,31,140.82c.48,1.8,1,3.54,2.83,4.53a8,8,0,0,1,2.43,3.74c1.64,3.21,4.59,5.06,7.43,6.95,1.44,1,3.28.84,4.92.57,4.46-.71,8.94-.37,13.4-.4,15-.11,30-.81,45.07-.49a15,15,0,0,1,3.34.17,1.51,1.51,0,0,1,.71.51v.46c-.89.89-2,.77-3.13.77-5.63,0-11.26,0-16.88,0-4.07,0-8.15-.43-12.21.27a48.72,48.72,0,0,1-7.35.17,2.69,2.69,0,0,1-2.18-.72c-3.25.17-6.5.1-9.75.25s-6.29.6-9.44.23c-1.76-.21-3.42.54-5.2.53a5.62,5.62,0,0,1-4.64-1.94,5.16,5.16,0,0,0-2.7-1.88c-.94-.23-1.28.14-1.06,1.12a18.5,18.5,0,0,0,1.63,3.7c.24.53.54,1-.19,1.41-3.52-3.09-6.68-6.54-10-9.83a53.42,53.42,0,0,1-4.8-4.95,71.92,71.92,0,0,1-3.94-21.36c-.35-9.57-.45-19.18,2.17-28.56a6.48,6.48,0,0,0,0-4.47Q27.17,85.35,33.42,79.6Z"/><path class="a8e5ad1f-dcce-4b4a-a77b-d6b24c305ad7" d="M528.19,80.64a6.37,6.37,0,0,1-.26-2.6c-.07-9-.27-17.91-.12-26.87.11-6.55-3.74-9.6-9-10.35-.56-.08-1.12-.06-1.68-.12a1.75,1.75,0,0,1-1.81-2c.05-1.21.66-1.84,2-1.78,3.91.17,7.82.3,11.72.67a80.11,80.11,0,0,0,12.68-.11c3.27-.2,6.55-.32,9.82-.55,1.85-.14,2.2.45,2.12,2.24a1.45,1.45,0,0,1-1.49,1.54c-1,.09-2.07.16-3.09.32A11,11,0,0,0,544,43a5.73,5.73,0,0,0-2.52,4.42c-.1,2.32-.24,4.64-.26,7q-.11,16.56-.16,33.1c0,1.2,0,2.4,0,3.59-1.26-.36-1-1.46-1.05-2.33-.1-2.22,0-4.45,0-6.67,0-1.77-.79-2.7-2.56-2.67C534.32,79.44,531.08,78.75,528.19,80.64Z"/><path class="89462f0c-b7c2-41d4-a701-4d02ab9c80cc" d="M586,90.08q-.11-17.49-.21-35c0-1.84-.07-3.68-.24-5.51a19.23,19.23,0,0,0-.71-3.75c-1.08-3.65-2.54-4.77-6.35-5-.56,0-1.12,0-1.68,0-1.61,0-2.09-.51-2-2.16,0-1.46.38-1.87,1.87-1.8a60.79,60.79,0,0,1,6.19.53c4.8.71,9.55.08,14.33-.23a62.47,62.47,0,0,1,16.38.9c6.08,1.23,10.64,4.94,14.48,9.62a100.43,100.43,0,0,1,9.51,14.37,2.11,2.11,0,0,1,.14.68c-2.17.56-4.39.16-6.58.23a63.28,63.28,0,0,0-7.79.33l-3-5.18c-.82.25-.49.93-.49,1.4q0,22.91.11,45.8c0,.48-.06,1-.1,1.43-1.46-.5-1.07-1.8-1.08-2.8-.06-4.91-.09-9.82,0-14.72-.09-8.3-.07-16.61,0-24.91,0-2.14-.23-3.61-2.84-3.37a2,2,0,0,1-1.28-.61c-.09-3.59-.2-7.18-.27-10.77-.09-4.17-1.64-6.54-5.61-7.57a26.82,26.82,0,0,0-9.9-1.17,6.28,6.28,0,0,0-5.07,3.52,11.82,11.82,0,0,0-1.37,5c-.49,8-.18,16-.32,24-.1,5.36-.07,10.71-.11,16.07a3.38,3.38,0,0,1-.29,2.1c-1.34-1.62-.65-3.52-.77-5.31-.13-8.31,0-16.62-.06-24.92,0-.8,0-1.6-.06-2.4-.11-1.23-.86-1.59-2-1.57A1.54,1.54,0,0,0,587.15,59c-.06.79,0,1.59-.06,2.39,0,8.23.09,16.46-.06,24.69C586.83,87.46,587.68,89.13,586,90.08Z"/><path class="9402eada-1677-412d-b96e-ab0fd4a6b9ad" d="M679.06,107.34c.61-.68.34-1.5.35-2.26.05-3.37.05-6.75.07-10.13a2.79,2.79,0,0,1,1.94-.72c2.83-.09,5.66-.1,8.49,0a2.56,2.56,0,0,1,1.92.76c0,3.59,0,7.18.09,10.77,0,.85-.25,1.77.38,2.53.67,4.47,2.59,6.33,7,7.34,3.8.87,7.28-.17,10.74-1.35a8.36,8.36,0,0,0,4.8-4.79,80.61,80.61,0,0,0,4.08-9.45,13.75,13.75,0,0,1,1.2-2.27,2.92,2.92,0,0,1,3.78-1.39c.84.24,1.71.64,1.17,1.84-1.23,3-2.52,6-3.68,9.12-1.72,4.53-.54,6.68,4.23,7.81,1.24.3,2.52.38,3.78.61,1.49.28,2.09,1,1.88,2.22s-.89,1.72-2.42,1.62c-4.7-.29-9.36-1.12-14.08-.79-3.34.23-6.68.53-10,1-2.59.35-5.09-.21-7.62-.39a163.29,163.29,0,0,0-28,.37c-.4,0-.79.09-1.19.1-1.32,0-2-.52-2-1.74a1.84,1.84,0,0,1,1.78-2.08c1.18-.17,2.38-.26,3.55-.48C676.35,114.62,678.4,112.43,679.06,107.34Z"/><path class="8619bebe-5f14-4d76-812f-c8888a0661ef" d="M21.42,91.6c1.26-.11,1.54.63,1.34,1.65-.35,1.86-.75,3.72-1.17,5.58-.6,2.63-.91,5.29-1.25,8-.72,5.5-.25,11-.4,16.47-.1,3.74.66,7.4,1.19,11.09a64.76,64.76,0,0,0,2,9,9.86,9.86,0,0,1,.07,2.61,29.07,29.07,0,0,1-3.43-3.32Q11.9,134.81,4,126.9c-5.38-5.42-5.37-12.67,0-18.11S14.78,98,20.16,92.68C20.55,92.29,21,92,21.42,91.6Z"/><path class="491b998b-26ea-4ee7-862e-19657c38e8de" d="M725,98.22c-.07-.6-.3-1.16-.93-1.24-1.09-.12-2.21-.41-3.24.26-.27.17-.52.35-.78.53l.51-1.7c-1.44-.48-2.66.26-3.91.59s-2.41.75-4.15,1.3a23.08,23.08,0,0,1,8-7.92,41.09,41.09,0,0,1,9.57-3.77,117.85,117.85,0,0,1,19.85-3.13,2,2,0,0,0,1.42-.44c-.11-1.71-1.18-3.23-1.36-5a1,1,0,0,1,.9-1.51c3.9-.24,7.84-1,11.67.47,2.21,4.67,3.93,9.53,5.87,14.31.92,2.26,2.16,4.41,2.65,6.84-1.22,1-2.7.63-4.09.73-3.28.23-6.64-.6-9.83.76A16,16,0,0,1,755.28,95a4,4,0,0,0-3.71-2.86,42.53,42.53,0,0,0-8.59-.43,87.49,87.49,0,0,0-12.78,1.67c-1.93.42-3.42,1.11-4.05,3.14A2.5,2.5,0,0,1,725,98.22Z"/><path class="4dbcd89d-530a-4e4e-8e0f-d5e7bb114706" d="M762.55,76.68l-10.74,0c-.8,0-1.66-.11-1.83,1-1.89-4.32-3.12-8.87-4.74-13.28-.8-2.18-1.51-4.38-2.25-6.58-.26-.75-.42-1.66-1.41-1.72-1.19-.08-1.31,1-1.6,1.78-2.7,7.44-5.43,14.86-8.05,22.32-.53,1.5-1.15,2.51-2.9,2.52a13.48,13.48,0,0,0-2.59.51c-.49-.58,0-1.07.19-1.52Q734.79,60.63,743,39.52c.34-.87.54-1.85,1.69-2.14a2.55,2.55,0,0,1,3.38,1.76c1.49,3.88,2.93,7.78,4.44,11.64q4.77,12.17,9.58,24.31A3.3,3.3,0,0,1,762.55,76.68Z"/><path class="7ff85aea-eada-49ee-9c5d-eeb7c8104fe3" d="M277.71,95c4.35-.1,8.7.21,13.37-.23,0,2.84,0,5.67,0,8.5,0,.92-.31,1.92.44,2.73.09.39.16.78.25,1.17,1.12,5,4.34,7.65,9.27,8.41,1.41.22,2.86.27,4.28.45a2,2,0,0,1,1.93,2c0,1.06-.71,1.73-2.12,1.76a130.17,130.17,0,0,1-13.4-.53,104.16,104.16,0,0,0-15.8.12c-3.11.22-6.22.25-9.33.41a1.74,1.74,0,0,1-2-1.57c-.35-1.57.25-2.52,1.86-2.58a19.42,19.42,0,0,0,4.51-.49c3.83-1,6.36-2.71,6.35-7.71C277.3,103.25,277.57,99.1,277.71,95Z"/><path class="ed30de32-e340-4e10-a6a7-7d39f67149ef" d="M370.28,105.5c6.74,10.84,24.69,13.77,34.64,2.14a44.17,44.17,0,0,0,4.78-7.41,2.62,2.62,0,0,1,2.45-1.2c2.71-.07,5.41-.11,8.12,0,1.07,0,2.34.06,2.4,1.67a28.1,28.1,0,0,1-8.15,9.88,41.09,41.09,0,0,1-25.2,9.08,47,47,0,0,1-19.81-3.8,30.16,30.16,0,0,1-11.35-8.42,9.39,9.39,0,0,1-.82-1.42c-.49-1.15.36-1.52,1.14-1.6a58,58,0,0,1,10.29,0A1.9,1.9,0,0,1,370.28,105.5Z"/><path class="476c880b-d2a2-407a-b149-84a34aaf47cc" d="M446.11,70.57c-1.65-3.9-2.54-8-3.79-12.07-.66-2.14-1.31-4.28-1.83-6.45a5.16,5.16,0,0,0-3.37-3.74,22.15,22.15,0,0,0-6.25-1.52c-.73-.07-1.45-.13-1.84-.88a1.78,1.78,0,0,1,1.67-2.77c2.08,0,4.16,0,6.23.17a238.75,238.75,0,0,0,25.38-.15,9.38,9.38,0,0,1,1.91,0,1.61,1.61,0,0,1,1.48,1.62,1.54,1.54,0,0,1-1.48,1.6,19.36,19.36,0,0,1-2.64.07,7.21,7.21,0,0,0-3.66.94c-2.17,1.21-2.93,2.94-2.48,5.67.82,5,1.75,9.9,3,14.78.13.53.15,1.09.23,1.64-2.13.59-4.29.16-6.43.2A17.62,17.62,0,0,0,446.11,70.57Z"/><path class="ca0f76f7-845f-4bb2-8cb6-c3548f500847" d="M350.64,69.5a14.42,14.42,0,0,1,.95-4.91c4.83-16.91,18.07-25.43,32.65-26.78,6.73-.63,11.64-.3,16,.85-3.22.65-6.36.48-9.42,1.05a34.94,34.94,0,0,0-11.66,4.2c-6.32,3.79-9.88,9.61-12.12,16.4A48.32,48.32,0,0,0,365,70.14a3.2,3.2,0,0,1-.36,1.84c-.72-3.23-3.08-3.4-5.78-3.24S353.31,68.51,350.64,69.5Z"/><path class="c51f2ea9-03e6-44e4-bf27-d46f29f875bf" d="M413.57,82.43c0-3.27.05-6.54-.1-9.81a46.44,46.44,0,0,0-4.14-18.06,21.53,21.53,0,0,0-11.76-11.34,3.77,3.77,0,0,1-.61-.38,3,3,0,0,1,1.8-.54c10.15-1.06,17.85,3,23.49,11.3,3.16,4.63,4.72,9.91,5.59,15.39a57.94,57.94,0,0,1,.42,13.61,5.08,5.08,0,0,1-.26.9c-1.36-1.6-.75-3.52-.79-5.3-.1-5.62.38-5-5-5.07-1.68,0-3.36.05-5,0s-2.44.76-2.39,2.46a43.17,43.17,0,0,1,0,4.55C414.64,81,414.89,82.13,413.57,82.43Z"/><path class="954da117-49a9-40d6-b1a0-246e2d9af90e" d="M111.13,156.4l-.49,0c.11-1.16,1-1,1.8-1.09a23,23,0,0,1,2.63,0q37.38,0,74.77,0a53.26,53.26,0,0,0,6.19-.51c1.45-.17,2.19-1.19,2.95-2.22,8.63-11.57,17.16-23.21,25.79-34.78,2.18-2.92,4.09-6.07,6.78-8.59,1.39-.34,1.92.6,2.38,1.63a8.31,8.31,0,0,0,.9,2.45c1.91,4.67,1,8.87-2.16,12.68-.56.67-1.18,1.3-1.8,1.92l-15.72,15.73c-.45.44-1,.84-1.42,1.26-1.11.11-1.43-.52-1.31-1.47s.33-1.71.44-2.57c0-.38.07-.85-.44-1a.74.74,0,0,0-.82.38c-1,1.85-2.66,3.18-4.06,4.67-3.21,3.44-5.73,7.44-9,10.8-.92.93-1.81,1.54-3.15.88a1.5,1.5,0,0,0-.93-.11c-3.23.85-6.53.51-9.77.38C160.15,155.82,135.64,156.67,111.13,156.4Z"/><path class="e7953ec6-e031-422c-af55-5b92544d5b67" d="M757.15,99.32c.19-1.37,1.14-1.51,2.27-1.5,3.88,0,7.77,0,11.65,0,1.38,3.86,3.39,7.42,5.12,11.11,1.35,2.87,3.33,5.25,6.54,6.31a16.14,16.14,0,0,0,2.56.52c1.36.22,1.92,1.16,1.69,2.61s-1.07,1.33-2.13,1.24c-4.21-.36-8.43-.71-12.65-1s-8.28.28-12.43.49c-1.91.09-3.81.33-5.72.46a1.76,1.76,0,0,1-2.07-1.75,1.73,1.73,0,0,1,1.57-2,21.53,21.53,0,0,0,4.88-1.15c2.79-1.17,3.33-2.41,2.4-5.23s-2.39-5.71-3.15-8.72c-.44-.37,0-1.09-.53-1.42Z"/><path class="25200a06-cd60-479c-a6d8-93dba9745231" d="M623.24,63.34a1.72,1.72,0,0,1,1.7-1c3.78,0,7.57,0,11.35,0a4.56,4.56,0,0,1,1.32.44,109.08,109.08,0,0,1,11.33,23.88,8.16,8.16,0,0,1,.77,3c-2.67.59-5.38.16-8.07.22a15.91,15.91,0,0,0-5.4.77c-1.62-3.44-3.24-6.9-4.88-10.33-2.61-5.45-5.1-11-8-16.27A2.23,2.23,0,0,1,623.24,63.34Z"/><path class="11a515dc-292b-49d3-8b68-15c860e03329" d="M413.57,82.43c.63-.57.41-1.33.42-2,0-2.15,0-4.31,0-6.46,0-.92.22-1.55,1.31-1.55q5.63,0,11.25,0c1.1,0,1.32.63,1.32,1.54,0,2.31,0,4.63,0,6.94,0,.88.05,1.75.08,2.63a37,37,0,0,1-5.33,17.23,1.58,1.58,0,0,0-1.49-1c-3.46,0-6.93,0-10.39,0a3.27,3.27,0,0,0-1.09.42c1.24-3.92,2.66-7.79,3.13-11.91C413.06,86.35,413.33,84.39,413.57,82.43Z"/><path class="34368a34-691b-4480-a33d-952840b909fc" d="M476.44,114.61c2.58,3.94,4.94,8,7.66,11.86a3.86,3.86,0,0,0,3.75,1.88,50.17,50.17,0,0,1,9.8.18c10.85,1.5,14.27,13.45,9.64,20.15a12,12,0,0,1-10,5.27c-4.28.13-8.56-.38-13,0,.21-1.35,1.26-1.05,1.87-1.32,1.76-.81,1.89-1.06,1-2.8a6,6,0,0,1-1-4.5,20.71,20.71,0,0,0,1.67,2.76,11.57,11.57,0,0,0,9,4.35,6.54,6.54,0,0,0,6.5-4.07,16.36,16.36,0,0,0,.1-13.49,9.28,9.28,0,0,0-10.2-5c-1.1.24-1.12.91-1.11,1.74q0,5.88.07,11.75c0,1.91,0,3.83,0,5.74-2.73-.43-4.05-1.88-4.05-4.46,0-3.43,0-6.87,0-10.31a2.48,2.48,0,0,0-1.88-2.8c-6.1-2.21-10.82-6.38-15.07-11.13-1.37-1.54-2.95-2.91-3.88-4.8a1.26,1.26,0,0,1,1.22-1.49C471.16,113.89,473.86,113.27,476.44,114.61Z"/><path class="d264b8cd-c45b-4a49-88bc-35e0b426f37c" d="M528.19,80.64c.13-.81.3-1.4,1.35-1.62A33.85,33.85,0,0,1,539,78.8c1.15.08,1.72.8,1.68,2.1-.09,2.63,0,5.25,0,7.88,0,.77-.21,1.6.4,2.28a33.54,33.54,0,0,0,5.29,15.42c-.83.83-1.9.7-2.92.71-3.81.06-7.62-.11-11.42.3-2-3-2.76-6.42-3.3-9.88C527.87,92,528.17,86.3,528.19,80.64Z"/><path class="5f966b3a-3689-4bef-bed7-fcf486a7e61b" d="M532.05,107.49c.77-1,1.86-1,3-1,3.78,0,7.56,0,11.35,0l1,1.12a15,15,0,0,0,1.35,1.3,22.72,22.72,0,0,0,15.46,4.66c6.85-.27,13.71-.52,20.31-2.74a2.5,2.5,0,0,1,.73,0,4.11,4.11,0,0,1-1.79,1.93,34.42,34.42,0,0,1-19.06,6.93,51.67,51.67,0,0,1-19.6-2.29c-4.12-1.39-7.9-3.36-10.79-6.74A8,8,0,0,1,532.05,107.49Z"/><path class="f675fe04-d1b8-403d-9a98-e6ceb48142cc" d="M636.24,90.64a1.58,1.58,0,0,1,1.68-1.39c3.63-.08,7.28-.19,10.91.06a3.4,3.4,0,0,1,.88.34h0c.38.42,0,1,.44,1.46,3.2,10.87,3.52,21.58-1.67,32-1-.25-.73-1-.86-1.41a203,203,0,0,0-10.06-27.58A13.28,13.28,0,0,1,636.24,90.64Z"/><path class="95442f64-4a3c-4565-96e1-36912f37aae1" d="M350.64,69.5a2.54,2.54,0,0,1,2.6-1.48c2.77.14,5.54,0,8.31,0s2.94.24,3,3c0,.31,0,.63.07.94l-.09.9a74.31,74.31,0,0,0,0,11.46c.06,2,.61,3.84.52,5.8-3.26-.34-6.53-.18-9.8-.28a4.3,4.3,0,0,0-4.12,1.82,34.67,34.67,0,0,1-1.32-10.07,32.18,32.18,0,0,1,.44-8.76c.58-1.06-.15-2.29.44-3.35Z"/><path class="3d23cf49-5450-4c80-9748-268b3cfe57e8" d="M476.44,114.61c-2.31,0-4.63,0-6.94,0-.91,0-1.78,0-2.23,1a64.39,64.39,0,0,1-6.82-10.39,93.57,93.57,0,0,1-6.63-14.07c-.11-1,.61-1.47,1.42-1.57a41,41,0,0,1,8.58,0,1.88,1.88,0,0,1,1.5,1.06c2.72,6.62,5.49,13.22,8.85,19.55A27.31,27.31,0,0,1,476.44,114.61Z"/><path class="4353fc74-a9fb-474b-83ed-ade0ff5c0d83" d="M308.86,87.8a4.8,4.8,0,0,1,3.5-1h8c2.78,2.43,4.4,5.61,5.81,8.93a43.36,43.36,0,0,1,3.34,11.71c-2.83.56-5.69.15-8.54.18-1.77,0-3.3.31-4.44,1.76-.8-1.34-.82-2.88-1.1-4.35A57.93,57.93,0,0,0,308.86,87.8Z"/><path class="a1b550dd-90d1-494e-a728-3e387b13c970" d="M619.37,89.28c0,4.67,0,9.35.09,14,0,1.16-.25,2.38.34,3.49.13,5.86,4.24,8.82,10.15,9.23,1.79.13,2.42.78,2.21,2.26-.17,1.22-.63,1.64-1.91,1.55-2.54-.16-5.1-.26-7.62-.59-5-.65-9.87.06-14.8.37-1.27.08-2.54.24-3.82.28a1.76,1.76,0,0,1-2.06-1.78,1.81,1.81,0,0,1,1.77-2.08c1-.16,2.06-.28,3.08-.44,5-.8,6.53-2.31,7.44-7.26.39-5.1.1-10.2.17-15.3C614.46,88.84,615.2,88.25,619.37,89.28Z"/><path class="18af2d61-ab6a-4652-9b1c-92138297d0f7" d="M465.32,90.62a4,4,0,0,0-2-.48c-2.43,0-4.87,0-7.3,0-.91,0-1.74.06-2.17,1a112.12,112.12,0,0,1-5.24-13,39.79,39.79,0,0,1-2.47-7.61c.19-1.26,1.33-1.41,2.17-1.45a77.22,77.22,0,0,1,9.5,0,3.23,3.23,0,0,1,.88.35h0c.51.55-.08,1.38.5,1.92v0c.38.42,0,1,.43,1.46.35.58-.1,1.39.53,1.9.4.41,0,1,.44,1.45Z"/><path class="5f966b3a-3689-4bef-bed7-fcf486a7e61b" d="M316.55,109.37c.23-1.88.48-2.34,1.92-2.38,3.32-.08,6.64,0,10,0a3.32,3.32,0,0,1,1.1.42h0c.42.4.05,1,.44,1.44a.29.29,0,0,1,.08.39c.34.45,0,1.1.43,1.53a26.94,26.94,0,0,0,1.93,2.42c2.08,2.09,4.51,2,6.39-.28a13,13,0,0,0,2-3.26c.43-1,1.12-1.59,2.25-1.14s1.83,1,1.65,2.3a10.84,10.84,0,0,1-1,3.42c-2.67,5.31-8.65,8.17-15.16,7.23A13.38,13.38,0,0,1,317,110.91c-.32-.47,0-1.13-.44-1.55Z"/><path class="9969f348-62ed-43d9-a1f1-11da85cea58f" d="M495.5,66.58c1-3.62,2.13-7.18,2.76-10.89a19.06,19.06,0,0,0,.22-5c-.3-3.2-2-4.43-4.4-4.26a14.74,14.74,0,0,1-3.1-.2A1.88,1.88,0,0,1,489.31,44c.22-1.16,1.1-1.2,2-1.14a181.89,181.89,0,0,0,24.15,0c1-.07,1.78,0,2,1.16a1.88,1.88,0,0,1-1.69,2.2c-.94.17-1.93.15-2.84.4a11.25,11.25,0,0,0-6.62,5.19,48.3,48.3,0,0,0-4.91,11.39,30,30,0,0,1-2,5.36C498.59,67,496.62,67.63,495.5,66.58Z"/><path class="e7f7f9ab-f554-4205-977f-b1308c7373e0" d="M351.08,91.68c.27-2.46.27-2.48,2.68-2.49,3,0,6,0,9,0a2.55,2.55,0,0,1,2.25,1c.57,2.3,1.13,4.6,1.72,6.89.77,3,2.31,5.67,3.56,8.47a3.93,3.93,0,0,0-2-.48c-3,0-6.05,0-9.07,0-.8,0-1.66-.12-1.82,1A32.63,32.63,0,0,1,351.08,91.68Z"/><path class="13b45090-6cc6-4d10-959e-d02b5288e2b2" d="M315.05,129a2.64,2.64,0,0,1-.6.31c-2.95.7-3.35,1.13-3.33,4.2,0,5.43.11,10.87.2,16.3,0,2,.45,2.44,2.44,2.88.31.07.65,0,.95.13a.42.42,0,0,1,.34.52c-.07.3-.29.33-.52.37a2.5,2.5,0,0,1-.47,0,60.23,60.23,0,0,0-10.05,0,1.74,1.74,0,0,1-.64-.19c-.1-.74.41-.73.87-.83,2.57-.55,2.65-.64,3-3.2a24,24,0,0,0,.07-4.79,1.65,1.65,0,0,0-1.67-1.84,63.55,63.55,0,0,0-10-.31c-1.19,0-1.68.5-1.61,1.76.11,1.75,0,3.52.05,5.27.08,2.23.55,2.73,2.8,3.11.47.08,1,0,1.22.59-.15.15-.31.46-.46.46a96.37,96.37,0,0,0-10.75.07c-.37,0-.56-.24-.76-.47.18-.78.84-.59,1.35-.71,2-.46,2.48-.83,2.58-2.82.11-2.22,0-4.45,0-6.65-.85-.38-1.62.23-2.45,0-.13-.72.48-.68.84-.83,3.9-1.65,8.05-1.9,12.19-2.1,1.68-.08,3.36,0,5,0s1.63-.06,1.61-1.6c0-1.91-.09-3.83-.14-5.75-.06-2.43-.55-3-2.95-3.55a1.27,1.27,0,0,1-.91-.55c1.23-.83,2.55-.16,3.77-.23s2.72,0,4.08,0H315Z"/><path class="d754af22-f928-4b9d-a5bb-f5940424e886" d="M370.82,128.74c-.59.13-1.18.23-1.76.39a8.28,8.28,0,0,0-5.78,5.3,19.56,19.56,0,0,0-.16,13.14,6.91,6.91,0,0,0,13,.72,19.19,19.19,0,0,0,.42-14.25,8.18,8.18,0,0,0-3.41-4,5.76,5.76,0,0,1,4.11.6,8.32,8.32,0,0,1,3.83,4.45,15.42,15.42,0,0,1,.22,10.79,11.89,11.89,0,0,1-12.63,7.82c-.55-.07-1.12-.07-1.66-.17-4.39-.79-7.48-3.1-8.67-7.54a17.12,17.12,0,0,1,0-9.23,10.88,10.88,0,0,1,9.81-8.21A3.68,3.68,0,0,1,370.82,128.74Z"/><path class="38275b76-073e-43a4-92a8-28fcb4adc22f" d="M586,90.08c.86-1.15.22-2.49.47-3.72a4.26,4.26,0,0,1,5.1,0l.15,5.22a21.92,21.92,0,0,1-1.82,8.36c-3.19,7.54-8.57,10.16-16.27,10.25a35.26,35.26,0,0,1-4.22-.42A.73.73,0,0,1,570,109C579.45,106.21,584.51,99.67,586,90.08Z"/><path class="4543d6c9-7d7a-406b-a9c9-b20e1bb109c7" d="M611.77,134.64v9c0,1.76,0,3.52,0,5.28.05,2.74.2,2.93,3,3.75.4.12.83.2.8.7s-.49.59-.88.5a18.52,18.52,0,0,0-7.38,0c-.42.08-.85,0-.87-.53s.37-.58.79-.7c2.7-.75,2.95-1,3-3.71.07-5.28,0-10.56.06-15.84,0-2.56-1.33-3.72-4-4.09a8.61,8.61,0,0,1,8,1.21,56.14,56.14,0,0,1,12.05,12.94c2.1,3.29,3.58,6.78,3.21,10.82a1.14,1.14,0,0,1-.6,1.18c-3.73-8.4-9.55-15.12-16.66-20.77Z"/><path class="b58df478-a727-40ab-b6df-d70167ec090f" d="M661.65,76.21c1.63,0,3.26,0,4.88,0,.67,0,1.26.07,1.39.89-3.45,8.88-7.48,17.5-11.37,26.36-.68-.63-.5-1.3-.61-1.86a43.59,43.59,0,0,0-1.18-5.85,7.48,7.48,0,0,1,.62-6.36C657.58,85.06,659.57,80.61,661.65,76.21Z"/><path class="b65eb878-76a6-4053-8b8f-40e10b5941c6" d="M619.37,89.28a5.63,5.63,0,0,1-3,.37c-1.26-.08-1.65.49-1.64,1.68,0,4.92,0,9.83-.06,14.75,0,.76.25,1.6-.4,2.26q.13-23.62.28-47.24a5.9,5.9,0,0,1,.09-.72h4.58s.17.17.17.3Q619.38,75,619.37,89.28Z"/><path class="a33e41a0-e998-4949-ba59-fe217c595496" d="M423.88,132A10.81,10.81,0,0,1,435,129c-.18.82-.87.47-1.35.6-1.66.46-2.26,1.14-2.36,2.82-.34,5.35-.19,10.7-.15,16,0,2.47,1,3.43,3.44,3.74.79.1,1.6,0,2.39.08,2.61.12,5-1.09,5.39-4,.06-.44.17-1,.84-.85.45.13.44.66.36,1-.37,1.65.32,3.63-.62,4.91-1.1,1.49-3.11.36-4.7.42-4.23.15-8.46.07-12.7,0-.73,0-1.58.3-2.18-.47.52-1,1.47-.57,2.18-.82a2,2,0,0,0,1.59-2.08c0-5.91.09-11.82.19-17.73,0-1.08-.36-1.47-1.41-1.2C425.39,131.64,424.85,131.75,423.88,132Z"/><path class="9a25e281-defc-4b79-acd5-98b767f8eb7d" d="M757.78,128.36a52.72,52.72,0,0,0,.1,6.84c-1-.19-.9-.92-1.06-1.44-1.15-3.75-4.52-5.27-8.11-3.64a3.79,3.79,0,0,0-1,6.2,9,9,0,0,0,3.05,1.85,24.38,24.38,0,0,1,4.87,2.57,8.31,8.31,0,0,1,2.89,3.14A6.43,6.43,0,0,1,755,153a11.07,11.07,0,0,1-5.85.85c-3.69-.51-6-2.94-6.27-7,.58.77,1,1.37,1.5,1.95a10.27,10.27,0,0,0,5.07,3.47,5.26,5.26,0,0,0,5.89-2,5,5,0,0,0-1.32-6.07,9.89,9.89,0,0,0-2.42-1.53c-1.57-.79-3.17-1.52-4.71-2.36a6.31,6.31,0,0,1-3.5-6.75c.49-2.66,2.43-4.45,5.47-5a12,12,0,0,1,5.91.27A2.58,2.58,0,0,0,757.78,128.36Z"/><path class="7cef8228-472d-4fd1-81e1-fd68f2d438a3" d="M688.63,152.62a3.21,3.21,0,0,1-3.36,1.27c-5.87-.8-9.5-4.78-9.95-11.07a17.11,17.11,0,0,1,.31-5,11.71,11.71,0,0,1,10.27-9.33,13.8,13.8,0,0,1,8.11,1.34c1.08.52,2.18,1,3.31-.62,0,2.71,0,4.93,0,7.15,0,.09-.24.17-.37.27-.75-.3-.59-1-.79-1.61a7.51,7.51,0,0,0-7-5.23c-3.53-.25-6.33.9-7.85,4.24a16.72,16.72,0,0,0-.25,13.71C682.34,150.94,685,152.4,688.63,152.62Z"/><path class="982cb8e6-2ee8-45ca-b88b-0f173c49c4e1" d="M495.5,66.58c.71,0,1.42,0,2.13,0,1.6.06,1.6.06,1.83,2q-3.57,10.47-7.15,21a16,16,0,0,1-1.38,3.53c-1.45.47-3,.13-4.43.45a7.56,7.56,0,0,1,.69-2.52q3.45-10.21,6.95-20.4C494.6,69.26,495.05,67.92,495.5,66.58Z"/><path class="458af1ba-ca14-468d-8279-dbdf4c625064" d="M552.51,131.33a10.64,10.64,0,0,1,10.89-2.91c0,.56-.45.53-.83.61-2.34.5-2.79,1-2.82,3.37-.06,5.12-.08,10.24-.11,15.36q0,.72,0,1.44c.08,2.25.48,2.74,2.68,3.28.23.05.48,0,.72.07s.64.21.63.58-.43.6-.83.65a2.59,2.59,0,0,1-.48,0,53.78,53.78,0,0,0-9.58,0c-.39,0-.88.13-1-.39s.41-.58.77-.69.78-.19,1.16-.32a2.44,2.44,0,0,0,1.86-2.68c-.05-4.55,0-9.11,0-13.67,0-1,0-2.08,0-3.12,0-2,0-2-2.15-1.62C553.2,131.29,552.9,131.29,552.51,131.33Z"/><path class="428f4499-2cfa-4f86-9905-c3ee3db85e49" d="M486.5,93.51c1.32-1.7,2.9-.75,4.43-.45-1.49,4.39-2.95,8.77-4.46,13.15-1.18,3.46-2.42,6.9-3.82,10.89-1-1.65-1.84-2.86-2.55-4.13-.4-.7.12-1.39.34-2,1.48-4.39,3-8.78,4.49-13.15a10.76,10.76,0,0,1,1-2.86c.6-.29.14-1,.59-1.39Z"/><path class="77d90e5d-1008-4160-9d14-b6f89a888923" d="M233.93,110.8c-.68-.4-1-1.22-1.81-1.48a2.13,2.13,0,0,1-.93-.69,4.92,4.92,0,0,0-.66-.63c-1.17-1-2.68-1.68-2.64-3.54a41,41,0,0,1,7.49-10c1-1.24,1.94-2.49,2.92-3.73,1.35,2.55,0,4.88-.65,7.25-.26,1-.88,1.83-1.23,2.79Z"/><path class="b0d303b0-5058-4cc4-860f-6e0e7ed7c327" d="M297.8,129c-3.76,1.18-3.76,1.18-3.76,5.16v2.15c0,3.4,0,3.4-3.74,3.76a36.66,36.66,0,0,1-.15-5.24c0-.72.05-1.44,0-2.15-.25-1.93-1.06-3.35-3.3-3.36-.31,0-.63-.16-.58-.57a.43.43,0,0,1,.5-.39c3.65.44,7.32,0,11,.21A2.48,2.48,0,0,1,297.8,129Z"/><path class="5b22a2f6-509c-4b7c-9070-cec4c5eb7da4" d="M690.64,143.67c3.16-.25,6.33.27,9.22-.11.42.45.42.64.23.68-1.93.38-2.41,1.62-2.4,3.46,0,3.74-.33,4.15-3.89,5.45a9.42,9.42,0,0,1-4.23.76c1.06-.85,1.94-1.49,2.75-2.22a5.68,5.68,0,0,0,2.17-3.84c.14-2.11-.43-2.9-2.48-3.37-.45-.1-.92-.14-1.38-.2C690.63,144.07,690.63,143.87,690.64,143.67Z"/><path class="418ee9fd-444a-4ed1-a4fe-0a713ac6b5f7" d="M630.52,147.17a3.72,3.72,0,0,1-1.52-3.25c0-3,0-6-.08-9.08a20.9,20.9,0,0,0-.21-2.85c-.34-2.42-.6-2.65-3.48-3.19,1.72-.71,3.16-.2,4.55-.27a25.75,25.75,0,0,1,4.19.14c-.81.56-2,.33-2.56,1.3a7.82,7.82,0,0,0-.88,3.91C630.51,138.18,630.52,142.48,630.52,147.17Z"/><path class="10ca5717-be26-4b14-870e-ff71394dc34a" d="M236.42,100.72c.54-2.33,1-4.66,1.63-7a9.43,9.43,0,0,0,.25-3.08c.14-.19.29-.38.44-.56-.05.88.55,1.44,1,2.07,1.29,1.72,1.32,2.1.15,3.75S237.58,99.12,236.42,100.72Z"/><path class="ca0f76f7-845f-4bb2-8cb6-c3548f500847" d="M364.48,84.34a1.63,1.63,0,0,1-.39-1.32V74.19a1.54,1.54,0,0,1,.43-1.31C364.51,76.7,364.49,80.52,364.48,84.34Z"/><path class="ca0f76f7-845f-4bb2-8cb6-c3548f500847" d="M350.64,69.5c-.08,1.12.38,2.32-.44,3.35A6,6,0,0,1,350.64,69.5Z"/><path class="d264b8cd-c45b-4a49-88bc-35e0b426f37c" d="M548.78,108.9a1.35,1.35,0,0,1-1.35-1.3A3.14,3.14,0,0,1,548.78,108.9Z"/><path class="476c880b-d2a2-407a-b149-84a34aaf47cc" d="M459.15,71.42c-.73-.5-.48-1.24-.5-1.92A2.54,2.54,0,0,1,459.15,71.42Z"/><path class="4353fc74-a9fb-474b-83ed-ade0ff5c0d83" d="M316.55,109.36c.61.38.51,1,.44,1.55A1.73,1.73,0,0,1,316.55,109.36Z"/><path class="982cb8e6-2ee8-45ca-b88b-0f173c49c4e1" d="M486.5,93.52c0,.56.09,1.13-.59,1.39C486.06,94.43,486.07,93.88,486.5,93.52Z"/><path class="491b998b-26ea-4ee7-862e-19657c38e8de" d="M757.15,99.29c.63.31.57.87.53,1.42A1.67,1.67,0,0,1,757.15,99.29Z"/><path class="4353fc74-a9fb-474b-83ed-ade0ff5c0d83" d="M330,108.86c-.54-.36-.49-.9-.44-1.44A1.73,1.73,0,0,1,330,108.86Z"/><path class="476c880b-d2a2-407a-b149-84a34aaf47cc" d="M459.58,72.86c-.54-.37-.47-.92-.43-1.46A1.64,1.64,0,0,1,459.58,72.86Z"/><path class="476c880b-d2a2-407a-b149-84a34aaf47cc" d="M460.55,76.21c-.55-.36-.49-.91-.44-1.45A1.91,1.91,0,0,1,460.55,76.21Z"/><path class="25200a06-cd60-479c-a6d8-93dba9745231" d="M650.15,91.1c-.56-.36-.5-.91-.44-1.46A1.62,1.62,0,0,1,650.15,91.1Z"/><path class="4353fc74-a9fb-474b-83ed-ade0ff5c0d83" d="M330.48,110.78c-.57-.39-.5-1-.43-1.53A1.69,1.69,0,0,1,330.48,110.78Z"/><path class="3be9fb9f-9386-45cc-8a05-6d7d1a297f61" d="M69.38,157.35H79c3.06-.51,6.15-.08,9.21-.24.94,0,1.9.24,2.8-.23h77.49c3.36,0,6.61.86,9.94,1.09a4.28,4.28,0,0,1,1.37.43,1.16,1.16,0,0,1,.59,1.92,23.78,23.78,0,0,1-2.9,4.08c-2,2.1-3.41,4.83-6,6.38a2.18,2.18,0,0,0-.52.49,49.39,49.39,0,0,1-10.72,9.08,60.71,60.71,0,0,1-12.09,6.72c-1.19.45-2.32,1.07-3.53,1.46a73.58,73.58,0,0,1-13.06,3.41,63.42,63.42,0,0,1-11.35,1c-3.19-.16-6.4-.07-9.6,0a12.48,12.48,0,0,1-5.35-.9c-2.12-.92-4.51-.79-6.75-1.43a63.06,63.06,0,0,1-14.63-5.72c-2.26-1.31-4.63-2.46-6.92-3.73-2.61-1.45-4.64-3.61-7.06-5.29a41.28,41.28,0,0,1-6.7-6.37,48.87,48.87,0,0,1-6.69-8.37c-.57-1-.31-1.43.55-1.86a6.24,6.24,0,0,1,1.6-.45,40.92,40.92,0,0,1,9.23-.94A1.65,1.65,0,0,0,69.38,157.35Z"/><path class="df42c11b-69b0-4d33-a3fd-1318a9cd9db3" d="M35.8,148.63a13.49,13.49,0,0,1-2-3.28c0-.31-.09-.62-.16-.92-.59-2.57-.59-2.57,1.64-3.93,1.13-.66,1.81,0,2.35.86s.94,1.67,1.51,2.44c1.8,2.47,4.32,2.42,6-.13A15.45,15.45,0,0,0,47.12,138,49,49,0,0,1,51,126.5c2.5-5.12,6-9.19,11.39-11.45a1.64,1.64,0,0,0,1.2-1.1A34.82,34.82,0,0,1,53,109.29a21.76,21.76,0,0,1-3.84-4c-.58-1.17-1.42-2.18-1.93-3.39-2-6.75-2.18-13.3,2.09-19.36,3.16-4.48,7.93-6.15,12.94-7.38a7.87,7.87,0,0,0,1.79-.29,6.41,6.41,0,0,1,1.08-.18,9,9,0,0,0,2.58-.4,8.09,8.09,0,0,1,2.08-.17c6.75,0,13.5-.14,20.25-.1a45.26,45.26,0,0,1,7.54.38c6.94-.4,13.86.16,20.78.5,7.27.35,14.51-.16,21.76-.39,2.3-.08,2.36-.09,2.71,2.2a.84.84,0,0,1,0,.8,3.29,3.29,0,0,1-2.68,1.35,19.28,19.28,0,0,0-3.51.76A6.21,6.21,0,0,0,132,85.09c-.86,6.78-.57,13.57-.29,20.35.13,3.13,0,3.75-3,4.3s-6,1.49-9.14,1.92c-1.57-.43-1.47-1.77-1.44-2.91.2-6.59-.42-13.17-.51-19.75,0-2.51-.4-4.91-2-7-3.54-4.3-11.83-4.75-15.75-.87-1.72,1.7-2.06,3.91-2.35,6.15a72.19,72.19,0,0,0-.53,11c0,1.28,0,2.56,0,3.84-.12,2.59-.7,3.12-3.25,2.79a44.09,44.09,0,0,0-9.33.12c-1.82-.36-1.78-1.83-1.79-3.17,0-4.12-.11-8.25,0-12.38-.12-2.33.14-4.68-.15-7a5.79,5.79,0,0,0-.67-1.34c-.14-.19-.28-.42-.5-.49-8.66-2.78-19.53-.22-20.36,11.77-.1,1.51,0,3,0,4.53a5.8,5.8,0,0,0,.19,2q.11.32.18.63a7.45,7.45,0,0,0,1.79,3.72,8.56,8.56,0,0,0,4.89,3.08,18.76,18.76,0,0,0,8,.65c4.54-.58,9.07-.27,13.59-.34.54,0,1.08,0,1.62.08A3.91,3.91,0,0,1,92,107a30.43,30.43,0,0,1,14.48,5.86,7.2,7.2,0,0,1,2.28,2.41c0,2-1.46,1.27-2.39,1.07a60.59,60.59,0,0,0-7.1-1c-1.89-.18-2.76.59-2.77,2.59,0,7.66,0,15.31.55,23a5,5,0,0,0,3.51,4.68,20.37,20.37,0,0,0,12.47.52c3-.84,4.57-2.65,4.55-5.72,0-5.83.81-11.62.59-17.45-.1-2.54-.46-3-3-2.72-2.3.25-4.6.42-6.9.68-.72.08-1.63.09-1.84-.72-.17-.62.55-1.09,1.08-1.45a23.45,23.45,0,0,1,6.18-3.11c2.77-.67,5.42-1.74,8.18-2.44a79.27,79.27,0,0,1,10.7-2.07c11-1.64,22.08-1.62,33.16-1.52,3.19,0,3.24,0,3.24-3.13a82.07,82.07,0,0,0-.34-9.79c-.22-1.83-.64-3.82.62-5.55,0-2.76.57-5.59-.93-8.18-2.4-2.84-5.7-4-9.17-4.75a1.89,1.89,0,0,1-1.56-2.3c.1-.89.52-1.51,1.52-1.5.56,0,1.12,0,1.68,0a196.41,196.41,0,0,0,29.21,0c.4,0,.8,0,1.2,0,2.51,0,2.58.05,2.6,2.77l.13.33c0,.12-.07.23-.1.35a1.84,1.84,0,0,1-1.15.77A22,22,0,0,0,190,79a6.37,6.37,0,0,1-1,.18,5.22,5.22,0,0,0-1.55.36,6,6,0,0,0-4.39,4.27,6.06,6.06,0,0,0-.34,1.64,10.37,10.37,0,0,1-.15,1.1c0,.26-.11.52-.16.79-.1,7.09,0,14.18,0,21.27a7.49,7.49,0,0,0,.36,2.35c.23,7.21.11,14.41.14,21.62,0,3.06-.13,6.12.07,9.17a4.91,4.91,0,0,0,1.36,2.71,9.29,9.29,0,0,0,3.23,2,5.24,5.24,0,0,0,1.56.33,5.73,5.73,0,0,1,1,.18c1.18.39,2.5,0,3.64.6a2.17,2.17,0,0,1,.9,1.35,2.65,2.65,0,0,1-.23,1.73c-.89,1.35-2.31,1.28-3.64,1.25-5.63-.12-11.25-.61-16.89-.49-3.26.07-6.5.1-9.74.49-1.59-.13-3.19,0-4.79-.1-1.23-.06-2.23-.52-2.4-1.86a2.48,2.48,0,0,1,1.7-2.62,15.28,15.28,0,0,1,4-.85c3.75-.66,5.15-1.91,5.81-5.65,1.08-6.1.38-12.27.46-18.41,0-1.45-.93-2.06-2.24-2.35a56.37,56.37,0,0,0-9.74-1.2c-7.41-.36-14.83-.2-22.25-.09-1.93,0-2.69.85-2.67,2.77,0,6.23,0,12.47,0,18.7,0,3.6,1.37,5.22,4.86,6.11,1.4.35,2.83.52,4.25.75,1.63.25,2.68,1,2.54,2.83-.46,1.8-1.9,1.9-3.38,2-3.76.22-7.48-.36-11.22-.46-7.66-.2-15.29.43-22.93.75a64.56,64.56,0,0,1-9.53-.41c-7.36-.83-14.64,0-22,.46a31.15,31.15,0,0,1-3.34.11,6.13,6.13,0,0,1-1.65-.28,2.47,2.47,0,0,1-2-2.38,2.4,2.4,0,0,1,2.21-2.44c1.34-.25,2.69-.42,4-.67,5.1-1,8-4,8.17-9.17.23-5.83.06-11.67.07-17.5a2.91,2.91,0,0,0-2.28-3c-3.76-1.32-8.25.11-11.1,3.69-4,5-5.92,10.92-7.29,17a46.89,46.89,0,0,1-1.5,6.05c-2.83,7.75-8.5,11.11-16.68,9.83a8.73,8.73,0,0,1-4.07-1.31C38,151.09,36.35,150.39,35.8,148.63Z"/><path class="340985d0-bfed-45b1-84e2-cbc32d057bb3" d="M193.6,77.55a.41.41,0,0,1,.16-.4c1.7,0,2.38.89,1.64,2.24A3,3,0,0,1,193.19,81c-1.56.26-3.12.59-4.65,1a4.94,4.94,0,0,0-3.18,2.7c-1.68,3.23-1.25,6.42.12,9.61a1.66,1.66,0,0,0,1.69,1.08c.56,0,1.12,0,1.68,0h36.39c3.41,0,6.86.29,10.14-1-2.12,3.57-5,6.62-7.16,10.13a8.25,8.25,0,0,1-1.15,2.59c-3.82,5-7.44,10.2-11.21,15.26-2.57,3.46-5.64,5.29-10.18,5-5.57-.35-11.18-.06-16.78-.09-3.28,0-4-.66-4.67-3.9a55.27,55.27,0,0,1-1.16-10.92c0-7.43-.69-14.83-.58-22.25,0-3.12.73-6,3.24-8.19,1.67-1.48,3.65-1.85,5.71-2.19C192.7,79.65,194.15,79.5,193.6,77.55Z"/><path class="ed4c497e-1529-47cb-b54d-a522c40623de" d="M142.77,77.17l.1-.47c.85,0,1.65.13,1.8,1.15A2.63,2.63,0,0,1,144,80.5a4,4,0,0,1-2.85,1A8.83,8.83,0,0,0,136.46,83a5,5,0,0,0-2,5c.31,1.2.92,1.8,2.18,1.68.48,0,1,0,1.44,0,8.93,0,17.86,0,26.78,0a5.67,5.67,0,0,1,4.33,1.47c.15,6,.27,12,.46,18,0,1.17-.33,1.53-1.5,1.47-3-.14-6.08-.19-9.11-.22a182.84,182.84,0,0,0-25.62,1.36,9.43,9.43,0,0,1-1.19,0c-.4-8.1-.25-16.21-.14-24.32,0-3.56,2.4-5.56,5.5-6.78a11.24,11.24,0,0,1,3-.7C142.32,79.73,143,78.86,142.77,77.17Z"/><path class="83a9262c-db28-41e7-9705-d42f4feaa8ff" d="M97.62,74.39a6.71,6.71,0,0,1-1.16.2l-27.07.13c.59-1.55,2-1,3-1a5,5,0,0,0,4.32-2,29.55,29.55,0,0,1,7-5.41,63.71,63.71,0,0,1,21.81-9,10,10,0,0,1,2.6-.38c1.62.11,2.47.75,1.55,2.47l-3.38,4.3c-3.31,3.05-6.13,6.57-9.14,9.9C96.71,74.15,97.33,74.22,97.62,74.39Z"/><path class="15926570-a568-45ef-9153-ed6dfdc2da31" d="M159.11,78.17c3.61-.21,6.71.74,8.84,3.89a4,4,0,0,1,.33.86c-.47.47-.92.11-1.25-.14a8.93,8.93,0,0,0-5-1.8,6,6,0,0,1-2.24-.68A1.34,1.34,0,0,1,159.11,78.17Z"/><path class="498f8567-47c5-4805-941d-75e02c85fefb" d="M109.69,59.43c-.22-1.91-.55-2.23-2.34-1.84A67.6,67.6,0,0,0,91.13,62.9a82.26,82.26,0,0,0-9.86,5.81c-1.83,1.26-3.94,2.48-5,4.69-.42.91-1.2.85-2,.91-1.63.13-3.33-.44-4.9.41a3.51,3.51,0,0,1-1.76.12c-.82.4-1.76-.08-2.57.39l-.82.09c-.49.28-1.1,0-1.57.36-1.14.34-2.29.66-3.43,1-8.7,2.72-13.07,9-12.69,18.13a26.65,26.65,0,0,0,1.37,7.24c-.09,1.55.9,2.65,1.64,3.85a23.11,23.11,0,0,0,7.61,7c.87.49,2,.79,2,2.1a2.12,2.12,0,0,1-.59,1.28c-4.66,4.91-9.13,10-14.1,14.61a1.83,1.83,0,0,1-1.06.51c-3,.48-2.94.48-2.9-2.8a2.69,2.69,0,0,0-.17-.93A24.51,24.51,0,0,1,39.6,119c0-1.36-.05-2.72,0-4.08A77.16,77.16,0,0,1,46.06,86.7c1.78-3.94,3.93-7.64,6-11.39a16,16,0,0,1,2.1-2.9c2.07-2.3,3.85-4.84,6-7.12,1.78-1.93,3.62-3.78,5.57-5.54,2.85-2.58,6-4.7,9.07-7a79.52,79.52,0,0,1,6.95-4.09,61.55,61.55,0,0,1,11.36-5,62.54,62.54,0,0,1,10.16-2.5,71.91,71.91,0,0,1,9.88-1.33c3.14-.11,6.3.13,9.46,0a6.08,6.08,0,0,1,1.38.35c2,.39,2,.38,1.55,2.42L123,45.43q-5.75,6.23-11.49,12.44A5.83,5.83,0,0,1,109.69,59.43Z"/><path class="d754af22-f928-4b9d-a5bb-f5940424e886" d="M43.43,131.42a60.06,60.06,0,0,1,4.63-4.81c3.74-3.7,7.22-7.63,10.74-11.52.78-1.26-.37-1.48-1.06-1.85a16.18,16.18,0,0,1-3.9-2.65c-.53-.53-1.3-1-.8-2a27.68,27.68,0,0,0,10.22,4.47,7.13,7.13,0,0,1,.94.21c.37.13.75.3.82.76s-.28.71-.64.89a3.91,3.91,0,0,1-.68.24c-4.73,1.51-8,4.75-10.62,8.83a42.91,42.91,0,0,0-5.29,13.77q-.47,2.1-1,4.17a6.83,6.83,0,0,1-1.63,2.89c-2.1,2.25-4.33,2.18-6.21-.28a13.65,13.65,0,0,1-1.58-2.65,2.11,2.11,0,0,0-2-1.41A73.24,73.24,0,0,1,43,132.22,3,3,0,0,0,43.43,131.42Z"/><path class="7f972966-5734-4f9a-8d30-ab188174f73c" d="M691.83,95l-12.35,0c0-6.71,0-13.41,0-20.12,0-1.89.06-1.93,1.85-2,2.32,0,4.63,0,6.95,0a7.51,7.51,0,0,1,1.42.14c2.21.46,2.23.47,2.22,2.82Q691.88,85.42,691.83,95Z"/><path class="962e1957-d5bc-46b4-86cd-6670cba1a212" d="M35.8,148.63l3.41,2.84a13,13,0,0,0,5.84,4.18c5.6.35,11.17-.35,16.75-.4,8.71-.08,17.42.19,26.13-.06,34-1,68-.18,102.07-.43a25.83,25.83,0,0,0,6.57-1.19c1.77-.47,2.37-2.47,3.46-3.8,8.59-11.87,17.35-23.61,26-35.43,1.08-1.47,2-3,3.22-4.45.58-.7,1-1.7,2.24-1.41l.61.84c-1.78,1.08-2.49,3.07-3.67,4.62q-11.13,14.64-21.94,29.51c-2.39,3.28-4.87,6.49-7.2,9.82a5.28,5.28,0,0,1-3.93,2.27,68.25,68.25,0,0,1-9.79.36q-36.1,0-72.21,0c-.92,0-1.93-.34-2.74.44-10.39,0-20.79-.33-31.15.13-9.18.41-18.35.16-27.52.38-1.74,0-3.43.56-5.22.48a7.57,7.57,0,0,1-4.83-1.65c-2.14-1.78-4.5-3.29-6.05-5.69C35.55,149.53,35.14,149.13,35.8,148.63Z"/><path class="47da9560-07b1-4cc7-9b28-edb856d21bd9" d="M91,156.87c-.63.71-1.48.46-2.24.46-3.26,0-6.51,0-9.77,0,.62-.72,1.47-.46,2.24-.46C84.46,156.85,87.72,156.87,91,156.87Z"/><path class="0e5eea88-53e1-4afa-8d69-cec2d2b818c1" d="M591.52,86.36h-5.1l-.09-28c0-.16,0-.32,0-.48,0-.9.42-1.32,1.31-1.3a1.92,1.92,0,0,0,.24,0c4.42,0,3.69-.21,3.71,3.46,0,8,0,16,0,24C591.61,84.77,591.55,85.57,591.52,86.36Z"/><path class="fb773947-a283-469d-a6c5-0a55b2207ca9" d="M193.6,77.55c1.27,1,1.35,1.87.14,2.4a8,8,0,0,1-2.54.62c-5.23.46-7.81,3.69-8,8.67a63.51,63.51,0,0,0,.29,10.49c.45,3.62,0,7.34.14,11a94.2,94.2,0,0,0,1.47,13.71c.3,1.68.88,2.16,2.59,2.17,7,0,14.06,0,21.09,0,2.26,0,3.77-1.36,5-2.86,3-3.7,5.85-7.53,8.62-11.41,1.9-2.65,3.82-5.28,5.84-7.83.29,1.71,1.88,2.29,2.89,3.37-6.12,7.83-11.79,16-17.72,24-4.31,5.8-8.65,11.58-12.83,17.48-.8,1.27-1.73,2.44-2.64,3.63-.74,1-1.68,1.65-3,.8,0-1.3.82-2.67-.34-3.86-.23-.36-.1-.84-.37-1.19l-.6-.83c-1.19-.93-2.65,0-3.89-.58l-.87-.1c-.42-.36-1,0-1.45-.41a4.92,4.92,0,0,1-3.37-1.82c-1-3.8-.83-7.73-1-11.58-.44-8.42-.31-16.85-.54-25.28a22.83,22.83,0,0,0-.51-4.73c0-5.72-.2-11.44.12-17.16v0c1.68-4,4.42-6.6,9-7,1.05-.08,2.24-.37,2.56-1.73Z"/><path class="340985d0-bfed-45b1-84e2-cbc32d057bb3" d="M200.4,149.17c1.78-3.3,4.3-6.07,6.49-9.09q6.77-9.33,13.62-18.6c3.15-4.28,6.33-8.53,9.49-12.8.3-.41.58-.75,1.11-.77a.61.61,0,0,1,.4.57c-1.55.84-2.25,2.44-3.23,3.76-3.91,5.22-7.68,10.53-11.61,15.73-4.51,6-8.84,12.06-13.25,18.09a15.19,15.19,0,0,1-2.51,3.14A.31.31,0,0,1,200.4,149.17Z"/><path class="fb773947-a283-469d-a6c5-0a55b2207ca9" d="M143.32,149.67c-.09-1.47-.86-2.06-2.34-2.08a15.14,15.14,0,0,1-5.65-.93,5.89,5.89,0,0,1-4.1-5.62c-.23-7.12-.1-14.23-.11-21.35,0-1.24.57-1.48,1.59-1.51,3.28-.11,6.55-.33,9.83-.37,8.16-.1,16.32,0,24.38,1.5l1.41.29a1.37,1.37,0,0,1,1.21,1.51c.22,6.55.72,13.11-.32,19.64-.66,4.21-2,5.6-6.24,6.38-1,.19-2.06.27-3.09.42-1.94.27-2.59.84-2.49,2.17s.71,1.6,2.92,1.51c1.19,0,2.39,0,3.59-.07-.54,1.81-2.43.59-3.54,1.67a16.71,16.71,0,0,0,6.8.31,99.37,99.37,0,0,1,18.09,0,60.72,60.72,0,0,0,7.39,0c.73,0,1.62-.39,2.1.58-1.05,1.55-2.71,1.12-4.13,1.13-9.32.07-18.64,0-28,0-9.08,0-18.17.05-27.25,0a98.88,98.88,0,0,0-15.2,0c-2.57.11-5.13,0-7.7.05-11.49-.11-23,.23-34.45.27a2,2,0,0,1-.91,0c-.41-.24-.75-.52-.62-1.07,2.79-1.5,5.89-1.11,8.85-1.27,6.46-.36,12.92.16,19.38.41a120.28,120.28,0,0,0,17-.83c4.72-.49,9.41.14,14.1.63a34.22,34.22,0,0,0,5.26.18C143.71,153.1,144.23,152.24,143.32,149.67Z"/><path class="8679934b-9ecf-4b13-8593-3cee62c26377" d="M76.57,154.46l.48.48a1.59,1.59,0,0,1-1.3.46c-10.32-.09-20.61.64-30.92.74a1.66,1.66,0,0,1-.9-.23,19.4,19.4,0,0,1-4.67-3.48c-.31-.31-.45-.62,0-1,1.22,1.21,2.88,1.18,4.38,1.39,7.52,1,12.93-1.51,15.65-9a38.12,38.12,0,0,0,1.43-5.56,52.18,52.18,0,0,1,4.11-12.73,22,22,0,0,1,4.62-6.66,10.47,10.47,0,0,1,11.72-2.33,2.25,2.25,0,0,1,1.7,2.46c-.06,5.36,0,10.71.05,16.07a20.56,20.56,0,0,1-.35,4.28c-.94,4.43-3.68,7-8.06,7.79-1.33.25-2.69.33-4,.47-1.55.17-2.16.67-2.25,1.93s.43,1.62,2.16,2l.46.1c-.34,1.6.6,2,1.94,2.21S75.42,153.46,76.57,154.46Z"/><path class="998c2dcd-f19d-4895-ae16-6de9e8ede631" d="M114,116.08a31.25,31.25,0,0,0-7.27,4.26l6.5-.62c1.27-.12,2.54-.28,3.82-.39,1.77-.14,1.8-.13,1.75,1.74-.16,6.4-.32,12.8-.54,19.19-.12,3.63-1.48,5.49-4.9,6.52a21.27,21.27,0,0,1-12.94-.44c-2.82-.91-4.14-3-4.26-6-.29-7.83-.35-15.67-.37-23.5,0-2,0-2.07,2-2.06,3.09,0,6.2-.09,9.19,1.06.36.15,1.51.64,1.29-.73,1-2.07,2.65-1,4-.8C113.09,114.45,114.53,114.41,114,116.08Z"/><path class="8f808bb3-37ca-4d6d-9f53-ecad1940289a" d="M114,116.08c0-.15,0-.41-.12-.44-1.84-.66-3.65-1.67-5.66-.51a27.41,27.41,0,0,0-15.78-7.36,2.87,2.87,0,0,1-.66-.27,3.92,3.92,0,0,1,2.85-1.06c1.8-.23,2.38-1.21,2.37-2.93,0-4.55,0-9.1.42-13.65.68-7.37,5.33-11.21,12.64-10.24a14.17,14.17,0,0,1,6.1,1.84,9.39,9.39,0,0,1,2.18,6.16c.22,4,.26,8.11.34,12.16.07,3.34.08,6.68.12,10,0,.68-.19,1.52,1,1.48a4.52,4.52,0,0,0,2,2.42C119.18,114.54,116.65,115.5,114,116.08Z"/><path class="7c0fd5ba-cffd-429c-bf88-00b906662c24" d="M82.91,82c.75,2.33.29,4.71.32,7.07a14.2,14.2,0,0,1-1.15,1.81c-4.76,4.85-9.34,9.86-13.89,14.9a4.7,4.7,0,0,1-1.34,1,7.8,7.8,0,0,1-4.25-3.14,20.68,20.68,0,0,1-.66-10.59c1.48-7.29,6.21-11.41,13.62-11.75A30.7,30.7,0,0,1,82.91,82Z"/><path class="cf050039-5c55-4d37-b2cd-19bb18b4a625" d="M76.57,154.46c-1.27,0-2.53,0-3.8,0a3.78,3.78,0,0,1-2-.53c-1.45-.83-1.44-1.32.05-2.32a186.22,186.22,0,0,1,31.77-.38,76.55,76.55,0,0,0,13.37-.31,106.21,106.21,0,0,1,17.2,0c2.46.19,4.94.21,7.4.4a2.38,2.38,0,0,0,2.79-1.63c1.07,0,1.7.34,1.58,1.52-.15,1.49-1,2.77-2.16,2.75-2.46,0-4.92,0-7.4-.21-5.05-.45-10.08-1.08-15.22-.4a86.81,86.81,0,0,1-11.2.71c-7.9,0-15.78-.89-23.69-.54-2.7.12-5.37.68-8.08.58C77,154.07,76.76,154.33,76.57,154.46Z"/><path class="f3575b8d-57fb-454b-81a5-cfb3f20a6b8c" d="M66.85,106.82c.81-1.87,2.45-3.09,3.75-4.54C74.45,98,78.47,93.81,82.43,89.6a3.57,3.57,0,0,1,.8-.49c0,4.59.14,9.19.14,13.79,0,1,.15,1.71,1.35,1.63A3.1,3.1,0,0,0,88,106.32a2.82,2.82,0,0,1,1.84.4.47.47,0,0,1,.13.65c-5.71-.21-11.4.4-17.11.49A14.74,14.74,0,0,1,66.85,106.82Z"/><path class="101a3af1-8b71-43e8-84aa-1098c4a97a36" d="M121.75,113.71c-2.25-.26-2.43-.47-2-2.42a39.07,39.07,0,0,1,9.5-2.28c2.07-.31,1.82-.77,1.81-2.29,0-5.75-.09-11.49-.08-17.23,0-1.59.14-3.19.27-4.78a6.14,6.14,0,0,1,3.69-5.2,13.69,13.69,0,0,1,5.54-1.32,2.7,2.7,0,0,0,2.28-1,1.47,1.47,0,0,1,.89,2,1.87,1.87,0,0,1-2,1.39,10.71,10.71,0,0,0-3.28.52,7.29,7.29,0,0,0-5.71,7.22c.2,6.37.07,12.75.06,19.13,0,1.45.74,3-.48,4.31Z"/><path class="7abcdb41-a6b2-4b1b-922d-77842107e1a4" d="M90,107l-3,0c-1.64,0-2.41.44-2.26-2.39a31.7,31.7,0,0,1,8.59-.26c2.86.13,2.85.17,2.89-2.8a103.59,103.59,0,0,1,.54-13.87c.12-.87.2-1.75.37-2.61a8.89,8.89,0,0,1,10.35-7,6.75,6.75,0,0,0,1.19.1c3,0,5.66.75,7.52,3.33-2.09-.46-4.25-.69-6.3-1.18-4.86-1.18-11.3,1.83-11.76,9.29-.31,5-.37,10-.42,15,0,2-.11,2.08-2.13,2.35l-3.77.54-.17.06-.16-.1C91.1,106.94,90.4,107.4,90,107Z"/><path class="09768bac-a9e8-4d79-9afd-a160aa924109" d="M194.67,153.54a32.23,32.23,0,0,1-10.91.1,11.38,11.38,0,0,0-1.66-.13c-4,0-8-.23-12,.07-2.94.23-5.87.38-8.81.41a2.47,2.47,0,0,1-2.17-.73,1.16,1.16,0,0,1-.38-1.07c.12-.47.53-.5.94-.57,1.39-.21,2.87.41,4.19-.46a108,108,0,0,1,21.5-.31c2.15.16,4.31.24,6.46.4a2.13,2.13,0,0,0,2.39-1.12.6.6,0,0,1,.44-.44c1.8,1.59,1.8,1.65.43,3.84C195,153.7,194.83,153.72,194.67,153.54Z"/><path class="83b56d9c-ebcd-43ee-bb94-0978cb283b1d" d="M60.32,97.4a22.62,22.62,0,0,1,.3-7.61c1.31-5.9,5-9.54,11-10.52a20.38,20.38,0,0,1,8.79.28c.86.23,1.73.4,2.06,1.4,0,1.12-.82,1-1.52.85a28.11,28.11,0,0,0-8.49.11c-5,.64-9.29,5.53-10.26,10.33a26.63,26.63,0,0,0-.52,5.42c0,.75.46,1.85-.89,2.1l-.08-.46C60.29,98.72,60.71,98,60.32,97.4Z"/><path class="09768bac-a9e8-4d79-9afd-a160aa924109" d="M182.31,103.63a6.7,6.7,0,0,1,.82,3.65c0,1.75.06,3.5,0,5.25-.32,7.23.5,14.44.62,21.66a30.61,30.61,0,0,0,.74,8.24c.27.93-.39,1.69-.43,2.55a2.55,2.55,0,0,1-1.48-2.4c-.46-3.21.17-6.47-.34-9.68-.25-7.33-.28-14.66-.13-22C182,108.48,181.59,106,182.31,103.63Z"/><path class="ab0b6f6e-aa13-4a1a-a7b9-ab012e6bf799" d="M60.76,99.76c.69-.66.45-1.51.43-2.27a25.63,25.63,0,0,1,.5-5.46c.92-4.81,5.55-10,10.71-10.63a28.66,28.66,0,0,1,8.77,0A1.16,1.16,0,0,0,82.44,81c.44.24.44.67.47,1.09-.3,1-1,.51-1.57.39a24.09,24.09,0,0,0-8.51-.05c-5.21.65-9.14,5.25-10.17,10.11a21.82,21.82,0,0,0,.16,9.91c.12.5.26.92-.22,1.28A6.27,6.27,0,0,1,60.76,99.76Z"/><path class="09768bac-a9e8-4d79-9afd-a160aa924109" d="M193.62,77.57a1.57,1.57,0,0,1-1.36,2.08,9,9,0,0,1-1.36.38c-3.68,0-6,2.14-7.67,5.12-.29.5-.55,1-1.14,1.13l.11-1c.4-.43.08-1,.38-1.51.34-2.87,2.18-4.2,4.8-4.75.45-.33,1.05,0,1.49-.38l.85-.13c1-.44,2.06.19,3-.41Z"/><path class="8619bebe-5f14-4d76-812f-c8888a0661ef" d="M53,108.61c.72,1.86,2.42,2.67,4,3.65a16,16,0,0,0,1.7.88c1.23.58,1,1.24.11,2-.06-1-.95-1.17-1.62-1.5a24.57,24.57,0,0,1-7.14-6A2.33,2.33,0,0,1,49.2,106c-.34-.52-.31-.88.41-.95Z"/><path class="340985d0-bfed-45b1-84e2-cbc32d057bb3" d="M182.31,103.63l-.21,7.29a6.07,6.07,0,0,1-.19-2.36q-.09-9.89-.15-19.78a4.4,4.4,0,0,1,.33-2.55q0,7.15.11,14.3C182.21,101.56,182.27,102.59,182.31,103.63Z"/><path class="340985d0-bfed-45b1-84e2-cbc32d057bb3" d="M182.23,132.9a1.37,1.37,0,0,1,.41,1.08c0,2.87,0,5.73-.07,8.6-.68-1.35-.31-2.8-.37-4.21C182.13,136.55,182.22,134.72,182.23,132.9Z"/><path class="89077a8d-c0e9-49aa-9deb-a2a7fd53042c" d="M49.61,105a1.06,1.06,0,0,0-.41.95c-1.54-1.59-1.83-2.49-1.28-3.93C48.49,103.05,49.05,104,49.61,105Z"/><path class="340985d0-bfed-45b1-84e2-cbc32d057bb3" d="M189.74,147.31c1.31.13,2.74-.62,3.89.58C192.38,147.42,191,148,189.74,147.31Z"/><path class="340985d0-bfed-45b1-84e2-cbc32d057bb3" d="M192.71,78.14c-.9.84-2,.45-3,.41A5.31,5.31,0,0,1,192.71,78.14Z"/><path class="83a9262c-db28-41e7-9705-d42f4feaa8ff" d="M65.06,75.23c.76-.76,1.7-.36,2.57-.39A4.64,4.64,0,0,1,65.06,75.23Z"/><path class="ab0b6f6e-aa13-4a1a-a7b9-ab012e6bf799" d="M60.32,97.4c.61.54.47,1.22.36,1.9A2.22,2.22,0,0,1,60.32,97.4Z"/><path class="340985d0-bfed-45b1-84e2-cbc32d057bb3" d="M187.42,146.8c.54,0,1.08-.11,1.45.41A1.75,1.75,0,0,1,187.42,146.8Z"/><path class="8f808bb3-37ca-4d6d-9f53-ecad1940289a" d="M90,107c.54,0,1.11-.09,1.45.5a2.32,2.32,0,0,1-1.45-.09Z"/><path class="340985d0-bfed-45b1-84e2-cbc32d057bb3" d="M194.7,149.69l-.44.44,0-1.41C194.6,148.94,194.64,149.32,194.7,149.69Z"/><path class="340985d0-bfed-45b1-84e2-cbc32d057bb3" d="M182.58,83.81a1.31,1.31,0,0,1-.38,1.51A1.55,1.55,0,0,1,182.58,83.81Z"/><path class="340985d0-bfed-45b1-84e2-cbc32d057bb3" d="M188.87,78.68a1.31,1.31,0,0,1-1.49.38A1.69,1.69,0,0,1,188.87,78.68Z"/><path class="83a9262c-db28-41e7-9705-d42f4feaa8ff" d="M62.67,75.68c.42-.53,1-.4,1.57-.36A2.05,2.05,0,0,1,62.67,75.68Z"/><path class="8c7e2cc7-816e-415f-a475-3bc78a9ee6eb" d="M194.67,153.54a3.53,3.53,0,0,1,.46,0c1.3.62,2-.3,2.64-1.12a21.54,21.54,0,0,1,2.63-3.24l.51,0c-.47,1.85-2,3-3,4.56a1.65,1.65,0,0,1-1.22.69,70.71,70.71,0,0,1-9.46,1c-30-.08-60-.3-89.93.09-12.46.16-24.91,0-37.36.42-4.6.15-9.19.42-13.79.4-.77,0-1.62.25-2.25-.47,6.84.1,13.66-.46,20.5-.63,4.2-.11,8.41-.18,12.62-.34h.48a5.43,5.43,0,0,1,2.59-.22c10,0,19.92,0,29.88,0a4.94,4.94,0,0,0,2.58-.23h7.67a99.87,99.87,0,0,1,14.88,0h56.78C192.92,154.46,194,154.72,194.67,153.54Z"/><path class="8679934b-9ecf-4b13-8593-3cee62c26377" d="M112.58,154.47c-.72.76-1.65.45-2.5.45q-16.27,0-32.55,0c.71-.78,1.65-.46,2.49-.46Q96.3,154.45,112.58,154.47Z"/><path class="8679934b-9ecf-4b13-8593-3cee62c26377" d="M135.13,154.46H120.25c.4-.51,1-.47,1.52-.47h11.84C134.17,154,134.73,154,135.13,154.46Z"/></g></g></svg>