<svg xmlns="http://www.w3.org/2000/svg" viewBox="0 0 994.48 983.55"><defs><style>.ededb384-06c2-4e3f-b974-58f6cd5d1947{fill:#fff;}</style></defs><title>Asset 4</title><g id="a1b5addc-b142-4899-952a-dd6cb318477d" data-name="Layer 2"><g id="d601eeef-5065-4884-b3a4-4ff2133eaa3f" data-name="Layer 1"><path class="ededb384-06c2-4e3f-b974-58f6cd5d1947" d="M102.19,729.79c18.3-7.8,36.51-15.82,54.92-23.36,39.52-16.19,79.65-30.5,121.9-37.91,12.78-2.24,25.6-4.31,38.6-4.79,2.4-.09,3.33-.51,2.49-3.13-1-3,1.47-4.91,2.82-7.12.65-1.06,2.31-1.74,1.46-3.35a4.26,4.26,0,0,0-4.17-2.21c-7.83.09-15.66.13-23.49.2a172.89,172.89,0,0,0-60.91,11.08c-1.89.72-3.8,2-6.8.94,4-2.12,7.45-3.95,10.89-5.81,1.45-.78,3.6-1.47,3.22-3.33-.46-2.19-2.8-1.23-4.3-1.23q-47.49,0-95,0c-14,0-28-.28-42,0-4.63.09-5.8-1.23-5.79-5.83q.18-163.25.08-326.49c0-4.16,0-8.34-.25-12.49-.2-3.06.85-4,3.93-4Q167,300,234.25,300.4c16.49.09,33,.22,49.44,1.16,22.86,1.3,45.76,3,65.85,16,3,1.93,4.62,1,4.55-2.71-.06-3.17.19-6.35,0-9.5s1.11-3.93,4.06-4q80.75-1.06,161.48.32c17.14.33,34.47.95,51.25,5.68A89.83,89.83,0,0,1,605,326c20.06,17.07,30.14,39.15,33.2,64.67,1.35,11.29,2.59,22.8-.43,34.13-2.32,0-4.65-.13-7-.11-1.95,0-2.26-.56-2.1-2.67a146.29,146.29,0,0,0-.47-28.06c-2-17.42-7.09-33.44-18.33-47-4.14-5-7.39-11.26-14.37-13.42,4.37,5.85,8.86,11.54,12.46,17.87,12.45,21.9,14,45.78,13,70.15-.08,2.07-.93,3-3,3.86-7.39,3-14.61,4.89-22.15.48-1.87-1.1-4.17-1.1-6.35-1-6.82.31-13.68.38-20.29,2.49-.91.3-2.13.22-2.15,1.57a2.22,2.22,0,0,0,1.79,2.12c.95.32,1.92.55,2.89.81s2.56-.06,2.77,1.51c.14,1-1.1,1.06-1.68,1.58a1.82,1.82,0,0,1-3-.12c-1.5-1.57-3.2-2.93-4.71-4.47-1.69-1.72-2.76-1.06-3.91.64-.89,1.3-2.48,1.44-1,4.18,2.29,4.19,6.68,1.38,9.12,4.09-1.62.68-3.66.47-4,2.61,0,.3.48.83.86,1,2.44,1.35,11.11-.32,13.07-2.63,2.69-3.18,5.4-6.2,9.95-6.5,1.17-.08,2.68-1.79,3.33.25.56,1.74-1.34,2-2.51,2.4a23.22,23.22,0,0,1-3.46.46c-1.11.17-2.19.95-1.53,2,1.65,2.5,1.88,6.88,6.92,5.4,1.79-.52,4.78-.41,5.12,1.75.4,2.5-2.67,1.73-4.18,2.25-5.92,2.05-6.81,5.33-2.39,9.79,2,2,4.41,3.85,5.34,6.51,1.73,5,5.38,9.86,2,15.42a53,53,0,0,1-5.23,6.66c-.7.82-1.35,2.16-2.76,1.7-1.18-.39-.58-1.78-1-2.59-.84-1.5-.61-5.45-3.06-3.77-4.55,3.12-4.58,0-5.89-2.74s-3.83-4-7-3.69-3.23,3.21-3.08,4.83c.57,6.31-3.11,10.81-6,16.23-.08-6.55-5.77-7.33-9.39-10.13-.76-.58-2-.59-2.67-1.22-1.44-1.33-3.3-3.09-1.7-5,2.08-2.52,3.77-5.46,6.61-7.34,1.42-.95,2.38-1.85,4,.17,2.11,2.65,5.56.46,6.64-.58,1.86-1.76-1.29-3-2.46-4.32-.21-.25-.77-.21-1.17-.31,3.75-.84,5.91-2.38,5.58-5.63-.55-5.27,3.82-3.39,4.82-2.59,1.62,1.31,4.46,2.32,4.43,4.89,0,2.39-2.2,3.49-4.18,4.52-.9.47-2.43.53-2.09,2.59,4.49-.34,7.06,4.23,11.46,4.54l.91.47-.41-.92c2.77-1.06,3.65-3,2.82-5.83l-.06.06c2.14.14,4.18-.35,5-2.47.85-2.32-1.79-2.29-2.83-3.35a7,7,0,0,1-1.83-2.26c-2.28-6.53-5.47-8.92-12.86-9.42.95-.71,3.11.63,3.07-1.42,0-1.26-1.68-1.41-2.84-1.44-2.66-.08-5.31-.09-8-.08-2.18,0-4.06.93-4.7,3s-1.24,4.21,1.42,5.61,1.17,3-.12,4.33c-2.11,2.17-1.66-.74-2.4-1.29-1.73-1.28-3.51-2.46-4-4.83a1.82,1.82,0,0,0-2.27-1.45c-1.27.35-1.65,1.45-1.8,2.7s1.78,2.18.45,3.66c-1.44-.37-2.69-4.23-4.37-.66s-3.81,1.84-6.65,1.12c4.33-2.17,2.68-4.37,1.81-7.46-1.21-4.28-2.72-4.46-6.42-3.36-2.48.74-5.85,1.14-6.75-2.92l1.51-1.49a9.81,9.81,0,0,0,7.59.45c3.83-1.11,7.87-1.78,11.87-.21,1.23.48,2.59,0,2.69-1.32.32-4.46,3.19-2.59,4.15-1.2,3.37,4.9,8.27,3.79,12.87,3.93,1.68.05,3.69-.3,3.21-2.65-.36-1.81-2-2-3.61-1.38-5,2.05-8.09-.45-10.57-4.46a16.2,16.2,0,0,0-2.4-3.12,1.4,1.4,0,0,0-2.18.1,1.88,1.88,0,0,0,.13,1.76,18.41,18.41,0,0,0,2.38,2.24,51.22,51.22,0,0,1-21.78,1.76l.83-1,0,.12c2.35-4.15,5.72-7.62,7.53-12.16,11.48-28.65-2.35-64.4-43.34-67.36a371.18,371.18,0,0,0-47.87-.6c-6.14.35-9.61,3.22-10.31,9.25a92.66,92.66,0,0,0-.91,11.38c.23,22.12-.89,44.25.84,66.34.52,6.63,3.93,9.88,10.48,10.18,4.12.18,8.23.64,12.34,1-.49,1.79,3.26,3.72-.05,5.34-1.42.69-3.65.43-3.84,2.46-.26,2.63,3,1.73,4.23,3.33-2.64,1.54-6.07,2.23-5.79,6.12s2.84,5.87,7.61,6.29l-10.71,6c-2.7-1.28-4.71-3.46-7-5.27-6.81-5.34-12.1-12.47-19.77-16.78.05-.71-.28-1.05-1-1,0-.35.22-.93-.54-.57l.62.51,1,1c3.94,6.86,8.48,13.4,9.85,21.5,1.13,6.69-1.09,12.63-7,15.53-6.7,3.26-12,8.27-17.64,12.93-6.44,5.33-11.2,11.16-7.35,20.18a1.64,1.64,0,0,1,0,.5c.66,8.28.66,8.27,9.25,8.4l7,.11c1.35,0,2.74,0,3.15,1.71-1.66.22-3.34.24-3.32,2.69.08,11.9-.08,23.81.19,35.7.1,4.55,4.29,3.1,6.91,3.57,3.09.56,2.83-1.8,3-3.83.18-2.77-.43-5.53.76-8.31,4-9.39,8.29-18.8,5.07-29.46,7.4-.23,14.82-1.06,22.18.45-.34,2.13-4,.5-3.72,3.17s2.32,3.42,4.3,4.38c10.16,4.91,19.84,3.7,29-2.41a10.86,10.86,0,0,1,10.82-1c4.77,1.91,10,4.22,14.8,2.53,4.35-1.54,6.84-.34,9.65,2.19-1.57,2.57-1.23,5.44-1.27,8.24-.08,5.23-1,5.83-5.65,3.72a11.62,11.62,0,0,1-2.05-1.4c-4.22-3.25-8.83-3.21-13.62-1.66A97,97,0,0,1,477,570.66c-9.16.18-18.2-1.29-27.34-1.15-3.72.06-5.91,1.63-6.92,5.11s-1,7.19-1,10.85c0,8.72,0,8.61,8.47,9.84,16.79,2.43,33.62,4,50.55,1.85,11.52-1.43,22.92-3.48,33.26-9.33,7.54-4.28,15.63-15.27,12-24.49-1.34-3.44-1.46-4.08-1.26-6.48,6.53,3.35,10.9,9.74,17.72,12.69A26.53,26.53,0,0,1,565,571q24.07,17.4,48.12,34.84c8.67,7.7,18.56,13.82,27.56,21.09,2.64,2.14,7.08,3.21,5.89,8.39-.19.85,1.62,2.5,2.83,3.24,3.84,2.36,6.16,5.93,8.48,9.59,3.75,5.87,2.26,11.34-3.62,15.24-13.59,9-29.17,11.29-44.74,13.49-8.51,1.21-17.09,1.91-25.63,2.78a5.52,5.52,0,0,1-1.86-.51c-.46-.43-.85-1-1.4-1.27-2.24-.88-4-1.72-3.83-4.82s2.36-3.24,4.36-3.67c5.65-1.22,11.3-2.48,17-3.42,9.62-1.57,19.27-3,28.54-6.12,5.61-1.91,8.36-6.33,7.25-11.46-.58-2.64-1.79-4.74-5.15-3.79s-7,1.9-10.47,2.92c-18.93,5.55-38.37,7.62-58,8.69-4.48-1.42-8.8.71-13.28.6-16.12-.39-32.26.18-48.36-1.14-7.75-.63-15.53-1.19-23.22-2.27-13.32-1.88-26.57-4.15-39.86-6.25-7.23-1.3-14.44-2.71-21.69-3.88-10.26-1.66-20.6-2.62-30.94-3.63-9.37-.92-18.67-1.32-28-1.54-1.18-1.35-2.88-1.63-4.47-1.91-11.29-2-20.41,4.29-30.3,7.82,9.77,2.62,19.32-1.13,29.18-.95-5.28,11.46-2.17,12.23,4.35,12.8,16.3,1.42,32.65,2.09,49,3.2,8.07.54,16.16,1,24.16,2.13,19.7,2.68,39.14,6.93,58.77,10.11,21.43,3.46,43,4.64,64.54,5.67,4.42.21,8.1,1.3,10.79,4.94l0-.06c-10.48-2.07-21.13-1.42-31.7-2.11a494.87,494.87,0,0,1-60.14-7.2c-20.81-3.94-41.52-8.46-62.77-9.81-11.43-.73-22.87-1.67-34.28-1.57-9.45.08-18.92.78-28.39.82-.74,0-1.69-.22-2.15,1.29,5.57.68,11,1.62,16.53,2,34.26,2.2,68.11,7.48,101.94,13,37.77,6.19,75.53,12.64,113.84,14.31,36.92,1.61,73.54-.14,108.65-13.51a60.66,60.66,0,0,0,11.31-5.18c3.61-2.31,6.25-1.58,9.2.85,27.67,22.69,55.18,45.56,79.68,71.75,4.72,5,10.12,9.56,13.53,15.76,4.8,6.35,9.71,12.62,14.34,19.08a5.93,5.93,0,0,0,6.48,2.56,31.25,31.25,0,0,0,11.43-4.5c7.3-4.86,13.26-11.54,21.17-15.56,6.4-3.26,11-.43,11.07,6.86a11,11,0,0,0-7,1.65c-7.7,4.35-14.24,10.28-21.27,15.54-3.85-.21-4.85,3.48-7.24,5.27-3.6,2.71-5.53,5.64-1.39,9.48-8.68,7.14-8.73,7.17-3.34,17.26,3.73,7,7,13.9,4.32,22.21-1.46,4.43-4.18,7.95-7.18,11.2-7.72,8.35-16.24,15.55-28,17.65-5.33.95-13.34-2.31-16.35-6.91,5.09-.16,10.17.82,15.26-1.13,8-3.1,14.28-8.53,19.89-14.66,11.64-12.71,12.12-22.26,1.89-36-4.52-6.08-8.51-12.36-9.92-19.86-.94-5-3.75-6.33-8.38-6.25-12.82.22-25.65.21-38.48.27-43.3.18-86.55-1.2-129.68-5.21-21-1.95-42.08-3.24-62.94-6.88-20.08-3.5-40.25-6.49-60.27-10.37-2.68-.52-5.28-1.89-8.16-1,11.93,4.61,24.3,7.31,36.63,10.26,31,7.41,62.3,12.2,93.9,15.88,19.89,2.31,39.82,4.62,59.78,5.53,19.4.88,38.78,3,58.25,2.31a22.29,22.29,0,0,1,4.46.34,50.84,50.84,0,0,0,16.83,0c4.21-.7,9.21-1.27,12.34.87a39.81,39.81,0,0,1,11.2,11.44c-11.4-1.07-22.84-.59-34.26-.64-1.94,0-4-.55-5.79.81-2.87-3.69-5.78-2.9-8.7-.08a4.11,4.11,0,0,0-3.28-.85c-11.83.55-23.63-.57-35.39-1.26-19.34-1.14-38.69-2.39-58-4.39-13.5-1.4-27-3-40.48-4.43-10.84-1.18-21.61-3.14-32.38-4.93-18.92-3.14-37.69-7-56.26-11.86-15.88-4.13-31.29-9.66-46.89-14.67-22.66-7.27-45.61-13.57-69.16-17.45-18.13-3-36.37-4.69-54.66-6.41a443.05,443.05,0,0,0-59.28-1.09c-10.26.41-20.65,1.87-31,2.88-4.94.49-9.86,1.54-14.8,1.57-15.51.08-30.66,3-45.88,5.36-10.3,1.61-20.61,3.15-30.9,4.75a17.32,17.32,0,0,0-10,5.09c-4.17,4.21-12.09,3.66-16.09-.8-2-2.27-1.27-4.64-.69-7,.54-2.19,2.14-3.59,4.38-3.32,12.88,1.56,22.57-6.2,33-11.45,7.8-3.93,15.68-7.75,23.4-12.06A595.46,595.46,0,0,0,113.48,743c-3.64.86-7.39,1.37-10.81,3-15.37,3.26-30.2,8.37-45.07,13.29-14,4.62-27.83,9.82-41.47,15.47-1.3.55-2.58,1.68-4.28.8,1.06-2.2,3.35-2.64,5.17-3.6q36-19.12,73.05-36.27A16.13,16.13,0,0,0,92.48,734C96,733.2,99.07,731.46,102.19,729.79Zm132.1-139.58v-.42c12.15,0,24.31.3,36.45-.09,11.7-.38,22.67-3.37,31.68-11.52,11.31-10.23,13.5-23.47,12.72-37.79-1-19-14.46-35-33.18-38.61-28.69-5.54-57.73-2.89-86.63-3.12-6.23-.05-9.08,3-9.78,8.53a88.29,88.29,0,0,0-1,12.87c.29,18.79-.46,37.56.56,56.36.63,11.56,4.19,13.65,14.68,13.76C211.31,590.3,222.8,590.21,234.29,590.21Zm-5.08-151c4.49,0,9,.06,13.48,0,10.14-.17,20.36.3,30.28-2.36,14.34-3.83,25-12,28.32-27.09,3.38-15.32,1.39-29.58-11.33-40.48-9.15-7.85-20.53-9-31.89-9.26-18.64-.38-37.3-.31-55.94-.33a67.46,67.46,0,0,0-9.41.77,7.45,7.45,0,0,0-6.65,5.78c-1,3.32-.45,6.61-.75,9.89-1.62,18.09-1.09,36.18.21,54.25.33,4.57,2.8,7.58,7.79,8.22C205.27,440.07,217.25,438.66,229.21,439.16Zm123.3,189.2c7.89-4.31,15.37-9.1,21.22-15.93,5.6-6.54,11-13.26,14.51-21.22,1.18-2.65,3.37-3.86,6.17-4.5,2.35-.55,5-1.05,5.84-4,3-10.37,5.87-20.76,5.5-31.71-.05-1.53,0-3.55-1.77-3.67-5.72-.39-6-4.08-6.38-8.55-.25-2.58-.11-4.55,1.46-6.4,1.83-2.18,1.62-4.37.82-6.94q-10.51-33.83-41.8-50.32c-1.51-.8-2.18-.64-3.78.06-3.7,1.62-6.11-1.82-8.34-3.85-2.52-2.3-6.53-4-5.9-8.55a3.78,3.78,0,0,1,1-1.7c4.26-5,6.73-12.36,15.4-11.49.49,0,1.11-.67,1.59-1.11,15.13-13.85,25-30.58,27-51.23,2.39-25.19-5.92-46.71-23.67-64.61-1.66-1.68-3.52-5.37-5.49-4.09-2.45,1.58-2.49,5.55-1.93,8.71a10.55,10.55,0,0,0,1.93,4c12.93,18.31,17.5,38.62,14.17,60.65a79.75,79.75,0,0,1-25.57,47.9c-6.28,5.79-13.49,10.15-20.84,14.31.23.4.28.61.39.66,2.32.87,4.64,1.76,7,2.58,21.56,7.57,38.41,21.2,48,41.81,17.12,36.79,10,71.26-12.81,103.46C362.16,618.3,356.6,622.62,352.51,628.36Zm75.78,113.3c-1.39-.49-2.76-1-4.17-1.45C372.67,724.29,320,717.68,266.21,719.37a18.11,18.11,0,0,0-3.43.52c-2.11.49-3.78,1.59-3.74,4,0,2.6,2.54,2.67,4.06,2.82,8.72.91,17.49,2.27,26.19,2,7.78-.25,15.46-.28,23.25,0,16,.66,32,1.44,47.92,3.09a501,501,0,0,1,50,7.63C416.26,740.67,422,743.31,428.29,741.66ZM425,409.82v42.49c0,6.79,0,6.67,6.79,6.61,2.91,0,4.51-.45,3.22-3.83s-1-6.86-1-10.36q0-34.25,0-68.49c0-4-.13-8,1-11.87.27-.91.57-2.63.28-2.77-2.65-1.25-5.54-.67-8.33-.59-2.58.07-1.94,2.29-2,3.81C425,379.82,425,394.82,425,409.82ZM172.07,498.09c-2.26.2-5.09-1-5.08,3.28.11,28.62,0,57.25.08,85.87,0,1.24-.45,3,1.47,3.18,2.45.26,5.14.81,7.29-.71s.94-3.88.63-6a38.15,38.15,0,0,1-.46-5.44q0-33.69,0-67.39a29.39,29.39,0,0,1,.69-6.9C177.89,499,177.1,498.13,172.07,498.09Zm-5-99.23v6.49c0,10.14,0,20.28,0,30.42,0,1.52-.63,3.78,2,3.72,3.08-.08,6.31,1,9.19-.89a1.38,1.38,0,0,0,.18-1.32c-3-5.53-2.09-11.82-2.14-17.48-.15-19.32-2.09-38.78,2.09-58,.1-.44.15-1.17-.08-1.36-2.81-2.11-6.08-1.17-9.16-1.17s-2,2.53-2,4.15C167,375.26,167.05,387.06,167.05,398.86ZM353.8,457.61c-3.17,1.65-4.9,3.05-4.93,5.75,0,2.29,1.09,4.23,3.26,4.31,2.61.09,1.47-2.43,1.63-3.86C354,462.05,353.8,460.26,353.8,457.61ZM550.4,455a2.77,2.77,0,0,0,2.63-3.22c-.07-1.19.39-2.89-1.71-2.88-2.28,0-3.16,1.68-3.44,3.53C547.66,453.85,548.38,455,550.4,455Zm-.52-19.87c-1,.06-2.32.57-2.12,1.51.48,2.23,3.1,1.21,4.47,2.36.83.7,1.72,0,1.51-1C553.36,436,551.42,435.9,549.88,435.13Zm6.41,17.71c1.36-.84,3.26-1.47,4.24-2.79.78-1.05-.85-1.34-1.79-1.42-1.8-.15-3.33.22-3.7,2.33C554.89,451.81,555,452.61,556.29,452.84Z"/><path class="ededb384-06c2-4e3f-b974-58f6cd5d1947" d="M807.86,578.56a15.61,15.61,0,0,1,1.9,6.14c.1.62.36,1.42.09,1.87-1.55,2.6-1.6,2.57.11,5,.46.66,1.17,1.28,1.31,2,.23,1.19,1.26,2.65-.29,3.61a2.35,2.35,0,0,1-3.1-.92c-3.79-5.46-7.44-11-11.14-16.57,4.48-.24,5.76,4.59,9.4,6-.67-5.66-5.34-9.74-5.35-15.42,0-.37-.6-1.08-.8-1-6,1.24-10-3.84-15.13-5.12-2.48-.61-5.05-.91-7.34.1-2,.9-.68,3.34-1.31,5a18.2,18.2,0,0,1-1.7,3.56c-.9,1.36-2.47,1.7-3.24.21-2.21-4.29-6.81-5.59-10.11-8.5s-6.91-5.7-11.35-7c-1.46-.43-2.66-1-4.09.31-3.31,3.09-7.41,4.86-11.52,6.67-2,.89-5.84,1.56-4.92,4.4.86,2.66,3.69-.45,5.69-.13a6.73,6.73,0,0,0,1.48-.09c1.14,6.91-2.8,11.76-7.27,15.84-5.88,5.35-10,10.76-7.57,19.35,2,7.18-2.67,11.69-7.55,15.85.1,3.68-2.19,6.54-3.29,9.74-2.77,8.08-7.34,12.92-15.87,14.26-3.77.6-5.36-.42-6.36-4.1-1.77-6.51-3.51-13-4.84-19.62-.9-4.46-2.21-8.22-.44-12.83,2-5.29,0-11.95-3.89-13.83a17.71,17.71,0,0,1-6.16-4.86,18.52,18.52,0,0,0-11.57-6.35c-7.84-1.29-12.22-6.65-16.84-12.07-2.91-3.41-3.35-6.86-1.06-10.77.6-1,1.68-2.23.52-3.61.87-6,0-12.76,7.2-15.91,1.22-.53,1.27-1.92,1.42-3,.71-5,4-7.33,8.45-8.64a4.7,4.7,0,0,0,4.35,0c3.78-2.26,8.11-1.58,12.15-2.35,2.1-.4,4.49-.38,3.93,3.24-.26,1.64,8,8,9.76,7.79a2.58,2.58,0,0,0,1.57-1.06c2.35-3.71,4.25-1.8,6,.48.37.46.54,1.52,1.2.91,2.42-2.28,5.13-.52,7.57-.48,3.62.08,5.28-1.25,5.61-4.61.38-3.93-3.08-3.92-5-3.71-4,.43-7.34-4.45-11.46-1-.24.2-1.36-.25-1.74-.68-1.67-1.9-1.55-7.87-6.23-2.6-.08.08-.78-.14-.82-.31-.76-3-4.11-3-5.75-5.16-4.34-5.65-12.81-4.31-14.86,2.68-1.14,3.9-3.52,5.2-6.55,6.5-7-1.57-9.24-6.23-5.88-12.51,1.06-2,3.08-1.62,4.9-1.55,1.65.06,3.65,2.17,4.86-.28,1.09-2.19-.26-4.17-1.74-5.82a10.89,10.89,0,0,0-2.13-1.43c2.16-1.25,3.56-2.06,4.94-2.88,1.87.37,3.28.14,2.91-2.32l.11-.11c3.77-2.64,8.69-4.27,8.78-10.14,0-.87-.25-2.21,1.14-2.33s2.06.94,2,2.25c-.13,2.29,1.14,4,3.11,3.4,3.15-.91,7.27,1.51,9.48-2.44s4.54-7.51,9.53-8.47c-3.27-.8-7.65,2.24-9.07-2.63-1-3.49,2.14-6.15,3.34-9.33-2.9,2.46-8.21,4.28-6.8,8.39,1.72,5-2.19,7.61-2.84,11.43-.21,1.25-2.21,1.91-3.79,1.85-1,0-1.29-.87-1.24-1.77.31-5.31-2.33-5.83-6.44-4-3.13-7.48-3-8,2.83-12.86a26.92,26.92,0,0,0,7.22-9.78c2.07-4.48,7.4-5.15,11.23-5.79,7.26-1.21,12.69,4.6,18.76,7.72,1.53.79.33,2-.56,2.74-1.42,1.24-2.83-.2-4.25-.06-.56-.36-1.19-.58-1.51.18-.09.23.41.7.64,1.06.35,3,3.29,2.86,4.44,2.19,2.32-1.35,5.83-1.82,6.17-5.5.07-.81,0-1.64,0-2.5,2.89-.31,2.12,2.35,3.42,4.37,3.11-4.45,7.48-5.24,12.18-4.44,4.07.7,3.36-1.3,1.58-4.1,3.91.38,6.48,2.19,9.56,3.31.11-3.12-.19-6.26,2.16-8.82,1.64-1.81,3.38-.65,3.37.48-.05,4.71,3.88,8.75,2,13.68,3,0,1.22-5.53,5.58-4.13-3.81-.79-4.32-3.75-5.13-6.27-.54-1.66.6-1.57,2.51-2a21.11,21.11,0,0,0,4.89-2.09c5.25-3,10-7.73,16.76-7.38,3.1.15,5.94-.33,6.78-4.05l-.06.07c4,.19,7.54,2.55,11.18,3.79,4.79,1.64-.58,3.79-2.09,6.37,3.92-1.6,7,.34,10.33.63s6.19,1.17,9.43-.12c1.19-.47,3.12-.61,4.11.91,4.32,6.63,9.52,4.93,15.54,2.44,4.7-1.93,9.34,1.16,13.81,2.67,7.45,2.52,15.39,6.12,22.74,4.88,10.85-1.83,17.73,5.57,26.61,7.93,2.2.59.48,2.22.43,3.31-.09,1.95-1.5,1.35-2.55.93-1.53-.61-3-1.4-4.5-2.09-1.06-.48-2-2.13-3.28-.25-.84,1.23-1.13,2.36,0,3.57,1.86,1.94,1.41,3.15-1.21,3.6-3.7.63-5.27,5.82-9.84,4.58-2,.27-5,1.14-3.71,3,1.83,2.73,0,5.09.75,7.45l-2.16,3.73c-1.91,3.23-3.81,3.43-5.71,0-1.36-5-2.6-9.88,2.47-13.77.6-.47.54-1.8.79-2.73.08-.15.15-.3.23-.46l-.28.41c-2,1.68-5.57-2.56-6.39,1-1,4.44-3.17,3.54-6.09,2.75-5.88-1.58-10.49.15-13.75,4.82-1.77,2.54-2.39,4.72,1.78,4.91,2.59.13,3.33,1.85,3.94,4.73.36-1.9.29-3.47.77-3.66,1.79-.71,1.3,2,2.67,2.17a21.62,21.62,0,0,1,1.76,9.85c0,.81.26,1.75-.8,2s-1.37-.73-1.56-1.47c-.55-2.23-1-4.49-1.66-7.55-2.66,4.28-1.66,9.29-5.14,12.45-1,.91-1.34,2.32-2.8,3.16-3.3,1.9-5.63,4.42-3.24,8.74a3.53,3.53,0,0,1-.55,4.56c-1.71,1.51-3,.58-4.27-.64-2.07-7.17-5.53-9.15-9.85-5.42,3.4.57,7.18.75,3.57,5.74-.9,1.25.19,3.17,2.21,3.64,2.37,9.4-3.65,14.55-9.91,19.57-3.77,1.27-3.92,5.14-5.59,7.91-.1.17.75.9,1.15,1.37,1.59,5.47-2,8.08-5.84,10.51-.24-1.83-1.76-2.72-3-3.83-.8-.75-1.42-2.33-2.72-1.68a3.23,3.23,0,0,0-1.39,3.49C803.77,575.68,805.59,577.34,807.86,578.56Z"/><path class="ededb384-06c2-4e3f-b974-58f6cd5d1947" d="M544.7,556.86c-.2,2.4-.08,3,1.26,6.48-6.17-1.52-11.67-5.15-18.1-5.87-2.81-2.53-5.3-3.73-9.65-2.19-4.8,1.69-10-.62-14.8-2.53a10.86,10.86,0,0,0-10.82,1c-9.2,6.11-18.88,7.32-29,2.41-2-1-4.05-1.86-4.3-4.38s3.38-1,3.72-3.17l12.57-1.2c2.36.55,4.35.08,5.75-2.07l1.37-.66c1.47.5,2.29-.06,2.53-1.57a1.41,1.41,0,0,1,.51-.35c3.2,0,4.39-1.77,4.37-4.72l0,0c6.37-2.94,8.39-9.38,11.53-14.81.91-1.58,1.05-4.41-1.94-5.23-1.71-.47-1.65-1.76-1.81-3.1a47.93,47.93,0,0,0-1.07-6.32c-2.89-11.09-8.42-15.43-19.21-15.6-4.54-.07-8.76,1.5-13.17,2-2.08-2.15-5.09-3.25-6.74-5.89l10.71-6c-4.77-.42-7.32-2.31-7.61-6.29s3.15-4.58,5.79-6.12c-1.25-1.6-4.49-.7-4.23-3.33.19-2,2.42-1.77,3.84-2.46,3.31-1.62-.44-3.55.05-5.34l2.14-.21,0,.19.08-.17c5-2.22,9.71-6.28,15.64-4.48a56.27,56.27,0,0,0,13.3,2.62l.07.05,1.56,1.09a5.29,5.29,0,0,0,5.59,1c7-2.9,13.82-2.46,20.58.55,2.82,1.25,2.12-2.48,3.95-2.64.52,0,1.6-.74.43-1.1-2-.63-2-6.3-6-2.34-1,1-2.87.23-4.32-.16.8-6.2,1.43-6.67,7.58-5.94a28.22,28.22,0,0,0,3.9,0c.9,4.06,4.27,3.66,6.75,2.92,3.7-1.1,5.21-.92,6.42,3.36.87,3.09,2.52,5.29-1.81,7.46,2.84.72,5,2.51,6.65-1.12s2.93.29,4.37.66c1.33-1.48-.61-2.4-.45-3.66s.53-2.35,1.8-2.7a1.82,1.82,0,0,1,2.27,1.45c.5,2.37,2.28,3.55,4,4.83.74.55.29,3.46,2.4,1.29,1.29-1.33,2.79-2.93.12-4.33s-2-3.65-1.42-5.61,2.52-3,4.7-3c2.66,0,5.31,0,8,.08,1.16,0,2.82.18,2.84,1.44,0,2.05-2.12.71-3.07,1.42,7.39.5,10.58,2.89,12.86,9.42a7,7,0,0,0,1.83,2.26c1,1.06,3.68,1,2.83,3.35-.77,2.12-2.81,2.61-5,2.47a1.14,1.14,0,0,0-1.08-1.58c-.1,0-.34.18-.34.28,0,1,.66,1.22,1.48,1.24.83,2.8,0,4.77-2.82,5.83-.16.16-.33.31-.5.45-4.4-.31-7-4.88-11.46-4.54-.34-2.06,1.19-2.12,2.09-2.59,2-1,4.16-2.13,4.18-4.52,0-2.57-2.81-3.58-4.43-4.89-1-.8-5.37-2.68-4.82,2.59.33,3.25-1.83,4.79-5.58,5.63.4.1,1,.06,1.17.31,1.17,1.36,4.32,2.56,2.46,4.32-1.08,1-4.53,3.23-6.64.58-1.6-2-2.56-1.12-4-.17-2.84,1.88-4.53,4.82-6.61,7.34-1.6,2,.26,3.71,1.7,5,.68.63,1.91.64,2.67,1.22,3.62,2.8,9.31,3.58,9.39,10.13,2.92-5.42,6.6-9.92,6-16.23-.15-1.62-.19-4.56,3.08-4.83s5.71.94,7,3.69,1.34,5.86,5.89,2.74c2.45-1.68,2.22,2.27,3.06,3.77.45.81-.15,2.2,1,2.59,1.41.46,2.06-.88,2.76-1.7a53,53,0,0,0,5.23-6.66c3.36-5.56-.29-10.46-2-15.42-.93-2.66-3.34-4.5-5.34-6.51-4.42-4.46-3.53-7.74,2.39-9.79,1.51-.52,4.58.25,4.18-2.25-.34-2.16-3.33-2.27-5.12-1.75-5,1.48-5.27-2.9-6.92-5.4-.66-1,.42-1.79,1.53-2a23.22,23.22,0,0,0,3.46-.46c1.17-.37,3.07-.66,2.51-2.4-.65-2-2.16-.33-3.33-.25-4.55.3-7.26,3.32-9.95,6.5-2,2.31-10.63,4-13.07,2.63-.38-.2-.91-.73-.86-1,.34-2.14,2.38-1.93,4-2.61-2.44-2.71-6.83.1-9.12-4.09-1.49-2.74.1-2.88,1-4.18,1.15-1.7,2.22-2.36,3.91-.64,1.51,1.54,3.21,2.9,4.71,4.47a1.82,1.82,0,0,0,3,.12c.58-.52,1.82-.57,1.68-1.58-.21-1.57-1.71-1.23-2.77-1.51s-1.94-.49-2.89-.81a2.22,2.22,0,0,1-1.79-2.12c0-1.35,1.24-1.27,2.15-1.57,6.61-2.11,13.47-2.18,20.29-2.49,2.18-.1,4.48-.1,6.35,1,7.54,4.41,14.76,2.48,22.15-.48,2.09-.83,2.94-1.79,3-3.86,1-24.37-.58-48.25-13-70.15-3.6-6.33-8.09-12-12.46-17.87,7,2.16,10.23,8.41,14.37,13.42,11.24,13.59,16.35,29.61,18.33,47a146.29,146.29,0,0,1,.47,28.06c-.16,2.11.15,2.68,2.1,2.67,2.32,0,4.65.07,7,.11,2.36,1,6.14.41,4.93,5.22-.38,1.52,1.64.82,2.68.61a19.94,19.94,0,0,1,8.23-.26c-.91,2.28-2.89,1.42-4,2.37-2.79,2.48-5.39,4.51-3.89,9.38.75,2.43-.51,6.37-2.86,8.95-1.57,1.72-2.62,3.39-1.27,6s-1.89,3.25-3.07,4.53c-1.35,1.48-3.72,2-5.64,3-2.23-.27-3.7.35-5.31,2.33-8.52,10.47-17,21.2-31.15,24.53-3.79.89-1.64,2.11-.14,3.26-.33,3.18-1.26,6.42,1.6,9.1a2.13,2.13,0,0,1,.31,2.76c-.8,1.13-1.72.29-2.65.11-6.65-1.33-6.81-1.61-3.1-6.24-3.18-.81-5,3.85-8.38,2.13-.15-.07-1.86,2.7-1.17,4.16,2.12,4.46,2.24,4.4-1.29,7-3.67-1.26-11.14,2.58-13.35,7.51-1.06,2.36-4,4.21-2.67,7.47l-.89.87c-3.72.69-6.84,2-6.51,6.65-.94,2.52,2.43,6.61-2.76,7.58-3.05-7.32-3.05-7.31-10.77-6.45a26.92,26.92,0,0,1-3,0c-3.15-.06-5.85,1.44-6.86,4.1-1.27,3.35-1.66,7.36-.13,10.62,1.1,2.32,4.1,2.61,6.58,1.07a10.28,10.28,0,0,0,2.11-2.06,3,3,0,0,1,3.58-1c1.75.74.93,2.2.72,3.45C546.74,554.69,546.35,556.35,544.7,556.86ZM598.83,429a10.89,10.89,0,0,0-2.24-.16c-.31.05-.55.49-.83.76a7.38,7.38,0,0,0,1.68.42C597.74,430.06,598.05,429.63,598.83,429Z"/><path class="ededb384-06c2-4e3f-b974-58f6cd5d1947" d="M102.19,729.79c-3.12,1.67-6.22,3.41-9.71,4.23-9.24-13.41-19-26.5-27.27-40.54a477.1,477.1,0,0,1-40.78-87.64A452.05,452.05,0,0,1,3.28,513.22c-1-8.05-1-16.23-1.54-24.3-1-14.52-2-29-1.68-43.56a455.44,455.44,0,0,1,147.7-324.71,475.15,475.15,0,0,1,49-39A443.23,443.23,0,0,1,334.49,17.12c2.19,2.16,4.83,4,5.13,7.48a515,515,0,0,0-71.31,26.71,449.37,449.37,0,0,0-98.73,63.27c-32.34,27.12-59.83,58.52-83.7,93.28-12.7,18.48-23.25,38.11-33,58.22A428.06,428.06,0,0,0,13.14,404.34Q-3,545.57,64.17,671.13C75.2,691.81,88.76,710.73,102.19,729.79Z"/><path class="ededb384-06c2-4e3f-b974-58f6cd5d1947" d="M737.13,809.69c2.92-2.82,5.83-3.61,8.7.08l4.29,5.33a8.36,8.36,0,0,0,.91,2.21C758,826,764.84,834.67,772,843.17c2.06,2.45,4.38,5,8,5.25,8.57,1.92,13.62-3.54,18.39-9.1,4.41-5.13,4.47-8.8,1-14.51-3.56-5.92-8.67-10.47-13.55-15.21a39.81,39.81,0,0,0-11.2-11.44c-3.13-2.14-8.13-1.57-12.34-.87a50.84,50.84,0,0,1-16.83,0,22.29,22.29,0,0,0-4.46-.34c-19.47.71-38.85-1.43-58.25-2.31-20-.91-39.89-3.22-59.78-5.53-31.6-3.68-62.94-8.47-93.9-15.88-12.33-3-24.7-5.65-36.63-10.26,2.88-.92,5.48.45,8.16,1,20,3.88,40.19,6.87,60.27,10.37,20.86,3.64,41.92,4.93,62.94,6.88,43.13,4,86.38,5.39,129.68,5.21,12.83-.06,25.66,0,38.48-.27,4.63-.08,7.44,1.28,8.38,6.25,1.41,7.5,5.4,13.78,9.92,19.86,10.23,13.76,9.75,23.31-1.89,36-5.61,6.13-11.85,11.56-19.89,14.66-5.09,2-10.17,1-15.26,1.13-8.51-3.14-13.52-10.18-18.67-17-6.8-9-13.31-18.12-20.15-27-2.62-3.41-4.22-6.19.87-8.64A8,8,0,0,0,737.13,809.69Z"/><path class="ededb384-06c2-4e3f-b974-58f6cd5d1947" d="M820.13,641c-.19-3.78-.37-7.57-.57-11.35-.22-4.13,2.07-7.08,5.68-7.69,5.37-.92,7.74-5.47,11.63-8.1,1.18-.8,1.88-2.54,3.71-1.55s2.71-.23,3.15-1.38c1.84-4.74,5.13-2.72,8.17-1.94,1,.26,2,.64,1.27,2-1.78,3.48,1.23,4.92,3.23,5.44,2.61.68,3.1-2.25,3.84-4.18.41-1.08.66-2.23,1.25-4.27,3.89,9.13,7.42,17.63,12.25,25.43-.08,0,.38-.08.44-.32,2-7.11,6.15-4.8,10.76-2.87,17.88,7.49,35.88,14.71,53.81,22.09,2.11.86,4.54,1.44,5.52,3.94-2.32,6.09-2.63,13.35-11.45,14.93-12,2.15-24,4.16-35.8,7.48-2.14.6-3.7.6-4.22,3.6s.13,4.94,2.49,6.21c5.37,2.89,10.86,5.54,16.31,8.29,2.58,1.45,5.2,2.82,7.72,4.36,1.52.93,3.14,1.94,2.85,4.16-3.08,3.43-4.64,7.76-6.83,11.71-4.24-.7-7.43-3.51-11-5.55-16.82-9.69-33.52-19.56-50.34-29.25-2.37-1.36-3.1-2.54-1.31-4.86a12.6,12.6,0,0,0,1.72-3.58c1.57-4.57,4.71-5.92,9.48-6,6.1-.1,12.18-1.26,18.26-2,3.33-.42,5.36-3.16,8.05-4.73,1.37-.8,1.81-4.12,4-2.29s-1.63,2.76-1.24,5.05l12.88-2.42c3.19.36,6-1,9.51-2-3.9-1.79-7.29-3.38-10.7-4.92-1.29-.58-2.54-.79-3.21.92l-5.3,3.58c1.36-6.7-2.32-8.91-6.89-10.78a142.84,142.84,0,0,1-13.41-6.51c-2.63-1.42-4-.74-5.72,1.53-2.86,3.74-3.81,9.1-9,10.91a9.45,9.45,0,0,0-2.79-.76c-3.51.17-6-.28-7.77-4.28a13.82,13.82,0,0,0-7.86-6.83,12.36,12.36,0,0,0-11.61,2.33c-2.64,2.21-6.45,2.65-9.75,2C818.28,645.89,821.35,642.74,820.13,641Z"/><path class="ededb384-06c2-4e3f-b974-58f6cd5d1947" d="M220.86,897.64c6.93,8.57,16.1,11.21,26.71,10.12,3.19-.33,4-2.89,5.32-5.08,2.84-4.85-2.19-3.32-3.73-4.61-1.46-.79-2.92-1.59-4.39-2.37-8.85-4.76-8.74-4.7-3.74-13.44,1.36-2.38,2.49-2.36,4.68-1.29,9.11,4.46,18.31,8.74,27.48,13.08-.72,4.17-2.08,8.33.29,12.48.38.67-.15,1.89-.34,2.84a28.83,28.83,0,0,1-7.34,13.78c-3.07,3.32-6.28,7.26-11.71,7a2.94,2.94,0,0,1-.51-.23c0-.54-.24-.68-.7-.37l-2.17-.86c-2-1.87-5.56-2.55-5-6.54.14-.9-1-1.22-1.88-1.14-6.67.62-12.64-2.07-18.8-3.88l-.45-.18c-.11-.85-.67-1-1.38-.87-10.34-5.66-19-13-22.06-24.9-3.9-15.27,1.83-27.89,12.73-38.06,16.47-15.35,39.92-13.17,56.61,4.61-.19.56,0,.81.6.69.69.84,1.39,1.67,2.08,2.5-.43,1.08.27,1.88.73,2.72a28,28,0,0,1,2.1,23.62l-1.49-.23c.08-.64-.18-.77-.71-.46a45.71,45.71,0,0,0-4.47-2.14c-4.78-1.72-7.08-3.9-6.77-10.08.4-8-5.61-12.85-12.92-15.6a18.72,18.72,0,0,0-11.89-2c-12.48,1.51-22.37,16.43-22.31,28.09,0,3.89.28,8.3,4.32,10.87.17.4.35.79.52,1.19Z"/><path class="ededb384-06c2-4e3f-b974-58f6cd5d1947" d="M502.35,945.81c-.94-3.77-2.12-7.43-1.5-11.16,1.45-8.69-4.23-15.37-6-23.12l-.9-1-.66-.53c-4.31-4.3-9.76-6.12-15.58-7.06-10.06-1.62-20.24-.28-30.32-1.11-3.54-.29-4.41.84-4.58,4.24-1.1,21.22-2.42,42.43-3.67,63.64-.37,6.3-.25,6.4,7.22,6.09,7.09-1.11,14.15.51,21.22.17s14-.14,20.67-2.53C502.43,968.34,505.56,958.67,502.35,945.81ZM459,915.62a38.79,38.79,0,0,1,19.13.71c1.42.43,3.52.54,2.81,3.06l1,.46,0,0c1.49,7.92-.55,10-10.4,10.88-4.17,1.43-8.45.43-12.68.45-3.15,0-2.69-2.75-2.26-4.41C457.55,923,453.62,916.79,459,915.62Zm19.84,46.44c-4.61,1.23-9.21,1-13.84.43a13.26,13.26,0,0,1-2,.19c-6.49-.29-8.59,1.47-6.83-7.53.71-3.65-1.77-8.66,1.29-10.73,2.47-1.68,7-.26,10.67-.22,4.46.06,8.94-.43,13.33.91,2.57.78,4.52,2,5.1,4.79C487.91,957.49,486.18,960.09,478.82,962.06Z"/><path class="ededb384-06c2-4e3f-b974-58f6cd5d1947" d="M706.25,917.68c-1.91.81-3,.13-3.93-1.7q-15.27-29.93-30.65-59.77c-.69-1.34-2.18-2.78.27-4,10.48-5.3,20-12.43,31.17-16.4,7.94-2.83,15.73-2.2,22.13,4.26l.73.53.28.33c2.12,4.87,5.57,9.37,3.3,15.3-.87,2.29,1.3,2.16,2.75,2.09,4.15-.18,7.72,1.37,11.12,3.51l1.68,1.6c3.94,4.28,6.51,9.08,6.36,15.15-.27,10.12-7.12,15.78-14.29,21C727.5,906.63,716.54,911.61,706.25,917.68ZM718.73,895c3.63-2.2,7.35-4.29,10.88-6.64,3-2,5.63-4.54,5.15-8.75,0-6-4.33-9.59-10-8.07a40.35,40.35,0,0,0-7.81,3.27c-4.47,2.27-8.81,4.69-6.9,11.07a5.56,5.56,0,0,1-.29,3.43,7.28,7.28,0,0,0,2,8.65C714.38,900,716.5,896.41,718.73,895ZM709,848a38.84,38.84,0,0,0-18.39,9.11c-3.08,2.79,2.62,6.87,3.77,10.62.37,1.21.66,4.1,3,3,6.51-3.12,13.35-5.82,17.89-12a5.54,5.54,0,0,0,.23-6.87C714.05,849.46,712.21,847.65,709,848Z"/><path class="ededb384-06c2-4e3f-b974-58f6cd5d1947" d="M913.15,604.32c3.43,1.57,3.56-1.44,4.1-3.23,3-10,6-20,8.55-30.13.83-3.32,1.59-4.83,5.15-3.26a13.13,13.13,0,0,0,4.84,1c3.32.11,3.89,1.75,3,4.51q-3.81,13.62-7.63,27.26c-.81,2.87-2.82,6.06-2.14,8.52.78,2.87,5.12,2.18,7.77,3.43a66.23,66.23,0,0,0,7,2.45c1.71.59,3,.5,3-1.8,4.16-13.62,8.36-27.24,11.32-41.19.46-2.18,1.39-2.8,3.41-2a5.26,5.26,0,0,0,1,.11c8.8,1.44,8.8,1.44,7.62,10.25-1,.36-.87,1.26-1.07,2a550.06,550.06,0,0,1-15.86,53.17l-5.28-1.22c-2.73-2.81-6.34-3.34-10-3.82l-1.32-.23c-3.68-3-8.09-4.16-12.69-4.75l-3-1c-3.88-2.9-8.4-4.07-13.07-4.85l-1.28-.41c0-.74-.21-.82-.62-.19-6.15-2.47-12.28-5-18.45-7.4-2.43-.95-3.71-1.67-2.52-4.95a342.74,342.74,0,0,0,13.33-45.54c.63-3,2.1-3.82,4.88-2.67a7.62,7.62,0,0,0,2.4.55c4.71.29,7.45,2,5.38,7.26-2.29,8.08-4.63,16.15-6.84,24.26-2.9,10.58-2.85,10.6,7.68,13.81A6.22,6.22,0,0,0,913.15,604.32Z"/><path class="ededb384-06c2-4e3f-b974-58f6cd5d1947" d="M368.87,966.63l-1.33-.7a1,1,0,0,0-1.32-.75C339.53,951.1,344.72,919,360,904.29c13.78-13.24,34.2-13.76,51.46-1.49l.6.44a5.11,5.11,0,0,1,.45.48c5.25,6.25,9.93,12.68,11.35,21.12,4.55,27-12.77,46.42-37.85,45.4-5.57-.22-10.67-2.38-16.1-3l-.43-.21C369.56,966.49,369.36,966.34,368.87,966.63Zm9.79-10.76c9.3,3.27,18.91,1,24.38-5.64,7.58-9.26,8.24-24.33,1.5-34.29-5-7.44-16.19-11-24.54-7.88-11.49,4.36-19.09,18.22-16.47,30.78C365.28,947.25,369.5,953.85,378.66,955.87Z"/><path class="ededb384-06c2-4e3f-b974-58f6cd5d1947" d="M927.4,471.15a25.38,25.38,0,0,1-15.15-12.71c-6.71-12.61-3.9-32.18,6.19-41,.12-.11.23-.25.36-.36,3.56-2.93,8.05-5.61,12.13-4.6,2.91.72,1.45,6.19,2.49,9.4-1,1.62.63,4-2.54,5.19-9.43,3.55-12.46,19.34-5.35,26.65,2.18,2.24,4.67,3.82,7.29.4,4.64-4.21,4-10.2,5.27-15.55.84-.4.83-.92.21-1.53l-.29-2.69c1.88-2.87,2.16-6.18,2.6-9.44,1.4-3,2.46-6.18,4.24-8.9,7-10.77,19.54-11.94,30.47-3.07l.73.47a3.06,3.06,0,0,1,.36.36,45.51,45.51,0,0,1,7.87,31.54c-1.25,12.3-6.08,25.29-22.95,28.44-1.66-.12-3.54,1-4.88-.88,1-3.23.55-6.56.3-9.79-.21-2.8,1-4.13,3.13-5.25l2-.63c.41.43.67.37.78-.23,9.52-5.74,9.43-14.61,7.84-24a31.91,31.91,0,0,0-1.23-4.25c-1.56-3.61-3.93-6.07-8.32-5.78-4.21.28-5.4,3.33-6.41,6.58-1.84,5.89-2,12.09-3.46,18.05C947.81,461.43,944.33,471.37,927.4,471.15Z"/><path class="ededb384-06c2-4e3f-b974-58f6cd5d1947" d="M922.37,546.16c-14.2-4.42-18.58-17.59-17-30.39.72-5.88,2.09-11.76,5.62-16.75,5.45-7.68,12.66-11.95,22.39-11a63.07,63.07,0,0,0-.31,8.45c.35,3.79-.77,5.81-4.78,6.32-10.51,1.34-12.63,20.57-7.49,25.76,1.88,1.9,4.56,4.42,7.09.31,5.64-4,5.86-10.68,8.2-16.32a2,2,0,0,0,.36-.09c0-.22-.08-.44-.13-.66l.57-2.15,6.23-12.93c10.34-11.9,19.37-12.56,32-2.31,6.19,8.44,7.37,18.09,6,28-2.21,15.9-9.55,32.54-31.75,30.73-1.59-.37-1.21-1.6-1.18-2.68.54-2.38,1.54-4.78,1.51-7.16-.06-3.9,1.59-5.68,5.31-5.91a12.7,12.7,0,0,0,8-4.44c4.59-5.4,5.63-11.74,5-18.55a7.66,7.66,0,0,0-.79-5.28c-1.33-3-3-5.7-6.65-5.95-3.42-.23-5.51,1.91-7,4.72a29.11,29.11,0,0,0-1.52,3.13c-2.22,5.91-4.34,11.85-6.61,17.75C941.34,539.37,935.12,547.12,922.37,546.16Z"/><path class="ededb384-06c2-4e3f-b974-58f6cd5d1947" d="M823.81,802.63c-4.14-3.84-2.21-6.77,1.39-9.48,2.39-1.79,3.39-5.48,7.24-5.27,2.44,2.73,5.65,3.25,9,2.86,8.78-1,18.19-10.88,19.28-20-.08-7.29-4.67-10.12-11.07-6.86-7.91,4-13.87,10.7-21.17,15.56a31.25,31.25,0,0,1-11.43,4.5,5.93,5.93,0,0,1-6.48-2.56c-4.63-6.46-9.54-12.73-14.34-19.08,3-17.69,18.17-32,33.61-31.14,5,.27,10.57.62,13.62,6-2.76,2-4,5.19-6.13,7.7-1.15,1.36-1.9,2.24-4,1.71-10-2.48-17.2,1.19-21.29,10.79-1.47,3.44-2.32,7.22,1.35,9.9s6.76.6,9.45-2.18c6.11-3.19,10.75-8.37,16.38-12.22,4.42-2.09,8.49-5,13.49-5.73,6.31-1,11.68,1.16,16.5,5.06l.69.48.93,1a6.19,6.19,0,0,0,1.64,4.06,15.78,15.78,0,0,1,2.47,12.81c-2.88,14.33-11.44,24.6-23.74,32.12-5.94,3.64-12.49,3.21-19,3.41C829,805.83,826.65,803.66,823.81,802.63Z"/><path class="ededb384-06c2-4e3f-b974-58f6cd5d1947" d="M592,956.17c-9.53-11.07-18-22.95-26.61-34.73-4.89-6.69-9.37-13.67-14-20.51-2.07-2-1.83-6.51-6.35-5.72-2.27.41-4.53,1.29-6.8,1.28-3.44,0-4.35,2-4.94,4.74q-4.31,20.43-10.4,40.4c-2,6.74-3.18,13.86-7,20,.69,3.32-1.15,6-2.21,8.9-1.88,6,2.78,2.24,4.42,3,.46-.68,1-.59,1.65-.25l3.48-.21c5.93,0,8.49-3.52,8.9-8.84.88-11.15,6.44-16.67,17.92-16.15,2.88.14,5.84-1,8.73-1.73,3.85-1,6.7-.23,8.09,3.95a18.37,18.37,0,0,0,2.3,3.71c1.9,2.49,3.92,4.9,5.67,7.5,1.13,1.69,2.34,2.74,4.45,2.33,3.44-1.85,7.39-1.62,11.05-2.62S594.33,958.84,592,956.17Zm-38.67-20.73c-3.94.54-7.89,1.1-11.81,1.77-2.44.42-2.44-.81-2.06-2.57,1.36-6.29,2.69-12.59,4.2-19.73,4.13,6.15,7.72,11.51,11.32,16.86C556.45,933.91,556,935.09,553.36,935.44Z"/><path class="ededb384-06c2-4e3f-b974-58f6cd5d1947" d="M339.62,24.6c-.3-3.46-2.94-5.32-5.13-7.48,11.49-4.43,23.6-6.47,35.58-8.83A462.59,462.59,0,0,1,479.36.47,369.56,369.56,0,0,1,524,5.17c5.22.86,5.59,4.92,6.95,9.24C521,12.66,511.34,12,501.7,11.09a423.61,423.61,0,0,0-72.21-1,478.05,478.05,0,0,0-88.42,14.61A4.31,4.31,0,0,1,339.62,24.6Z"/><path class="ededb384-06c2-4e3f-b974-58f6cd5d1947" d="M325.82,956.84l-2-.6a103.14,103.14,0,0,0-24.13-7.57l-1.21-.51c-.16-1.11-.81-1-1.6-.66-6.28-2.54-12.54-5.15-18.86-7.61-1.84-.71-2.09-1.43-1.33-3.3,8.51-21.12,16.91-42.29,25.37-63.44a3.81,3.81,0,0,1,1.36-1.94c1.58-.83,11.32,4,12.33,6-1.21,3.24-2.44,6.48-3.62,9.74q-7.78,21.27-15.53,42.57c-.57,1.56-1.24,3.1,1.26,3.88,5,1.56,10,3.32,15,5,5.17,1.58,10.28,3.36,15.52,4.65,3.3.82,3.67,2.55,2.69,5.26l-3,8.94-1.6-.16C326.56,956.28,326.31,956.25,325.82,956.84Z"/><path class="ededb384-06c2-4e3f-b974-58f6cd5d1947" d="M629.59,935.93c6.12-2.25,12.34-4.26,18.32-6.82,3.65-1.55,6.08-1.84,7,2.8a15.07,15.07,0,0,0,1.36,3.13c1.85,3.34,1.07,5-2.82,6.2a203.56,203.56,0,0,0-20.54,7.53c-7,3-14.8,3.59-21.53,7.31l-2.56.23c-.6-.19-1.19-.32-1.61.35-3,.83-2.76-1.72-3.18-3.22-6-21.11-11.83-42.24-17.78-63.35-.84-3-.21-4.75,3.21-5.09a14,14,0,0,0,4.72-1.38c3.77-1.86,5.84-.9,6.3,3.32a1.05,1.05,0,0,0,.49,1.51,5,5,0,0,0,.33.55c4.52,14.68,8.92,29.4,13.61,44,2.41,7.52,2.65,7.45,10.14,4.49.28-.11.46-.46.68-.7l2.31-.39C628.74,936.79,629.19,936.44,629.59,935.93Z"/><path class="ededb384-06c2-4e3f-b974-58f6cd5d1947" d="M102.67,746c3.42-1.66,7.17-2.17,10.81-3a443.2,443.2,0,0,0,47,48.83A478.26,478.26,0,0,0,212.6,832c2.88,1.9,5.55,4.25,3.21,7.6-2.16,3.08-5.81,2.75-8.87.72A445.57,445.57,0,0,1,167.21,811c-22.82-19-44.3-39.31-62.85-62.57C103.74,747.7,103.23,746.84,102.67,746Z"/><path class="ededb384-06c2-4e3f-b974-58f6cd5d1947" d="M644.26,555.69c1.16,1.38.08,2.59-.52,3.61-2.29,3.91-1.85,7.36,1.06,10.77,4.62,5.42,9,10.78,16.84,12.07a18.52,18.52,0,0,1,11.57,6.35,17.71,17.71,0,0,0,6.16,4.86c3.91,1.88,5.92,8.54,3.89,13.83-1.77,4.61-.46,8.37.44,12.83,1.33,6.64,3.07,13.11,4.84,19.62,1,3.68,2.59,4.7,6.36,4.1,8.53-1.34,13.1-6.18,15.87-14.26,1.1-3.2,3.39-6.06,3.29-9.74.85,5.29,1,10-3.27,14.56-3.45,3.62-5.66,8.49-8.09,13a21.41,21.41,0,0,1-4.74,6.3c-6.15,5.29-14.76,6.93-18.2-4.83-2.27-7.76-4.1-15.76-3.25-24,.9-8.68-2.6-16.26-5.59-23.91-2.29-5.88-7.94-6.42-13.37-6.46-5.22,0-10-.53-14.31-4.27-5.84-5-6.47-11.38-5.64-18.12C638.34,566.08,639.3,560,644.26,555.69Z"/><path class="ededb384-06c2-4e3f-b974-58f6cd5d1947" d="M878.11,737.12,874,734.28a1.43,1.43,0,0,0-1.87-1.21l-.36-.31a2.54,2.54,0,0,0-2.51-1.8l-1.23-.77a1.43,1.43,0,0,0-1.85-1.14,1,1,0,0,1-.4-.33,2.59,2.59,0,0,0-2.53-1.74l-1.21-.77A1.42,1.42,0,0,0,860.2,725L858.6,724c.08-.54-.15-.72-.67-.57-6.95-4.8-13.85-9.67-20.88-14.35-2.15-1.43-2.4-2.48-1-4.73,5.84-9.16,5.7-9.13,15-3.54,17.92,10.74,35.63,21.81,53,33.37a44.8,44.8,0,0,1-9.13,14l-1.2-.58a9,9,0,0,0-5.6-3.61.75.75,0,0,1-.38-.32,8.49,8.49,0,0,0-5.6-3.73l-.35-.32A4.41,4.41,0,0,0,878.11,737.12Z"/><path class="ededb384-06c2-4e3f-b974-58f6cd5d1947" d="M560.32,656.23c19.6-1.08,39-3.15,58-8.7,3.47-1,7-1.94,10.47-2.92s4.57,1.15,5.15,3.79c1.11,5.13-1.64,9.55-7.25,11.46-9.27,3.14-18.92,4.55-28.54,6.12-5.7.94-11.35,2.2-17,3.42-2,.43-4.16.57-4.36,3.67s1.59,3.94,3.83,4.82c.55.22.94.84,1.4,1.27a9,9,0,0,1-8.1.38l-.07-.16c1.08-5.13-4.06-5.61-6.43-7.31-4.32-3.1-5.62-8-8.9-11.61C557.14,659,560.78,658.16,560.32,656.23Z"/><path class="ededb384-06c2-4e3f-b974-58f6cd5d1947" d="M369.94,967.25c5.43.61,10.53,2.77,16.1,3,25.08,1,42.4-18.36,37.85-45.4-1.42-8.44-6.1-14.87-11.35-21.12,16.5,8.68,32.24,35,15.95,56.91-10.42,14-31.18,21.28-48.74,13C376.24,971.94,372.17,971,369.94,967.25Z"/><path class="ededb384-06c2-4e3f-b974-58f6cd5d1947" d="M515.9,961.64c.7,3.32-1.14,6-2.2,8.89-1.72-.42-3.33-.31-4.59,1.1-8.06,9.15-19.21,10.49-30.26,11.53A70.38,70.38,0,0,1,458,982.3c-3.36-.69-7-1.27-8.7-4.95-.59-1.25-1.85-1.27-2.93-1.6,7.08-1.1,14.15.52,21.22.17s14-.13,20.67-2.52c14.15-5.06,17.28-14.74,14.07-27.6-.94-3.77-2.12-7.43-1.5-11.16,1.44-8.68-4.24-15.36-6-23.12,6.95,3,13.91,12.55,12.22,19.74-2,8.73,1.14,15.66,4.95,22.53C513.48,956.37,511.64,960.58,515.9,961.64Z"/><path class="ededb384-06c2-4e3f-b974-58f6cd5d1947" d="M706.25,917.68c10.29-6.07,21.25-11,30.92-18.11,7.17-5.23,14-10.89,14.29-21,.15-6.07-2.42-10.87-6.36-15.15,8.09,2.34,12.64,8.37,15.09,15.78s-.37,14-5.72,19.33c-10,10-22.28,16.49-34.83,22.61-3.77,1.85-6.59,1.49-9.14-1.81C709.46,918,708.19,916.86,706.25,917.68Z"/><path class="ededb384-06c2-4e3f-b974-58f6cd5d1947" d="M832.2,806c6.5-.2,13,.23,19-3.41,12.3-7.52,20.86-17.79,23.74-32.12a15.78,15.78,0,0,0-2.47-12.81,6.19,6.19,0,0,1-1.64-4.06c8.94,2.41,16.26,16,13.08,25.79-5.52,17.08-16.73,28.7-34.85,32C843,812.51,837,810.29,832.2,806Z"/><path class="ededb384-06c2-4e3f-b974-58f6cd5d1947" d="M949.3,553.19c22.2,1.81,29.54-14.83,31.75-30.73,1.38-9.93.2-19.58-6-28,4.43.45,6.71,3.81,9.13,6.88,12.44,15.81,8.12,42.74-8.6,53.88-8.19,5.45-10.58,5.37-18.2-.55C955,552.76,951.77,554.91,949.3,553.19Z"/><path class="ededb384-06c2-4e3f-b974-58f6cd5d1947" d="M911.6,696.81c-5.45-2.75-10.94-5.4-16.31-8.29-2.36-1.27-3-3.19-2.49-6.21s2.08-3,4.22-3.6c11.76-3.32,23.81-5.33,35.8-7.48,8.82-1.58,9.13-8.84,11.45-14.93,3.84,2,8.19,4.08,7.58,9.15a13.42,13.42,0,0,1-9.11,11.48c-8.1,3-16.64,4.23-24.93,6.45a38.41,38.41,0,0,0-5.22,1.59c-4.94,2.12-5.65,5.47-2.21,9.76A15.32,15.32,0,0,1,911.6,696.81Z"/><path class="ededb384-06c2-4e3f-b974-58f6cd5d1947" d="M927.4,471.15c16.93.22,20.41-9.72,23.67-23.55,1.41-6,1.62-12.16,3.46-18.05,1-3.25,2.2-6.3,6.41-6.58,4.39-.29,6.76,2.17,8.32,5.78a31.91,31.91,0,0,1,1.23,4.25c-3.69-.35-5.34,2-6.51,4.95-2.52,6.39-2.86,13.23-4.1,19.89-2.1,1.12-3.34,2.45-3.13,5.25.25,3.23.69,6.56-.3,9.79-1.47-4.89-3.72-1.4-5.25-.27-7.29,5.36-13.58,6.05-20.65,2C929.12,473.78,927.57,473.1,927.4,471.15Z"/><path class="ededb384-06c2-4e3f-b974-58f6cd5d1947" d="M312.9,938.41c-5-1.67-10-3.43-15-5-2.5-.78-1.83-2.32-1.26-3.88q7.74-21.3,15.53-42.57c1.18-3.26,2.41-6.5,3.62-9.74a3.65,3.65,0,0,0,1.44,2.42c7,4.71,7.23,5.31,4.58,13.39-3.39,10.36-7.21,20.58-10.42,31C309.86,928.83,308.56,934,312.9,938.41Z"/><path class="ededb384-06c2-4e3f-b974-58f6cd5d1947" d="M961.33,473.76c16.87-3.15,21.7-16.14,22.95-28.44a45.51,45.51,0,0,0-7.87-31.54c13.7,5.68,19.77,26.29,17.67,39.48-1.88,11.79-7.89,20.48-19.08,25.18-3.7,1.56-7.23,1.79-9-2.82C965,473.2,962.93,474.23,961.33,473.76Z"/><path class="ededb384-06c2-4e3f-b974-58f6cd5d1947" d="M954.94,537.44c-3.72.23-5.37,2-5.31,5.91,0,2.38-1,4.78-1.51,7.16-.93-4-3.27-1.68-4.82-.83-6,3.27-11.83,3.87-17.76,0-1.38-.91-2.92-1.58-3.18-3.47,12.76,1,19-6.79,23-17.34,2.27-5.9,4.39-11.84,6.61-17.75a29.11,29.11,0,0,1,1.52-3.13c1.49-2.81,3.58-4.95,7-4.72,3.63.25,5.32,2.94,6.65,5.95a7.68,7.68,0,0,1,.79,5.29c-4,.26-6.18,3.1-7.44,6.31C958.37,526.21,956.77,531.87,954.94,537.44Z"/><path class="ededb384-06c2-4e3f-b974-58f6cd5d1947" d="M613.08,605.85Q589,588.42,565,571a26.53,26.53,0,0,0-2.54-1.46c1.05-4.9,5.06-3.82,7.82-3,3.36.94,6.62,1.94,10.14,2,.62,0,1.65.18,1.79.55,2,5.36,7.38,6.22,11.55,8.67.7.42,1.82,1,1.82,1.59,0,5.82,5,6.71,8.66,8.89,1,.59,1.94,1.82,3,1.52,4.6-1.31,6.16,3.58,9.68,4.69,1.91.6,1.1,4.2,0,6.25A48.26,48.26,0,0,1,613.08,605.85Z"/><path class="ededb384-06c2-4e3f-b974-58f6cd5d1947" d="M820.13,641c1.22,1.71-1.85,4.86,1.3,5.52,3.3.69,7.11.25,9.75-2a12.36,12.36,0,0,1,11.61-2.33,13.82,13.82,0,0,1,7.86,6.83c1.81,4,4.26,4.45,7.77,4.28a9.45,9.45,0,0,1,2.79.76,2.17,2.17,0,0,1-.45,2.41c-5.39.81-6,2-3.23,5.6-1.32,3.11-6.09,4.12-10.2,2a35.45,35.45,0,0,1-4.45-3.1c-5.58-4.08-11.94-4.55-18.5-3.95-3.85.35-6.91-.49-8.19-4.64C814.72,647.68,816.05,643.73,820.13,641Z"/><path class="ededb384-06c2-4e3f-b974-58f6cd5d1947" d="M523.25,973.05c5.92,0,8.48-3.52,8.9-8.83.87-11.15,6.43-16.68,17.92-16.15,2.88.13,5.84-1,8.73-1.74,3.84-.94,6.7-.23,8.08,4a18.36,18.36,0,0,0,2.31,3.7A87.67,87.67,0,0,0,555,956.32c-5.67,1.5-9.64,4.54-11.72,10.32s-4.76,11.47-12.44,11.78C526.74,978.59,524.07,977.26,523.25,973.05Z"/><path class="ededb384-06c2-4e3f-b974-58f6cd5d1947" d="M736.45,568.69a6.73,6.73,0,0,1-1.48.09c-2-.32-4.83,2.79-5.69.13-.92-2.84,2.88-3.51,4.92-4.4,4.11-1.81,8.21-3.58,11.52-6.67,1.43-1.34,2.63-.74,4.09-.31,4.44,1.3,8,4.08,11.35,7s7.9,4.21,10.11,8.5c.77,1.49,2.34,1.15,3.24-.21a18.2,18.2,0,0,0,1.7-3.56c.63-1.63-.74-4.07,1.31-5,2.29-1,4.86-.71,7.34-.1,5.18,1.28,9.08,6.36,15.13,5.12.2,0,.8.67.8,1,0,5.68,4.68,9.76,5.35,15.42-3.64-1.46-4.92-6.29-9.4-6-3.17.07-4.1-2.94-6.1-4.47-2.35-1.8-4.34-4.1-7.63-4.26-4.77-.23-5.83.9-4.26,6.15-3.28-3.81-6.07-1.71-8.14-.08-4.16,3.28-6.63,2.11-9.27-1.86-3.7-5.56-7.74-10.57-15.34-11.41C741.26,563.27,739.54,566.93,736.45,568.69Z"/><path class="ededb384-06c2-4e3f-b974-58f6cd5d1947" d="M611.4,956.08c6.73-3.72,14.52-4.31,21.53-7.31a203.56,203.56,0,0,1,20.54-7.53c3.89-1.19,4.67-2.86,2.82-6.2,2,.47,4.23.2,5.77,2.28,3,4.08,2.76,7.78-2.47,10.43a150.55,150.55,0,0,1-39.94,14C615.7,962.55,613,959.66,611.4,956.08Z"/><path class="ededb384-06c2-4e3f-b974-58f6cd5d1947" d="M661.07,527.74c3-1.3,5.41-2.6,6.55-6.5,2-7,10.52-8.33,14.86-2.68,1.64,2.14,5,2.17,5.75,5.16,0,.17.74.39.82.31,4.68-5.27,4.56.7,6.23,2.6.38.43,1.5.88,1.74.68,4.12-3.45,7.51,1.43,11.46,1,2-.21,5.42-.22,5,3.71-.33,3.36-2,4.69-5.61,4.61-2.44,0-5.15-1.8-7.57.48-.66.61-.83-.45-1.2-.91-1.8-2.28-3.7-4.19-6-.48a2.58,2.58,0,0,1-1.57,1.06c-1.73.25-10-6.15-9.76-7.79.56-3.62-1.83-3.64-3.93-3.24-4,.77-8.37.09-12.15,2.35a4.7,4.7,0,0,1-4.35,0l-.34-.07Z"/><path class="ededb384-06c2-4e3f-b974-58f6cd5d1947" d="M579.3,963.82c3.45-1.85,7.39-1.62,11.05-2.62s4-2.37,1.68-5c-9.53-11.07-18-22.95-26.62-34.72-4.88-6.69-9.37-13.67-14-20.52,6.18,1.08,9.55,5.76,12.64,10.42,10.34,15.56,22,30.12,33.13,45.12,2,2.68,5.44,5.66,1.48,9.47-3.5,3.38-10.41,4.21-13.72,1.67C583.12,966.23,582,963.86,579.3,963.82Z"/><path class="ededb384-06c2-4e3f-b974-58f6cd5d1947" d="M946.68,613.11c0,2.3-1.25,2.39-3,1.8a66.23,66.23,0,0,1-7-2.45c-2.65-1.25-7-.56-7.77-3.43-.68-2.46,1.33-5.65,2.14-8.52q3.82-13.63,7.63-27.26a3.78,3.78,0,0,0,2,2.06c5.78,2.05,7.35,5.2,6.24,11.24-1.37,7.41-4.15,14.59-3.68,22.3C943.43,611.12,943.51,613.31,946.68,613.11Z"/><path class="ededb384-06c2-4e3f-b974-58f6cd5d1947" d="M852.7,747.07c-5,.71-9.07,3.64-13.49,5.73-6.68-2-14.77,4-16.38,12.22-2.69,2.78-5.7,4.92-9.45,2.18s-2.82-6.46-1.35-9.9c4.09-9.6,11.29-13.27,21.29-10.79,2.13.53,2.88-.35,4-1.71,2.12-2.51,3.37-5.72,6.13-7.7,3.55,2,7.16,4,7.23,8.92C850.71,746.38,852,746.72,852.7,747.07Z"/><path class="ededb384-06c2-4e3f-b974-58f6cd5d1947" d="M953.09,635.44A550.06,550.06,0,0,0,969,582.27c.2-.78.1-1.68,1.07-2,5.43,3.28,6.74,5.86,4.89,12.85-3.09,11.67-5.63,23.5-9.81,34.87-1.1,3-2.56,5.8-5.15,7.78C957.66,637.49,955.26,638.17,953.09,635.44Z"/><path class="ededb384-06c2-4e3f-b974-58f6cd5d1947" d="M625.75,936.82c-.22.24-.4.59-.68.7-7.49,3-7.73,3-10.14-4.49-4.69-14.63-9.09-29.35-13.61-44,8,2.13,10.24,8.78,12.43,15.57q4.31,13.38,8.91,26.67A13.06,13.06,0,0,0,625.75,936.82Z"/><path class="ededb384-06c2-4e3f-b974-58f6cd5d1947" d="M927.86,528.9c-2.53,4.11-5.21,1.59-7.09-.31-5.14-5.19-3-24.42,7.49-25.76,4-.51,5.13-2.53,4.78-6.32a63.07,63.07,0,0,1,.31-8.45c-.76,7.39,5.75,6.62,9.74,8.68l-6.23,12.95c-5.31,1.4-7.72,5.43-8.69,10.32C927.6,522.89,927.93,525.93,927.86,528.9Z"/><path class="ededb384-06c2-4e3f-b974-58f6cd5d1947" d="M913.15,604.32a6.22,6.22,0,0,1-1.44-.06c-10.53-3.21-10.58-3.23-7.68-13.81,2.21-8.11,4.55-16.18,6.84-24.26.15.29.24.77.47.86,8.4,3.13,6,9.68,4.86,15.69C914.86,589.89,912,596.81,913.15,604.32Z"/><path class="ededb384-06c2-4e3f-b974-58f6cd5d1947" d="M940.61,424.92c-.44,3.26-.72,6.57-2.6,9.44-7.28,4.87-9.07,11.66-5.19,19.77-2.62,3.42-5.11,1.84-7.29-.4-7.11-7.31-4.08-23.1,5.35-26.65,3.17-1.2,1.57-3.57,2.54-5.19A20.49,20.49,0,0,1,940.61,424.92Z"/><path class="ededb384-06c2-4e3f-b974-58f6cd5d1947" d="M254.09,930.17c5.43.24,8.64-3.7,11.71-7a28.83,28.83,0,0,0,7.34-13.78c.19-1,.72-2.17.34-2.84-2.37-4.15-1-8.31-.29-12.48,6.26,5.13,8.54,11,4.77,18.93-2.64,5.57-3.78,11.76-7.85,16.8C264.83,936.31,260.11,936.62,254.09,930.17Z"/><path class="ededb384-06c2-4e3f-b974-58f6cd5d1947" d="M852.89,500.63c-1.37-.2-.88-2.88-2.67-2.17-.48.19-.41,1.76-.77,3.66-.61-2.88-1.35-4.6-3.94-4.73-4.17-.19-3.55-2.37-1.78-4.91,3.26-4.67,7.87-6.4,13.75-4.82,2.92.79,5.07,1.69,6.09-2.75.82-3.59,4.4.65,6.39-1l0,.05c-.25.93-.19,2.26-.79,2.73-5.07,3.89-3.83,8.8-2.47,13.77C862.16,502.37,857.49,499.39,852.89,500.63Z"/><path class="ededb384-06c2-4e3f-b974-58f6cd5d1947" d="M547.72,553.57c.21-1.25,1-2.71-.72-3.45a3,3,0,0,0-3.58,1,10.28,10.28,0,0,1-2.11,2.06c-2.48,1.54-5.48,1.25-6.58-1.07-1.53-3.26-1.14-7.27.13-10.62,1-2.66,3.71-4.16,6.86-4.1a26.92,26.92,0,0,0,3,0c7.72-.86,7.72-.87,10.77,6.45a3.3,3.3,0,0,1-1.16,3.17c-1,.22-2.27.2-2.46,1.69a10.62,10.62,0,0,1-3.45,5.3.47.47,0,0,1-.44,0C547.84,553.92,547.79,553.72,547.72,553.57Z"/><path class="ededb384-06c2-4e3f-b974-58f6cd5d1947" d="M219.79,895.72c-4-2.57-4.3-7-4.32-10.87-.06-11.66,9.83-26.58,22.31-28.09a18.72,18.72,0,0,1,11.89,2c-13.19,1.2-25.46,11-29.12,23.17C219.2,886.47,220.54,891.15,219.79,895.72Z"/><path class="ededb384-06c2-4e3f-b974-58f6cd5d1947" d="M676.22,487.07c4.11-1.85,6.75-1.33,6.44,4,0,.9.21,1.74,1.24,1.77,1.58.06,3.58-.6,3.79-1.85.65-3.82,4.56-6.38,2.84-11.43-1.41-4.11,3.9-5.93,6.8-8.39-1.2,3.18-4.36,5.84-3.34,9.33,1.42,4.87,5.8,1.83,9.07,2.63-5,1-7.35,4.56-9.53,8.47s-6.33,1.53-9.48,2.44c-2,.56-3.24-1.11-3.11-3.4.08-1.31-.49-2.39-2-2.25s-1.12,1.46-1.14,2.33c-.09,5.87-5,7.5-8.78,10.14.14-1.58,1.43-3.24-.35-4.68C671.33,493.24,672.72,489.29,676.22,487.07Z"/><path class="ededb384-06c2-4e3f-b974-58f6cd5d1947" d="M276,887.28a28,28,0,0,0-2.1-23.62c-.46-.84-1.16-1.64-.73-2.72,7.44,3.56,13.7,16.53,11.62,24.09C283.61,889.44,279.77,890.42,276,887.28Z"/><path class="ededb384-06c2-4e3f-b974-58f6cd5d1947" d="M895,748.17a44.8,44.8,0,0,0,9.13-14c7.75,6,8.24,9.66,2,15.34C902,753.3,898.45,751.13,895,748.17Z"/><path class="ededb384-06c2-4e3f-b974-58f6cd5d1947" d="M871.81,605.78c-1.75,1.19-2.63.51-3.33-.12-2-1.78-3.2-4.56-6.77-1.47-1.3,1.13-5.09-.44-5.46-3.51-.29-2.42-1.91-4.14-3.5-4.32-3.48-.39-4.29-2.81-6.23-6.31,6.68,4.05,13.84,2.76,19.44,6.64C869.13,598.89,868.8,603.22,871.81,605.78Z"/><path class="ededb384-06c2-4e3f-b974-58f6cd5d1947" d="M829.92,588.91c-1.81.05-1.65,1.75-2.06,2.75-1.35,3.32-3.76,3.94-6.86,3.05s-4.5-3.23-4.73-6.31a2.18,2.18,0,0,1,.61-1.72c3.35-2.4,6.67-4.87,10.22-7,2.19-1.29,3.42.18,2.52,2.24-1.12,2.53-.23,4.69.24,7Z"/><path class="ededb384-06c2-4e3f-b974-58f6cd5d1947" d="M743.42,861.81c-3.4-2.14-7-3.69-11.12-3.51-1.45.07-3.62.2-2.75-2.09,2.27-5.93-1.18-10.43-3.3-15.3,5.71,1.82,9.14,6,11.76,11.13C739.71,855.35,741.61,858.56,743.42,861.81Z"/><path class="ededb384-06c2-4e3f-b974-58f6cd5d1947" d="M596.33,494.71c-1.5-1.15-3.65-2.37.14-3.26,14.19-3.33,22.63-14.06,31.15-24.53,1.61-2,3.08-2.6,5.31-2.33-1.28,6-5,10.34-9.89,13.66a171.22,171.22,0,0,0-16.34,13A12.5,12.5,0,0,1,596.33,494.71Z"/><path class="ededb384-06c2-4e3f-b974-58f6cd5d1947" d="M733.59,607.42a29.24,29.24,0,0,1-4,19.5c-.58,1-1.47,2-2.85,1.08s-2.27-2.52-1.62-3.84c2-4.18-.79-10.44,5.65-12.83C732,610.87,732.66,608.77,733.59,607.42Z"/><path class="ededb384-06c2-4e3f-b974-58f6cd5d1947" d="M747.64,445.71c-4.29,1.1-7.76,3.48-11.09,6.23-2,1.66-2.51,3.36-1.58,5.64.35.85,1.56,1.69.46,2.58s-2.17.18-3.16-.52c-3.64-2.55-3-8.44,1.82-11,4-2.09,8.61-2.93,13-4.32C747.25,444.78,747.44,445.25,747.64,445.71Z"/><path class="ededb384-06c2-4e3f-b974-58f6cd5d1947" d="M668.69,496.16c1.78,1.44.49,3.1.35,4.68l-.11.11-2.5.32-6.22,1c.62-2.28,1.15-4.27,1.69-6.27.49-1.77.21-3.07-2-3.22l.07.08c1.24-2.06-1.56-6,2-6.47s2.48,3.83,3.62,5.92A9.76,9.76,0,0,0,668.69,496.16Z"/><path class="ededb384-06c2-4e3f-b974-58f6cd5d1947" d="M225.07,917.15c6.16,1.81,12.13,4.5,18.8,3.88.86-.08,2,.24,1.88,1.14-.6,4,2.92,4.67,5,6.54C241.43,926.48,232.12,924.32,225.07,917.15Z"/><path class="ededb384-06c2-4e3f-b974-58f6cd5d1947" d="M565.63,528.69c-1.37-3.26,1.61-5.11,2.67-7.47,2.21-4.93,9.68-8.77,13.35-7.51-4.91,4.42-7.52,10.95-13.34,14.52C567.47,528.75,566.67,529.44,565.63,528.69Z"/><path class="ededb384-06c2-4e3f-b974-58f6cd5d1947" d="M856.1,526.48a9.34,9.34,0,0,1-9.57,8.89,2.93,2.93,0,0,1-2.61-1.89c-.66-1.53.75-1.86,1.87-2.2,3.05-.91,5.42-2.48,6.63-5.67.46-1.2-.56-3.74,1.66-3.46S855.89,524.92,856.1,526.48Z"/><path class="ededb384-06c2-4e3f-b974-58f6cd5d1947" d="M645,474.91c-4,.41-5.13-2.65-6.26-5.31-.83-2,1.2-1.92,1.87-1.25,1.83,1.8,3.69.92,5.56.56,1.7-.32,3.77-1.69,4.46,1,.52,2.07-1,3.36-2.84,4.06C646.89,474.36,645.94,474.62,645,474.91Z"/><path class="ededb384-06c2-4e3f-b974-58f6cd5d1947" d="M915.34,717c2.19-3.95,3.75-8.28,6.83-11.71.25.78.28,1.77.79,2.29,2,2.07,3.22,4.3,1.79,7.1s-4.29,2.63-7,2.51C917,717.2,916.16,717.11,915.34,717Z"/><path class="ededb384-06c2-4e3f-b974-58f6cd5d1947" d="M830.56,535.71c-2-.47-3.11-2.39-2.21-3.64,3.61-5-.17-5.17-3.57-5.74,4.32-3.73,7.78-1.75,9.85,5.42A9.12,9.12,0,0,1,830.56,535.71Z"/><path class="ededb384-06c2-4e3f-b974-58f6cd5d1947" d="M829.86,589a15,15,0,0,1,10-1.65c-7.43,1.57-5.35,5.71-4.11,9.87-1.81.43-3.6-1-5.18.07a10.65,10.65,0,0,1-.14-6.37c.22-.73.77-1.58-.48-2Z"/><path class="ededb384-06c2-4e3f-b974-58f6cd5d1947" d="M772.5,437.37c.59-2.18,1.82-3.56,3.82-3.51,2.46.06,3.76,2.45,5.72,3.59.22.13.05,1.19-.16,1.74-.48,1.26-1.4,1.06-2.43.67C777.16,439,774.85,438.2,772.5,437.37Z"/><path class="ededb384-06c2-4e3f-b974-58f6cd5d1947" d="M807.86,578.56c-2.27-1.22-4.09-2.88-4.55-5.51a3.23,3.23,0,0,1,1.39-3.49c1.3-.65,1.92.93,2.72,1.68,1.19,1.11,2.71,2,3,3.83Z"/><path class="ededb384-06c2-4e3f-b974-58f6cd5d1947" d="M901.51,655.4c.67-1.71,1.92-1.5,3.21-.92,3.41,1.54,6.8,3.13,10.7,4.92-3.52,1-6.32,2.36-9.51,2C908.07,656.73,903.35,657.12,901.51,655.4Z"/><path class="ededb384-06c2-4e3f-b974-58f6cd5d1947" d="M811.57,600.43c4-2.68,7.53-1.95,12.11,2.33C819,604.25,815.77,601,811.57,600.43Z"/><path class="ededb384-06c2-4e3f-b974-58f6cd5d1947" d="M837,567.55c-4,1.93-5.3-.15-6.23-2.79-.57-1.64,0-3.21.58-4.73a1.43,1.43,0,0,1,1.3-.37c1.93.82,1.16,2.59,1,3.85C833.23,565.93,835.59,566.05,837,567.55Z"/><path class="ededb384-06c2-4e3f-b974-58f6cd5d1947" d="M299.68,948.67a103.14,103.14,0,0,1,24.13,7.57A58.16,58.16,0,0,1,299.68,948.67Z"/><path class="ededb384-06c2-4e3f-b974-58f6cd5d1947" d="M874.62,496.7c-.79-2.36,1.08-4.72-.75-7.45-1.28-1.89,1.76-2.76,3.71-3C880.18,491.28,879.41,494,874.62,496.7Z"/><path class="ededb384-06c2-4e3f-b974-58f6cd5d1947" d="M573.82,679.38l.07.16c-1.63,3.6-4,6.34-8.29,6.39-2.58,0-4.49-1.1-4.6-4.07l0,.06c3.31.74,6.61,1.57,9.63-.92C571.52,680.23,572.16,678.74,573.82,679.38Z"/><path class="ededb384-06c2-4e3f-b974-58f6cd5d1947" d="M659.94,492.82c-.12.79-.25,1.58-.36,2.37-.31,2.22-.68,4.42-3.72,4.06-2.13-.26-1.37-1.82-1.19-3,.38-2.62,1.27-4.54,4.49-3,.2.1.57-.18.85-.28Z"/><path class="ededb384-06c2-4e3f-b974-58f6cd5d1947" d="M328.13,957.26l3-8.94a19.06,19.06,0,0,0,1.59,2.42c1.36,1.57,3.51,3,1.68,5.37C332.76,958.24,330.62,959.1,328.13,957.26Z"/><path class="ededb384-06c2-4e3f-b974-58f6cd5d1947" d="M551.85,548.65c.19-1.49,1.41-1.47,2.46-1.69l9.87,5.1C559.77,551.61,556.23,548.82,551.85,548.65Z"/><path class="ededb384-06c2-4e3f-b974-58f6cd5d1947" d="M838.45,450.07a36.17,36.17,0,0,0-4.25,1.38,3.79,3.79,0,0,1-4.29-.28,2.93,2.93,0,0,1-1.28-1.95c.07-.78,1.07-1.08,2-1.18C833,447.79,835,449,838.45,450.07Z"/><path class="ededb384-06c2-4e3f-b974-58f6cd5d1947" d="M816.21,564.56c-.4-.47-1.25-1.2-1.15-1.37,1.67-2.77,1.82-6.64,5.59-7.91C821.37,559.43,819.86,562.5,816.21,564.56Z"/><path class="ededb384-06c2-4e3f-b974-58f6cd5d1947" d="M851.3,520.42c1.88-2.11.2-5.8,4.3-5.08.91.16,2.3,0,2.18,1.41C857.49,520.05,855,520.27,851.3,520.42Z"/><path class="ededb384-06c2-4e3f-b974-58f6cd5d1947" d="M834.25,577.66c1.8-1.51,3.51-3.13,5.44-2,1.08.66.75,2.72-.25,3.62C836.58,581.89,836.75,576.47,834.25,577.66Z"/><path class="ededb384-06c2-4e3f-b974-58f6cd5d1947" d="M907.75,619.54c4.67.78,9.19,2,13.07,4.85C915.82,624.49,911.33,623.25,907.75,619.54Z"/><path class="ededb384-06c2-4e3f-b974-58f6cd5d1947" d="M558.23,536.21c-.33-4.67,2.79-6,6.51-6.65A10.69,10.69,0,0,1,558.23,536.21Z"/><path class="ededb384-06c2-4e3f-b974-58f6cd5d1947" d="M857.53,662.14c-2.82-3.63-2.16-4.79,3.23-5.6C861.72,659.58,861.64,662,857.53,662.14Z"/><path class="ededb384-06c2-4e3f-b974-58f6cd5d1947" d="M572.38,554.42c-2.32,2.61-4,2.19-5.69,1.19-.1-.06.06-.85.29-1.15C568.67,552.23,570.07,554.31,572.38,554.42Z"/><path class="ededb384-06c2-4e3f-b974-58f6cd5d1947" d="M923.83,625.42c4.6.59,9,1.7,12.69,4.75C932,629.39,927.32,629,923.83,625.42Z"/><path class="ededb384-06c2-4e3f-b974-58f6cd5d1947" d="M937.84,630.4c3.63.48,7.24,1,10,3.82C943.81,634.72,940.58,633.19,937.84,630.4Z"/><path class="ededb384-06c2-4e3f-b974-58f6cd5d1947" d="M786.9,443c-.26-2-3.23.63-3.1-1.78a3,3,0,0,1,1.18-2.06c.9-.6,1.95,0,2.77.52,3,2-2.26,1.81-.91,3.39Z"/><path class="ededb384-06c2-4e3f-b974-58f6cd5d1947" d="M249.16,898.07c1.54,1.29,6.57-.24,3.73,4.61C251.51,901.25,249.63,900.23,249.16,898.07Z"/><path class="ededb384-06c2-4e3f-b974-58f6cd5d1947" d="M882.24,739.93a8.49,8.49,0,0,1,5.6,3.73C885.47,743.17,883.09,742.7,882.24,739.93Z"/><path class="ededb384-06c2-4e3f-b974-58f6cd5d1947" d="M888.22,744a9,9,0,0,1,5.6,3.61A6.83,6.83,0,0,1,888.22,744Z"/><path class="ededb384-06c2-4e3f-b974-58f6cd5d1947" d="M666.43,501.27l2.5-.32c.37,2.46-1,2.69-2.91,2.32A1.86,1.86,0,0,1,666.43,501.27Z"/><path class="ededb384-06c2-4e3f-b974-58f6cd5d1947" d="M878.11,737.12a4.41,4.41,0,0,1,3.78,2.49C880.07,739.62,878.64,739.05,878.11,737.12Z"/><path class="ededb384-06c2-4e3f-b974-58f6cd5d1947" d="M869.25,731a2.54,2.54,0,0,1,2.51,1.8C870.55,732.67,869.35,732.58,869.25,731Z"/><path class="ededb384-06c2-4e3f-b974-58f6cd5d1947" d="M863.24,727a2.59,2.59,0,0,1,2.53,1.74C864.55,728.68,863.41,728.55,863.24,727Z"/><path class="ededb384-06c2-4e3f-b974-58f6cd5d1947" d="M872.12,733.07a1.43,1.43,0,0,1,1.87,1.21C873,734.37,872.21,734.29,872.12,733.07Z"/><path class="ededb384-06c2-4e3f-b974-58f6cd5d1947" d="M866.17,729.05a1.43,1.43,0,0,1,1.85,1.14C867.05,730.37,866.23,730.32,866.17,729.05Z"/><path class="ededb384-06c2-4e3f-b974-58f6cd5d1947" d="M860.2,725a1.42,1.42,0,0,1,1.83,1.18C861.05,726.38,860.28,726.24,860.2,725Z"/><path class="ededb384-06c2-4e3f-b974-58f6cd5d1947" d="M518.12,973.52c.46-.69,1-.59,1.65-.25C519.3,973.93,518.71,973.72,518.12,973.52Z"/><path class="ededb384-06c2-4e3f-b974-58f6cd5d1947" d="M601,888.45a1.05,1.05,0,0,1-.49-1.51Z"/><path class="ededb384-06c2-4e3f-b974-58f6cd5d1947" d="M629.59,935.93c-.4.51-.85.86-1.53.5Z"/><path class="ededb384-06c2-4e3f-b974-58f6cd5d1947" d="M296.87,947.5c.79-.39,1.44-.45,1.6.66C297.74,948.41,297.15,948.32,296.87,947.5Z"/><path class="ededb384-06c2-4e3f-b974-58f6cd5d1947" d="M7,777.92a1.24,1.24,0,0,1,1.43-1c.13,0,.21.43.31.66l-1.8.24Z"/><path class="ededb384-06c2-4e3f-b974-58f6cd5d1947" d="M6.93,777.86c.07.85-.51.92-1.13.9-.11,0-.22-.2-.33-.3L7,777.92Z"/><path class="ededb384-06c2-4e3f-b974-58f6cd5d1947" d="M607.23,956.66c.42-.67,1-.54,1.61-.35C608.44,957.06,607.84,956.88,607.23,956.66Z"/><path class="ededb384-06c2-4e3f-b974-58f6cd5d1947" d="M223.24,916.1c.71-.12,1.27,0,1.38.87A1.1,1.1,0,0,1,223.24,916.1Z"/><path class="ededb384-06c2-4e3f-b974-58f6cd5d1947" d="M366.22,965.18a1,1,0,0,1,1.32.75C366.91,966,366.41,965.87,366.22,965.18Z"/><path class="ededb384-06c2-4e3f-b974-58f6cd5d1947" d="M976.05,413.42l-.73-.47Z"/><path class="ededb384-06c2-4e3f-b974-58f6cd5d1947" d="M273.83,886.59c.53-.31.79-.18.71.46Z"/><path class="ededb384-06c2-4e3f-b974-58f6cd5d1947" d="M905.85,618.94c.41-.63.61-.55.62.19l-.35,0Z"/><path class="ededb384-06c2-4e3f-b974-58f6cd5d1947" d="M271.12,858.44c-.61.12-.79-.13-.6-.69C271.05,857.7,271.22,858,271.12,858.44Z"/><path class="ededb384-06c2-4e3f-b974-58f6cd5d1947" d="M857.93,723.38c.52-.15.75,0,.67.57Z"/><path class="ededb384-06c2-4e3f-b974-58f6cd5d1947" d="M252.88,929.57c.46-.31.69-.17.7.37h-.45Z"/><path class="ededb384-06c2-4e3f-b974-58f6cd5d1947" d="M726,840.58l-.73-.53Z"/><path class="ededb384-06c2-4e3f-b974-58f6cd5d1947" d="M869.89,752.61l-.69-.48Z"/><path class="ededb384-06c2-4e3f-b974-58f6cd5d1947" d="M220.86,897.64l-.55-.73Z"/><path class="ededb384-06c2-4e3f-b974-58f6cd5d1947" d="M325.82,956.84c.49-.59.74-.56.71.26l-.43.08Z"/><path class="ededb384-06c2-4e3f-b974-58f6cd5d1947" d="M412.09,903.24l-.6-.44A.46.46,0,0,1,412.09,903.24Z"/><path class="ededb384-06c2-4e3f-b974-58f6cd5d1947" d="M10.81,776.27l-.18.31-.51-.32c.12-.11.24-.29.35-.29S10.7,776.16,10.81,776.27Z"/><path class="ededb384-06c2-4e3f-b974-58f6cd5d1947" d="M368.87,966.63c.49-.29.69-.14.64.41A.46.46,0,0,1,368.87,966.63Z"/><path class="ededb384-06c2-4e3f-b974-58f6cd5d1947" d="M494,910.48l-.67-.53Z"/><path class="ededb384-06c2-4e3f-b974-58f6cd5d1947" d="M352.51,628.36c4.09-5.74,9.65-10.06,13.68-15.75C389,580.41,396.12,545.94,379,509.15c-9.6-20.61-26.45-34.24-48-41.81-2.34-.82-4.66-1.71-7-2.58-.11-.05-.16-.26-.39-.66,7.35-4.16,14.56-8.52,20.84-14.31A79.75,79.75,0,0,0,370,401.89c3.33-22-1.24-42.34-14.17-60.65a10.55,10.55,0,0,1-1.93-4c-.56-3.16-.52-7.13,1.93-8.71,2-1.28,3.83,2.41,5.49,4.09,17.75,17.9,26.06,39.42,23.67,64.61-2,20.65-11.84,37.38-27,51.23-.48.44-1.1,1.16-1.59,1.11-8.67-.87-11.14,6.5-15.4,11.49a3.78,3.78,0,0,0-1,1.7c-.63,4.56,3.38,6.25,5.9,8.55,2.23,2,4.64,5.47,8.34,3.85,1.6-.7,2.27-.86,3.78-.06q31.32,16.56,41.8,50.32c.8,2.57,1,4.76-.82,6.94-1.57,1.85-1.71,3.82-1.46,6.4.43,4.47.66,8.16,6.38,8.55,1.78.12,1.72,2.14,1.77,3.67.37,11-2.54,21.34-5.5,31.71-.84,2.94-3.49,3.44-5.84,4-2.8.64-5,1.85-6.17,4.5-3.54,8-8.91,14.68-14.51,21.22C367.88,619.26,360.4,624.05,352.51,628.36Z"/><path class="ededb384-06c2-4e3f-b974-58f6cd5d1947" d="M428.29,741.66c-6.34,1.65-12-1-17.88-2.2a501,501,0,0,0-50-7.63c-15.95-1.65-31.91-2.43-47.92-3.09-7.79-.33-15.47-.3-23.25,0-8.7.28-17.47-1.08-26.19-2-1.52-.15-4-.22-4.06-2.82,0-2.4,1.63-3.5,3.74-4a18.11,18.11,0,0,1,3.43-.52c53.78-1.69,106.46,4.92,157.91,20.84C425.53,740.64,426.9,741.17,428.29,741.66Z"/><path class="ededb384-06c2-4e3f-b974-58f6cd5d1947" d="M425,409.82c0-15,0-30,0-45,0-1.52-.63-3.74,2-3.81,2.79-.08,5.68-.66,8.33.59.29.14,0,1.86-.28,2.77-1.18,3.9-1,7.88-1,11.87q0,34.25,0,68.49c0,3.5-.24,7,1,10.36s-.31,3.81-3.22,3.83c-6.79.06-6.79.18-6.79-6.61Z"/><path class="ededb384-06c2-4e3f-b974-58f6cd5d1947" d="M172.07,498.09c5,0,5.82.87,4.61,5.94a29.39,29.39,0,0,0-.69,6.9q0,33.69,0,67.39a38.15,38.15,0,0,0,.46,5.44c.31,2.07,1.55,4.4-.63,6s-4.84,1-7.29.71c-1.92-.2-1.47-1.94-1.47-3.18,0-28.62,0-57.25-.08-85.87C167,497.06,169.81,498.29,172.07,498.09Z"/><path class="ededb384-06c2-4e3f-b974-58f6cd5d1947" d="M167.05,398.86c0-11.8,0-23.6,0-35.4,0-1.62-.91-4.15,2-4.15s6.35-.94,9.16,1.17c.23.19.18.92.08,1.36-4.18,19.18-2.24,38.64-2.09,58,.05,5.66-.91,11.95,2.14,17.48a1.38,1.38,0,0,1-.18,1.32c-2.88,1.85-6.11.81-9.19.89-2.61.06-2-2.2-2-3.72,0-10.14,0-20.28,0-30.42Z"/><path class="ededb384-06c2-4e3f-b974-58f6cd5d1947" d="M435.61,647.16c.22.85.31,1.8-.91,1.71-4.82-.36-9.51,1-14.27,1-20.28.07-40.56-.1-60.84.07-3.84,0-5.46-.86-4.87-4.88a57.78,57.78,0,0,0,.23-7c9.36.22,18.66.62,28,1.54,10.34,1,20.68,2,30.94,3.63C421.17,644.45,428.38,645.86,435.61,647.16Z"/><path class="ededb384-06c2-4e3f-b974-58f6cd5d1947" d="M428.21,547.77l12.58.36c3.22,10.66-1.06,20.07-5.07,29.46-1.19,2.78-.58,5.54-.76,8.31-.14,2,.12,4.39-3,3.83-2.62-.47-6.81,1-6.91-3.57-.27-11.89-.11-23.8-.19-35.7C424.87,548,426.55,548,428.21,547.77Z"/><path class="ededb384-06c2-4e3f-b974-58f6cd5d1947" d="M532.32,446.46c-.9-2.69-3.72-2.74-5.85-4.37,2.63-.82,4.95-5.84,7.47.22.13.34,1.79,0,2.74,0a51,51,0,0,0,21.77-1.75,18.41,18.41,0,0,1-2.38-2.24,1.88,1.88,0,0,1-.13-1.76,1.4,1.4,0,0,1,2.18-.1,16.2,16.2,0,0,1,2.4,3.12c2.48,4,5.53,6.51,10.57,4.46,1.59-.64,3.25-.43,3.61,1.38.48,2.35-1.53,2.7-3.21,2.65-4.6-.14-9.5,1-12.87-3.93-1-1.39-3.83-3.26-4.15,1.2-.1,1.36-1.46,1.8-2.69,1.32-4-1.57-8-.9-11.87.21A9.81,9.81,0,0,1,532.32,446.46Zm.52-5.16-.33-.34a3,3,0,0,0-.31.62c0,.07.19.21.29.31Z"/><path class="ededb384-06c2-4e3f-b974-58f6cd5d1947" d="M550.4,455c-2,0-2.74-1.15-2.52-2.57.28-1.85,1.16-3.51,3.44-3.53,2.1,0,1.64,1.69,1.71,2.88A2.77,2.77,0,0,1,550.4,455Z"/><path class="ededb384-06c2-4e3f-b974-58f6cd5d1947" d="M549.88,435.13c1.54.77,3.48.91,3.86,2.87.21,1-.68,1.7-1.51,1-1.37-1.15-4-.13-4.47-2.36C547.56,435.7,548.88,435.19,549.88,435.13Z"/><path class="ededb384-06c2-4e3f-b974-58f6cd5d1947" d="M556.29,452.84c-1.3-.23-1.4-1-1.25-1.88.37-2.11,1.9-2.48,3.7-2.33.94.08,2.57.37,1.79,1.42C559.55,451.37,557.65,452,556.29,452.84Z"/><path class="ededb384-06c2-4e3f-b974-58f6cd5d1947" d="M429.9,466c.72,0,1.05.3,1,1l.07-.06-1-1Z"/><path class="ededb384-06c2-4e3f-b974-58f6cd5d1947" d="M537.5,441.34l0,.12Z"/><path class="ededb384-06c2-4e3f-b974-58f6cd5d1947" d="M430,465.9l-.62-.51c.76-.36.54.22.54.57Z"/><path class="ededb384-06c2-4e3f-b974-58f6cd5d1947" d="M584.17,475.7l.41.92-.91-.47C583.84,476,584,475.86,584.17,475.7Z"/><path class="ededb384-06c2-4e3f-b974-58f6cd5d1947" d="M870,483.88l.28-.41c-.08.16-.15.31-.23.46Z"/><path class="ededb384-06c2-4e3f-b974-58f6cd5d1947" d="M710.58,470.28c-.23-.36-.73-.83-.64-1.06.32-.76.95-.54,1.51-.18Z"/><path class="ededb384-06c2-4e3f-b974-58f6cd5d1947" d="M490.09,538c3.44-9.53,2.1-18.34-4.91-25.69-3.61-3.78-8.24-6.57-12.25-10-2.86-2.43-6.36-4.15-8.51-7.4,4.41-.49,8.63-2.06,13.17-2,10.79.17,16.32,4.51,19.21,15.6a47.93,47.93,0,0,1,1.07,6.32c.16,1.34.1,2.63,1.81,3.1,3,.82,2.85,3.65,1.94,5.23C498.48,528.6,496.46,535,490.09,538Z"/><path class="ededb384-06c2-4e3f-b974-58f6cd5d1947" d="M499.06,458.56l20.27-4.65c1.45.39,3.34,1.14,4.32.16,4-4,3.94,1.71,6,2.34,1.17.36.09,1.06-.43,1.1-1.83.16-1.13,3.89-3.95,2.64-6.76-3-13.56-3.45-20.58-.55A5.29,5.29,0,0,1,499.06,458.56Z"/><path class="ededb384-06c2-4e3f-b974-58f6cd5d1947" d="M485.7,542.73a7.52,7.52,0,0,1,4.37-4.72C490.09,541,488.9,542.78,485.7,542.73Z"/><path class="ededb384-06c2-4e3f-b974-58f6cd5d1947" d="M475.54,547.38a5.66,5.66,0,0,1,5.74-2.07C479.89,547.46,477.9,547.93,475.54,547.38Z"/><path class="ededb384-06c2-4e3f-b974-58f6cd5d1947" d="M598.83,429c-.78.59-1.09,1-1.39,1a7.38,7.38,0,0,1-1.68-.42c.28-.27.52-.71.83-.76A10.89,10.89,0,0,1,598.83,429Z"/><path class="ededb384-06c2-4e3f-b974-58f6cd5d1947" d="M482.66,544.65a1.82,1.82,0,0,1,2.53-1.57C485,544.59,484.13,545.15,482.66,544.65Z"/><path class="ededb384-06c2-4e3f-b974-58f6cd5d1947" d="M587,469.87c-.82,0-1.5-.23-1.48-1.24,0-.1.24-.29.34-.28a1.14,1.14,0,0,1,1.08,1.58Z"/><polygon class="ededb384-06c2-4e3f-b974-58f6cd5d1947" points="468.38 459.26 468.49 459.28 468.42 459.45 468.38 459.26"/><path class="ededb384-06c2-4e3f-b974-58f6cd5d1947" d="M497.43,457.42l.07.05Z"/><path class="ededb384-06c2-4e3f-b974-58f6cd5d1947" d="M750.12,815.1c3.36-.76,4.74,2,6.31,3.91,5.17,6.09,10.21,12.31,15,18.7,2.75,3.67,6.47,6.55,8.57,10.71-3.67-.23-6-2.8-8-5.25-7.12-8.5-14-17.2-20.93-25.86A8.36,8.36,0,0,1,750.12,815.1Z"/><path class="ededb384-06c2-4e3f-b974-58f6cd5d1947" d="M465,962.49a13.14,13.14,0,0,1-2,.19c-6.49-.3-8.58,1.47-6.83-7.54.71-3.65-1.76-8.65,1.3-10.73,2.47-1.67,7-.26,10.67-.21,4.46,0,8.93-.44,13.33.9,2.57.79,4.51,2,5.09,4.79a23.84,23.84,0,0,0-4.28-.91C472.52,948.68,463.12,950.29,465,962.49Z"/><path class="ededb384-06c2-4e3f-b974-58f6cd5d1947" d="M471.5,930.74c-4.18,1.43-8.46.43-12.68.45-3.16,0-2.7-2.74-2.27-4.41,1-3.81-2.94-10,2.42-11.16a38.66,38.66,0,0,1,19.13.71c1.42.42,3.52.53,2.82,3-3.73.29-7.6-.18-11,2-2.43,1.51-4.78,3-4.28,6.49C466.17,931.74,469.55,929.76,471.5,930.74Z"/><polygon class="ededb384-06c2-4e3f-b974-58f6cd5d1947" points="481.9 919.87 481.92 919.85 482.06 919.73 481.9 919.87"/><path class="ededb384-06c2-4e3f-b974-58f6cd5d1947" d="M709,848c3.18-.35,5,1.46,6.48,3.85a5.54,5.54,0,0,1-.23,6.87c-4.54,6.18-11.38,8.88-17.89,12-2.32,1.11-2.61-1.78-3-3-1.15-3.75-6.85-7.83-3.77-10.62A38.84,38.84,0,0,1,709,848Z"/><path class="ededb384-06c2-4e3f-b974-58f6cd5d1947" d="M718.73,895c-2.23,1.43-4.35,5-7,3a7.28,7.28,0,0,1-2-8.65,5.56,5.56,0,0,0,.29-3.43c-1.91-6.38,2.43-8.8,6.9-11.07a40.35,40.35,0,0,1,7.81-3.27c5.72-1.52,10.06,2.09,10,8.08a21.63,21.63,0,0,0-16.25,8C716.44,890.07,715.22,892.64,718.73,895Z"/><path class="ededb384-06c2-4e3f-b974-58f6cd5d1947" d="M404.54,915.94c-10-3.25-19.26-1.57-25.31,7-6.51,9.24-8,19.74-1.73,30.21a20.77,20.77,0,0,1,1.16,2.69c-9.16-2-13.38-8.62-15.13-17-2.62-12.56,5-26.42,16.47-30.78C388.35,904.9,399.56,908.5,404.54,915.94Z"/><path class="ededb384-06c2-4e3f-b974-58f6cd5d1947" d="M938.09,438.58l.21-1.53C938.92,437.66,938.93,438.18,938.09,438.58Z"/><path class="ededb384-06c2-4e3f-b974-58f6cd5d1947" d="M961.87,457.21l.79-.23C962.54,457.58,962.28,457.64,961.87,457.21Z"/><path class="ededb384-06c2-4e3f-b974-58f6cd5d1947" d="M936.06,512.58c.08-.25.15-.51.23-.76.05.23.1.45.13.67A2,2,0,0,1,936.06,512.58Z"/><path class="ededb384-06c2-4e3f-b974-58f6cd5d1947" d="M532.84,441.3l-.35.59c-.1-.1-.3-.24-.29-.31a3,3,0,0,1,.31-.62Z"/></g></g></svg>