<svg xmlns="http://www.w3.org/2000/svg" viewBox="0 0 3837.68 3372.16"><defs><style>.\31 b888547-799f-44c0-b517-6469565d9a92{fill:#fff;}</style></defs><title>Asset 6</title><g id="7e2d3993-904b-4668-8f64-28a10773c741" data-name="Layer 2"><g id="561d95c4-3cfa-4bc6-b727-eaa4fe432b2e" data-name="Layer 1"><path class="1b888547-799f-44c0-b517-6469565d9a92" d="M2310.21,94c-3.49,2.21-5.6,3.68-7.82,5-75.89,43.27-148.53,91.53-218.44,143.83-33.29,24.91-65.56,51.19-98.24,76.92q-8.24,6.48-16,13.51c-4,3.65-8.51,4.39-13.81,4.14-20-.93-40-2.51-59.93-1.93-34,1-68,1.8-101.75,5.52-91.73,10.14-180.32,33-265.23,69.55-130.31,56.08-242,137.8-335.76,244.13A927.14,927.14,0,0,0,1038.49,897,907.51,907.51,0,0,0,992,1030.6,939,939,0,0,0,968,1154.82a965.16,965.16,0,0,0-5.79,173.56,920.61,920.61,0,0,0,13,112c19.71,108.66,57,210.92,113,306.22,61.36,104.37,140.14,193.46,235.43,268A928.56,928.56,0,0,0,1485,2115.67c1.49.74,3.09,1.28,4.51,2.13,5,3,9.16,1.95,13.51-1.89,13-11.47,26.34-22.52,39.39-33.9,97.8-85.24,190.74-175.56,280.68-269,40.44-42,79.32-85.48,118.86-128.34,2.88-3.12,5.41-6.56,9.08-11-57.25-32.22-114.07-62.83-170-94.23a8.43,8.43,0,0,1,0-1.66,1.56,1.56,0,0,1,.53-.81,12.05,12.05,0,0,1,2.51-1.53q298-106.08,597.34-212.55c.41,2.7,1.44,5.19,1,7.41-2.54,13.66-5.47,27.24-8.15,40.87-1.28,6.49-2.24,13-3.42,19.56-3,16.6-6.22,33.17-9,49.81-3.27,19.25-6,38.6-9.39,57.83-2.5,14.35-5.9,28.53-8.42,42.87-3.39,19.23-6.13,38.58-9.49,57.82-2.45,14-5.62,27.89-8.17,41.89-2.48,13.68-4.53,27.44-6.86,41.15-2.27,13.38-4.65,26.75-7,40.12q-3.8,21.49-7.66,43c-2.6,14.34-5.28,28.66-8,43-1.21,6.5-2.59,13-3.69,19.51-4.25,25.15-8.33,50.33-12.63,75.47-3,17.62-6.23,35.22-9.46,52.81-.27,1.43-1.39,2.7-2.9,5.52l-124.41-189.29c-3.73,2.65-6.9,4.34-9.34,6.75-12.08,12-24.33,23.75-35.86,36.22-39.13,42.32-77.61,85.26-117,127.29-62.27,66.37-126.49,130.84-194.84,191-41.76,36.73-84.28,72.67-127.71,107.38a1923.13,1923.13,0,0,1-206.49,143.41A1685.48,1685.48,0,0,1,1272.69,2519c-45.11,20.31-91,38.75-138.14,53.83-24.58,7.87-49.12,16-74.08,22.45-21.73,5.62-44.09,8.75-66.05,13.55-30.24,6.61-60.9,6.71-91.45,5.35-50.59-2.24-97.35-16.64-137-49.42-28.58-23.61-48.42-53.76-62.47-87.77a329.21,329.21,0,0,1-18.6-61.72c-4.52-22.83-8.59-45.63-9.12-69-.5-22.29-2.33-44.59-1.82-66.85.49-21.23,3.23-42.42,5-63.62,1-11.24,1.85-22.5,3.15-33.7,1.14-9.88,2.64-19.74,4.31-29.54,2.38-14,5-28,7.63-42,2.05-10.73,4.06-21.48,6.59-32.11,3.53-14.82,7.52-29.54,11.35-44.28.21-.8.87-1.47,2.6-4.29.93,9.5,1.84,16.89,2.34,24.3,1.36,19.91,1.93,39.89,4,59.72,1.78,17.12,4.77,34.14,8,51,3.66,19.15,7.45,38.33,12.5,57.14,11.91,44.34,29.61,86.16,59.44,121.67C825.4,2373,855.6,2394,893.11,2403.5c27.94,7.12,55.88,10.18,84.87,6.57,20.47-2.54,40.93-5.13,60.66-10.65,23.23-6.5,46.09-14.6,68.6-23.31,35.64-13.8,69.64-31.17,102.75-50.24,2.16-1.25,4.17-2.75,6.42-4.24-315.67-217.38-505.08-512.56-558.08-893-35.25-311.74,30.18-600.23,208.32-859C1226.39,46.93,1845.43-72.52,2310.21,94Z"/><path class="1b888547-799f-44c0-b517-6469565d9a92" d="M2614.88,248.66c288.53,211.56,464.17,490.68,520,843.59C3176,1399.91,3117.35,1686.65,2949,1948c-160.71,249.52-383.93,421.4-666.23,513.35-249.63,81.32-501,80.33-754.33,5.47,2.9-2.8,4.2-4.55,5.92-5.64,47.85-30.34,94-63.2,139.25-97.2,26.33-19.77,51.91-40.57,77.45-61.37,23.75-19.34,47.09-39.17,70.43-59,10.65-9,21-18.51,31.2-28.06,4-3.7,8.19-4.91,13.52-5,35-.45,70-.21,104.89-2.16,25.87-1.44,51.68-5.23,77.35-9.09a854.79,854.79,0,0,0,105.26-23q190.62-53.85,343-180.37a942.67,942.67,0,0,0,206-238.79,923.46,923.46,0,0,0,96.14-218.68,887.62,887.62,0,0,0,26.17-115.73c10.19-66.34,14.29-133.07,10.3-200.22a1007.66,1007.66,0,0,0-15.06-124.84,920.89,920.89,0,0,0-98.28-275c-55.32-101.12-127.39-188.62-214.66-263.63A941.21,941.21,0,0,0,2331.52,440c-7.86-4.13-12.87-3.12-19.41,2.16q-71.93,58.1-141.08,119.45c-63.24,56.31-124.28,114.92-184.15,174.78q-90.51,90.5-176,185.77c-5.26,5.84-10.32,11.87-16.55,19.06,57.54,32.5,114.2,62.94,170.07,94.29a10.68,10.68,0,0,1,0,1.47c-.07.29-.2.74-.41.81q-299,107-599.3,214.35c-.34-3.42-1.15-5.93-.72-8.22,3.53-18.89,7.44-37.7,10.92-56.6,2.57-14,4.55-28.12,7-42.15,2.41-13.7,5.16-27.34,7.63-41s4.74-27.43,7.22-41.13c2.66-14.68,5.58-29.3,8.15-44,2.46-14,4.6-28.11,6.93-42.17,1.13-6.87,2.36-13.73,3.58-20.59,3.78-21.2,7.49-42.4,11.38-63.58,2.63-14.34,5.68-28.6,8.22-43,2.49-14,4.4-28.15,6.86-42.18,2.4-13.7,5.29-27.32,7.76-41,2.4-13.36,4.43-26.8,6.83-40.17,2.63-14.68,5.59-29.3,8.22-44,2.45-13.7,4.64-27.44,7-41.15,1.44-8.43,2.95-16.84,4.81-27.49,3.21,3.91,5.39,6.12,7.06,8.66q55.32,84.31,110.54,168.7c8.83,13.5,9.52,14.06,20.87,2.37,23.43-24.14,46.69-48.47,69.33-73.36,66.15-72.74,133.32-144.49,204.32-212.58,53.18-51,108-100.12,165.17-146.58,115.56-93.91,238.47-176.56,372.33-242.38a1493.07,1493.07,0,0,1,209.58-84.3c25.24-8,50.84-15.06,76.65-20.86,21-4.72,42.56-6.59,63.77-10.31,23.54-4.13,47.33-3.53,70.79-1.93,58.85,4,111.62,23.12,152.58,68,22.8,25,38.13,54.29,49.47,85.9a341.65,341.65,0,0,1,17.22,71.56c5.65,43.62,8.91,87.45,4.24,131.5-1.68,15.86-2.06,31.86-3.54,47.75-1.18,12.57-3,25.09-4.81,37.59-2.18,14.77-4.46,29.53-7.18,44.21-3.15,17-6.56,33.89-10.35,50.72-3.12,13.89-6.94,27.63-10.51,41.42-.22.86-.91,1.61-2.55,4.43-.8-10.22-1.51-18.38-2.06-26.56-1.32-19.58-1.65-39.29-4.07-58.73-2.79-22.36-7.48-44.47-11.18-66.72-4.38-26.27-11.93-51.65-21.17-76.56-10.59-28.55-24.25-55.47-43.29-79.41-25.35-31.87-56.79-54.77-96.68-65.13-27.91-7.24-55.92-10.28-84.91-6.65-20.48,2.56-41,5.16-60.68,10.75-24.49,6.94-48.33,16.26-72.37,24.77C2628.55,242.35,2622.32,245.45,2614.88,248.66Z"/><path class="1b888547-799f-44c0-b517-6469565d9a92" d="M69.56,3130.18H2.09c-2.3-7.09-3-295.18-.66-308.24,2.65-.22,5.53-.66,8.41-.67,22.33-.05,44.66.25,67-.19,6.72-.14,10,2,12.71,8.19,24.86,55.28,50.09,110.4,75.23,165.56,1.34,3,2.84,5.83,5.21,10.68,2.34-4.74,3.93-7.79,5.35-10.91,24.84-54.57,49.77-109.09,74.31-163.78,3.15-7,6.61-10.07,14.76-9.81,21.31.69,42.65.21,64,.26,3.25,0,6.49.33,10.18.53v308H270.39q-.21-97.62-.43-195.09l-2.5-.51q-36,82.53-72.08,165.16H144.57c-23.95-54.86-48.1-110.15-72.24-165.45l-2.5.46c-.58,12.7-.18,25.45-.26,38.17-.07,13,0,26,0,39v118.66Z"/><path class="1b888547-799f-44c0-b517-6469565d9a92" d="M1714.27,2822.18c3.32-.25,6.25-.66,9.18-.67,22-.05,44,.29,66-.21,7.28-.16,10.53,2.79,13.32,9q36.93,82,74.33,163.73c1.5,3.3,3.15,6.53,5.66,11.71,2.39-4.52,4.13-7.47,5.55-10.58q36.87-80.89,73.72-161.81c5.83-12.75,2.66-11.83,18.22-11.86,19.66,0,39.32,0,59,0h10.51c2.18,8.38,2.71,295.23.76,308.07h-66.69q-.06-48.95-.1-97.68c0-32.54,0-65.09,0-98.75-5.32,2.12-5.66,6.09-7,9.13q-31.83,72.77-63.53,145.57a20.59,20.59,0,0,0-1.59,3.66c-1.56,6.95-6.16,8.43-12.68,8.16a302,302,0,0,0-31,0c-7.45.44-11.2-2.22-14.16-9.12-21.12-49.28-42.65-98.38-64.08-147.51-1.38-3.17-3.07-6.2-4.61-9.29l-2.35.54v195.41h-68.44Z"/><path class="1b888547-799f-44c0-b517-6469565d9a92" d="M2646.66,3129.73h-68.34V2822.12c3.47-.22,6.73-.6,10-.61,21.66-.06,43.33.27,65-.2,7.17-.15,10.58,2.54,13.42,8.85q36.9,82,74.33,163.74c1.5,3.3,3.14,6.53,5.68,11.8,2.37-4.45,4.12-7.35,5.51-10.41q36.69-80.43,73.33-160.89c6.54-14.29,3-12.83,19.54-12.9,19.32-.08,38.65,0,58,0h10.51c2.32,8.15,3.07,292.78.93,308.58-21.6.41-43.4.23-66.67,0-.18-33.06-.15-65.57-.15-98.08s0-65.16,0-98.64c-5.34,1.68-5.61,5.72-6.93,8.74q-31.85,72.75-63.57,145.55c-5.63,12.88-2.8,11.77-18.14,11.85-8.33,0-16.74-.72-25,.19-9.74,1.08-13.87-3.23-17.49-11.76-18.59-43.83-37.84-87.39-56.86-131-2.66-6.1-5.28-12.23-8-18.3a10.88,10.88,0,0,0-3.75-4.52c-1.74,32.59-1.18,65-1.28,97.41C2646.58,3064.07,2646.66,3096.63,2646.66,3129.73Z"/><path class="1b888547-799f-44c0-b517-6469565d9a92" d="M3276.18,3129.72V2823.4c3.32-.24,6.21-.64,9.1-.64,42.31,0,84.61-.2,126.92.07,28.72.19,56.25,6.2,81.67,19.91,43.15,23.28,68,59.62,75.39,107.9,5,32.73,1.5,64.52-13.06,94.5-19.87,40.92-53.23,65.54-96.33,77.89a174.18,174.18,0,0,1-47.27,7.12c-43,.2-85.94.1-128.92.09C3281.42,3130.24,3279.16,3129.94,3276.18,3129.72Zm77.42-60.88c19.85,0,38.47.15,57.08,0,34.79-.32,62.8-20.15,75.13-52.73,6.65-17.57,7.76-35.71,5.85-54.13-4.73-45.63-39.56-77.37-85.2-77.78-14.66-.13-29.32-.07-44,0-2.86,0-5.72.49-8.88.78Z"/><path class="1b888547-799f-44c0-b517-6469565d9a92" d="M526.36,3134.55c-43.85-.49-83.58-12.9-116.23-43-39-35.91-54.36-81.11-49.13-133.49,6.82-68.23,58.32-122.6,131.14-135.53,32.82-5.83,65.08-3.78,96.52,7.28,64.59,22.71,104.69,78.7,104.76,145.69.08,68.18-40.12,125.46-104.31,148.43A179.6,179.6,0,0,1,526.36,3134.55Zm.95-65.16c24.37.09,45-8.9,61.25-26.82,22.42-24.72,29-54.12,23-86.48-7.15-38.73-38.2-67.7-76.07-71.47-37.34-3.72-73.43,18.32-88.4,54.14-7.66,18.31-9.39,37.23-5.8,56.81C449.06,3037.93,485.4,3069.26,527.31,3069.39Z"/><path class="1b888547-799f-44c0-b517-6469565d9a92" d="M1340,3130H1094.85V2824.12c7.57-2,227.45-2.46,240.05-.5v59.9h-162c-.84,20.52-.34,40.3-.33,61.39,24.84.68,49,.23,73.22.31s48.48,0,73.26,0v60.86h-145.8c-1.57,21.17-.46,41.31-.76,62.8,4.4.18,8.24.46,12.07.46q71.49,0,143,0H1340Z"/><path class="1b888547-799f-44c0-b517-6469565d9a92" d="M3670.79,2882.94v62.64h145.93v60.52H3670.28c-.5,21.48-.35,41.91-.11,63.66h167.51v60.08H3594.32c-2.45-7.76-2.75-297-.29-306.74h237.58c2.13,7.75,2.4,48.52.22,59.84Z"/><path class="1b888547-799f-44c0-b517-6469565d9a92" d="M2569.25,3129.91H2487c-7.27-18.52-14.55-37-22.16-56.38h-10q-58,0-116,0c-10,0-10,0-13.66,9.25-6.15,15.47-12.27,30.95-18.59,46.89h-79.25q66.42-153.9,132.31-306.57h80.29Zm-127.12-115.68-43.49-112.52-2.68,0-44.37,112.49Z"/><path class="1b888547-799f-44c0-b517-6469565d9a92" d="M3057.59,2823.11h80.29l129.21,306.41h-82.25c-7.13-18.13-14.4-36.63-22-56h-10q-58,0-116,0c-10,0-10,0-13.68,9.24-6.14,15.47-12.27,30.95-18.59,46.9h-79.25Zm-7.8,190.64c15.62,2.1,81.88,1.49,88.87-.54-3.08-14.7-39.44-106.36-44.66-111.63C3079.3,2938.89,3064.73,2975.85,3049.79,3013.75Z"/><path class="1b888547-799f-44c0-b517-6469565d9a92" d="M1347.44,3083.62l29.32-58.44c3.34,2.36,6,4.17,8.56,6.08,26.64,19.79,56,33.31,89,38.42,13.32,2.06,26.66,2.14,39.3-3.32,18.3-7.9,21.46-29.39,6.2-42.24a57.72,57.72,0,0,0-12.72-7.77,125.39,125.39,0,0,0-16.8-6.33c-15.6-4.72-31.46-8.68-46.9-13.87a261.36,261.36,0,0,1-35-14.36c-57.62-29.29-52.17-104.83-11.74-136,17.38-13.39,37-21.24,58.3-24.52,51.82-8,100.72,1.4,146.76,26.25a69.88,69.88,0,0,1,5.93,3.7c.51.34.8,1,1.89,2.47-9.22,19.19-18.67,38.86-28.44,59.18-3.65-1.78-6.58-3.15-9.44-4.63-22-11.36-44.83-20.64-69.34-24.7-10.06-1.67-20.49-1.35-30.76-1.35-3.52,0-7.22,1.35-10.53,2.8-14.13,6.18-18.31,22.37-7.82,33.73a56.61,56.61,0,0,0,19.58,13.22c12.26,5.08,25.23,8.43,37.86,12.61,13.9,4.6,27.86,9,41.58,14.11,6.51,2.42,12.63,6,18.72,9.39,54.29,30.46,50.62,107.31,7.78,139-19.61,14.49-41.71,22.21-65.53,24.87-56.61,6.32-108.28-7.67-155.36-39.37-2.76-1.85-5.38-3.93-8-6A18.85,18.85,0,0,1,1347.44,3083.62Z"/><path class="1b888547-799f-44c0-b517-6469565d9a92" d="M1043,2912.94l-10.49-5.21c-26.67-13.33-54.12-24.44-84.29-26.06a64.83,64.83,0,0,0-24.46,3.22c-15.41,5.45-19.35,23.05-7.87,34.78a56.6,56.6,0,0,0,19,12.39c12.31,5,25.25,8.38,37.88,12.56,13.9,4.6,27.88,9,41.57,14.15,7.1,2.69,13.83,6.57,20.4,10.45,51.53,30.46,47.73,103.36,9.63,134.77-20.28,16.71-43.87,25.07-69.43,27.93-56.62,6.34-108.28-7.76-155.33-39.48-3.29-2.22-6.37-4.76-10.62-8l29.78-59.28c3.46,2.45,6.12,4.26,8.71,6.18,26.66,19.76,56,33.26,89,38.33,13,2,26,2.05,38.37-3.06,19.36-8,22.5-30.28,6-43.3a58.65,58.65,0,0,0-12.91-7.48,176,176,0,0,0-19.68-7.19c-14.33-4.33-28.95-7.79-43.13-12.58a261.9,261.9,0,0,1-35-14.41c-57.36-29.28-52-104.79-11.4-136,17.67-13.56,37.65-21.36,59.32-24.59,50-7.46,97.44,1.4,142.24,24.62,3.77,1.95,7.33,4.31,11.69,6.9C1062.17,2873,1052.72,2892.71,1043,2912.94Z"/><path class="1b888547-799f-44c0-b517-6469565d9a92" d="M715.3,2822.85h75.24c2.31,7.22,3,293.09.76,307H715.92a6.53,6.53,0,0,1-.63-.59c-.22-.25-.54-.52-.57-.81a39.16,39.16,0,0,1-.49-4.94q0-148.39.09-296.78A19.93,19.93,0,0,1,715.3,2822.85Z"/><path class="1b888547-799f-44c0-b517-6469565d9a92" d="M1741.8,3317.33v-74c10-.48,19.42-.79,29.37.3V3370c-8.41,0-16.66.49-24.79-.29-2.6-.25-5.35-3.5-7.24-6-15.33-20.14-30.47-40.44-45.68-60.68-2-2.65-4-5.25-6.68-8.64-3.12,6.56-1.42,12.77-1.69,18.7-.3,6.32-.07,12.66-.07,19v37.34h-29.25V3243c8.4,0,16.36-.49,24.21.27,2.64.25,5.51,3.27,7.37,5.71,15.56,20.4,30.9,41,46.32,61.46,1.95,2.59,4,5.08,6.06,7.62Z"/><path class="1b888547-799f-44c0-b517-6469565d9a92" d="M2589.72,3243c8.22,0,15.82.15,23.4-.06,4.58-.13,6.23,3.27,8.37,6.12q23.16,30.75,46.25,61.51c1.94,2.57,4,5,7.21,8.95,1.72-13.81.71-25.95.89-38,.18-12.29,0-24.58,0-37.94,9.76-1,18.91-.61,28-.29,2.25,7.08,3,111.19.83,126.78-8,0-16.27.49-24.41-.29-2.59-.25-5.3-3.57-7.19-6.06-15.33-20.15-30.47-40.45-45.68-60.69-2-2.65-4-5.25-6.84-8.84-2.86,8.94-1.15,17.12-1.46,25.11-.32,8.32-.07,16.66-.07,25v25.26h-29.3Z"/><path class="1b888547-799f-44c0-b517-6469565d9a92" d="M2190.4,3242.93c4.85,0,9.11-.08,13.36,0,17.94.4,36-.48,53.79,1.57,31.91,3.69,53.06,27.87,54,59.31,1,32.4-18.37,57.71-50,64-23.31,4.65-47,1.43-71.14,2.31Zm31.92,25.85v75.15c9.83,0,19.17.9,28.26-.22,12.08-1.48,20.63-8.66,25.22-20.15a43.26,43.26,0,0,0,.19-33.09c-5.15-13-15-20.23-28.71-21.55C2239.39,3268.16,2231.36,3268.78,2222.32,3268.78Z"/><path class="1b888547-799f-44c0-b517-6469565d9a92" d="M656.08,3370.17V3244.82c.85-.66,1.38-1.4,1.89-1.4,21.93.23,44-1,65.74,1.2,31.49,3.22,52.57,27.46,53.81,58.37,1.3,32.52-17.49,57.87-49.17,64.64C704.77,3372.68,680.78,3369.23,656.08,3370.17Zm32.16-25.86c7.2,0,13.18,0,19.16,0,26-.12,41.7-19.25,37-45-2.07-11.45-7.22-20.79-17.66-26.38-12.4-6.63-25.56-4.18-38.54-3.86Z"/><path class="1b888547-799f-44c0-b517-6469565d9a92" d="M3153.7,3306.77c-.18,31.68-21.77,57.44-53.06,63.57a77.94,77.94,0,0,1-38.49-1.87c-29.91-9.22-47.66-35.18-46.06-65.94,1.63-31.51,24.32-55.34,55.52-60.31a80.22,80.22,0,0,1,35.55,2.17C3135.92,3252.77,3153.87,3276.89,3153.7,3306.77Zm-104.69-.28c0,19.85,14,36.42,32.3,38.21,19.73,1.93,35.32-10.87,38.84-31.9,3.4-20.32-8.59-39.81-27.05-44C3070,3263.64,3049,3281.57,3049,3306.49Z"/><path class="1b888547-799f-44c0-b517-6469565d9a92" d="M2898.39,3242.85c22,0,43,0,63.94,0a30.94,30.94,0,0,1,4.94.64c18.34,3.06,33.27,11,37.84,30.49,4.85,20.71.74,39-18,51.93-.82.56-1.74,1-3.25,1.82l25.92,41.41c-6.79,1.61-12.67.72-18.43.88s-11.26,0-17.14,0l-18.91-35.62h-25.5v35.09h-31.42Zm31.79,65.34c10.41,0,20,.69,29.51-.19,10.54-1,16.08-8.23,16.34-19.12.27-11.41-4.67-19-15-20.07-10-1-20.28-.22-30.9-.22Z"/><path class="1b888547-799f-44c0-b517-6469565d9a92" d="M1467.2,3294.39v-50.92h31.17v124.94c-7.42,2.14-20.76,2.33-31.43.23V3321h-52.86v48.39h-30.62c-2.12-6.68-2.78-112-.65-125.73h30.7v50.77Z"/><path class="1b888547-799f-44c0-b517-6469565d9a92" d="M1998.59,3243.19v24.51H1932.4v25.8h59.42v25.16H1932.6v25.55c10.62.82,21.81.24,33,.34,11.3.11,22.6,0,34.73,0v24c-7.14,1.9-88,2.31-99.88.39V3243.19Z"/><path class="1b888547-799f-44c0-b517-6469565d9a92" d="M790.26,3369.44V3244.3c7-2.09,83.81-2.73,98.12-.76V3268H822.27v25.27c19.64,1.13,39.46-.13,59.71.73v24.55H822.45v25.72h68v25.18Z"/><path class="1b888547-799f-44c0-b517-6469565d9a92" d="M2727.48,3369.37V3243.24h97.58v24.59h-65.34v25.74h59.15v24.94h-59.16v25.72H2827v25.14Z"/><path class="1b888547-799f-44c0-b517-6469565d9a92" d="M2407.69,3243.52h30.73c.22,3.45.57,6.35.57,9.26.05,21,.48,42-.19,63A85.86,85.86,0,0,1,2434,3341c-4.54,12.95-14.4,21.47-27.17,26.25-17.92,6.7-36,6.56-53.6-.9-17.83-7.55-28.59-21.64-29.52-40.66-1.32-26.58-.37-53.28-.35-79.93,0-.58.53-1.15,1.1-2.29,2.27-.18,4.86-.52,7.44-.55,7.26-.08,14.53,0,22.41,0,.28,3.83.67,6.72.68,9.61.06,20,0,40,.05,60a79,79,0,0,0,.37,10c1.68,13,11.11,21.65,24.15,22.31,13.8.7,23.16-6,26.3-19.34a53.59,53.59,0,0,0,1.27-11.86c.12-20,0-40,.08-60C2407.22,3250.4,2407.51,3247.16,2407.69,3243.52Z"/><path class="1b888547-799f-44c0-b517-6469565d9a92" d="M2095.75,3243.18h33.12l53.21,126.21h-34L2139,3347h-55.49q-4.62,10.91-9.61,22.63h-32.6C2059.61,3327.07,2077.56,3285.4,2095.75,3243.18Zm33.47,78.58c-5.69-15.65-11.09-30-19-43.92-5.65,14.33-11.29,28.67-17.3,43.92Z"/><path class="1b888547-799f-44c0-b517-6469565d9a92" d="M1647.14,3369.71h-33.7l-9.59-22.7h-55.48c-3,7.32-6.22,14.9-9.41,22.52h-31.91c1.18-3.51,1.91-6.31,3-8.93,15.66-36.37,31.56-72.65,46.92-109.14,2.77-6.57,6.17-9.48,13.28-8.63a62.75,62.75,0,0,0,14,0c7-.74,10.6,1.71,13.33,8.52,10.91,27.17,22.54,54,33.9,81C1636.5,3344.3,1641.48,3356.22,1647.14,3369.71Zm-54.17-48c-1.53-9.67-12.63-37.79-17.62-44.37-5.8,14.83-11.44,29.25-17.34,44.37Z"/><path class="1b888547-799f-44c0-b517-6469565d9a92" d="M2580.34,3369.55H2547.2l-9.36-22.68h-55.48l-9.34,22.68h-31.59a49.87,49.87,0,0,1,1.81-6.75c16.14-37.62,32.47-75.16,48.39-112.86,2.37-5.62,5.52-7.54,11.3-7.1a105.66,105.66,0,0,0,17,0c5.93-.51,8.89,1.71,11.15,7.29,9.09,22.52,18.71,44.83,28.13,67.22q9.29,22.08,18.54,44.19C2578.7,3363.89,2579.33,3366.4,2580.34,3369.55ZM2492,3321.73h36.47c-6-15.45-11.59-29.9-17.2-44.35l-2,.27Z"/><path class="1b888547-799f-44c0-b517-6469565d9a92" d="M1257.14,3369.72h-33.7l-9.6-22.71h-55.47c-3.06,7.33-6.23,14.92-9.39,22.51h-31.93c1.19-3.51,1.92-6.31,3-8.94,15.66-36.37,31.56-72.64,46.92-109.14,2.77-6.59,6.2-9.45,13.29-8.61a63.35,63.35,0,0,0,14,0c7-.75,10.59,1.75,13.31,8.54,10.92,27.17,22.55,54,33.91,81C1246.51,3344.32,1251.48,3356.23,1257.14,3369.72Zm-70.22-93.32c-7.56,13.23-16.84,38.35-17,45.73,11.07-.18,22.16,1,34.32-.81Z"/><path class="1b888547-799f-44c0-b517-6469565d9a92" d="M1005.8,3256.36l-11.18,23.48c-4.21-1.88-7.69-3.78-11.38-5-7.88-2.58-15.87-4.82-23.82-7.14a18,18,0,0,0-3.93-.64c-8.2-.48-14.42,2.76-15.49,8-1,5,2.58,9.85,10.37,12.88,6.49,2.52,13.35,4.09,19.89,6.5,6.84,2.52,14,4.76,20.16,8.47,20.09,12,22.29,39.7,4.86,55.43-7.45,6.72-16.47,10.2-26.11,11.52-24.84,3.38-47.55-2.42-67.91-17.12a19.18,19.18,0,0,1-2.43-2.91c3.7-7.45,7.49-15.1,11.58-23.35,3,1.89,5.29,3.77,7.91,5,9,4.12,18,8.55,27.34,11.74,4.84,1.64,10.52,1.46,15.76,1.11,6.56-.44,10.83-4.36,11.59-9.22.67-4.36-2-9.16-7.68-11.65-6.38-2.76-13.18-4.53-19.76-6.82-6.89-2.41-14-4.43-20.57-7.49-26.27-12.17-23.65-46.53-2.58-59.42,9.7-5.93,20.33-8.32,31.38-8.66a94.64,94.64,0,0,1,46.22,10.48,34.11,34.11,0,0,1,4.21,2.64A11.11,11.11,0,0,1,1005.8,3256.36Z"/><path class="1b888547-799f-44c0-b517-6469565d9a92" d="M1020.41,3242.89c21.68,0,42.32-.49,62.91.27,7.08.26,14.37,2.88,21,5.77,9.91,4.33,16.18,12.42,19.4,22.87,10.33,33.57-10.13,61-46.62,62.21-7.95.27-15.92,0-25.22,0v35.48h-31.45Zm31.95,25.46v39.86c9.25,0,17.9.68,26.4-.18,10.87-1.09,16.72-8.78,16.7-20.05s-6-18.57-17.1-19.49C1069.87,3267.79,1061.28,3268.35,1052.36,3268.35Z"/><path class="1b888547-799f-44c0-b517-6469565d9a92" d="M1370.36,3262.87c-6.06,7.3-11.75,14.16-17.42,21-24.72-18.82-42.63-20.5-57.28-5.7-13.48,13.62-14.34,38.22-1.86,53.13,13.57,16.22,31.61,15.74,59.19-1.9,5.56,6,11.19,12.06,16.75,18.05-10.37,17.67-41.68,28.17-67,22.76-27.87-5.94-47.52-28.26-50.44-58.56-2.39-24.8,9.54-50.9,36.06-63.61C1317.92,3233.86,1352.63,3243.21,1370.36,3262.87Z"/><path class="1b888547-799f-44c0-b517-6469565d9a92" d="M1890,3243.32v24.57h-37.82v101.48h-32c-.55-33.12,0-66.29-.34-100.8h-37.2V3243.8C1790,3241.87,1876.7,3241.4,1890,3243.32Z"/><path class="1b888547-799f-44c0-b517-6469565d9a92" d="M1224.94,2721.37l66.8,23.51a56.29,56.29,0,0,1-4.7,5.46q-22.53,19.72-45.18,39.33c-3,2.6-5.78,5.07-10.4,5-16-.31-31.94-.14-47.92-.2-.89,0-1.78-.46-4-1.07C1194.68,2769.39,1209.48,2745.92,1224.94,2721.37Z"/><path class="1b888547-799f-44c0-b517-6469565d9a92" d="M2114.68,3134.23c-21.3-.38-35.54-15.72-35-37.67.55-20.95,15.76-35.1,37.06-34.46s35.41,15.32,35.06,36.55C2151.49,3120.14,2136.37,3134.62,2114.68,3134.23Z"/><path class="1b888547-799f-44c0-b517-6469565d9a92" d="M388.4,3317.34v-17.73H596.8c.23,3.1.53,6,.64,8.85.11,2.64,0,5.28,0,7.73C589.81,3318.52,410.38,3319.46,388.4,3317.34Z"/><path class="1b888547-799f-44c0-b517-6469565d9a92" d="M2876.46,3243.54v125.91h-30.68V3243.54Z"/><path class="1b888547-799f-44c0-b517-6469565d9a92" d="M3226.52,3317.31v-17.72h186.55v16.85C3406,3318.49,3246.67,3319.33,3226.52,3317.31Z"/></g></g></svg>