<svg xmlns="http://www.w3.org/2000/svg" viewBox="0 0 423.64 354.43"><defs><style>.\36 d42d2a6-8064-4d25-ad7f-34b726bd818c{fill:#fff;}</style></defs><title>Asset 5</title><g id="01d401d9-feb3-40ba-9ad5-1bee4e66f43c" data-name="Layer 2"><g id="945b6964-237c-4c8a-a5ac-404ede5b2e9c" data-name="Layer 1"><path class="6d42d2a6-8064-4d25-ad7f-34b726bd818c" d="M353,171.66V261.4c0,1.64.05,3.29-.05,4.94,0,.34-.58.67-.93,1-.13.1-.39,0-.59,0q-17.82,0-35.63,0c-1,0-1.46-.26-1.64-1.33-1.35-8.39-2.76-16.77-4.15-25.15q-2.47-14.83-4.94-29.65-2.32-14-4.66-28T295.72,155c-.86-5.23-1.46-10.52-2.58-15.7-1.07-4.88-.84-9.77-.86-14.66,0-14.48,0-29,0-43.43,0-1.07.32-1.36,1.36-1.36q29,0,58.07,0c1.22,0,1.34.5,1.34,1.5Q353,126.49,353,171.66Z"/><path class="6d42d2a6-8064-4d25-ad7f-34b726bd818c" d="M117.46,30.38H217c-17,42.24-34,84.41-51.09,126.88Z"/><path class="6d42d2a6-8064-4d25-ad7f-34b726bd818c" d="M98.66,131.11q27.6,68.07,55.21,136.23H78.56q9.93-68.19,19.83-136.23Z"/><path class="6d42d2a6-8064-4d25-ad7f-34b726bd818c" d="M234.38,131.1q9.9,68,19.83,136.19H178.92q27.6-68.13,55.19-136.18Z"/><path class="6d42d2a6-8064-4d25-ad7f-34b726bd818c" d="M322.36,58.58H292.85c-2.22,0-2.16,0-2.78-2.11s-1.47-4.41-2.15-6.64c-.93-3-1.87-6.11-2.68-9.2S283.72,34.23,283,31c-.27-1.2-.42-2.42-.64-3.63-.41-2.25-.8-4.52-1.29-6.75a1.76,1.76,0,0,0-1-1,4.33,4.33,0,0,1-3.14-3.14c-.41-1.92-.16-3.77,1.61-5a4.77,4.77,0,0,1,4.75-.37,3.79,3.79,0,0,1,2.38,3.44c.15,1.81-.23,3.32-1.84,4.34-.67.43-.64.91-.27,1.52,2.39,4,4.74,8,7.16,11.93a51,51,0,0,0,7.38,9.57c.47.47,1.08.81,1.59,1.25,2.07,1.74,4.22,1.08,5.72-.77A60.18,60.18,0,0,0,313.73,28c1.38-3.18,2.91-6.3,4.34-9.46.9-2,1.74-4,2.59-6,.31-.73,0-1.16-.67-1.51a5.75,5.75,0,0,1-3.29-5.71,5.58,5.58,0,0,1,3.81-5c3.62-1.15,6.36.56,7.67,3.74,1,2.35-.65,5.8-3.31,7.07-.79.38-.77.73-.49,1.38,1.52,3.53,2.95,7.1,4.54,10.59a119.43,119.43,0,0,0,8.95,17.11,16.19,16.19,0,0,0,2,2.49c2.2,2.14,4,1.82,6.54-.45A42.69,42.69,0,0,0,354,32.81c2.49-4,4.78-8.11,7.23-12.13.58-.95.31-1.47-.42-2.12a4.48,4.48,0,0,1,.64-7.32,5.75,5.75,0,0,1,5,.19,4.72,4.72,0,0,1,1.67,4.94c-.4,1.91-1.66,2.71-3.27,3.23a1.36,1.36,0,0,0-1,1.23c-.5,2.32-1.11,4.62-1.65,6.93-.48,2.09-.9,4.18-1.38,6.27s-1.05,4.38-1.57,6.58c-.46,2-.84,4-1.36,5.9-.58,2.25-1.25,4.48-1.93,6.71-.47,1.51-1.06,3-1.5,4.5-.22.75-.66.88-1.33.87-2.68,0-5.36,0-8,0Z"/><path class="6d42d2a6-8064-4d25-ad7f-34b726bd818c" d="M0,288.39c2.6,0,5,0,7.38,0,.29,0,.68.58.81,1q2.55,7.39,5,14.82c.17.48.36,1,.62,1.68,1.32-3.76,2.54-7.27,3.77-10.79.69-2,1.37-4,2.1-6,.13-.34.52-.8.8-.81,2.31-.07,4.63,0,7.07,0v34.78c-2.38-.12-4.77-.22-7.14-.41-.23,0-.57-.67-.58-1,0-3.92,0-7.84.07-11.76a4.65,4.65,0,0,0-.17-1.49c-.17.46-.36.9-.5,1.36-.72,2.49-1.45,5-2.12,7.47a.92.92,0,0,1-1.07.82c-1.48,0-3-.06-4.44,0-.77,0-1-.3-1.21-1-.8-2.87-1.63-5.73-2.66-8.58v14.19L0,323.06Z"/><path class="6d42d2a6-8064-4d25-ad7f-34b726bd818c" d="M308.73,322.67l-7.76.39V288.39c2.55,0,5,0,7.4,0,.28,0,.66.6.79,1,1.7,4.93,3.36,9.87,5,14.81.16.48.35.95.62,1.65,1.62-4.66,3.17-9.08,4.71-13.51.39-1.13.75-2.27,1.2-3.37a1.2,1.2,0,0,1,.78-.69c2.3-.05,4.61,0,7.05,0v34.78l-7.68-.39V308.42l-.16-.06c-.16.47-.36.92-.49,1.39-.68,2.38-1.38,4.74-2,7.13a1.29,1.29,0,0,1-1.58,1.15,30.59,30.59,0,0,0-3.83,0,1.22,1.22,0,0,1-1.48-1.09c-.75-2.84-1.6-5.65-2.62-8.45Z"/><path class="6d42d2a6-8064-4d25-ad7f-34b726bd818c" d="M187.7,308.19v14.48l-7.66.39V288.39c2.55,0,4.94,0,7.32,0,.34,0,.78.6.95,1,2,4.57,3.92,9.16,5.87,13.74a3.39,3.39,0,0,0,.73,1.17V288.48h7.67V323c-1.77,0-3.59,0-5.41,0-2.82,0-2.82,0-3.91-2.53L188.34,309c-.12-.28-.26-.55-.39-.83Z"/><path class="6d42d2a6-8064-4d25-ad7f-34b726bd818c" d="M361.27,322.67l-7.75.39V288.4c2.59,0,5.06,0,7.52,0,.29,0,.64.63.82,1q2.94,6.87,5.85,13.75a3,3,0,0,0,.75,1.13V288.49H376c0,.43.08.73.08,1,.05,10.59.08,21.19.17,31.78,0,1.19-.25,1.7-1.56,1.65-2-.07-3.91,0-5.87.11a1.25,1.25,0,0,1-1.4-.93c-1.78-4.31-3.63-8.59-5.45-12.88a3,3,0,0,0-.73-1.08Z"/><path class="6d42d2a6-8064-4d25-ad7f-34b726bd818c" d="M112.49,288.1c4.13,0,8.16,0,12.19,0a12,12,0,0,1,2.6.35,9.3,9.3,0,0,1,7.57,8.86,21.13,21.13,0,0,1-.54,6,8.5,8.5,0,0,1-4.63,5.89l5,13.66c-2.73,0-5.23,0-7.72,0-.28,0-.65-.52-.78-.86-1.35-3.54-2.7-7.08-4-10.64-.34-.94-.8-1.32-1.88-.95v12.25l-7.8.4Zm7.85,8.1v6c1.52,0,3,.09,4.37,0a2.53,2.53,0,0,0,2.59-2.58c.09-1.92-.66-3.21-2.25-3.39A43.28,43.28,0,0,0,120.34,296.2Z"/><path class="6d42d2a6-8064-4d25-ad7f-34b726bd818c" d="M322.38,69.91H292.53c-1.78,0-1.78,0-1.79-1.82s0-3.83,0-5.75c0-1.63.06-1.69,1.68-1.69h55.4c1.64,0,3.28.05,4.92,0,1.07,0,1.52.3,1.48,1.43-.07,2.12-.08,4.24,0,6.36,0,1.17-.37,1.51-1.51,1.51C342.61,69.89,332.5,69.91,322.38,69.91Z"/><path class="6d42d2a6-8064-4d25-ad7f-34b726bd818c" d="M136.83,305.36c.18-3.26.13-6.56.6-9.79.72-5,4.35-8,9.4-7.92a23.4,23.4,0,0,1,6.47.83,8.32,8.32,0,0,1,6,7.93,167.64,167.64,0,0,1-.19,19c-.37,5.34-4,8.32-9.35,8.54a21.31,21.31,0,0,1-5.1-.42,9.13,9.13,0,0,1-7.48-8.13c-.2-1.66-.2-3.34-.24-5s0-3.35,0-5Zm15,.56h-.08v-3.35c0-1.16,0-2.32,0-3.48,0-2.58-1.4-3.76-4.11-3.5-2.13.21-3.14,1.09-3.14,3,0,4.87.09,9.74.2,14.61a3.15,3.15,0,0,0,.63,1.74c.78,1.05,3.12,1.39,4.7.82,1.29-.47,1.79-1.25,1.8-3C151.9,310.47,151.88,308.2,151.88,305.92Z"/><path class="6d42d2a6-8064-4d25-ad7f-34b726bd818c" d="M30.06,288.12c2.38,0,4.58,0,6.77,0,1,0,.84.62.84,1.21q0,7.74,0,15.47c0,2.64,0,5.28,0,7.92,0,1.75.47,2.61,1.83,3,1.6.47,3.31.69,4.6-.65a3.74,3.74,0,0,0,.72-2.31c.07-3.39,0-6.79,0-10.19q0-6.66,0-13.32a9.37,9.37,0,0,1,.12-1h6.84c.94,0,.71.7.71,1.2,0,5.12-.08,10.24-.11,15.35,0,2.88,0,5.76,0,8.64a15,15,0,0,1-.59,3.77c-1.27,4.32-4.15,6.54-8.93,6.77a20.93,20.93,0,0,1-5.23-.42,9,9,0,0,1-7.44-8.14,72.52,72.52,0,0,1-.26-7.66c0-6,.05-12,.09-18C30,289.24,30,288.73,30.06,288.12Z"/><path class="6d42d2a6-8064-4d25-ad7f-34b726bd818c" d="M331,288.5h20.14v7.55h-12.4v5.88h10v7.64h-10v5.64H340c3.35,0,6.71.1,10.07.09,1,0,1.22.35,1.19,1.27-.06,2,0,4.07,0,6.3H331Z"/><path class="6d42d2a6-8064-4d25-ad7f-34b726bd818c" d="M231.39,288.54h20.19v7.51H239.14V302h10v7.6h-10v5.65h1.24c3.36,0,6.72.09,10.08.09.94,0,1.23.32,1.2,1.25-.06,2.07,0,4.14,0,6.36H231.39Z"/><path class="6d42d2a6-8064-4d25-ad7f-34b726bd818c" d="M54.38,320.73l2.7-7.3c1.88.74,3.61,1.57,5.43,2.09a15.11,15.11,0,0,0,4.66.63,1.6,1.6,0,0,0,1.12-2.79A25.28,25.28,0,0,0,64.43,310c-1.83-1.35-3.85-2.44-5.64-3.84a10.26,10.26,0,0,1-4-11.23c.94-4.05,3.83-5.89,7.52-6.81,5.19-1.29,9.85.16,14.32,3l-4.11,6.34c-2.15-.74-4.14-1.54-6.2-2.07a5.66,5.66,0,0,0-2.81.25,1.53,1.53,0,0,0-.78,2.63,11.48,11.48,0,0,0,2.07,2c1.44,1.06,3,2,4.44,3,1.27.9,2.53,1.82,3.71,2.83,5,4.29,3.59,11.62.82,15A8,8,0,0,1,67.94,324C63.13,324.38,58.74,322.92,54.38,320.73Z"/><path class="6d42d2a6-8064-4d25-ad7f-34b726bd818c" d="M100.14,291.1,96,297.44c-2.14-.73-4.13-1.53-6.19-2.06a5.56,5.56,0,0,0-2.81.24,1.5,1.5,0,0,0-.79,2.61,17.94,17.94,0,0,0,2.93,2.64c2,1.45,4.12,2.74,6.12,4.19,6.43,4.68,5,12.15,2,16A7.91,7.91,0,0,1,91.35,324c-4.77.34-9.11-1.13-13.45-3.28l2.7-7.31c1.87.73,3.6,1.56,5.42,2.08a14.78,14.78,0,0,0,4.66.64,1.59,1.59,0,0,0,1.13-2.77A24.29,24.29,0,0,0,88,310c-1.83-1.35-3.85-2.45-5.64-3.84a10.27,10.27,0,0,1-4-11.22c.93-4.06,3.82-5.91,7.51-6.83C91,286.83,95.66,288.27,100.14,291.1Z"/><path class="6d42d2a6-8064-4d25-ad7f-34b726bd818c" d="M275.58,291.1l-4.12,6.36c-2.06-.72-4-1.5-6-2a5.81,5.81,0,0,0-2.71.11c-1.57.35-2,1.66-.94,2.88a12,12,0,0,0,2,1.88c1.48,1.08,3.05,2,4.55,3.1,1.17.83,2.33,1.68,3.43,2.61,5,4.2,3.85,11,1.27,14.67a7.72,7.72,0,0,1-5.74,3.32c-5,.49-9.51-1-14-3.26.91-2.44,1.78-4.82,2.71-7.33.84.35,1.58.72,2.35,1,2,.66,4,1.33,6,1.88a4,4,0,0,0,1.88-.09,1.64,1.64,0,0,0,1.05-2.67,8.42,8.42,0,0,0-1.89-2c-1.71-1.25-3.53-2.34-5.24-3.58a38,38,0,0,1-4.18-3.39c-4.42-4.31-3.74-14.21,4.57-16.29C266.1,286.89,270.92,288.17,275.58,291.1Z"/><path class="6d42d2a6-8064-4d25-ad7f-34b726bd818c" d="M423.64,291.13l-4.09,6.32c-2.08-.72-4-1.51-6.05-2a5.9,5.9,0,0,0-2.82.15,1.58,1.58,0,0,0-.87,2.75,17.69,17.69,0,0,0,2.86,2.54c2,1.45,4.12,2.75,6.12,4.2,6.44,4.67,5,12.12,2,16a7.71,7.71,0,0,1-5.91,3,25,25,0,0,1-13.46-3.32l2.69-7.3c.85.35,1.59.73,2.37,1,2,.66,4,1.31,6,1.88a3.69,3.69,0,0,0,1.65-.05c1.61-.33,2.21-1.7,1.11-2.92A24.13,24.13,0,0,0,411.5,310c-1.83-1.34-3.84-2.45-5.64-3.83a10.33,10.33,0,0,1-4.23-10.52c.65-3.9,3.36-6.6,7.79-7.58A18,18,0,0,1,423.64,291.13Z"/><path class="6d42d2a6-8064-4d25-ad7f-34b726bd818c" d="M217.58,312.2l1.17-6.3q1.55-8.36,3.07-16.69c.1-.55.2-.87.86-.86,2.39,0,4.78,0,7.31,0L222,323H212c-2.56-11.41-5.11-22.82-7.7-34.38,1-.09,2-.2,2.95-.26,1.48-.09,3-.11,4.43-.23.75-.07,1.06.14,1.21.9,1.44,7.71,2.92,15.41,4.39,23.12Z"/><path class="6d42d2a6-8064-4d25-ad7f-34b726bd818c" d="M291.89,295.81v26.86l-7.74.39V295.75h-6.59v-7.49h21v7.55Z"/><path class="6d42d2a6-8064-4d25-ad7f-34b726bd818c" d="M385.19,295.69H378.6v-7.42h21v7.54H393v26.86l-7.77.39Z"/><path class="6d42d2a6-8064-4d25-ad7f-34b726bd818c" d="M102.28,288.49h7c.84,0,.67.65.67,1.13q0,6,0,12.11,0,9.82,0,19.66v1.28l-7.68.39Z"/><path class="6d42d2a6-8064-4d25-ad7f-34b726bd818c" d="M342.75,41.09a10.66,10.66,0,0,1-2.39-1.49c-1.66-1.76-3.2-3.63-4.68-5.54a1.83,1.83,0,0,1,.07-1.59c1.38-2.44,2.85-4.84,4.31-7.23a1.12,1.12,0,0,0-.27-1.72c-1.79-1.54-2.07-2.94-1.19-5.09.62-1.52,3.15-2.13,5.06-1.4,2.3.88,2.88,4.65.73,6.23-1.08.8-.93,1.49-.3,2.46,1.78,2.76,3.51,5.56,5.21,8.37a1.38,1.38,0,0,1,.11,1.19c-1.45,1.87-2.7,3.95-4.9,5.1C344,40.63,343.51,40.79,342.75,41.09Z"/><path class="6d42d2a6-8064-4d25-ad7f-34b726bd818c" d="M302.7,24.18c2,3.21,3.88,6.32,5.87,9.37.57.88.79,1.54,0,2.36-1.26,1.32-2.44,2.73-3.76,4s-2.64,1.32-4.2.26c-2.42-1.66-3.92-4.13-5.59-6.44a1.13,1.13,0,0,1,.11-.95q2.31-3.89,4.68-7.72c.39-.64.27-1-.33-1.49-2.28-1.82-2.2-4.32-.49-6a4,4,0,0,1,5.49.41,4,4,0,0,1-.84,5.68C303.44,23.8,303.23,23.89,302.7,24.18Z"/><path class="6d42d2a6-8064-4d25-ad7f-34b726bd818c" d="M411.16,46A11.37,11.37,0,1,1,400,34.65,11.2,11.2,0,0,1,411.16,46Zm-2.59.06a8.71,8.71,0,0,0-8.63-8.77,8.83,8.83,0,1,0,8.63,8.77Z"/><path class="6d42d2a6-8064-4d25-ad7f-34b726bd818c" d="M170.57,300.24c0-3.55,0-7.1,0-10.66,0-.87.24-1.21,1.15-1.2,1.35,0,2.71-.13,4.06-.2,1.51-.08,1.56,0,1.57,1.45q0,7.85.1,15.7c0,1.83.05,3.67.13,5.51,0,.79-.21,1.15-1.07,1.16-1.6,0-3.2.09-4.79.2-.91.07-1.16-.3-1.15-1.17C170.59,307.43,170.57,303.84,170.57,300.24Z"/><path class="6d42d2a6-8064-4d25-ad7f-34b726bd818c" d="M185.78,354.19c-1.14,0-2,.05-2.8,0a1.5,1.5,0,0,1-.92-.59,11.59,11.59,0,0,1-.78-1.48c-1-1.95-1.24-2-3.72-1.56,0,.87,0,1.78,0,2.69,0,.73-.28,1-1,1a6.49,6.49,0,0,0-1.08,0c-.86.09-1.09-.32-1.08-1.13q0-5.34,0-10.68c0-.86.23-1.24,1.15-1.19,2.11.11,4.24.06,6.34.26a3.66,3.66,0,0,1,3.43,2.89,4.28,4.28,0,0,1-1.26,4.69c-.84.69-.79,1.18-.25,2C184.47,351.94,185,353,185.78,354.19Zm-8.14-6.28c1.09,0,2.12.07,3.13,0a2,2,0,0,0,1.81-2.13,1.87,1.87,0,0,0-1.72-2.07,32.76,32.76,0,0,0-3.3,0c0,1.11,0,2.1,0,3.08C177.57,347.1,177.61,347.44,177.64,347.91Z"/><path class="6d42d2a6-8064-4d25-ad7f-34b726bd818c" d="M115.86,349h-5.74c0,1.32-.05,2.62,0,3.92.05,1-.24,1.35-1.27,1.32-1.88,0-1.88,0-1.88-1.89,0-3.32,0-6.64,0-10,0-.9.3-1.25,1.18-1.16a6.49,6.49,0,0,0,1.08,0c.69,0,.92.29.9.94,0,1.39,0,2.78,0,4.25h5.74c0-1.34,0-2.65,0-3.95,0-.92.24-1.37,1.22-1.25.35.05.77-.1,1.06,0s.84.54.84.82q.09,5.64,0,11.28c0,.29-.49.67-.84.82s-.79,0-1.19,0c-.86.08-1.11-.32-1.08-1.13C115.89,351.76,115.86,350.44,115.86,349Z"/><path class="6d42d2a6-8064-4d25-ad7f-34b726bd818c" d="M276.9,349h-5.74c0,1.33-.05,2.63,0,3.93.06,1-.26,1.34-1.28,1.31-1.87,0-1.87,0-1.87-1.9,0-3.28,0-6.56,0-9.84,0-1,.33-1.4,1.31-1.26a.48.48,0,0,0,.12,0c1.73,0,1.72,0,1.73,1.67,0,1.08,0,2.16,0,3.24,0,.07.06.14.13.29h5.57c0-1.36.05-2.67,0-4,0-.93.26-1.35,1.22-1.24.36.05.78-.1,1.07,0s.83.54.83.83q.09,5.64,0,11.28c0,.28-.5.67-.85.81s-.79,0-1.18,0c-.88.08-1.11-.34-1.08-1.14C276.93,351.75,276.9,350.43,276.9,349Z"/><path class="6d42d2a6-8064-4d25-ad7f-34b726bd818c" d="M290.93,341.21a6.85,6.85,0,0,1,7.11,6.61c0,3.68-3.13,6.56-7.13,6.61a6.62,6.62,0,1,1,0-13.22Zm0,10.62a4,4,0,1,0-3.87-4.07A4,4,0,0,0,290.93,351.83Z"/><path class="6d42d2a6-8064-4d25-ad7f-34b726bd818c" d="M127,343.63v2.86c1.69,0,3.31,0,4.94,0,.88,0,1.3.17,1.3,1.18s-.37,1.31-1.34,1.27c-1.59-.07-3.18,0-4.87,0v2.86c1.9,0,3.8.06,5.7,0,1.11-.05,1.5.3,1.43,1.42-.06.78-.32,1-1.08,1q-4.14,0-8.28,0c-.81,0-1-.32-1-1.08,0-3.59,0-7.19,0-10.79,0-.81.23-1.15,1.09-1.13q3.95.06,7.91,0c.94,0,1.15.37,1.14,1.21s-.12,1.28-1.1,1.25C130.9,343.59,129,343.63,127,343.63Z"/><path class="6d42d2a6-8064-4d25-ad7f-34b726bd818c" d="M163,343.63v2.86c1.65,0,3.28,0,4.89,0,.95,0,1.35.21,1.36,1.26s-.53,1.22-1.41,1.19c-1.58,0-3.17,0-4.83,0v2.86c2,0,3.89,0,5.8,0,.93,0,1.36.18,1.37,1.25s-.51,1.22-1.4,1.2c-2.6,0-5.2,0-7.8,0-.86,0-1.21-.22-1.2-1.14,0-3.6,0-7.2,0-10.8,0-.76.24-1.07,1-1.06,2.68,0,5.36.05,8,0,1,0,1.06.51,1.07,1.28s-.14,1.2-1,1.18C167,343.59,165,343.63,163,343.63Z"/><path class="6d42d2a6-8064-4d25-ad7f-34b726bd818c" d="M206.67,343.63v2.86c1.62,0,3.24.08,4.86,0,1.2-.08,1.43.44,1.37,1.47,0,.72-.29,1-1,1-1.71,0-3.42,0-5.21,0v2.86c1.95,0,3.86,0,5.76,0,.9,0,1.4.1,1.4,1.21s-.46,1.25-1.38,1.24c-2.6,0-5.2,0-7.79,0-.84,0-1.24-.17-1.23-1.12q.06-5.4,0-10.79c0-.86.33-1.1,1.14-1.09,2.64,0,5.28.05,7.91,0,1,0,1.09.46,1.1,1.26s-.22,1.23-1.15,1.2C210.57,343.59,208.69,343.63,206.67,343.63Z"/><path class="6d42d2a6-8064-4d25-ad7f-34b726bd818c" d="M328.1,348.91v2.86c2,0,3.86.07,5.76,0,1.15-.06,1.48.36,1.4,1.44-.05.69-.23,1-1,1-2.79,0-5.59,0-8.39,0-.71,0-1-.24-1-1,0-3.68,0-7.35,0-11,0-.73.27-1,1-1,2.72,0,5.44,0,8.15,0,1,0,1,.52,1,1.23s0,1.24-1,1.21c-1.94-.05-3.89,0-5.91,0v2.86c1.71,0,3.33,0,5,0,.91,0,1.29.23,1.28,1.21s-.27,1.29-1.24,1.25C331.48,348.86,329.85,348.91,328.1,348.91Z"/><path class="6d42d2a6-8064-4d25-ad7f-34b726bd818c" d="M148,350.48c0,.89,0,1.76,0,2.63s-.31,1.17-1.12,1.08a4.4,4.4,0,0,0-1,0c-.87.09-1.09-.33-1.08-1.13,0-3.59,0-7.19,0-10.78,0-.54,0-1.1.75-1.07,2.19.06,4.39,0,6.56.25a4,4,0,0,1,3.51,4.18,4.26,4.26,0,0,1-3.42,4.44C151,350.32,149.61,350.35,148,350.48Zm.07-2.58a27.87,27.87,0,0,0,2.9,0,2,2,0,0,0,1.79-2.18,1.94,1.94,0,0,0-1.81-2c-.93-.09-1.88,0-2.88,0Z"/><path class="6d42d2a6-8064-4d25-ad7f-34b726bd818c" d="M321.12,343.43l-1.54,1.87-1.12-.72a3.85,3.85,0,0,0-5.12.42,4.11,4.11,0,0,0-.2,5.28,3.86,3.86,0,0,0,5,.92c1.73-.89,1.73-.89,2.89.83-1.08,1.78-4.17,2.74-6.85,2.14a6.39,6.39,0,0,1-5-6.09,6.19,6.19,0,0,1,4-6.23A7.22,7.22,0,0,1,321.12,343.43Z"/><path class="6d42d2a6-8064-4d25-ad7f-34b726bd818c" d="M229.13,352.15a7.19,7.19,0,0,1-10,.36,6.56,6.56,0,0,1-.1-9.26,7.31,7.31,0,0,1,10.15.13l-1.56,1.94c-.47-.32-.85-.6-1.25-.85a3.85,3.85,0,0,0-5,.58,4.12,4.12,0,0,0-.18,5.19,3.82,3.82,0,0,0,4.84,1l.21-.11C227.9,350.29,228,350.33,229.13,352.15Z"/><path class="6d42d2a6-8064-4d25-ad7f-34b726bd818c" d="M264,343.43l-1.55,1.85a18,18,0,0,0-1.95-1.14,3.68,3.68,0,0,0-4.51,1.12,4.09,4.09,0,0,0-.06,4.91,3.78,3.78,0,0,0,4.37,1.32,5.18,5.18,0,0,0,.76-.34c1.61-.86,1.82-.79,2.82,1-2.17,2.73-7,3-9.79.52a6.57,6.57,0,0,1-.31-9.35A7.3,7.3,0,0,1,264,343.43Z"/><path class="6d42d2a6-8064-4d25-ad7f-34b726bd818c" d="M193.16,349.39c0,1.37,0,2.53,0,3.68,0,.81-.22,1.21-1.09,1.13-.39,0-.84.1-1.18,0s-.84-.53-.84-.82c-.06-3.75,0-7.5-.05-11.26,0-.7.35-.88,1-.88,2.56,0,5.12,0,7.67,0,.95,0,1,.5,1,1.21s0,1.26-1,1.23c-1.78-.05-3.57,0-5.43,0V347c1.58,0,3.09,0,4.59,0,1,0,1.23.37,1.23,1.27s-.31,1.22-1.2,1.18C196.34,349.35,194.83,349.39,193.16,349.39Z"/><path class="6d42d2a6-8064-4d25-ad7f-34b726bd818c" d="M97.8,341.21c1.43,0,2.87,0,4.31,0,.91,0,1.19.34,1.17,1.2s-.12,1.26-1.1,1.29c-2.86.08-2.86.12-2.86,3.05,0,2.12,0,4.23,0,6.35,0,.84-.27,1.19-1.11,1.11a3.85,3.85,0,0,0-1,0c-.85.09-1.11-.3-1.09-1.12,0-2.68,0-5.36,0-8,0-1-.28-1.5-1.34-1.38a9.73,9.73,0,0,1-1.08,0c-1.47,0-1.56-.13-1.49-1.56,0-.68.3-.92.95-.91C94.76,341.23,96.28,341.21,97.8,341.21Z"/><path class="6d42d2a6-8064-4d25-ad7f-34b726bd818c" d="M237.41,341.21c1.48,0,3,0,4.43,0,1,0,1.12.45,1.12,1.25s-.22,1.22-1.15,1.24c-2.81.05-2.81.09-2.81,2.86,0,2.2,0,4.4,0,6.59,0,.77-.26,1.12-1,1.05a5.56,5.56,0,0,0-1.08,0c-.79.07-1-.29-1-1.06,0-2.71,0-5.43,0-8.15,0-1-.26-1.43-1.28-1.32a11.81,11.81,0,0,1-1.19,0c-1.41,0-1.47-.11-1.44-1.5,0-.73.29-1,1-1C234.45,341.23,235.93,341.21,237.41,341.21Z"/><path class="6d42d2a6-8064-4d25-ad7f-34b726bd818c" d="M170.56,318.8c0-.92,0-1.84,0-2.75,0-.71.23-1,1-1,1.8.08,3.59.12,5.39.15.65,0,.94.3,1,.95,0,1.8.1,3.6.17,5.39,0,.71-.23,1-1,1-1.79.05-3.59.14-5.38.26-.87.06-1.26-.23-1.22-1.14s0-1.92,0-2.88Z"/><path class="6d42d2a6-8064-4d25-ad7f-34b726bd818c" d="M301.86,347.58c0-1.76,0-3.52,0-5.27,0-.83.27-1.19,1.1-1.11.4,0,.85-.1,1.19,0s.82.55.82.84q.09,5.63,0,11.25c0,.29-.49.67-.83.83s-.71,0-1.06,0c-1,.11-1.26-.3-1.23-1.24C301.9,351.17,301.86,349.37,301.86,347.58Z"/><path class="6d42d2a6-8064-4d25-ad7f-34b726bd818c" d="M402.81,47.61,405,51.13c-1,0-1.93,0-2.81,0-.17,0-.37-.25-.49-.43a5.32,5.32,0,0,1-.6-1.16c-.45-1.43-1.4-1.79-2.89-1.36v2.92h-2.54V40.46c2,0,3.91-.12,5.84,0a3.17,3.17,0,0,1,3,2.49,3.92,3.92,0,0,1-1.18,4.14ZM398.25,46c1.32-.35,2.83.51,3.59-1a2.21,2.21,0,0,0-.13-2c-.9-1.13-2.24-.52-3.46-.61Z"/></g></g></svg>